G04 #@! TF.FileFunction,Profile,NP*
%FSLAX46Y46*%
G04 Gerber Fmt 4.6, Leading zero omitted, Abs format (unit mm)*
G04 Created by KiCad (PCBNEW 4.0.2-stable) date Sunday, 21 August 2016 'pmt' 15:41:42*
%MOMM*%
G01*
G04 APERTURE LIST*
%ADD10C,0.100000*%
G04 APERTURE END LIST*
D10*
X38000000Y0D02*
G75*
G03X36000000Y-2000000I0J-2000000D01*
G01*
X54000000Y-2000000D02*
G75*
G03X52000000Y0I-2000000J0D01*
G01*
X52000000Y-25000000D02*
G75*
G03X54000000Y-23000000I0J2000000D01*
G01*
X36000000Y-23000000D02*
G75*
G03X38000000Y-25000000I2000000J0D01*
G01*
X38000000Y0D02*
X52000000Y0D01*
X54000000Y-2000000D02*
X54000000Y-23000000D01*
X52000000Y-25000000D02*
X38000000Y-25000000D01*
X36000000Y-23000000D02*
X36000000Y-2000000D01*
X36000000Y-73000000D02*
X36000000Y-52000000D01*
X52000000Y-75000000D02*
X38000000Y-75000000D01*
X54000000Y-52000000D02*
X54000000Y-73000000D01*
X38000000Y-50000000D02*
X52000000Y-50000000D01*
X36000000Y-73000000D02*
G75*
G03X38000000Y-75000000I2000000J0D01*
G01*
X52000000Y-75000000D02*
G75*
G03X54000000Y-73000000I0J2000000D01*
G01*
X54000000Y-52000000D02*
G75*
G03X52000000Y-50000000I-2000000J0D01*
G01*
X38000000Y-50000000D02*
G75*
G03X36000000Y-52000000I0J-2000000D01*
G01*
X36000000Y-48000000D02*
X36000000Y-27000000D01*
X52000000Y-50000000D02*
X38000000Y-50000000D01*
X54000000Y-27000000D02*
X54000000Y-48000000D01*
X38000000Y-25000000D02*
X52000000Y-25000000D01*
X36000000Y-48000000D02*
G75*
G03X38000000Y-50000000I2000000J0D01*
G01*
X52000000Y-50000000D02*
G75*
G03X54000000Y-48000000I0J2000000D01*
G01*
X54000000Y-27000000D02*
G75*
G03X52000000Y-25000000I-2000000J0D01*
G01*
X38000000Y-25000000D02*
G75*
G03X36000000Y-27000000I0J-2000000D01*
G01*
X56000000Y-25000000D02*
G75*
G03X54000000Y-27000000I0J-2000000D01*
G01*
X72000000Y-27000000D02*
G75*
G03X70000000Y-25000000I-2000000J0D01*
G01*
X70000000Y-50000000D02*
G75*
G03X72000000Y-48000000I0J2000000D01*
G01*
X54000000Y-48000000D02*
G75*
G03X56000000Y-50000000I2000000J0D01*
G01*
X56000000Y-25000000D02*
X70000000Y-25000000D01*
X72000000Y-27000000D02*
X72000000Y-48000000D01*
X70000000Y-50000000D02*
X56000000Y-50000000D01*
X54000000Y-48000000D02*
X54000000Y-27000000D01*
X56000000Y-50000000D02*
G75*
G03X54000000Y-52000000I0J-2000000D01*
G01*
X72000000Y-52000000D02*
G75*
G03X70000000Y-50000000I-2000000J0D01*
G01*
X70000000Y-75000000D02*
G75*
G03X72000000Y-73000000I0J2000000D01*
G01*
X54000000Y-73000000D02*
G75*
G03X56000000Y-75000000I2000000J0D01*
G01*
X56000000Y-50000000D02*
X70000000Y-50000000D01*
X72000000Y-52000000D02*
X72000000Y-73000000D01*
X70000000Y-75000000D02*
X56000000Y-75000000D01*
X54000000Y-73000000D02*
X54000000Y-52000000D01*
X54000000Y-23000000D02*
X54000000Y-2000000D01*
X70000000Y-25000000D02*
X56000000Y-25000000D01*
X72000000Y-2000000D02*
X72000000Y-23000000D01*
X56000000Y0D02*
X70000000Y0D01*
X54000000Y-23000000D02*
G75*
G03X56000000Y-25000000I2000000J0D01*
G01*
X70000000Y-25000000D02*
G75*
G03X72000000Y-23000000I0J2000000D01*
G01*
X72000000Y-2000000D02*
G75*
G03X70000000Y0I-2000000J0D01*
G01*
X56000000Y0D02*
G75*
G03X54000000Y-2000000I0J-2000000D01*
G01*
X20000000Y0D02*
G75*
G03X18000000Y-2000000I0J-2000000D01*
G01*
X36000000Y-2000000D02*
G75*
G03X34000000Y0I-2000000J0D01*
G01*
X34000000Y-25000000D02*
G75*
G03X36000000Y-23000000I0J2000000D01*
G01*
X18000000Y-23000000D02*
G75*
G03X20000000Y-25000000I2000000J0D01*
G01*
X20000000Y0D02*
X34000000Y0D01*
X36000000Y-2000000D02*
X36000000Y-23000000D01*
X34000000Y-25000000D02*
X20000000Y-25000000D01*
X18000000Y-23000000D02*
X18000000Y-2000000D01*
X18000000Y-73000000D02*
X18000000Y-52000000D01*
X34000000Y-75000000D02*
X20000000Y-75000000D01*
X36000000Y-52000000D02*
X36000000Y-73000000D01*
X20000000Y-50000000D02*
X34000000Y-50000000D01*
X18000000Y-73000000D02*
G75*
G03X20000000Y-75000000I2000000J0D01*
G01*
X34000000Y-75000000D02*
G75*
G03X36000000Y-73000000I0J2000000D01*
G01*
X36000000Y-52000000D02*
G75*
G03X34000000Y-50000000I-2000000J0D01*
G01*
X20000000Y-50000000D02*
G75*
G03X18000000Y-52000000I0J-2000000D01*
G01*
X18000000Y-48000000D02*
X18000000Y-27000000D01*
X34000000Y-50000000D02*
X20000000Y-50000000D01*
X36000000Y-27000000D02*
X36000000Y-48000000D01*
X20000000Y-25000000D02*
X34000000Y-25000000D01*
X18000000Y-48000000D02*
G75*
G03X20000000Y-50000000I2000000J0D01*
G01*
X34000000Y-50000000D02*
G75*
G03X36000000Y-48000000I0J2000000D01*
G01*
X36000000Y-27000000D02*
G75*
G03X34000000Y-25000000I-2000000J0D01*
G01*
X20000000Y-25000000D02*
G75*
G03X18000000Y-27000000I0J-2000000D01*
G01*
X74000000Y0D02*
G75*
G03X72000000Y-2000000I0J-2000000D01*
G01*
X90000000Y-2000000D02*
G75*
G03X88000000Y0I-2000000J0D01*
G01*
X88000000Y-25000000D02*
G75*
G03X90000000Y-23000000I0J2000000D01*
G01*
X72000000Y-23000000D02*
G75*
G03X74000000Y-25000000I2000000J0D01*
G01*
X74000000Y0D02*
X88000000Y0D01*
X90000000Y-2000000D02*
X90000000Y-23000000D01*
X88000000Y-25000000D02*
X74000000Y-25000000D01*
X72000000Y-23000000D02*
X72000000Y-2000000D01*
X72000000Y-73000000D02*
X72000000Y-52000000D01*
X88000000Y-75000000D02*
X74000000Y-75000000D01*
X90000000Y-52000000D02*
X90000000Y-73000000D01*
X74000000Y-50000000D02*
X88000000Y-50000000D01*
X72000000Y-73000000D02*
G75*
G03X74000000Y-75000000I2000000J0D01*
G01*
X88000000Y-75000000D02*
G75*
G03X90000000Y-73000000I0J2000000D01*
G01*
X90000000Y-52000000D02*
G75*
G03X88000000Y-50000000I-2000000J0D01*
G01*
X74000000Y-50000000D02*
G75*
G03X72000000Y-52000000I0J-2000000D01*
G01*
X72000000Y-48000000D02*
X72000000Y-27000000D01*
X88000000Y-50000000D02*
X74000000Y-50000000D01*
X90000000Y-27000000D02*
X90000000Y-48000000D01*
X74000000Y-25000000D02*
X88000000Y-25000000D01*
X72000000Y-48000000D02*
G75*
G03X74000000Y-50000000I2000000J0D01*
G01*
X88000000Y-50000000D02*
G75*
G03X90000000Y-48000000I0J2000000D01*
G01*
X90000000Y-27000000D02*
G75*
G03X88000000Y-25000000I-2000000J0D01*
G01*
X74000000Y-25000000D02*
G75*
G03X72000000Y-27000000I0J-2000000D01*
G01*
X2000000Y-25000000D02*
G75*
G03X0Y-27000000I0J-2000000D01*
G01*
X18000000Y-27000000D02*
G75*
G03X16000000Y-25000000I-2000000J0D01*
G01*
X16000000Y-50000000D02*
G75*
G03X18000000Y-48000000I0J2000000D01*
G01*
X0Y-48000000D02*
G75*
G03X2000000Y-50000000I2000000J0D01*
G01*
X2000000Y-25000000D02*
X16000000Y-25000000D01*
X18000000Y-27000000D02*
X18000000Y-48000000D01*
X16000000Y-50000000D02*
X2000000Y-50000000D01*
X0Y-48000000D02*
X0Y-27000000D01*
X2000000Y-50000000D02*
G75*
G03X0Y-52000000I0J-2000000D01*
G01*
X18000000Y-52000000D02*
G75*
G03X16000000Y-50000000I-2000000J0D01*
G01*
X16000000Y-75000000D02*
G75*
G03X18000000Y-73000000I0J2000000D01*
G01*
X0Y-73000000D02*
G75*
G03X2000000Y-75000000I2000000J0D01*
G01*
X2000000Y-50000000D02*
X16000000Y-50000000D01*
X18000000Y-52000000D02*
X18000000Y-73000000D01*
X16000000Y-75000000D02*
X2000000Y-75000000D01*
X0Y-73000000D02*
X0Y-52000000D01*
X0Y-23000000D02*
X0Y-2000000D01*
X16000000Y-25000000D02*
X2000000Y-25000000D01*
X18000000Y-2000000D02*
X18000000Y-23000000D01*
X2000000Y0D02*
X16000000Y0D01*
X0Y-23000000D02*
G75*
G03X2000000Y-25000000I2000000J0D01*
G01*
X16000000Y-25000000D02*
G75*
G03X18000000Y-23000000I0J2000000D01*
G01*
X18000000Y-2000000D02*
G75*
G03X16000000Y0I-2000000J0D01*
G01*
X2000000Y0D02*
G75*
G03X0Y-2000000I0J-2000000D01*
G01*
M02*
