G04 #@! TF.FileFunction,Copper,L1,Top,Signal*
%FSLAX46Y46*%
G04 Gerber Fmt 4.6, Leading zero omitted, Abs format (unit mm)*
G04 Created by KiCad (PCBNEW 4.0.2-stable) date Monday, 13 June 2016 'amt' 00:39:14*
%MOMM*%
G01*
G04 APERTURE LIST*
%ADD10C,0.100000*%
%ADD11R,0.400000X1.350000*%
%ADD12O,1.000000X1.550000*%
%ADD13R,0.910000X1.220000*%
%ADD14R,2.032000X1.727200*%
%ADD15O,2.032000X1.727200*%
%ADD16R,1.727200X2.032000*%
%ADD17O,1.727200X2.032000*%
%ADD18R,0.500000X0.900000*%
%ADD19R,0.900000X0.500000*%
%ADD20R,1.143000X0.508000*%
%ADD21R,1.600000X0.500000*%
%ADD22R,0.797560X0.797560*%
%ADD23R,0.750000X0.800000*%
%ADD24R,0.800000X0.750000*%
%ADD25C,0.600000*%
%ADD26C,0.400000*%
%ADD27C,0.250000*%
%ADD28C,0.254000*%
G04 APERTURE END LIST*
D10*
D11*
X11599100Y-25237460D03*
X12249100Y-25237460D03*
X12899100Y-25237460D03*
X13549100Y-25237460D03*
X14199100Y-25237460D03*
D12*
X9000000Y-28300000D03*
X16800000Y-28300000D03*
D13*
X16935000Y-22600000D03*
X13665000Y-22600000D03*
D14*
X2800000Y-21500000D03*
D15*
X2800000Y-24040000D03*
X2800000Y-26580000D03*
D16*
X15530000Y-2810000D03*
D17*
X12990000Y-2810000D03*
X10450000Y-2810000D03*
X7910000Y-2810000D03*
X5370000Y-2810000D03*
X2830000Y-2810000D03*
D18*
X10050000Y-20600000D03*
X8550000Y-20600000D03*
X3050000Y-6700000D03*
X1550000Y-6700000D03*
D19*
X6700000Y-20850000D03*
X6700000Y-19350000D03*
D18*
X15450000Y-6700000D03*
X16950000Y-6700000D03*
D20*
X12228000Y-7001000D03*
X12228000Y-9541000D03*
X12228000Y-10811000D03*
X12228000Y-12081000D03*
X12228000Y-13351000D03*
X12228000Y-14621000D03*
X12228000Y-15891000D03*
X5878000Y-15891000D03*
X5878000Y-14621000D03*
X5878000Y-13351000D03*
X5878000Y-12081000D03*
X5878000Y-10811000D03*
X5878000Y-9541000D03*
X5878000Y-8271000D03*
X5878000Y-7001000D03*
X12228000Y-8271000D03*
D14*
X15800000Y-19500000D03*
D15*
X15800000Y-16960000D03*
X15800000Y-14420000D03*
D21*
X2000000Y-16800000D03*
X2000000Y-15600000D03*
X2000000Y-14400000D03*
D22*
X10049300Y-22700000D03*
X8550700Y-22700000D03*
X1650700Y-8700000D03*
X3149300Y-8700000D03*
X16849300Y-8400000D03*
X15350700Y-8400000D03*
D23*
X6700000Y-27650000D03*
X6700000Y-26150000D03*
X6700000Y-22650000D03*
X6700000Y-24150000D03*
D24*
X15350000Y-11800000D03*
X16850000Y-11800000D03*
X15350000Y-10100000D03*
X16850000Y-10100000D03*
X3250000Y-12700000D03*
X1750000Y-12700000D03*
X3250000Y-18500000D03*
X1750000Y-18500000D03*
X3199000Y-10684000D03*
X1699000Y-10684000D03*
D25*
X14500000Y-24400000D03*
X10000000Y-9600000D03*
X9900000Y-12600000D03*
D26*
X6700000Y-22650000D02*
X6700000Y-22450000D01*
X6700000Y-22450000D02*
X8550000Y-20600000D01*
X8550000Y-20600000D02*
X7950000Y-20600000D01*
X7950000Y-20600000D02*
X6700000Y-19350000D01*
X2800000Y-21500000D02*
X3000000Y-21500000D01*
X3000000Y-21500000D02*
X5150000Y-19350000D01*
X5150000Y-19350000D02*
X6700000Y-19350000D01*
X6700000Y-27650000D02*
X6700000Y-27600000D01*
X6700000Y-27600000D02*
X8300000Y-26000000D01*
X8300000Y-26000000D02*
X11599100Y-26000000D01*
X6700000Y-27650000D02*
X6650000Y-27650000D01*
X6650000Y-27650000D02*
X5400000Y-26400000D01*
X5400000Y-23950000D02*
X6700000Y-22650000D01*
X5400000Y-26400000D02*
X5400000Y-23950000D01*
X15800000Y-19500000D02*
X15800000Y-25900000D01*
X11599100Y-26799100D02*
X11599100Y-26000000D01*
X11599100Y-26000000D02*
X11599100Y-25237460D01*
X11700000Y-26900000D02*
X11599100Y-26799100D01*
X14800000Y-26900000D02*
X11700000Y-26900000D01*
X15800000Y-25900000D02*
X14800000Y-26900000D01*
X11599100Y-25237460D02*
X11599100Y-24999100D01*
D27*
X14199100Y-25237460D02*
X14199100Y-24700900D01*
X14199100Y-24700900D02*
X14500000Y-24400000D01*
X16750000Y-11600000D02*
X16850000Y-11700000D01*
X1699000Y-12649000D02*
X1750000Y-12700000D01*
D26*
X2000000Y-14400000D02*
X5657000Y-14400000D01*
X5657000Y-14400000D02*
X5878000Y-14621000D01*
X3250000Y-12700000D02*
X3250000Y-12750000D01*
X3250000Y-12750000D02*
X2000000Y-14000000D01*
X2000000Y-14000000D02*
X2000000Y-14400000D01*
X3250000Y-18500000D02*
X3250000Y-16800000D01*
X3250000Y-16800000D02*
X3300000Y-16800000D01*
X5878000Y-15891000D02*
X4209000Y-15891000D01*
X3300000Y-16800000D02*
X2000000Y-16800000D01*
X4209000Y-15891000D02*
X3300000Y-16800000D01*
X10050000Y-20600000D02*
X10050000Y-22699300D01*
X10050000Y-22699300D02*
X10049300Y-22700000D01*
X9950000Y-22600700D02*
X10049300Y-22700000D01*
X1550000Y-6700000D02*
X1550000Y-8599300D01*
X1550000Y-8599300D02*
X1650700Y-8700000D01*
X1550000Y-6700000D02*
X1550000Y-6550000D01*
X1650700Y-8700000D02*
X1650700Y-8649300D01*
X1550000Y-8599300D02*
X1650700Y-8700000D01*
X3149300Y-8700000D02*
X5449000Y-8700000D01*
X5449000Y-8700000D02*
X5878000Y-8271000D01*
X10450000Y-2810000D02*
X10450000Y-4550000D01*
X6729000Y-8271000D02*
X5878000Y-8271000D01*
X10450000Y-4550000D02*
X6729000Y-8271000D01*
D27*
X16950000Y-6700000D02*
X16950000Y-8299300D01*
X16950000Y-8299300D02*
X16849300Y-8400000D01*
X15350700Y-8400000D02*
X15400000Y-8400000D01*
X15400000Y-8400000D02*
X16300000Y-7500000D01*
X16300000Y-7500000D02*
X16300000Y-6120000D01*
X16300000Y-6120000D02*
X12990000Y-2810000D01*
D26*
X12990000Y-2810000D02*
X12990000Y-3310000D01*
X12990000Y-3310000D02*
X7200000Y-9100000D01*
X6319000Y-9100000D02*
X5878000Y-9541000D01*
X7200000Y-9100000D02*
X6319000Y-9100000D01*
X12990000Y-3390000D02*
X12990000Y-2810000D01*
X12228000Y-10811000D02*
X11211000Y-10811000D01*
X11211000Y-10811000D02*
X10000000Y-9600000D01*
X15800000Y-16960000D02*
X15800000Y-16900000D01*
X15800000Y-16900000D02*
X13900000Y-15000000D01*
X13900000Y-15000000D02*
X13900000Y-6700000D01*
X3050000Y-6700000D02*
X3050000Y-6450000D01*
X3050000Y-6450000D02*
X5000000Y-4500000D01*
X6220000Y-4500000D02*
X7910000Y-2810000D01*
X5000000Y-4500000D02*
X6220000Y-4500000D01*
X3149300Y-6799300D02*
X3050000Y-6700000D01*
X15450000Y-6700000D02*
X13900000Y-6700000D01*
X13900000Y-6700000D02*
X12529000Y-6700000D01*
X12529000Y-6700000D02*
X12228000Y-7001000D01*
X15800000Y-16960000D02*
X15260000Y-16960000D01*
X10900000Y-13600000D02*
X9900000Y-12600000D01*
X10900000Y-15100000D02*
X10900000Y-13600000D01*
X11691000Y-15891000D02*
X10900000Y-15100000D01*
X12228000Y-15891000D02*
X11691000Y-15891000D01*
X6700000Y-20850000D02*
X6700000Y-20900000D01*
X6700000Y-20900000D02*
X4400000Y-23200000D01*
X4400000Y-23200000D02*
X4400000Y-27300000D01*
X15800000Y-14420000D02*
X15800000Y-12250000D01*
X15800000Y-12250000D02*
X15350000Y-11800000D01*
D27*
X15350000Y-11800000D02*
X15350000Y-10100000D01*
D26*
X15800000Y-14420000D02*
X16120000Y-14420000D01*
X16120000Y-14420000D02*
X17300000Y-15600000D01*
X17300000Y-15600000D02*
X17300000Y-22235000D01*
X17300000Y-22235000D02*
X16935000Y-22600000D01*
X2800000Y-26580000D02*
X3680000Y-26580000D01*
X3680000Y-26580000D02*
X4400000Y-27300000D01*
X4400000Y-27300000D02*
X5800000Y-28700000D01*
X16935000Y-25865000D02*
X16935000Y-22600000D01*
X15200000Y-27600000D02*
X16935000Y-25865000D01*
X11300000Y-27600000D02*
X15200000Y-27600000D01*
X10600000Y-26900000D02*
X11300000Y-27600000D01*
X8500000Y-26900000D02*
X10600000Y-26900000D01*
X8000000Y-27400000D02*
X8500000Y-26900000D01*
X8000000Y-28000000D02*
X8000000Y-27400000D01*
X7300000Y-28700000D02*
X8000000Y-28000000D01*
X5800000Y-28700000D02*
X7300000Y-28700000D01*
X15350000Y-10200000D02*
X15250000Y-10100000D01*
X5878000Y-13351000D02*
X6351000Y-13351000D01*
X6351000Y-13351000D02*
X9200000Y-16200000D01*
X9200000Y-16200000D02*
X9200000Y-17100000D01*
X9200000Y-17100000D02*
X11400000Y-19300000D01*
X11400000Y-19300000D02*
X11400000Y-23400000D01*
X11400000Y-23400000D02*
X12199102Y-24199102D01*
X12199102Y-24199102D02*
X12199102Y-25237460D01*
X12199102Y-25237460D02*
X12249100Y-25237460D01*
X5878000Y-12081000D02*
X6181000Y-12081000D01*
X6181000Y-12081000D02*
X10200000Y-16100000D01*
X10200000Y-16100000D02*
X10200000Y-17000000D01*
X10200000Y-17000000D02*
X12200000Y-19000000D01*
X12200000Y-19000000D02*
X12200000Y-23200000D01*
X12200000Y-23200000D02*
X12899100Y-23899100D01*
X12899100Y-23899100D02*
X12899100Y-25237460D01*
D27*
X3199000Y-10684000D02*
X5751000Y-10684000D01*
X5751000Y-10684000D02*
X5878000Y-10811000D01*
D28*
G36*
X16997197Y-558233D02*
X17503479Y-896519D01*
X17841766Y-1402802D01*
X17969000Y-2042452D01*
X17969000Y-27957548D01*
X17841766Y-28597198D01*
X17503479Y-29103481D01*
X17499403Y-29106205D01*
X17613938Y-28934791D01*
X17681000Y-28597647D01*
X17681000Y-28002353D01*
X17613938Y-27665209D01*
X17422961Y-27379392D01*
X17137144Y-27188415D01*
X16800000Y-27121353D01*
X16462856Y-27188415D01*
X16373612Y-27248046D01*
X17345829Y-26275829D01*
X17471774Y-26087339D01*
X17516000Y-25865000D01*
X17516000Y-23574755D01*
X17531190Y-23571897D01*
X17660865Y-23488454D01*
X17747859Y-23361134D01*
X17778464Y-23210000D01*
X17778464Y-22544606D01*
X17836774Y-22457339D01*
X17881000Y-22235000D01*
X17881000Y-15600000D01*
X17836774Y-15377661D01*
X17710829Y-15189171D01*
X17177464Y-14655806D01*
X17224369Y-14420000D01*
X17129629Y-13943712D01*
X16859834Y-13539935D01*
X16456057Y-13270140D01*
X16381000Y-13255210D01*
X16381000Y-12810000D01*
X16564250Y-12810000D01*
X16723000Y-12651250D01*
X16723000Y-11927000D01*
X16977000Y-11927000D01*
X16977000Y-12651250D01*
X17135750Y-12810000D01*
X17376309Y-12810000D01*
X17609698Y-12713327D01*
X17788327Y-12534699D01*
X17885000Y-12301310D01*
X17885000Y-12085750D01*
X17726250Y-11927000D01*
X16977000Y-11927000D01*
X16723000Y-11927000D01*
X16703000Y-11927000D01*
X16703000Y-11673000D01*
X16723000Y-11673000D01*
X16723000Y-10227000D01*
X16977000Y-10227000D01*
X16977000Y-11673000D01*
X17726250Y-11673000D01*
X17885000Y-11514250D01*
X17885000Y-11298690D01*
X17788327Y-11065301D01*
X17673025Y-10950000D01*
X17788327Y-10834699D01*
X17885000Y-10601310D01*
X17885000Y-10385750D01*
X17726250Y-10227000D01*
X16977000Y-10227000D01*
X16723000Y-10227000D01*
X16703000Y-10227000D01*
X16703000Y-9973000D01*
X16723000Y-9973000D01*
X16723000Y-9953000D01*
X16977000Y-9953000D01*
X16977000Y-9973000D01*
X17726250Y-9973000D01*
X17885000Y-9814250D01*
X17885000Y-9598690D01*
X17788327Y-9365301D01*
X17609698Y-9186673D01*
X17451016Y-9120945D01*
X17518945Y-9077234D01*
X17605939Y-8949914D01*
X17636544Y-8798780D01*
X17636544Y-8001220D01*
X17609977Y-7860030D01*
X17526534Y-7730355D01*
X17456000Y-7682161D01*
X17456000Y-7438019D01*
X17470865Y-7428454D01*
X17557859Y-7301134D01*
X17588464Y-7150000D01*
X17588464Y-6250000D01*
X17561897Y-6108810D01*
X17478454Y-5979135D01*
X17351134Y-5892141D01*
X17200000Y-5861536D01*
X16724168Y-5861536D01*
X16657796Y-5762204D01*
X15110056Y-4214464D01*
X16393600Y-4214464D01*
X16534790Y-4187897D01*
X16664465Y-4104454D01*
X16751459Y-3977134D01*
X16782064Y-3826000D01*
X16782064Y-1794000D01*
X16755497Y-1652810D01*
X16672054Y-1523135D01*
X16544734Y-1436141D01*
X16393600Y-1405536D01*
X14666400Y-1405536D01*
X14525210Y-1432103D01*
X14395535Y-1515546D01*
X14308541Y-1642866D01*
X14277936Y-1794000D01*
X14277936Y-3382344D01*
X14176657Y-3281065D01*
X14234600Y-2989769D01*
X14234600Y-2630231D01*
X14139860Y-2153943D01*
X13870065Y-1750166D01*
X13466288Y-1480371D01*
X12990000Y-1385631D01*
X12513712Y-1480371D01*
X12109935Y-1750166D01*
X11840140Y-2153943D01*
X11745400Y-2630231D01*
X11745400Y-2989769D01*
X11840140Y-3466057D01*
X11909092Y-3569250D01*
X11031000Y-4447342D01*
X11031000Y-4069663D01*
X11330065Y-3869834D01*
X11599860Y-3466057D01*
X11694600Y-2989769D01*
X11694600Y-2630231D01*
X11599860Y-2153943D01*
X11330065Y-1750166D01*
X10926288Y-1480371D01*
X10450000Y-1385631D01*
X9973712Y-1480371D01*
X9569935Y-1750166D01*
X9300140Y-2153943D01*
X9205400Y-2630231D01*
X9205400Y-2989769D01*
X9300140Y-3466057D01*
X9569935Y-3869834D01*
X9869000Y-4069663D01*
X9869000Y-4309342D01*
X6988046Y-7190296D01*
X6925750Y-7128000D01*
X6005000Y-7128000D01*
X6005000Y-7148000D01*
X5751000Y-7148000D01*
X5751000Y-7128000D01*
X4830250Y-7128000D01*
X4671500Y-7286750D01*
X4671500Y-7381309D01*
X4768173Y-7614698D01*
X4946801Y-7793327D01*
X4986866Y-7809922D01*
X4948641Y-7865866D01*
X4918036Y-8017000D01*
X4918036Y-8119000D01*
X3883575Y-8119000D01*
X3826534Y-8030355D01*
X3699214Y-7943361D01*
X3548080Y-7912756D01*
X2750520Y-7912756D01*
X2609330Y-7939323D01*
X2479655Y-8022766D01*
X2399004Y-8140802D01*
X2327934Y-8030355D01*
X2200614Y-7943361D01*
X2131000Y-7929264D01*
X2131000Y-7340443D01*
X2157859Y-7301134D01*
X2188464Y-7150000D01*
X2188464Y-6250000D01*
X2411536Y-6250000D01*
X2411536Y-7150000D01*
X2438103Y-7291190D01*
X2521546Y-7420865D01*
X2648866Y-7507859D01*
X2800000Y-7538464D01*
X3300000Y-7538464D01*
X3441190Y-7511897D01*
X3570865Y-7428454D01*
X3657859Y-7301134D01*
X3688464Y-7150000D01*
X3688464Y-7009624D01*
X3730300Y-6799300D01*
X3695800Y-6625858D01*
X3700967Y-6620691D01*
X4671500Y-6620691D01*
X4671500Y-6715250D01*
X4830250Y-6874000D01*
X5751000Y-6874000D01*
X5751000Y-6270750D01*
X6005000Y-6270750D01*
X6005000Y-6874000D01*
X6925750Y-6874000D01*
X7084500Y-6715250D01*
X7084500Y-6620691D01*
X6987827Y-6387302D01*
X6809199Y-6208673D01*
X6575810Y-6112000D01*
X6163750Y-6112000D01*
X6005000Y-6270750D01*
X5751000Y-6270750D01*
X5592250Y-6112000D01*
X5180190Y-6112000D01*
X4946801Y-6208673D01*
X4768173Y-6387302D01*
X4671500Y-6620691D01*
X3700967Y-6620691D01*
X5240658Y-5081000D01*
X6220000Y-5081000D01*
X6442339Y-5036774D01*
X6630829Y-4910829D01*
X7414719Y-4126939D01*
X7433712Y-4139629D01*
X7910000Y-4234369D01*
X8386288Y-4139629D01*
X8790065Y-3869834D01*
X9059860Y-3466057D01*
X9154600Y-2989769D01*
X9154600Y-2630231D01*
X9059860Y-2153943D01*
X8790065Y-1750166D01*
X8386288Y-1480371D01*
X7910000Y-1385631D01*
X7433712Y-1480371D01*
X7029935Y-1750166D01*
X6760140Y-2153943D01*
X6665400Y-2630231D01*
X6665400Y-2989769D01*
X6705745Y-3192597D01*
X6541605Y-3356737D01*
X6614600Y-2989769D01*
X6614600Y-2630231D01*
X6519860Y-2153943D01*
X6250065Y-1750166D01*
X5846288Y-1480371D01*
X5370000Y-1385631D01*
X4893712Y-1480371D01*
X4489935Y-1750166D01*
X4220140Y-2153943D01*
X4217296Y-2168243D01*
X4121954Y-1895680D01*
X3732036Y-1459268D01*
X3204791Y-1205291D01*
X3189026Y-1202642D01*
X2957000Y-1323783D01*
X2957000Y-2683000D01*
X2977000Y-2683000D01*
X2977000Y-2937000D01*
X2957000Y-2937000D01*
X2957000Y-4296217D01*
X3189026Y-4417358D01*
X3204791Y-4414709D01*
X3732036Y-4160732D01*
X4121954Y-3724320D01*
X4217296Y-3451757D01*
X4220140Y-3466057D01*
X4489935Y-3869834D01*
X4703684Y-4012656D01*
X4589171Y-4089171D01*
X2816806Y-5861536D01*
X2800000Y-5861536D01*
X2658810Y-5888103D01*
X2529135Y-5971546D01*
X2442141Y-6098866D01*
X2411536Y-6250000D01*
X2188464Y-6250000D01*
X2161897Y-6108810D01*
X2078454Y-5979135D01*
X1951134Y-5892141D01*
X1800000Y-5861536D01*
X1300000Y-5861536D01*
X1158810Y-5888103D01*
X1029135Y-5971546D01*
X942141Y-6098866D01*
X911536Y-6250000D01*
X911536Y-7150000D01*
X938103Y-7291190D01*
X969000Y-7339206D01*
X969000Y-8040409D01*
X894061Y-8150086D01*
X863456Y-8301220D01*
X863456Y-9098780D01*
X890023Y-9239970D01*
X973466Y-9369645D01*
X1100786Y-9456639D01*
X1251920Y-9487244D01*
X2049480Y-9487244D01*
X2190670Y-9460677D01*
X2320345Y-9377234D01*
X2400996Y-9259198D01*
X2472066Y-9369645D01*
X2599386Y-9456639D01*
X2750520Y-9487244D01*
X3548080Y-9487244D01*
X3689270Y-9460677D01*
X3818945Y-9377234D01*
X3884699Y-9281000D01*
X4919251Y-9281000D01*
X4918036Y-9287000D01*
X4918036Y-9795000D01*
X4944603Y-9936190D01*
X5028046Y-10065865D01*
X5155366Y-10152859D01*
X5268288Y-10175726D01*
X5256204Y-10178000D01*
X3962814Y-10178000D01*
X3960897Y-10167810D01*
X3877454Y-10038135D01*
X3750134Y-9951141D01*
X3599000Y-9920536D01*
X2799000Y-9920536D01*
X2657810Y-9947103D01*
X2640919Y-9957972D01*
X2637327Y-9949301D01*
X2458698Y-9770673D01*
X2225309Y-9674000D01*
X1984750Y-9674000D01*
X1826000Y-9832750D01*
X1826000Y-10557000D01*
X1846000Y-10557000D01*
X1846000Y-10811000D01*
X1826000Y-10811000D01*
X1826000Y-11535250D01*
X1984750Y-11694000D01*
X2031750Y-11694000D01*
X1877000Y-11848750D01*
X1877000Y-12573000D01*
X1897000Y-12573000D01*
X1897000Y-12827000D01*
X1877000Y-12827000D01*
X1877000Y-12847000D01*
X1623000Y-12847000D01*
X1623000Y-12827000D01*
X873750Y-12827000D01*
X715000Y-12985750D01*
X715000Y-13201310D01*
X811673Y-13434699D01*
X990302Y-13613327D01*
X1223691Y-13710000D01*
X1464250Y-13710000D01*
X1622998Y-13551252D01*
X1622998Y-13555344D01*
X1589171Y-13589171D01*
X1474000Y-13761536D01*
X1200000Y-13761536D01*
X1058810Y-13788103D01*
X929135Y-13871546D01*
X842141Y-13998866D01*
X811536Y-14150000D01*
X811536Y-14650000D01*
X838103Y-14791190D01*
X848972Y-14808081D01*
X840301Y-14811673D01*
X661673Y-14990302D01*
X565000Y-15223691D01*
X565000Y-15316250D01*
X723750Y-15475000D01*
X1873000Y-15475000D01*
X1873000Y-15453000D01*
X2127000Y-15453000D01*
X2127000Y-15475000D01*
X3276250Y-15475000D01*
X3435000Y-15316250D01*
X3435000Y-15223691D01*
X3338327Y-14990302D01*
X3329025Y-14981000D01*
X4937981Y-14981000D01*
X4944603Y-15016190D01*
X5028046Y-15145865D01*
X5155366Y-15232859D01*
X5268288Y-15255726D01*
X5165310Y-15275103D01*
X5111078Y-15310000D01*
X4209000Y-15310000D01*
X3986661Y-15354226D01*
X3798171Y-15480171D01*
X3414796Y-15863546D01*
X3276250Y-15725000D01*
X2127000Y-15725000D01*
X2127000Y-15747000D01*
X1873000Y-15747000D01*
X1873000Y-15725000D01*
X723750Y-15725000D01*
X565000Y-15883750D01*
X565000Y-15976309D01*
X661673Y-16209698D01*
X840301Y-16388327D01*
X847348Y-16391246D01*
X842141Y-16398866D01*
X811536Y-16550000D01*
X811536Y-17050000D01*
X838103Y-17191190D01*
X921546Y-17320865D01*
X1048866Y-17407859D01*
X1200000Y-17438464D01*
X2669000Y-17438464D01*
X2669000Y-17745974D01*
X2509698Y-17586673D01*
X2276309Y-17490000D01*
X2035750Y-17490000D01*
X1877000Y-17648750D01*
X1877000Y-18373000D01*
X1897000Y-18373000D01*
X1897000Y-18627000D01*
X1877000Y-18627000D01*
X1877000Y-19351250D01*
X2035750Y-19510000D01*
X2276309Y-19510000D01*
X2509698Y-19413327D01*
X2688327Y-19234699D01*
X2691246Y-19227652D01*
X2698866Y-19232859D01*
X2850000Y-19263464D01*
X3650000Y-19263464D01*
X3791190Y-19236897D01*
X3920865Y-19153454D01*
X4007859Y-19026134D01*
X4038464Y-18875000D01*
X4038464Y-18125000D01*
X4011897Y-17983810D01*
X3928454Y-17854135D01*
X3831000Y-17787548D01*
X3831000Y-17090658D01*
X4449658Y-16472000D01*
X5110202Y-16472000D01*
X5155366Y-16502859D01*
X5306500Y-16533464D01*
X6449500Y-16533464D01*
X6590690Y-16506897D01*
X6720365Y-16423454D01*
X6807359Y-16296134D01*
X6837964Y-16145000D01*
X6837964Y-15637000D01*
X6811397Y-15495810D01*
X6727954Y-15366135D01*
X6600634Y-15279141D01*
X6487712Y-15256274D01*
X6590690Y-15236897D01*
X6720365Y-15153454D01*
X6807359Y-15026134D01*
X6837964Y-14875000D01*
X6837964Y-14659622D01*
X8619000Y-16440658D01*
X8619000Y-17100000D01*
X8663226Y-17322339D01*
X8789171Y-17510829D01*
X10819000Y-19540658D01*
X10819000Y-22207983D01*
X10809977Y-22160030D01*
X10726534Y-22030355D01*
X10631000Y-21965079D01*
X10631000Y-21240443D01*
X10657859Y-21201134D01*
X10688464Y-21050000D01*
X10688464Y-20150000D01*
X10661897Y-20008810D01*
X10578454Y-19879135D01*
X10451134Y-19792141D01*
X10300000Y-19761536D01*
X9800000Y-19761536D01*
X9658810Y-19788103D01*
X9529135Y-19871546D01*
X9442141Y-19998866D01*
X9411536Y-20150000D01*
X9411536Y-21050000D01*
X9438103Y-21191190D01*
X9469000Y-21239206D01*
X9469000Y-21922714D01*
X9309178Y-21762893D01*
X9075789Y-21666220D01*
X8836450Y-21666220D01*
X8677700Y-21824970D01*
X8677700Y-22573000D01*
X8697700Y-22573000D01*
X8697700Y-22827000D01*
X8677700Y-22827000D01*
X8677700Y-23575030D01*
X8836450Y-23733780D01*
X9075789Y-23733780D01*
X9309178Y-23637107D01*
X9487807Y-23458479D01*
X9490955Y-23450879D01*
X9499386Y-23456639D01*
X9650520Y-23487244D01*
X10448080Y-23487244D01*
X10589270Y-23460677D01*
X10718945Y-23377234D01*
X10805939Y-23249914D01*
X10819000Y-23185416D01*
X10819000Y-23400000D01*
X10863226Y-23622339D01*
X10989171Y-23810829D01*
X11359744Y-24181402D01*
X11257910Y-24200563D01*
X11128235Y-24284006D01*
X11041241Y-24411326D01*
X11010636Y-24562460D01*
X11010636Y-25419000D01*
X8300000Y-25419000D01*
X8077661Y-25463226D01*
X7889171Y-25589171D01*
X7710000Y-25768342D01*
X7710000Y-25623691D01*
X7613327Y-25390302D01*
X7434699Y-25211673D01*
X7285807Y-25150000D01*
X7434699Y-25088327D01*
X7613327Y-24909698D01*
X7710000Y-24676309D01*
X7710000Y-24435750D01*
X7551250Y-24277000D01*
X6827000Y-24277000D01*
X6827000Y-25026250D01*
X6950750Y-25150000D01*
X6827000Y-25273750D01*
X6827000Y-26023000D01*
X6847000Y-26023000D01*
X6847000Y-26277000D01*
X6827000Y-26277000D01*
X6827000Y-26297000D01*
X6573000Y-26297000D01*
X6573000Y-26277000D01*
X6553000Y-26277000D01*
X6553000Y-26023000D01*
X6573000Y-26023000D01*
X6573000Y-25273750D01*
X6449250Y-25150000D01*
X6573000Y-25026250D01*
X6573000Y-24277000D01*
X6553000Y-24277000D01*
X6553000Y-24023000D01*
X6573000Y-24023000D01*
X6573000Y-24003000D01*
X6827000Y-24003000D01*
X6827000Y-24023000D01*
X7551250Y-24023000D01*
X7710000Y-23864250D01*
X7710000Y-23623691D01*
X7661347Y-23506233D01*
X7792222Y-23637107D01*
X8025611Y-23733780D01*
X8264950Y-23733780D01*
X8423700Y-23575030D01*
X8423700Y-22827000D01*
X7675670Y-22827000D01*
X7516920Y-22985750D01*
X7516920Y-23225090D01*
X7565572Y-23342547D01*
X7434699Y-23211673D01*
X7427652Y-23208754D01*
X7432859Y-23201134D01*
X7463464Y-23050000D01*
X7463464Y-22508194D01*
X7537164Y-22434494D01*
X7675670Y-22573000D01*
X8423700Y-22573000D01*
X8423700Y-21824970D01*
X8285194Y-21686464D01*
X8533194Y-21438464D01*
X8800000Y-21438464D01*
X8941190Y-21411897D01*
X9070865Y-21328454D01*
X9157859Y-21201134D01*
X9188464Y-21050000D01*
X9188464Y-20150000D01*
X9161897Y-20008810D01*
X9078454Y-19879135D01*
X8951134Y-19792141D01*
X8800000Y-19761536D01*
X8300000Y-19761536D01*
X8158810Y-19788103D01*
X8037696Y-19866038D01*
X7538464Y-19366806D01*
X7538464Y-19100000D01*
X7511897Y-18958810D01*
X7428454Y-18829135D01*
X7301134Y-18742141D01*
X7150000Y-18711536D01*
X6250000Y-18711536D01*
X6108810Y-18738103D01*
X6060794Y-18769000D01*
X5150000Y-18769000D01*
X4927661Y-18813226D01*
X4739171Y-18939171D01*
X3430406Y-20247936D01*
X1784000Y-20247936D01*
X1642810Y-20274503D01*
X1513135Y-20357946D01*
X1426141Y-20485266D01*
X1395536Y-20636400D01*
X1395536Y-22363600D01*
X1422103Y-22504790D01*
X1505546Y-22634465D01*
X1632866Y-22721459D01*
X1784000Y-22752064D01*
X1881183Y-22752064D01*
X1449268Y-23137964D01*
X1195291Y-23665209D01*
X1192642Y-23680974D01*
X1313783Y-23913000D01*
X2673000Y-23913000D01*
X2673000Y-23893000D01*
X2927000Y-23893000D01*
X2927000Y-23913000D01*
X2947000Y-23913000D01*
X2947000Y-24167000D01*
X2927000Y-24167000D01*
X2927000Y-24187000D01*
X2673000Y-24187000D01*
X2673000Y-24167000D01*
X1313783Y-24167000D01*
X1192642Y-24399026D01*
X1195291Y-24414791D01*
X1449268Y-24942036D01*
X1885680Y-25331954D01*
X2158243Y-25427296D01*
X2143943Y-25430140D01*
X1740166Y-25699935D01*
X1470371Y-26103712D01*
X1375631Y-26580000D01*
X1470371Y-27056288D01*
X1740166Y-27460065D01*
X2143943Y-27729860D01*
X2620231Y-27824600D01*
X2979769Y-27824600D01*
X3456057Y-27729860D01*
X3787044Y-27508702D01*
X5389171Y-29110829D01*
X5577661Y-29236774D01*
X5800000Y-29281000D01*
X7300000Y-29281000D01*
X7522339Y-29236774D01*
X7710829Y-29110829D01*
X8136422Y-28685236D01*
X8186062Y-28934791D01*
X8377039Y-29220608D01*
X8662856Y-29411585D01*
X9000000Y-29478647D01*
X9337144Y-29411585D01*
X9622961Y-29220608D01*
X9813938Y-28934791D01*
X9881000Y-28597647D01*
X9881000Y-28002353D01*
X9813938Y-27665209D01*
X9690853Y-27481000D01*
X10359342Y-27481000D01*
X10889171Y-28010829D01*
X11077661Y-28136774D01*
X11300000Y-28181000D01*
X15200000Y-28181000D01*
X15422339Y-28136774D01*
X15610829Y-28010829D01*
X16045693Y-27575965D01*
X15986062Y-27665209D01*
X15919000Y-28002353D01*
X15919000Y-28597647D01*
X15986062Y-28934791D01*
X16177039Y-29220608D01*
X16462856Y-29411585D01*
X16800000Y-29478647D01*
X17002193Y-29438428D01*
X16997197Y-29441767D01*
X16357552Y-29569000D01*
X2042452Y-29569000D01*
X1402802Y-29441766D01*
X896519Y-29103479D01*
X558233Y-28597197D01*
X431000Y-27957552D01*
X431000Y-18785750D01*
X715000Y-18785750D01*
X715000Y-19001310D01*
X811673Y-19234699D01*
X990302Y-19413327D01*
X1223691Y-19510000D01*
X1464250Y-19510000D01*
X1623000Y-19351250D01*
X1623000Y-18627000D01*
X873750Y-18627000D01*
X715000Y-18785750D01*
X431000Y-18785750D01*
X431000Y-17998690D01*
X715000Y-17998690D01*
X715000Y-18214250D01*
X873750Y-18373000D01*
X1623000Y-18373000D01*
X1623000Y-17648750D01*
X1464250Y-17490000D01*
X1223691Y-17490000D01*
X990302Y-17586673D01*
X811673Y-17765301D01*
X715000Y-17998690D01*
X431000Y-17998690D01*
X431000Y-10969750D01*
X664000Y-10969750D01*
X664000Y-11185310D01*
X760673Y-11418699D01*
X939302Y-11597327D01*
X1172691Y-11694000D01*
X1214034Y-11694000D01*
X990302Y-11786673D01*
X811673Y-11965301D01*
X715000Y-12198690D01*
X715000Y-12414250D01*
X873750Y-12573000D01*
X1623000Y-12573000D01*
X1623000Y-11848750D01*
X1464250Y-11690000D01*
X1417250Y-11690000D01*
X1572000Y-11535250D01*
X1572000Y-10811000D01*
X822750Y-10811000D01*
X664000Y-10969750D01*
X431000Y-10969750D01*
X431000Y-10182690D01*
X664000Y-10182690D01*
X664000Y-10398250D01*
X822750Y-10557000D01*
X1572000Y-10557000D01*
X1572000Y-9832750D01*
X1413250Y-9674000D01*
X1172691Y-9674000D01*
X939302Y-9770673D01*
X760673Y-9949301D01*
X664000Y-10182690D01*
X431000Y-10182690D01*
X431000Y-3171913D01*
X1344816Y-3171913D01*
X1538046Y-3724320D01*
X1927964Y-4160732D01*
X2455209Y-4414709D01*
X2470974Y-4417358D01*
X2703000Y-4296217D01*
X2703000Y-2937000D01*
X1489076Y-2937000D01*
X1344816Y-3171913D01*
X431000Y-3171913D01*
X431000Y-2448087D01*
X1344816Y-2448087D01*
X1489076Y-2683000D01*
X2703000Y-2683000D01*
X2703000Y-1323783D01*
X2470974Y-1202642D01*
X2455209Y-1205291D01*
X1927964Y-1459268D01*
X1538046Y-1895680D01*
X1344816Y-2448087D01*
X431000Y-2448087D01*
X431000Y-2042448D01*
X558233Y-1402803D01*
X896519Y-896521D01*
X1402802Y-558234D01*
X2042452Y-431000D01*
X16357552Y-431000D01*
X16997197Y-558233D01*
X16997197Y-558233D01*
G37*
X16997197Y-558233D02*
X17503479Y-896519D01*
X17841766Y-1402802D01*
X17969000Y-2042452D01*
X17969000Y-27957548D01*
X17841766Y-28597198D01*
X17503479Y-29103481D01*
X17499403Y-29106205D01*
X17613938Y-28934791D01*
X17681000Y-28597647D01*
X17681000Y-28002353D01*
X17613938Y-27665209D01*
X17422961Y-27379392D01*
X17137144Y-27188415D01*
X16800000Y-27121353D01*
X16462856Y-27188415D01*
X16373612Y-27248046D01*
X17345829Y-26275829D01*
X17471774Y-26087339D01*
X17516000Y-25865000D01*
X17516000Y-23574755D01*
X17531190Y-23571897D01*
X17660865Y-23488454D01*
X17747859Y-23361134D01*
X17778464Y-23210000D01*
X17778464Y-22544606D01*
X17836774Y-22457339D01*
X17881000Y-22235000D01*
X17881000Y-15600000D01*
X17836774Y-15377661D01*
X17710829Y-15189171D01*
X17177464Y-14655806D01*
X17224369Y-14420000D01*
X17129629Y-13943712D01*
X16859834Y-13539935D01*
X16456057Y-13270140D01*
X16381000Y-13255210D01*
X16381000Y-12810000D01*
X16564250Y-12810000D01*
X16723000Y-12651250D01*
X16723000Y-11927000D01*
X16977000Y-11927000D01*
X16977000Y-12651250D01*
X17135750Y-12810000D01*
X17376309Y-12810000D01*
X17609698Y-12713327D01*
X17788327Y-12534699D01*
X17885000Y-12301310D01*
X17885000Y-12085750D01*
X17726250Y-11927000D01*
X16977000Y-11927000D01*
X16723000Y-11927000D01*
X16703000Y-11927000D01*
X16703000Y-11673000D01*
X16723000Y-11673000D01*
X16723000Y-10227000D01*
X16977000Y-10227000D01*
X16977000Y-11673000D01*
X17726250Y-11673000D01*
X17885000Y-11514250D01*
X17885000Y-11298690D01*
X17788327Y-11065301D01*
X17673025Y-10950000D01*
X17788327Y-10834699D01*
X17885000Y-10601310D01*
X17885000Y-10385750D01*
X17726250Y-10227000D01*
X16977000Y-10227000D01*
X16723000Y-10227000D01*
X16703000Y-10227000D01*
X16703000Y-9973000D01*
X16723000Y-9973000D01*
X16723000Y-9953000D01*
X16977000Y-9953000D01*
X16977000Y-9973000D01*
X17726250Y-9973000D01*
X17885000Y-9814250D01*
X17885000Y-9598690D01*
X17788327Y-9365301D01*
X17609698Y-9186673D01*
X17451016Y-9120945D01*
X17518945Y-9077234D01*
X17605939Y-8949914D01*
X17636544Y-8798780D01*
X17636544Y-8001220D01*
X17609977Y-7860030D01*
X17526534Y-7730355D01*
X17456000Y-7682161D01*
X17456000Y-7438019D01*
X17470865Y-7428454D01*
X17557859Y-7301134D01*
X17588464Y-7150000D01*
X17588464Y-6250000D01*
X17561897Y-6108810D01*
X17478454Y-5979135D01*
X17351134Y-5892141D01*
X17200000Y-5861536D01*
X16724168Y-5861536D01*
X16657796Y-5762204D01*
X15110056Y-4214464D01*
X16393600Y-4214464D01*
X16534790Y-4187897D01*
X16664465Y-4104454D01*
X16751459Y-3977134D01*
X16782064Y-3826000D01*
X16782064Y-1794000D01*
X16755497Y-1652810D01*
X16672054Y-1523135D01*
X16544734Y-1436141D01*
X16393600Y-1405536D01*
X14666400Y-1405536D01*
X14525210Y-1432103D01*
X14395535Y-1515546D01*
X14308541Y-1642866D01*
X14277936Y-1794000D01*
X14277936Y-3382344D01*
X14176657Y-3281065D01*
X14234600Y-2989769D01*
X14234600Y-2630231D01*
X14139860Y-2153943D01*
X13870065Y-1750166D01*
X13466288Y-1480371D01*
X12990000Y-1385631D01*
X12513712Y-1480371D01*
X12109935Y-1750166D01*
X11840140Y-2153943D01*
X11745400Y-2630231D01*
X11745400Y-2989769D01*
X11840140Y-3466057D01*
X11909092Y-3569250D01*
X11031000Y-4447342D01*
X11031000Y-4069663D01*
X11330065Y-3869834D01*
X11599860Y-3466057D01*
X11694600Y-2989769D01*
X11694600Y-2630231D01*
X11599860Y-2153943D01*
X11330065Y-1750166D01*
X10926288Y-1480371D01*
X10450000Y-1385631D01*
X9973712Y-1480371D01*
X9569935Y-1750166D01*
X9300140Y-2153943D01*
X9205400Y-2630231D01*
X9205400Y-2989769D01*
X9300140Y-3466057D01*
X9569935Y-3869834D01*
X9869000Y-4069663D01*
X9869000Y-4309342D01*
X6988046Y-7190296D01*
X6925750Y-7128000D01*
X6005000Y-7128000D01*
X6005000Y-7148000D01*
X5751000Y-7148000D01*
X5751000Y-7128000D01*
X4830250Y-7128000D01*
X4671500Y-7286750D01*
X4671500Y-7381309D01*
X4768173Y-7614698D01*
X4946801Y-7793327D01*
X4986866Y-7809922D01*
X4948641Y-7865866D01*
X4918036Y-8017000D01*
X4918036Y-8119000D01*
X3883575Y-8119000D01*
X3826534Y-8030355D01*
X3699214Y-7943361D01*
X3548080Y-7912756D01*
X2750520Y-7912756D01*
X2609330Y-7939323D01*
X2479655Y-8022766D01*
X2399004Y-8140802D01*
X2327934Y-8030355D01*
X2200614Y-7943361D01*
X2131000Y-7929264D01*
X2131000Y-7340443D01*
X2157859Y-7301134D01*
X2188464Y-7150000D01*
X2188464Y-6250000D01*
X2411536Y-6250000D01*
X2411536Y-7150000D01*
X2438103Y-7291190D01*
X2521546Y-7420865D01*
X2648866Y-7507859D01*
X2800000Y-7538464D01*
X3300000Y-7538464D01*
X3441190Y-7511897D01*
X3570865Y-7428454D01*
X3657859Y-7301134D01*
X3688464Y-7150000D01*
X3688464Y-7009624D01*
X3730300Y-6799300D01*
X3695800Y-6625858D01*
X3700967Y-6620691D01*
X4671500Y-6620691D01*
X4671500Y-6715250D01*
X4830250Y-6874000D01*
X5751000Y-6874000D01*
X5751000Y-6270750D01*
X6005000Y-6270750D01*
X6005000Y-6874000D01*
X6925750Y-6874000D01*
X7084500Y-6715250D01*
X7084500Y-6620691D01*
X6987827Y-6387302D01*
X6809199Y-6208673D01*
X6575810Y-6112000D01*
X6163750Y-6112000D01*
X6005000Y-6270750D01*
X5751000Y-6270750D01*
X5592250Y-6112000D01*
X5180190Y-6112000D01*
X4946801Y-6208673D01*
X4768173Y-6387302D01*
X4671500Y-6620691D01*
X3700967Y-6620691D01*
X5240658Y-5081000D01*
X6220000Y-5081000D01*
X6442339Y-5036774D01*
X6630829Y-4910829D01*
X7414719Y-4126939D01*
X7433712Y-4139629D01*
X7910000Y-4234369D01*
X8386288Y-4139629D01*
X8790065Y-3869834D01*
X9059860Y-3466057D01*
X9154600Y-2989769D01*
X9154600Y-2630231D01*
X9059860Y-2153943D01*
X8790065Y-1750166D01*
X8386288Y-1480371D01*
X7910000Y-1385631D01*
X7433712Y-1480371D01*
X7029935Y-1750166D01*
X6760140Y-2153943D01*
X6665400Y-2630231D01*
X6665400Y-2989769D01*
X6705745Y-3192597D01*
X6541605Y-3356737D01*
X6614600Y-2989769D01*
X6614600Y-2630231D01*
X6519860Y-2153943D01*
X6250065Y-1750166D01*
X5846288Y-1480371D01*
X5370000Y-1385631D01*
X4893712Y-1480371D01*
X4489935Y-1750166D01*
X4220140Y-2153943D01*
X4217296Y-2168243D01*
X4121954Y-1895680D01*
X3732036Y-1459268D01*
X3204791Y-1205291D01*
X3189026Y-1202642D01*
X2957000Y-1323783D01*
X2957000Y-2683000D01*
X2977000Y-2683000D01*
X2977000Y-2937000D01*
X2957000Y-2937000D01*
X2957000Y-4296217D01*
X3189026Y-4417358D01*
X3204791Y-4414709D01*
X3732036Y-4160732D01*
X4121954Y-3724320D01*
X4217296Y-3451757D01*
X4220140Y-3466057D01*
X4489935Y-3869834D01*
X4703684Y-4012656D01*
X4589171Y-4089171D01*
X2816806Y-5861536D01*
X2800000Y-5861536D01*
X2658810Y-5888103D01*
X2529135Y-5971546D01*
X2442141Y-6098866D01*
X2411536Y-6250000D01*
X2188464Y-6250000D01*
X2161897Y-6108810D01*
X2078454Y-5979135D01*
X1951134Y-5892141D01*
X1800000Y-5861536D01*
X1300000Y-5861536D01*
X1158810Y-5888103D01*
X1029135Y-5971546D01*
X942141Y-6098866D01*
X911536Y-6250000D01*
X911536Y-7150000D01*
X938103Y-7291190D01*
X969000Y-7339206D01*
X969000Y-8040409D01*
X894061Y-8150086D01*
X863456Y-8301220D01*
X863456Y-9098780D01*
X890023Y-9239970D01*
X973466Y-9369645D01*
X1100786Y-9456639D01*
X1251920Y-9487244D01*
X2049480Y-9487244D01*
X2190670Y-9460677D01*
X2320345Y-9377234D01*
X2400996Y-9259198D01*
X2472066Y-9369645D01*
X2599386Y-9456639D01*
X2750520Y-9487244D01*
X3548080Y-9487244D01*
X3689270Y-9460677D01*
X3818945Y-9377234D01*
X3884699Y-9281000D01*
X4919251Y-9281000D01*
X4918036Y-9287000D01*
X4918036Y-9795000D01*
X4944603Y-9936190D01*
X5028046Y-10065865D01*
X5155366Y-10152859D01*
X5268288Y-10175726D01*
X5256204Y-10178000D01*
X3962814Y-10178000D01*
X3960897Y-10167810D01*
X3877454Y-10038135D01*
X3750134Y-9951141D01*
X3599000Y-9920536D01*
X2799000Y-9920536D01*
X2657810Y-9947103D01*
X2640919Y-9957972D01*
X2637327Y-9949301D01*
X2458698Y-9770673D01*
X2225309Y-9674000D01*
X1984750Y-9674000D01*
X1826000Y-9832750D01*
X1826000Y-10557000D01*
X1846000Y-10557000D01*
X1846000Y-10811000D01*
X1826000Y-10811000D01*
X1826000Y-11535250D01*
X1984750Y-11694000D01*
X2031750Y-11694000D01*
X1877000Y-11848750D01*
X1877000Y-12573000D01*
X1897000Y-12573000D01*
X1897000Y-12827000D01*
X1877000Y-12827000D01*
X1877000Y-12847000D01*
X1623000Y-12847000D01*
X1623000Y-12827000D01*
X873750Y-12827000D01*
X715000Y-12985750D01*
X715000Y-13201310D01*
X811673Y-13434699D01*
X990302Y-13613327D01*
X1223691Y-13710000D01*
X1464250Y-13710000D01*
X1622998Y-13551252D01*
X1622998Y-13555344D01*
X1589171Y-13589171D01*
X1474000Y-13761536D01*
X1200000Y-13761536D01*
X1058810Y-13788103D01*
X929135Y-13871546D01*
X842141Y-13998866D01*
X811536Y-14150000D01*
X811536Y-14650000D01*
X838103Y-14791190D01*
X848972Y-14808081D01*
X840301Y-14811673D01*
X661673Y-14990302D01*
X565000Y-15223691D01*
X565000Y-15316250D01*
X723750Y-15475000D01*
X1873000Y-15475000D01*
X1873000Y-15453000D01*
X2127000Y-15453000D01*
X2127000Y-15475000D01*
X3276250Y-15475000D01*
X3435000Y-15316250D01*
X3435000Y-15223691D01*
X3338327Y-14990302D01*
X3329025Y-14981000D01*
X4937981Y-14981000D01*
X4944603Y-15016190D01*
X5028046Y-15145865D01*
X5155366Y-15232859D01*
X5268288Y-15255726D01*
X5165310Y-15275103D01*
X5111078Y-15310000D01*
X4209000Y-15310000D01*
X3986661Y-15354226D01*
X3798171Y-15480171D01*
X3414796Y-15863546D01*
X3276250Y-15725000D01*
X2127000Y-15725000D01*
X2127000Y-15747000D01*
X1873000Y-15747000D01*
X1873000Y-15725000D01*
X723750Y-15725000D01*
X565000Y-15883750D01*
X565000Y-15976309D01*
X661673Y-16209698D01*
X840301Y-16388327D01*
X847348Y-16391246D01*
X842141Y-16398866D01*
X811536Y-16550000D01*
X811536Y-17050000D01*
X838103Y-17191190D01*
X921546Y-17320865D01*
X1048866Y-17407859D01*
X1200000Y-17438464D01*
X2669000Y-17438464D01*
X2669000Y-17745974D01*
X2509698Y-17586673D01*
X2276309Y-17490000D01*
X2035750Y-17490000D01*
X1877000Y-17648750D01*
X1877000Y-18373000D01*
X1897000Y-18373000D01*
X1897000Y-18627000D01*
X1877000Y-18627000D01*
X1877000Y-19351250D01*
X2035750Y-19510000D01*
X2276309Y-19510000D01*
X2509698Y-19413327D01*
X2688327Y-19234699D01*
X2691246Y-19227652D01*
X2698866Y-19232859D01*
X2850000Y-19263464D01*
X3650000Y-19263464D01*
X3791190Y-19236897D01*
X3920865Y-19153454D01*
X4007859Y-19026134D01*
X4038464Y-18875000D01*
X4038464Y-18125000D01*
X4011897Y-17983810D01*
X3928454Y-17854135D01*
X3831000Y-17787548D01*
X3831000Y-17090658D01*
X4449658Y-16472000D01*
X5110202Y-16472000D01*
X5155366Y-16502859D01*
X5306500Y-16533464D01*
X6449500Y-16533464D01*
X6590690Y-16506897D01*
X6720365Y-16423454D01*
X6807359Y-16296134D01*
X6837964Y-16145000D01*
X6837964Y-15637000D01*
X6811397Y-15495810D01*
X6727954Y-15366135D01*
X6600634Y-15279141D01*
X6487712Y-15256274D01*
X6590690Y-15236897D01*
X6720365Y-15153454D01*
X6807359Y-15026134D01*
X6837964Y-14875000D01*
X6837964Y-14659622D01*
X8619000Y-16440658D01*
X8619000Y-17100000D01*
X8663226Y-17322339D01*
X8789171Y-17510829D01*
X10819000Y-19540658D01*
X10819000Y-22207983D01*
X10809977Y-22160030D01*
X10726534Y-22030355D01*
X10631000Y-21965079D01*
X10631000Y-21240443D01*
X10657859Y-21201134D01*
X10688464Y-21050000D01*
X10688464Y-20150000D01*
X10661897Y-20008810D01*
X10578454Y-19879135D01*
X10451134Y-19792141D01*
X10300000Y-19761536D01*
X9800000Y-19761536D01*
X9658810Y-19788103D01*
X9529135Y-19871546D01*
X9442141Y-19998866D01*
X9411536Y-20150000D01*
X9411536Y-21050000D01*
X9438103Y-21191190D01*
X9469000Y-21239206D01*
X9469000Y-21922714D01*
X9309178Y-21762893D01*
X9075789Y-21666220D01*
X8836450Y-21666220D01*
X8677700Y-21824970D01*
X8677700Y-22573000D01*
X8697700Y-22573000D01*
X8697700Y-22827000D01*
X8677700Y-22827000D01*
X8677700Y-23575030D01*
X8836450Y-23733780D01*
X9075789Y-23733780D01*
X9309178Y-23637107D01*
X9487807Y-23458479D01*
X9490955Y-23450879D01*
X9499386Y-23456639D01*
X9650520Y-23487244D01*
X10448080Y-23487244D01*
X10589270Y-23460677D01*
X10718945Y-23377234D01*
X10805939Y-23249914D01*
X10819000Y-23185416D01*
X10819000Y-23400000D01*
X10863226Y-23622339D01*
X10989171Y-23810829D01*
X11359744Y-24181402D01*
X11257910Y-24200563D01*
X11128235Y-24284006D01*
X11041241Y-24411326D01*
X11010636Y-24562460D01*
X11010636Y-25419000D01*
X8300000Y-25419000D01*
X8077661Y-25463226D01*
X7889171Y-25589171D01*
X7710000Y-25768342D01*
X7710000Y-25623691D01*
X7613327Y-25390302D01*
X7434699Y-25211673D01*
X7285807Y-25150000D01*
X7434699Y-25088327D01*
X7613327Y-24909698D01*
X7710000Y-24676309D01*
X7710000Y-24435750D01*
X7551250Y-24277000D01*
X6827000Y-24277000D01*
X6827000Y-25026250D01*
X6950750Y-25150000D01*
X6827000Y-25273750D01*
X6827000Y-26023000D01*
X6847000Y-26023000D01*
X6847000Y-26277000D01*
X6827000Y-26277000D01*
X6827000Y-26297000D01*
X6573000Y-26297000D01*
X6573000Y-26277000D01*
X6553000Y-26277000D01*
X6553000Y-26023000D01*
X6573000Y-26023000D01*
X6573000Y-25273750D01*
X6449250Y-25150000D01*
X6573000Y-25026250D01*
X6573000Y-24277000D01*
X6553000Y-24277000D01*
X6553000Y-24023000D01*
X6573000Y-24023000D01*
X6573000Y-24003000D01*
X6827000Y-24003000D01*
X6827000Y-24023000D01*
X7551250Y-24023000D01*
X7710000Y-23864250D01*
X7710000Y-23623691D01*
X7661347Y-23506233D01*
X7792222Y-23637107D01*
X8025611Y-23733780D01*
X8264950Y-23733780D01*
X8423700Y-23575030D01*
X8423700Y-22827000D01*
X7675670Y-22827000D01*
X7516920Y-22985750D01*
X7516920Y-23225090D01*
X7565572Y-23342547D01*
X7434699Y-23211673D01*
X7427652Y-23208754D01*
X7432859Y-23201134D01*
X7463464Y-23050000D01*
X7463464Y-22508194D01*
X7537164Y-22434494D01*
X7675670Y-22573000D01*
X8423700Y-22573000D01*
X8423700Y-21824970D01*
X8285194Y-21686464D01*
X8533194Y-21438464D01*
X8800000Y-21438464D01*
X8941190Y-21411897D01*
X9070865Y-21328454D01*
X9157859Y-21201134D01*
X9188464Y-21050000D01*
X9188464Y-20150000D01*
X9161897Y-20008810D01*
X9078454Y-19879135D01*
X8951134Y-19792141D01*
X8800000Y-19761536D01*
X8300000Y-19761536D01*
X8158810Y-19788103D01*
X8037696Y-19866038D01*
X7538464Y-19366806D01*
X7538464Y-19100000D01*
X7511897Y-18958810D01*
X7428454Y-18829135D01*
X7301134Y-18742141D01*
X7150000Y-18711536D01*
X6250000Y-18711536D01*
X6108810Y-18738103D01*
X6060794Y-18769000D01*
X5150000Y-18769000D01*
X4927661Y-18813226D01*
X4739171Y-18939171D01*
X3430406Y-20247936D01*
X1784000Y-20247936D01*
X1642810Y-20274503D01*
X1513135Y-20357946D01*
X1426141Y-20485266D01*
X1395536Y-20636400D01*
X1395536Y-22363600D01*
X1422103Y-22504790D01*
X1505546Y-22634465D01*
X1632866Y-22721459D01*
X1784000Y-22752064D01*
X1881183Y-22752064D01*
X1449268Y-23137964D01*
X1195291Y-23665209D01*
X1192642Y-23680974D01*
X1313783Y-23913000D01*
X2673000Y-23913000D01*
X2673000Y-23893000D01*
X2927000Y-23893000D01*
X2927000Y-23913000D01*
X2947000Y-23913000D01*
X2947000Y-24167000D01*
X2927000Y-24167000D01*
X2927000Y-24187000D01*
X2673000Y-24187000D01*
X2673000Y-24167000D01*
X1313783Y-24167000D01*
X1192642Y-24399026D01*
X1195291Y-24414791D01*
X1449268Y-24942036D01*
X1885680Y-25331954D01*
X2158243Y-25427296D01*
X2143943Y-25430140D01*
X1740166Y-25699935D01*
X1470371Y-26103712D01*
X1375631Y-26580000D01*
X1470371Y-27056288D01*
X1740166Y-27460065D01*
X2143943Y-27729860D01*
X2620231Y-27824600D01*
X2979769Y-27824600D01*
X3456057Y-27729860D01*
X3787044Y-27508702D01*
X5389171Y-29110829D01*
X5577661Y-29236774D01*
X5800000Y-29281000D01*
X7300000Y-29281000D01*
X7522339Y-29236774D01*
X7710829Y-29110829D01*
X8136422Y-28685236D01*
X8186062Y-28934791D01*
X8377039Y-29220608D01*
X8662856Y-29411585D01*
X9000000Y-29478647D01*
X9337144Y-29411585D01*
X9622961Y-29220608D01*
X9813938Y-28934791D01*
X9881000Y-28597647D01*
X9881000Y-28002353D01*
X9813938Y-27665209D01*
X9690853Y-27481000D01*
X10359342Y-27481000D01*
X10889171Y-28010829D01*
X11077661Y-28136774D01*
X11300000Y-28181000D01*
X15200000Y-28181000D01*
X15422339Y-28136774D01*
X15610829Y-28010829D01*
X16045693Y-27575965D01*
X15986062Y-27665209D01*
X15919000Y-28002353D01*
X15919000Y-28597647D01*
X15986062Y-28934791D01*
X16177039Y-29220608D01*
X16462856Y-29411585D01*
X16800000Y-29478647D01*
X17002193Y-29438428D01*
X16997197Y-29441767D01*
X16357552Y-29569000D01*
X2042452Y-29569000D01*
X1402802Y-29441766D01*
X896519Y-29103479D01*
X558233Y-28597197D01*
X431000Y-27957552D01*
X431000Y-18785750D01*
X715000Y-18785750D01*
X715000Y-19001310D01*
X811673Y-19234699D01*
X990302Y-19413327D01*
X1223691Y-19510000D01*
X1464250Y-19510000D01*
X1623000Y-19351250D01*
X1623000Y-18627000D01*
X873750Y-18627000D01*
X715000Y-18785750D01*
X431000Y-18785750D01*
X431000Y-17998690D01*
X715000Y-17998690D01*
X715000Y-18214250D01*
X873750Y-18373000D01*
X1623000Y-18373000D01*
X1623000Y-17648750D01*
X1464250Y-17490000D01*
X1223691Y-17490000D01*
X990302Y-17586673D01*
X811673Y-17765301D01*
X715000Y-17998690D01*
X431000Y-17998690D01*
X431000Y-10969750D01*
X664000Y-10969750D01*
X664000Y-11185310D01*
X760673Y-11418699D01*
X939302Y-11597327D01*
X1172691Y-11694000D01*
X1214034Y-11694000D01*
X990302Y-11786673D01*
X811673Y-11965301D01*
X715000Y-12198690D01*
X715000Y-12414250D01*
X873750Y-12573000D01*
X1623000Y-12573000D01*
X1623000Y-11848750D01*
X1464250Y-11690000D01*
X1417250Y-11690000D01*
X1572000Y-11535250D01*
X1572000Y-10811000D01*
X822750Y-10811000D01*
X664000Y-10969750D01*
X431000Y-10969750D01*
X431000Y-10182690D01*
X664000Y-10182690D01*
X664000Y-10398250D01*
X822750Y-10557000D01*
X1572000Y-10557000D01*
X1572000Y-9832750D01*
X1413250Y-9674000D01*
X1172691Y-9674000D01*
X939302Y-9770673D01*
X760673Y-9949301D01*
X664000Y-10182690D01*
X431000Y-10182690D01*
X431000Y-3171913D01*
X1344816Y-3171913D01*
X1538046Y-3724320D01*
X1927964Y-4160732D01*
X2455209Y-4414709D01*
X2470974Y-4417358D01*
X2703000Y-4296217D01*
X2703000Y-2937000D01*
X1489076Y-2937000D01*
X1344816Y-3171913D01*
X431000Y-3171913D01*
X431000Y-2448087D01*
X1344816Y-2448087D01*
X1489076Y-2683000D01*
X2703000Y-2683000D01*
X2703000Y-1323783D01*
X2470974Y-1202642D01*
X2455209Y-1205291D01*
X1927964Y-1459268D01*
X1538046Y-1895680D01*
X1344816Y-2448087D01*
X431000Y-2448087D01*
X431000Y-2042448D01*
X558233Y-1402803D01*
X896519Y-896521D01*
X1402802Y-558234D01*
X2042452Y-431000D01*
X16357552Y-431000D01*
X16997197Y-558233D01*
G36*
X15325944Y-5861536D02*
X15200000Y-5861536D01*
X15058810Y-5888103D01*
X14929135Y-5971546D01*
X14842141Y-6098866D01*
X14838064Y-6119000D01*
X12529000Y-6119000D01*
X12306661Y-6163226D01*
X12118171Y-6289171D01*
X12048806Y-6358536D01*
X11656500Y-6358536D01*
X11515310Y-6385103D01*
X11385635Y-6468546D01*
X11298641Y-6595866D01*
X11268036Y-6747000D01*
X11268036Y-7255000D01*
X11294603Y-7396190D01*
X11378046Y-7525865D01*
X11505366Y-7612859D01*
X11618288Y-7635726D01*
X11515310Y-7655103D01*
X11385635Y-7738546D01*
X11298641Y-7865866D01*
X11268036Y-8017000D01*
X11268036Y-8525000D01*
X11294603Y-8666190D01*
X11378046Y-8795865D01*
X11505366Y-8882859D01*
X11618288Y-8905726D01*
X11515310Y-8925103D01*
X11385635Y-9008546D01*
X11298641Y-9135866D01*
X11268036Y-9287000D01*
X11268036Y-9795000D01*
X11294603Y-9936190D01*
X11378046Y-10065865D01*
X11505366Y-10152859D01*
X11618288Y-10175726D01*
X11515310Y-10195103D01*
X11461078Y-10230000D01*
X11451658Y-10230000D01*
X10677122Y-9455464D01*
X10577661Y-9214748D01*
X10386259Y-9023013D01*
X10136054Y-8919118D01*
X9865135Y-8918882D01*
X9614748Y-9022339D01*
X9423013Y-9213741D01*
X9319118Y-9463946D01*
X9318882Y-9734865D01*
X9422339Y-9985252D01*
X9613741Y-10176987D01*
X9855871Y-10277529D01*
X10800171Y-11221829D01*
X10988661Y-11347774D01*
X11211000Y-11392000D01*
X11460202Y-11392000D01*
X11505366Y-11422859D01*
X11618288Y-11445726D01*
X11515310Y-11465103D01*
X11385635Y-11548546D01*
X11298641Y-11675866D01*
X11268036Y-11827000D01*
X11268036Y-12335000D01*
X11294603Y-12476190D01*
X11378046Y-12605865D01*
X11505366Y-12692859D01*
X11618288Y-12715726D01*
X11515310Y-12735103D01*
X11385635Y-12818546D01*
X11298641Y-12945866D01*
X11268036Y-13097000D01*
X11268036Y-13146378D01*
X10577122Y-12455464D01*
X10477661Y-12214748D01*
X10286259Y-12023013D01*
X10036054Y-11919118D01*
X9765135Y-11918882D01*
X9514748Y-12022339D01*
X9323013Y-12213741D01*
X9219118Y-12463946D01*
X9218882Y-12734865D01*
X9322339Y-12985252D01*
X9513741Y-13176987D01*
X9755871Y-13277529D01*
X10319000Y-13840658D01*
X10319000Y-15100000D01*
X10363226Y-15322339D01*
X10489171Y-15510829D01*
X11280171Y-16301829D01*
X11323142Y-16330541D01*
X11378046Y-16415865D01*
X11505366Y-16502859D01*
X11656500Y-16533464D01*
X12799500Y-16533464D01*
X12940690Y-16506897D01*
X13070365Y-16423454D01*
X13157359Y-16296134D01*
X13187964Y-16145000D01*
X13187964Y-15637000D01*
X13161397Y-15495810D01*
X13077954Y-15366135D01*
X12950634Y-15279141D01*
X12837712Y-15256274D01*
X12940690Y-15236897D01*
X13070365Y-15153454D01*
X13157359Y-15026134D01*
X13187964Y-14875000D01*
X13187964Y-14367000D01*
X13161397Y-14225810D01*
X13077954Y-14096135D01*
X12950634Y-14009141D01*
X12837712Y-13986274D01*
X12940690Y-13966897D01*
X13070365Y-13883454D01*
X13157359Y-13756134D01*
X13187964Y-13605000D01*
X13187964Y-13097000D01*
X13161397Y-12955810D01*
X13077954Y-12826135D01*
X12950634Y-12739141D01*
X12837712Y-12716274D01*
X12940690Y-12696897D01*
X13070365Y-12613454D01*
X13157359Y-12486134D01*
X13187964Y-12335000D01*
X13187964Y-11827000D01*
X13161397Y-11685810D01*
X13077954Y-11556135D01*
X12950634Y-11469141D01*
X12837712Y-11446274D01*
X12940690Y-11426897D01*
X13070365Y-11343454D01*
X13157359Y-11216134D01*
X13187964Y-11065000D01*
X13187964Y-10557000D01*
X13161397Y-10415810D01*
X13077954Y-10286135D01*
X12950634Y-10199141D01*
X12837712Y-10176274D01*
X12940690Y-10156897D01*
X13070365Y-10073454D01*
X13157359Y-9946134D01*
X13187964Y-9795000D01*
X13187964Y-9287000D01*
X13161397Y-9145810D01*
X13077954Y-9016135D01*
X12950634Y-8929141D01*
X12837712Y-8906274D01*
X12940690Y-8886897D01*
X13070365Y-8803454D01*
X13157359Y-8676134D01*
X13187964Y-8525000D01*
X13187964Y-8017000D01*
X13161397Y-7875810D01*
X13077954Y-7746135D01*
X12950634Y-7659141D01*
X12837712Y-7636274D01*
X12940690Y-7616897D01*
X13070365Y-7533454D01*
X13157359Y-7406134D01*
X13182699Y-7281000D01*
X13319000Y-7281000D01*
X13319000Y-15000000D01*
X13363226Y-15222339D01*
X13489171Y-15410829D01*
X14507094Y-16428752D01*
X14470371Y-16483712D01*
X14375631Y-16960000D01*
X14470371Y-17436288D01*
X14740166Y-17840065D01*
X15143943Y-18109860D01*
X15620231Y-18204600D01*
X15979769Y-18204600D01*
X16456057Y-18109860D01*
X16719000Y-17934167D01*
X16719000Y-18247936D01*
X14784000Y-18247936D01*
X14642810Y-18274503D01*
X14513135Y-18357946D01*
X14426141Y-18485266D01*
X14395536Y-18636400D01*
X14395536Y-20363600D01*
X14422103Y-20504790D01*
X14505546Y-20634465D01*
X14632866Y-20721459D01*
X14784000Y-20752064D01*
X15219000Y-20752064D01*
X15219000Y-25659342D01*
X15034100Y-25844242D01*
X15034100Y-25523210D01*
X14875350Y-25364460D01*
X14299100Y-25364460D01*
X14299100Y-25384460D01*
X14137564Y-25384460D01*
X14137564Y-24562460D01*
X14110997Y-24421270D01*
X14099100Y-24402781D01*
X14099100Y-24086210D01*
X14299100Y-24086210D01*
X14299100Y-25110460D01*
X14875350Y-25110460D01*
X15034100Y-24951710D01*
X15034100Y-24436151D01*
X14937427Y-24202762D01*
X14758799Y-24024133D01*
X14525410Y-23927460D01*
X14457850Y-23927460D01*
X14299100Y-24086210D01*
X14099100Y-24086210D01*
X13940350Y-23927460D01*
X13872790Y-23927460D01*
X13639401Y-24024133D01*
X13489539Y-24173996D01*
X13480100Y-24173996D01*
X13480100Y-23899100D01*
X13454392Y-23769858D01*
X13538000Y-23686250D01*
X13538000Y-22727000D01*
X13792000Y-22727000D01*
X13792000Y-23686250D01*
X13950750Y-23845000D01*
X14246309Y-23845000D01*
X14479698Y-23748327D01*
X14658327Y-23569699D01*
X14755000Y-23336310D01*
X14755000Y-22885750D01*
X14596250Y-22727000D01*
X13792000Y-22727000D01*
X13538000Y-22727000D01*
X13518000Y-22727000D01*
X13518000Y-22473000D01*
X13538000Y-22473000D01*
X13538000Y-21513750D01*
X13792000Y-21513750D01*
X13792000Y-22473000D01*
X14596250Y-22473000D01*
X14755000Y-22314250D01*
X14755000Y-21863690D01*
X14658327Y-21630301D01*
X14479698Y-21451673D01*
X14246309Y-21355000D01*
X13950750Y-21355000D01*
X13792000Y-21513750D01*
X13538000Y-21513750D01*
X13379250Y-21355000D01*
X13083691Y-21355000D01*
X12850302Y-21451673D01*
X12781000Y-21520975D01*
X12781000Y-19000000D01*
X12736774Y-18777661D01*
X12610829Y-18589171D01*
X10781000Y-16759342D01*
X10781000Y-16100000D01*
X10736774Y-15877661D01*
X10610829Y-15689171D01*
X6837964Y-11916306D01*
X6837964Y-11827000D01*
X6811397Y-11685810D01*
X6727954Y-11556135D01*
X6600634Y-11469141D01*
X6487712Y-11446274D01*
X6590690Y-11426897D01*
X6720365Y-11343454D01*
X6807359Y-11216134D01*
X6837964Y-11065000D01*
X6837964Y-10557000D01*
X6811397Y-10415810D01*
X6727954Y-10286135D01*
X6600634Y-10199141D01*
X6487712Y-10176274D01*
X6590690Y-10156897D01*
X6720365Y-10073454D01*
X6807359Y-9946134D01*
X6837964Y-9795000D01*
X6837964Y-9681000D01*
X7200000Y-9681000D01*
X7422339Y-9636774D01*
X7610829Y-9510829D01*
X12904330Y-4217328D01*
X12990000Y-4234369D01*
X13466288Y-4139629D01*
X13548863Y-4084455D01*
X15325944Y-5861536D01*
X15325944Y-5861536D01*
G37*
X15325944Y-5861536D02*
X15200000Y-5861536D01*
X15058810Y-5888103D01*
X14929135Y-5971546D01*
X14842141Y-6098866D01*
X14838064Y-6119000D01*
X12529000Y-6119000D01*
X12306661Y-6163226D01*
X12118171Y-6289171D01*
X12048806Y-6358536D01*
X11656500Y-6358536D01*
X11515310Y-6385103D01*
X11385635Y-6468546D01*
X11298641Y-6595866D01*
X11268036Y-6747000D01*
X11268036Y-7255000D01*
X11294603Y-7396190D01*
X11378046Y-7525865D01*
X11505366Y-7612859D01*
X11618288Y-7635726D01*
X11515310Y-7655103D01*
X11385635Y-7738546D01*
X11298641Y-7865866D01*
X11268036Y-8017000D01*
X11268036Y-8525000D01*
X11294603Y-8666190D01*
X11378046Y-8795865D01*
X11505366Y-8882859D01*
X11618288Y-8905726D01*
X11515310Y-8925103D01*
X11385635Y-9008546D01*
X11298641Y-9135866D01*
X11268036Y-9287000D01*
X11268036Y-9795000D01*
X11294603Y-9936190D01*
X11378046Y-10065865D01*
X11505366Y-10152859D01*
X11618288Y-10175726D01*
X11515310Y-10195103D01*
X11461078Y-10230000D01*
X11451658Y-10230000D01*
X10677122Y-9455464D01*
X10577661Y-9214748D01*
X10386259Y-9023013D01*
X10136054Y-8919118D01*
X9865135Y-8918882D01*
X9614748Y-9022339D01*
X9423013Y-9213741D01*
X9319118Y-9463946D01*
X9318882Y-9734865D01*
X9422339Y-9985252D01*
X9613741Y-10176987D01*
X9855871Y-10277529D01*
X10800171Y-11221829D01*
X10988661Y-11347774D01*
X11211000Y-11392000D01*
X11460202Y-11392000D01*
X11505366Y-11422859D01*
X11618288Y-11445726D01*
X11515310Y-11465103D01*
X11385635Y-11548546D01*
X11298641Y-11675866D01*
X11268036Y-11827000D01*
X11268036Y-12335000D01*
X11294603Y-12476190D01*
X11378046Y-12605865D01*
X11505366Y-12692859D01*
X11618288Y-12715726D01*
X11515310Y-12735103D01*
X11385635Y-12818546D01*
X11298641Y-12945866D01*
X11268036Y-13097000D01*
X11268036Y-13146378D01*
X10577122Y-12455464D01*
X10477661Y-12214748D01*
X10286259Y-12023013D01*
X10036054Y-11919118D01*
X9765135Y-11918882D01*
X9514748Y-12022339D01*
X9323013Y-12213741D01*
X9219118Y-12463946D01*
X9218882Y-12734865D01*
X9322339Y-12985252D01*
X9513741Y-13176987D01*
X9755871Y-13277529D01*
X10319000Y-13840658D01*
X10319000Y-15100000D01*
X10363226Y-15322339D01*
X10489171Y-15510829D01*
X11280171Y-16301829D01*
X11323142Y-16330541D01*
X11378046Y-16415865D01*
X11505366Y-16502859D01*
X11656500Y-16533464D01*
X12799500Y-16533464D01*
X12940690Y-16506897D01*
X13070365Y-16423454D01*
X13157359Y-16296134D01*
X13187964Y-16145000D01*
X13187964Y-15637000D01*
X13161397Y-15495810D01*
X13077954Y-15366135D01*
X12950634Y-15279141D01*
X12837712Y-15256274D01*
X12940690Y-15236897D01*
X13070365Y-15153454D01*
X13157359Y-15026134D01*
X13187964Y-14875000D01*
X13187964Y-14367000D01*
X13161397Y-14225810D01*
X13077954Y-14096135D01*
X12950634Y-14009141D01*
X12837712Y-13986274D01*
X12940690Y-13966897D01*
X13070365Y-13883454D01*
X13157359Y-13756134D01*
X13187964Y-13605000D01*
X13187964Y-13097000D01*
X13161397Y-12955810D01*
X13077954Y-12826135D01*
X12950634Y-12739141D01*
X12837712Y-12716274D01*
X12940690Y-12696897D01*
X13070365Y-12613454D01*
X13157359Y-12486134D01*
X13187964Y-12335000D01*
X13187964Y-11827000D01*
X13161397Y-11685810D01*
X13077954Y-11556135D01*
X12950634Y-11469141D01*
X12837712Y-11446274D01*
X12940690Y-11426897D01*
X13070365Y-11343454D01*
X13157359Y-11216134D01*
X13187964Y-11065000D01*
X13187964Y-10557000D01*
X13161397Y-10415810D01*
X13077954Y-10286135D01*
X12950634Y-10199141D01*
X12837712Y-10176274D01*
X12940690Y-10156897D01*
X13070365Y-10073454D01*
X13157359Y-9946134D01*
X13187964Y-9795000D01*
X13187964Y-9287000D01*
X13161397Y-9145810D01*
X13077954Y-9016135D01*
X12950634Y-8929141D01*
X12837712Y-8906274D01*
X12940690Y-8886897D01*
X13070365Y-8803454D01*
X13157359Y-8676134D01*
X13187964Y-8525000D01*
X13187964Y-8017000D01*
X13161397Y-7875810D01*
X13077954Y-7746135D01*
X12950634Y-7659141D01*
X12837712Y-7636274D01*
X12940690Y-7616897D01*
X13070365Y-7533454D01*
X13157359Y-7406134D01*
X13182699Y-7281000D01*
X13319000Y-7281000D01*
X13319000Y-15000000D01*
X13363226Y-15222339D01*
X13489171Y-15410829D01*
X14507094Y-16428752D01*
X14470371Y-16483712D01*
X14375631Y-16960000D01*
X14470371Y-17436288D01*
X14740166Y-17840065D01*
X15143943Y-18109860D01*
X15620231Y-18204600D01*
X15979769Y-18204600D01*
X16456057Y-18109860D01*
X16719000Y-17934167D01*
X16719000Y-18247936D01*
X14784000Y-18247936D01*
X14642810Y-18274503D01*
X14513135Y-18357946D01*
X14426141Y-18485266D01*
X14395536Y-18636400D01*
X14395536Y-20363600D01*
X14422103Y-20504790D01*
X14505546Y-20634465D01*
X14632866Y-20721459D01*
X14784000Y-20752064D01*
X15219000Y-20752064D01*
X15219000Y-25659342D01*
X15034100Y-25844242D01*
X15034100Y-25523210D01*
X14875350Y-25364460D01*
X14299100Y-25364460D01*
X14299100Y-25384460D01*
X14137564Y-25384460D01*
X14137564Y-24562460D01*
X14110997Y-24421270D01*
X14099100Y-24402781D01*
X14099100Y-24086210D01*
X14299100Y-24086210D01*
X14299100Y-25110460D01*
X14875350Y-25110460D01*
X15034100Y-24951710D01*
X15034100Y-24436151D01*
X14937427Y-24202762D01*
X14758799Y-24024133D01*
X14525410Y-23927460D01*
X14457850Y-23927460D01*
X14299100Y-24086210D01*
X14099100Y-24086210D01*
X13940350Y-23927460D01*
X13872790Y-23927460D01*
X13639401Y-24024133D01*
X13489539Y-24173996D01*
X13480100Y-24173996D01*
X13480100Y-23899100D01*
X13454392Y-23769858D01*
X13538000Y-23686250D01*
X13538000Y-22727000D01*
X13792000Y-22727000D01*
X13792000Y-23686250D01*
X13950750Y-23845000D01*
X14246309Y-23845000D01*
X14479698Y-23748327D01*
X14658327Y-23569699D01*
X14755000Y-23336310D01*
X14755000Y-22885750D01*
X14596250Y-22727000D01*
X13792000Y-22727000D01*
X13538000Y-22727000D01*
X13518000Y-22727000D01*
X13518000Y-22473000D01*
X13538000Y-22473000D01*
X13538000Y-21513750D01*
X13792000Y-21513750D01*
X13792000Y-22473000D01*
X14596250Y-22473000D01*
X14755000Y-22314250D01*
X14755000Y-21863690D01*
X14658327Y-21630301D01*
X14479698Y-21451673D01*
X14246309Y-21355000D01*
X13950750Y-21355000D01*
X13792000Y-21513750D01*
X13538000Y-21513750D01*
X13379250Y-21355000D01*
X13083691Y-21355000D01*
X12850302Y-21451673D01*
X12781000Y-21520975D01*
X12781000Y-19000000D01*
X12736774Y-18777661D01*
X12610829Y-18589171D01*
X10781000Y-16759342D01*
X10781000Y-16100000D01*
X10736774Y-15877661D01*
X10610829Y-15689171D01*
X6837964Y-11916306D01*
X6837964Y-11827000D01*
X6811397Y-11685810D01*
X6727954Y-11556135D01*
X6600634Y-11469141D01*
X6487712Y-11446274D01*
X6590690Y-11426897D01*
X6720365Y-11343454D01*
X6807359Y-11216134D01*
X6837964Y-11065000D01*
X6837964Y-10557000D01*
X6811397Y-10415810D01*
X6727954Y-10286135D01*
X6600634Y-10199141D01*
X6487712Y-10176274D01*
X6590690Y-10156897D01*
X6720365Y-10073454D01*
X6807359Y-9946134D01*
X6837964Y-9795000D01*
X6837964Y-9681000D01*
X7200000Y-9681000D01*
X7422339Y-9636774D01*
X7610829Y-9510829D01*
X12904330Y-4217328D01*
X12990000Y-4234369D01*
X13466288Y-4139629D01*
X13548863Y-4084455D01*
X15325944Y-5861536D01*
M02*
