G04 #@! TF.FileFunction,Soldermask,Top*
%FSLAX46Y46*%
G04 Gerber Fmt 4.6, Leading zero omitted, Abs format (unit mm)*
G04 Created by KiCad (PCBNEW 4.0.2-stable) date Sunday, 05 June 2016 'pmt' 16:31:40*
%MOMM*%
G01*
G04 APERTURE LIST*
%ADD10C,0.100000*%
%ADD11R,0.797560X0.797560*%
%ADD12R,0.910000X1.220000*%
%ADD13R,2.032000X1.727200*%
%ADD14O,2.032000X1.727200*%
%ADD15R,1.727200X2.032000*%
%ADD16O,1.727200X2.032000*%
%ADD17R,0.500000X0.900000*%
%ADD18R,1.143000X0.508000*%
%ADD19R,0.400000X1.350000*%
%ADD20O,1.250000X0.950000*%
%ADD21O,1.000000X1.550000*%
%ADD22R,1.600000X0.500000*%
%ADD23R,1.200000X0.750000*%
%ADD24R,0.750000X1.200000*%
G04 APERTURE END LIST*
D10*
D11*
X14973300Y-20320000D03*
X13474700Y-20320000D03*
X1790700Y-7493000D03*
X3289300Y-7493000D03*
X19037300Y-7493000D03*
X17538700Y-7493000D03*
D12*
X4810000Y-23114000D03*
X1540000Y-23114000D03*
D13*
X2667000Y-31750000D03*
D14*
X2667000Y-29210000D03*
X2667000Y-26670000D03*
D15*
X16764000Y-2540000D03*
D16*
X14224000Y-2540000D03*
X11684000Y-2540000D03*
X9144000Y-2540000D03*
X6604000Y-2540000D03*
X4064000Y-2540000D03*
D17*
X17665000Y-20320000D03*
X19165000Y-20320000D03*
X3163000Y-10795000D03*
X1663000Y-10795000D03*
X17665000Y-17145000D03*
X19165000Y-17145000D03*
X17665000Y-10795000D03*
X19165000Y-10795000D03*
D18*
X13716000Y-8128000D03*
X13716000Y-10668000D03*
X13716000Y-11938000D03*
X13716000Y-13208000D03*
X13716000Y-14478000D03*
X13716000Y-15748000D03*
X13716000Y-17018000D03*
X7366000Y-17018000D03*
X7366000Y-15748000D03*
X7366000Y-14478000D03*
X7366000Y-13208000D03*
X7366000Y-11938000D03*
X7366000Y-10668000D03*
X7366000Y-9398000D03*
X7366000Y-8128000D03*
X13716000Y-9398000D03*
D19*
X9113100Y-27901460D03*
X9763100Y-27901460D03*
X10413100Y-27901460D03*
X11063100Y-27901460D03*
X11713100Y-27901460D03*
D20*
X7913100Y-27901460D03*
X12913100Y-27901460D03*
D21*
X6913100Y-30601460D03*
X13913100Y-30601460D03*
D13*
X18034000Y-31750000D03*
D14*
X18034000Y-29210000D03*
X18034000Y-26670000D03*
D22*
X4318000Y-19234000D03*
X4318000Y-18034000D03*
X4318000Y-16834000D03*
D23*
X6924000Y-23368000D03*
X8824000Y-23368000D03*
X18857000Y-23368000D03*
X16957000Y-23368000D03*
X18857000Y-13970000D03*
X16957000Y-13970000D03*
X12512000Y-23368000D03*
X14412000Y-23368000D03*
X3744000Y-13970000D03*
X1844000Y-13970000D03*
D24*
X1651000Y-19111000D03*
X1651000Y-17211000D03*
M02*
