G04 #@! TF.FileFunction,Soldermask,Top*
%FSLAX46Y46*%
G04 Gerber Fmt 4.6, Leading zero omitted, Abs format (unit mm)*
G04 Created by KiCad (PCBNEW 4.0.2-stable) date Sunday, 21 August 2016 'pmt' 15:41:42*
%MOMM*%
G01*
G04 APERTURE LIST*
%ADD10C,0.100000*%
%ADD11R,1.143000X0.508000*%
%ADD12R,0.800100X0.800100*%
%ADD13R,0.800000X0.750000*%
%ADD14R,0.500000X1.600000*%
%ADD15R,0.500000X0.900000*%
%ADD16R,1.727200X2.032000*%
%ADD17O,1.727200X2.032000*%
%ADD18R,2.032000X1.727200*%
%ADD19O,2.032000X1.727200*%
%ADD20R,0.400000X1.350000*%
%ADD21O,1.000000X1.550000*%
%ADD22C,0.500000*%
%ADD23R,0.797560X0.797560*%
G04 APERTURE END LIST*
D10*
D11*
X48175000Y-6555000D03*
X48175000Y-9095000D03*
X48175000Y-10365000D03*
X48175000Y-11635000D03*
X48175000Y-12905000D03*
X48175000Y-14175000D03*
X48175000Y-15445000D03*
X41825000Y-15445000D03*
X41825000Y-14175000D03*
X41825000Y-12905000D03*
X41825000Y-11635000D03*
X41825000Y-10365000D03*
X41825000Y-9095000D03*
X41825000Y-7825000D03*
X41825000Y-6555000D03*
X48175000Y-7825000D03*
D12*
X52400760Y-21200000D03*
X52400760Y-19300000D03*
X50401780Y-20250000D03*
D13*
X39100000Y-14200000D03*
X37600000Y-14200000D03*
D14*
X37500000Y-12450000D03*
X38700000Y-12450000D03*
X39900000Y-12450000D03*
D15*
X51000000Y-6150000D03*
X52500000Y-6150000D03*
X38950000Y-6150000D03*
X37450000Y-6150000D03*
X37450000Y-17950000D03*
X38950000Y-17950000D03*
D16*
X51350000Y-2700000D03*
D17*
X48810000Y-2700000D03*
X46270000Y-2700000D03*
X43730000Y-2700000D03*
X41190000Y-2700000D03*
X38650000Y-2700000D03*
D18*
X51450000Y-15350000D03*
D19*
X51450000Y-12810000D03*
X51450000Y-10270000D03*
D20*
X43699100Y-20037460D03*
X44349100Y-20037460D03*
X44999100Y-20037460D03*
X45649100Y-20037460D03*
X46299100Y-20037460D03*
D21*
X41100000Y-23100000D03*
X48900000Y-23100000D03*
D22*
X47000000Y-21200000D03*
X43000000Y-21200000D03*
D23*
X52399300Y-7700000D03*
X50900700Y-7700000D03*
X37550700Y-7700000D03*
X39049300Y-7700000D03*
X37550700Y-19500000D03*
X39049300Y-19500000D03*
D13*
X39100000Y-9200000D03*
X37600000Y-9200000D03*
X39100000Y-10700000D03*
X37600000Y-10700000D03*
X50800000Y-17850000D03*
X52300000Y-17850000D03*
X48400000Y-17850000D03*
X46900000Y-17850000D03*
X39100000Y-21000000D03*
X37600000Y-21000000D03*
X39100000Y-16400000D03*
X37600000Y-16400000D03*
X41900000Y-17850000D03*
X43400000Y-17850000D03*
X41900000Y-67850000D03*
X43400000Y-67850000D03*
X39100000Y-66400000D03*
X37600000Y-66400000D03*
X39100000Y-71000000D03*
X37600000Y-71000000D03*
X48400000Y-67850000D03*
X46900000Y-67850000D03*
X50800000Y-67850000D03*
X52300000Y-67850000D03*
X39100000Y-60700000D03*
X37600000Y-60700000D03*
X39100000Y-59200000D03*
X37600000Y-59200000D03*
D23*
X37550700Y-69500000D03*
X39049300Y-69500000D03*
X37550700Y-57700000D03*
X39049300Y-57700000D03*
X52399300Y-57700000D03*
X50900700Y-57700000D03*
D20*
X43699100Y-70037460D03*
X44349100Y-70037460D03*
X44999100Y-70037460D03*
X45649100Y-70037460D03*
X46299100Y-70037460D03*
D21*
X41100000Y-73100000D03*
X48900000Y-73100000D03*
D22*
X47000000Y-71200000D03*
X43000000Y-71200000D03*
D18*
X51450000Y-65350000D03*
D19*
X51450000Y-62810000D03*
X51450000Y-60270000D03*
D16*
X51350000Y-52700000D03*
D17*
X48810000Y-52700000D03*
X46270000Y-52700000D03*
X43730000Y-52700000D03*
X41190000Y-52700000D03*
X38650000Y-52700000D03*
D15*
X37450000Y-67950000D03*
X38950000Y-67950000D03*
X38950000Y-56150000D03*
X37450000Y-56150000D03*
X51000000Y-56150000D03*
X52500000Y-56150000D03*
D14*
X37500000Y-62450000D03*
X38700000Y-62450000D03*
X39900000Y-62450000D03*
D13*
X39100000Y-64200000D03*
X37600000Y-64200000D03*
D12*
X52400760Y-71200000D03*
X52400760Y-69300000D03*
X50401780Y-70250000D03*
D11*
X48175000Y-56555000D03*
X48175000Y-59095000D03*
X48175000Y-60365000D03*
X48175000Y-61635000D03*
X48175000Y-62905000D03*
X48175000Y-64175000D03*
X48175000Y-65445000D03*
X41825000Y-65445000D03*
X41825000Y-64175000D03*
X41825000Y-62905000D03*
X41825000Y-61635000D03*
X41825000Y-60365000D03*
X41825000Y-59095000D03*
X41825000Y-57825000D03*
X41825000Y-56555000D03*
X48175000Y-57825000D03*
D13*
X41900000Y-42850000D03*
X43400000Y-42850000D03*
X39100000Y-41400000D03*
X37600000Y-41400000D03*
X39100000Y-46000000D03*
X37600000Y-46000000D03*
X48400000Y-42850000D03*
X46900000Y-42850000D03*
X50800000Y-42850000D03*
X52300000Y-42850000D03*
X39100000Y-35700000D03*
X37600000Y-35700000D03*
X39100000Y-34200000D03*
X37600000Y-34200000D03*
D23*
X37550700Y-44500000D03*
X39049300Y-44500000D03*
X37550700Y-32700000D03*
X39049300Y-32700000D03*
X52399300Y-32700000D03*
X50900700Y-32700000D03*
D20*
X43699100Y-45037460D03*
X44349100Y-45037460D03*
X44999100Y-45037460D03*
X45649100Y-45037460D03*
X46299100Y-45037460D03*
D21*
X41100000Y-48100000D03*
X48900000Y-48100000D03*
D22*
X47000000Y-46200000D03*
X43000000Y-46200000D03*
D18*
X51450000Y-40350000D03*
D19*
X51450000Y-37810000D03*
X51450000Y-35270000D03*
D16*
X51350000Y-27700000D03*
D17*
X48810000Y-27700000D03*
X46270000Y-27700000D03*
X43730000Y-27700000D03*
X41190000Y-27700000D03*
X38650000Y-27700000D03*
D15*
X37450000Y-42950000D03*
X38950000Y-42950000D03*
X38950000Y-31150000D03*
X37450000Y-31150000D03*
X51000000Y-31150000D03*
X52500000Y-31150000D03*
D14*
X37500000Y-37450000D03*
X38700000Y-37450000D03*
X39900000Y-37450000D03*
D13*
X39100000Y-39200000D03*
X37600000Y-39200000D03*
D12*
X52400760Y-46200000D03*
X52400760Y-44300000D03*
X50401780Y-45250000D03*
D11*
X48175000Y-31555000D03*
X48175000Y-34095000D03*
X48175000Y-35365000D03*
X48175000Y-36635000D03*
X48175000Y-37905000D03*
X48175000Y-39175000D03*
X48175000Y-40445000D03*
X41825000Y-40445000D03*
X41825000Y-39175000D03*
X41825000Y-37905000D03*
X41825000Y-36635000D03*
X41825000Y-35365000D03*
X41825000Y-34095000D03*
X41825000Y-32825000D03*
X41825000Y-31555000D03*
X48175000Y-32825000D03*
X66175000Y-31555000D03*
X66175000Y-34095000D03*
X66175000Y-35365000D03*
X66175000Y-36635000D03*
X66175000Y-37905000D03*
X66175000Y-39175000D03*
X66175000Y-40445000D03*
X59825000Y-40445000D03*
X59825000Y-39175000D03*
X59825000Y-37905000D03*
X59825000Y-36635000D03*
X59825000Y-35365000D03*
X59825000Y-34095000D03*
X59825000Y-32825000D03*
X59825000Y-31555000D03*
X66175000Y-32825000D03*
D12*
X70400760Y-46200000D03*
X70400760Y-44300000D03*
X68401780Y-45250000D03*
D13*
X57100000Y-39200000D03*
X55600000Y-39200000D03*
D14*
X55500000Y-37450000D03*
X56700000Y-37450000D03*
X57900000Y-37450000D03*
D15*
X69000000Y-31150000D03*
X70500000Y-31150000D03*
X56950000Y-31150000D03*
X55450000Y-31150000D03*
X55450000Y-42950000D03*
X56950000Y-42950000D03*
D16*
X69350000Y-27700000D03*
D17*
X66810000Y-27700000D03*
X64270000Y-27700000D03*
X61730000Y-27700000D03*
X59190000Y-27700000D03*
X56650000Y-27700000D03*
D18*
X69450000Y-40350000D03*
D19*
X69450000Y-37810000D03*
X69450000Y-35270000D03*
D20*
X61699100Y-45037460D03*
X62349100Y-45037460D03*
X62999100Y-45037460D03*
X63649100Y-45037460D03*
X64299100Y-45037460D03*
D21*
X59100000Y-48100000D03*
X66900000Y-48100000D03*
D22*
X65000000Y-46200000D03*
X61000000Y-46200000D03*
D23*
X70399300Y-32700000D03*
X68900700Y-32700000D03*
X55550700Y-32700000D03*
X57049300Y-32700000D03*
X55550700Y-44500000D03*
X57049300Y-44500000D03*
D13*
X57100000Y-34200000D03*
X55600000Y-34200000D03*
X57100000Y-35700000D03*
X55600000Y-35700000D03*
X68800000Y-42850000D03*
X70300000Y-42850000D03*
X66400000Y-42850000D03*
X64900000Y-42850000D03*
X57100000Y-46000000D03*
X55600000Y-46000000D03*
X57100000Y-41400000D03*
X55600000Y-41400000D03*
X59900000Y-42850000D03*
X61400000Y-42850000D03*
D11*
X66175000Y-56555000D03*
X66175000Y-59095000D03*
X66175000Y-60365000D03*
X66175000Y-61635000D03*
X66175000Y-62905000D03*
X66175000Y-64175000D03*
X66175000Y-65445000D03*
X59825000Y-65445000D03*
X59825000Y-64175000D03*
X59825000Y-62905000D03*
X59825000Y-61635000D03*
X59825000Y-60365000D03*
X59825000Y-59095000D03*
X59825000Y-57825000D03*
X59825000Y-56555000D03*
X66175000Y-57825000D03*
D12*
X70400760Y-71200000D03*
X70400760Y-69300000D03*
X68401780Y-70250000D03*
D13*
X57100000Y-64200000D03*
X55600000Y-64200000D03*
D14*
X55500000Y-62450000D03*
X56700000Y-62450000D03*
X57900000Y-62450000D03*
D15*
X69000000Y-56150000D03*
X70500000Y-56150000D03*
X56950000Y-56150000D03*
X55450000Y-56150000D03*
X55450000Y-67950000D03*
X56950000Y-67950000D03*
D16*
X69350000Y-52700000D03*
D17*
X66810000Y-52700000D03*
X64270000Y-52700000D03*
X61730000Y-52700000D03*
X59190000Y-52700000D03*
X56650000Y-52700000D03*
D18*
X69450000Y-65350000D03*
D19*
X69450000Y-62810000D03*
X69450000Y-60270000D03*
D20*
X61699100Y-70037460D03*
X62349100Y-70037460D03*
X62999100Y-70037460D03*
X63649100Y-70037460D03*
X64299100Y-70037460D03*
D21*
X59100000Y-73100000D03*
X66900000Y-73100000D03*
D22*
X65000000Y-71200000D03*
X61000000Y-71200000D03*
D23*
X70399300Y-57700000D03*
X68900700Y-57700000D03*
X55550700Y-57700000D03*
X57049300Y-57700000D03*
X55550700Y-69500000D03*
X57049300Y-69500000D03*
D13*
X57100000Y-59200000D03*
X55600000Y-59200000D03*
X57100000Y-60700000D03*
X55600000Y-60700000D03*
X68800000Y-67850000D03*
X70300000Y-67850000D03*
X66400000Y-67850000D03*
X64900000Y-67850000D03*
X57100000Y-71000000D03*
X55600000Y-71000000D03*
X57100000Y-66400000D03*
X55600000Y-66400000D03*
X59900000Y-67850000D03*
X61400000Y-67850000D03*
X59900000Y-17850000D03*
X61400000Y-17850000D03*
X57100000Y-16400000D03*
X55600000Y-16400000D03*
X57100000Y-21000000D03*
X55600000Y-21000000D03*
X66400000Y-17850000D03*
X64900000Y-17850000D03*
X68800000Y-17850000D03*
X70300000Y-17850000D03*
X57100000Y-10700000D03*
X55600000Y-10700000D03*
X57100000Y-9200000D03*
X55600000Y-9200000D03*
D23*
X55550700Y-19500000D03*
X57049300Y-19500000D03*
X55550700Y-7700000D03*
X57049300Y-7700000D03*
X70399300Y-7700000D03*
X68900700Y-7700000D03*
D20*
X61699100Y-20037460D03*
X62349100Y-20037460D03*
X62999100Y-20037460D03*
X63649100Y-20037460D03*
X64299100Y-20037460D03*
D21*
X59100000Y-23100000D03*
X66900000Y-23100000D03*
D22*
X65000000Y-21200000D03*
X61000000Y-21200000D03*
D18*
X69450000Y-15350000D03*
D19*
X69450000Y-12810000D03*
X69450000Y-10270000D03*
D16*
X69350000Y-2700000D03*
D17*
X66810000Y-2700000D03*
X64270000Y-2700000D03*
X61730000Y-2700000D03*
X59190000Y-2700000D03*
X56650000Y-2700000D03*
D15*
X55450000Y-17950000D03*
X56950000Y-17950000D03*
X56950000Y-6150000D03*
X55450000Y-6150000D03*
X69000000Y-6150000D03*
X70500000Y-6150000D03*
D14*
X55500000Y-12450000D03*
X56700000Y-12450000D03*
X57900000Y-12450000D03*
D13*
X57100000Y-14200000D03*
X55600000Y-14200000D03*
D12*
X70400760Y-21200000D03*
X70400760Y-19300000D03*
X68401780Y-20250000D03*
D11*
X66175000Y-6555000D03*
X66175000Y-9095000D03*
X66175000Y-10365000D03*
X66175000Y-11635000D03*
X66175000Y-12905000D03*
X66175000Y-14175000D03*
X66175000Y-15445000D03*
X59825000Y-15445000D03*
X59825000Y-14175000D03*
X59825000Y-12905000D03*
X59825000Y-11635000D03*
X59825000Y-10365000D03*
X59825000Y-9095000D03*
X59825000Y-7825000D03*
X59825000Y-6555000D03*
X66175000Y-7825000D03*
X30175000Y-6555000D03*
X30175000Y-9095000D03*
X30175000Y-10365000D03*
X30175000Y-11635000D03*
X30175000Y-12905000D03*
X30175000Y-14175000D03*
X30175000Y-15445000D03*
X23825000Y-15445000D03*
X23825000Y-14175000D03*
X23825000Y-12905000D03*
X23825000Y-11635000D03*
X23825000Y-10365000D03*
X23825000Y-9095000D03*
X23825000Y-7825000D03*
X23825000Y-6555000D03*
X30175000Y-7825000D03*
D12*
X34400760Y-21200000D03*
X34400760Y-19300000D03*
X32401780Y-20250000D03*
D13*
X21100000Y-14200000D03*
X19600000Y-14200000D03*
D14*
X19500000Y-12450000D03*
X20700000Y-12450000D03*
X21900000Y-12450000D03*
D15*
X33000000Y-6150000D03*
X34500000Y-6150000D03*
X20950000Y-6150000D03*
X19450000Y-6150000D03*
X19450000Y-17950000D03*
X20950000Y-17950000D03*
D16*
X33350000Y-2700000D03*
D17*
X30810000Y-2700000D03*
X28270000Y-2700000D03*
X25730000Y-2700000D03*
X23190000Y-2700000D03*
X20650000Y-2700000D03*
D18*
X33450000Y-15350000D03*
D19*
X33450000Y-12810000D03*
X33450000Y-10270000D03*
D20*
X25699100Y-20037460D03*
X26349100Y-20037460D03*
X26999100Y-20037460D03*
X27649100Y-20037460D03*
X28299100Y-20037460D03*
D21*
X23100000Y-23100000D03*
X30900000Y-23100000D03*
D22*
X29000000Y-21200000D03*
X25000000Y-21200000D03*
D23*
X34399300Y-7700000D03*
X32900700Y-7700000D03*
X19550700Y-7700000D03*
X21049300Y-7700000D03*
X19550700Y-19500000D03*
X21049300Y-19500000D03*
D13*
X21100000Y-9200000D03*
X19600000Y-9200000D03*
X21100000Y-10700000D03*
X19600000Y-10700000D03*
X32800000Y-17850000D03*
X34300000Y-17850000D03*
X30400000Y-17850000D03*
X28900000Y-17850000D03*
X21100000Y-21000000D03*
X19600000Y-21000000D03*
X21100000Y-16400000D03*
X19600000Y-16400000D03*
X23900000Y-17850000D03*
X25400000Y-17850000D03*
X23900000Y-67850000D03*
X25400000Y-67850000D03*
X21100000Y-66400000D03*
X19600000Y-66400000D03*
X21100000Y-71000000D03*
X19600000Y-71000000D03*
X30400000Y-67850000D03*
X28900000Y-67850000D03*
X32800000Y-67850000D03*
X34300000Y-67850000D03*
X21100000Y-60700000D03*
X19600000Y-60700000D03*
X21100000Y-59200000D03*
X19600000Y-59200000D03*
D23*
X19550700Y-69500000D03*
X21049300Y-69500000D03*
X19550700Y-57700000D03*
X21049300Y-57700000D03*
X34399300Y-57700000D03*
X32900700Y-57700000D03*
D20*
X25699100Y-70037460D03*
X26349100Y-70037460D03*
X26999100Y-70037460D03*
X27649100Y-70037460D03*
X28299100Y-70037460D03*
D21*
X23100000Y-73100000D03*
X30900000Y-73100000D03*
D22*
X29000000Y-71200000D03*
X25000000Y-71200000D03*
D18*
X33450000Y-65350000D03*
D19*
X33450000Y-62810000D03*
X33450000Y-60270000D03*
D16*
X33350000Y-52700000D03*
D17*
X30810000Y-52700000D03*
X28270000Y-52700000D03*
X25730000Y-52700000D03*
X23190000Y-52700000D03*
X20650000Y-52700000D03*
D15*
X19450000Y-67950000D03*
X20950000Y-67950000D03*
X20950000Y-56150000D03*
X19450000Y-56150000D03*
X33000000Y-56150000D03*
X34500000Y-56150000D03*
D14*
X19500000Y-62450000D03*
X20700000Y-62450000D03*
X21900000Y-62450000D03*
D13*
X21100000Y-64200000D03*
X19600000Y-64200000D03*
D12*
X34400760Y-71200000D03*
X34400760Y-69300000D03*
X32401780Y-70250000D03*
D11*
X30175000Y-56555000D03*
X30175000Y-59095000D03*
X30175000Y-60365000D03*
X30175000Y-61635000D03*
X30175000Y-62905000D03*
X30175000Y-64175000D03*
X30175000Y-65445000D03*
X23825000Y-65445000D03*
X23825000Y-64175000D03*
X23825000Y-62905000D03*
X23825000Y-61635000D03*
X23825000Y-60365000D03*
X23825000Y-59095000D03*
X23825000Y-57825000D03*
X23825000Y-56555000D03*
X30175000Y-57825000D03*
D13*
X23900000Y-42850000D03*
X25400000Y-42850000D03*
X21100000Y-41400000D03*
X19600000Y-41400000D03*
X21100000Y-46000000D03*
X19600000Y-46000000D03*
X30400000Y-42850000D03*
X28900000Y-42850000D03*
X32800000Y-42850000D03*
X34300000Y-42850000D03*
X21100000Y-35700000D03*
X19600000Y-35700000D03*
X21100000Y-34200000D03*
X19600000Y-34200000D03*
D23*
X19550700Y-44500000D03*
X21049300Y-44500000D03*
X19550700Y-32700000D03*
X21049300Y-32700000D03*
X34399300Y-32700000D03*
X32900700Y-32700000D03*
D20*
X25699100Y-45037460D03*
X26349100Y-45037460D03*
X26999100Y-45037460D03*
X27649100Y-45037460D03*
X28299100Y-45037460D03*
D21*
X23100000Y-48100000D03*
X30900000Y-48100000D03*
D22*
X29000000Y-46200000D03*
X25000000Y-46200000D03*
D18*
X33450000Y-40350000D03*
D19*
X33450000Y-37810000D03*
X33450000Y-35270000D03*
D16*
X33350000Y-27700000D03*
D17*
X30810000Y-27700000D03*
X28270000Y-27700000D03*
X25730000Y-27700000D03*
X23190000Y-27700000D03*
X20650000Y-27700000D03*
D15*
X19450000Y-42950000D03*
X20950000Y-42950000D03*
X20950000Y-31150000D03*
X19450000Y-31150000D03*
X33000000Y-31150000D03*
X34500000Y-31150000D03*
D14*
X19500000Y-37450000D03*
X20700000Y-37450000D03*
X21900000Y-37450000D03*
D13*
X21100000Y-39200000D03*
X19600000Y-39200000D03*
D12*
X34400760Y-46200000D03*
X34400760Y-44300000D03*
X32401780Y-45250000D03*
D11*
X30175000Y-31555000D03*
X30175000Y-34095000D03*
X30175000Y-35365000D03*
X30175000Y-36635000D03*
X30175000Y-37905000D03*
X30175000Y-39175000D03*
X30175000Y-40445000D03*
X23825000Y-40445000D03*
X23825000Y-39175000D03*
X23825000Y-37905000D03*
X23825000Y-36635000D03*
X23825000Y-35365000D03*
X23825000Y-34095000D03*
X23825000Y-32825000D03*
X23825000Y-31555000D03*
X30175000Y-32825000D03*
X84175000Y-6555000D03*
X84175000Y-9095000D03*
X84175000Y-10365000D03*
X84175000Y-11635000D03*
X84175000Y-12905000D03*
X84175000Y-14175000D03*
X84175000Y-15445000D03*
X77825000Y-15445000D03*
X77825000Y-14175000D03*
X77825000Y-12905000D03*
X77825000Y-11635000D03*
X77825000Y-10365000D03*
X77825000Y-9095000D03*
X77825000Y-7825000D03*
X77825000Y-6555000D03*
X84175000Y-7825000D03*
D12*
X88400760Y-21200000D03*
X88400760Y-19300000D03*
X86401780Y-20250000D03*
D13*
X75100000Y-14200000D03*
X73600000Y-14200000D03*
D14*
X73500000Y-12450000D03*
X74700000Y-12450000D03*
X75900000Y-12450000D03*
D15*
X87000000Y-6150000D03*
X88500000Y-6150000D03*
X74950000Y-6150000D03*
X73450000Y-6150000D03*
X73450000Y-17950000D03*
X74950000Y-17950000D03*
D16*
X87350000Y-2700000D03*
D17*
X84810000Y-2700000D03*
X82270000Y-2700000D03*
X79730000Y-2700000D03*
X77190000Y-2700000D03*
X74650000Y-2700000D03*
D18*
X87450000Y-15350000D03*
D19*
X87450000Y-12810000D03*
X87450000Y-10270000D03*
D20*
X79699100Y-20037460D03*
X80349100Y-20037460D03*
X80999100Y-20037460D03*
X81649100Y-20037460D03*
X82299100Y-20037460D03*
D21*
X77100000Y-23100000D03*
X84900000Y-23100000D03*
D22*
X83000000Y-21200000D03*
X79000000Y-21200000D03*
D23*
X88399300Y-7700000D03*
X86900700Y-7700000D03*
X73550700Y-7700000D03*
X75049300Y-7700000D03*
X73550700Y-19500000D03*
X75049300Y-19500000D03*
D13*
X75100000Y-9200000D03*
X73600000Y-9200000D03*
X75100000Y-10700000D03*
X73600000Y-10700000D03*
X86800000Y-17850000D03*
X88300000Y-17850000D03*
X84400000Y-17850000D03*
X82900000Y-17850000D03*
X75100000Y-21000000D03*
X73600000Y-21000000D03*
X75100000Y-16400000D03*
X73600000Y-16400000D03*
X77900000Y-17850000D03*
X79400000Y-17850000D03*
X77900000Y-67850000D03*
X79400000Y-67850000D03*
X75100000Y-66400000D03*
X73600000Y-66400000D03*
X75100000Y-71000000D03*
X73600000Y-71000000D03*
X84400000Y-67850000D03*
X82900000Y-67850000D03*
X86800000Y-67850000D03*
X88300000Y-67850000D03*
X75100000Y-60700000D03*
X73600000Y-60700000D03*
X75100000Y-59200000D03*
X73600000Y-59200000D03*
D23*
X73550700Y-69500000D03*
X75049300Y-69500000D03*
X73550700Y-57700000D03*
X75049300Y-57700000D03*
X88399300Y-57700000D03*
X86900700Y-57700000D03*
D20*
X79699100Y-70037460D03*
X80349100Y-70037460D03*
X80999100Y-70037460D03*
X81649100Y-70037460D03*
X82299100Y-70037460D03*
D21*
X77100000Y-73100000D03*
X84900000Y-73100000D03*
D22*
X83000000Y-71200000D03*
X79000000Y-71200000D03*
D18*
X87450000Y-65350000D03*
D19*
X87450000Y-62810000D03*
X87450000Y-60270000D03*
D16*
X87350000Y-52700000D03*
D17*
X84810000Y-52700000D03*
X82270000Y-52700000D03*
X79730000Y-52700000D03*
X77190000Y-52700000D03*
X74650000Y-52700000D03*
D15*
X73450000Y-67950000D03*
X74950000Y-67950000D03*
X74950000Y-56150000D03*
X73450000Y-56150000D03*
X87000000Y-56150000D03*
X88500000Y-56150000D03*
D14*
X73500000Y-62450000D03*
X74700000Y-62450000D03*
X75900000Y-62450000D03*
D13*
X75100000Y-64200000D03*
X73600000Y-64200000D03*
D12*
X88400760Y-71200000D03*
X88400760Y-69300000D03*
X86401780Y-70250000D03*
D11*
X84175000Y-56555000D03*
X84175000Y-59095000D03*
X84175000Y-60365000D03*
X84175000Y-61635000D03*
X84175000Y-62905000D03*
X84175000Y-64175000D03*
X84175000Y-65445000D03*
X77825000Y-65445000D03*
X77825000Y-64175000D03*
X77825000Y-62905000D03*
X77825000Y-61635000D03*
X77825000Y-60365000D03*
X77825000Y-59095000D03*
X77825000Y-57825000D03*
X77825000Y-56555000D03*
X84175000Y-57825000D03*
D13*
X77900000Y-42850000D03*
X79400000Y-42850000D03*
X75100000Y-41400000D03*
X73600000Y-41400000D03*
X75100000Y-46000000D03*
X73600000Y-46000000D03*
X84400000Y-42850000D03*
X82900000Y-42850000D03*
X86800000Y-42850000D03*
X88300000Y-42850000D03*
X75100000Y-35700000D03*
X73600000Y-35700000D03*
X75100000Y-34200000D03*
X73600000Y-34200000D03*
D23*
X73550700Y-44500000D03*
X75049300Y-44500000D03*
X73550700Y-32700000D03*
X75049300Y-32700000D03*
X88399300Y-32700000D03*
X86900700Y-32700000D03*
D20*
X79699100Y-45037460D03*
X80349100Y-45037460D03*
X80999100Y-45037460D03*
X81649100Y-45037460D03*
X82299100Y-45037460D03*
D21*
X77100000Y-48100000D03*
X84900000Y-48100000D03*
D22*
X83000000Y-46200000D03*
X79000000Y-46200000D03*
D18*
X87450000Y-40350000D03*
D19*
X87450000Y-37810000D03*
X87450000Y-35270000D03*
D16*
X87350000Y-27700000D03*
D17*
X84810000Y-27700000D03*
X82270000Y-27700000D03*
X79730000Y-27700000D03*
X77190000Y-27700000D03*
X74650000Y-27700000D03*
D15*
X73450000Y-42950000D03*
X74950000Y-42950000D03*
X74950000Y-31150000D03*
X73450000Y-31150000D03*
X87000000Y-31150000D03*
X88500000Y-31150000D03*
D14*
X73500000Y-37450000D03*
X74700000Y-37450000D03*
X75900000Y-37450000D03*
D13*
X75100000Y-39200000D03*
X73600000Y-39200000D03*
D12*
X88400760Y-46200000D03*
X88400760Y-44300000D03*
X86401780Y-45250000D03*
D11*
X84175000Y-31555000D03*
X84175000Y-34095000D03*
X84175000Y-35365000D03*
X84175000Y-36635000D03*
X84175000Y-37905000D03*
X84175000Y-39175000D03*
X84175000Y-40445000D03*
X77825000Y-40445000D03*
X77825000Y-39175000D03*
X77825000Y-37905000D03*
X77825000Y-36635000D03*
X77825000Y-35365000D03*
X77825000Y-34095000D03*
X77825000Y-32825000D03*
X77825000Y-31555000D03*
X84175000Y-32825000D03*
X12175000Y-31555000D03*
X12175000Y-34095000D03*
X12175000Y-35365000D03*
X12175000Y-36635000D03*
X12175000Y-37905000D03*
X12175000Y-39175000D03*
X12175000Y-40445000D03*
X5825000Y-40445000D03*
X5825000Y-39175000D03*
X5825000Y-37905000D03*
X5825000Y-36635000D03*
X5825000Y-35365000D03*
X5825000Y-34095000D03*
X5825000Y-32825000D03*
X5825000Y-31555000D03*
X12175000Y-32825000D03*
D12*
X16400760Y-46200000D03*
X16400760Y-44300000D03*
X14401780Y-45250000D03*
D13*
X3100000Y-39200000D03*
X1600000Y-39200000D03*
D14*
X1500000Y-37450000D03*
X2700000Y-37450000D03*
X3900000Y-37450000D03*
D15*
X15000000Y-31150000D03*
X16500000Y-31150000D03*
X2950000Y-31150000D03*
X1450000Y-31150000D03*
X1450000Y-42950000D03*
X2950000Y-42950000D03*
D16*
X15350000Y-27700000D03*
D17*
X12810000Y-27700000D03*
X10270000Y-27700000D03*
X7730000Y-27700000D03*
X5190000Y-27700000D03*
X2650000Y-27700000D03*
D18*
X15450000Y-40350000D03*
D19*
X15450000Y-37810000D03*
X15450000Y-35270000D03*
D20*
X7699100Y-45037460D03*
X8349100Y-45037460D03*
X8999100Y-45037460D03*
X9649100Y-45037460D03*
X10299100Y-45037460D03*
D21*
X5100000Y-48100000D03*
X12900000Y-48100000D03*
D22*
X11000000Y-46200000D03*
X7000000Y-46200000D03*
D23*
X16399300Y-32700000D03*
X14900700Y-32700000D03*
X1550700Y-32700000D03*
X3049300Y-32700000D03*
X1550700Y-44500000D03*
X3049300Y-44500000D03*
D13*
X3100000Y-34200000D03*
X1600000Y-34200000D03*
X3100000Y-35700000D03*
X1600000Y-35700000D03*
X14800000Y-42850000D03*
X16300000Y-42850000D03*
X12400000Y-42850000D03*
X10900000Y-42850000D03*
X3100000Y-46000000D03*
X1600000Y-46000000D03*
X3100000Y-41400000D03*
X1600000Y-41400000D03*
X5900000Y-42850000D03*
X7400000Y-42850000D03*
D11*
X12175000Y-56555000D03*
X12175000Y-59095000D03*
X12175000Y-60365000D03*
X12175000Y-61635000D03*
X12175000Y-62905000D03*
X12175000Y-64175000D03*
X12175000Y-65445000D03*
X5825000Y-65445000D03*
X5825000Y-64175000D03*
X5825000Y-62905000D03*
X5825000Y-61635000D03*
X5825000Y-60365000D03*
X5825000Y-59095000D03*
X5825000Y-57825000D03*
X5825000Y-56555000D03*
X12175000Y-57825000D03*
D12*
X16400760Y-71200000D03*
X16400760Y-69300000D03*
X14401780Y-70250000D03*
D13*
X3100000Y-64200000D03*
X1600000Y-64200000D03*
D14*
X1500000Y-62450000D03*
X2700000Y-62450000D03*
X3900000Y-62450000D03*
D15*
X15000000Y-56150000D03*
X16500000Y-56150000D03*
X2950000Y-56150000D03*
X1450000Y-56150000D03*
X1450000Y-67950000D03*
X2950000Y-67950000D03*
D16*
X15350000Y-52700000D03*
D17*
X12810000Y-52700000D03*
X10270000Y-52700000D03*
X7730000Y-52700000D03*
X5190000Y-52700000D03*
X2650000Y-52700000D03*
D18*
X15450000Y-65350000D03*
D19*
X15450000Y-62810000D03*
X15450000Y-60270000D03*
D20*
X7699100Y-70037460D03*
X8349100Y-70037460D03*
X8999100Y-70037460D03*
X9649100Y-70037460D03*
X10299100Y-70037460D03*
D21*
X5100000Y-73100000D03*
X12900000Y-73100000D03*
D22*
X11000000Y-71200000D03*
X7000000Y-71200000D03*
D23*
X16399300Y-57700000D03*
X14900700Y-57700000D03*
X1550700Y-57700000D03*
X3049300Y-57700000D03*
X1550700Y-69500000D03*
X3049300Y-69500000D03*
D13*
X3100000Y-59200000D03*
X1600000Y-59200000D03*
X3100000Y-60700000D03*
X1600000Y-60700000D03*
X14800000Y-67850000D03*
X16300000Y-67850000D03*
X12400000Y-67850000D03*
X10900000Y-67850000D03*
X3100000Y-71000000D03*
X1600000Y-71000000D03*
X3100000Y-66400000D03*
X1600000Y-66400000D03*
X5900000Y-67850000D03*
X7400000Y-67850000D03*
X5900000Y-17850000D03*
X7400000Y-17850000D03*
X3100000Y-16400000D03*
X1600000Y-16400000D03*
X3100000Y-21000000D03*
X1600000Y-21000000D03*
X12400000Y-17850000D03*
X10900000Y-17850000D03*
X14800000Y-17850000D03*
X16300000Y-17850000D03*
X3100000Y-10700000D03*
X1600000Y-10700000D03*
X3100000Y-9200000D03*
X1600000Y-9200000D03*
D23*
X1550700Y-19500000D03*
X3049300Y-19500000D03*
X1550700Y-7700000D03*
X3049300Y-7700000D03*
X16399300Y-7700000D03*
X14900700Y-7700000D03*
D20*
X7699100Y-20037460D03*
X8349100Y-20037460D03*
X8999100Y-20037460D03*
X9649100Y-20037460D03*
X10299100Y-20037460D03*
D21*
X5100000Y-23100000D03*
X12900000Y-23100000D03*
D22*
X11000000Y-21200000D03*
X7000000Y-21200000D03*
D18*
X15450000Y-15350000D03*
D19*
X15450000Y-12810000D03*
X15450000Y-10270000D03*
D16*
X15350000Y-2700000D03*
D17*
X12810000Y-2700000D03*
X10270000Y-2700000D03*
X7730000Y-2700000D03*
X5190000Y-2700000D03*
X2650000Y-2700000D03*
D15*
X1450000Y-17950000D03*
X2950000Y-17950000D03*
X2950000Y-6150000D03*
X1450000Y-6150000D03*
X15000000Y-6150000D03*
X16500000Y-6150000D03*
D14*
X1500000Y-12450000D03*
X2700000Y-12450000D03*
X3900000Y-12450000D03*
D13*
X3100000Y-14200000D03*
X1600000Y-14200000D03*
D12*
X16400760Y-21200000D03*
X16400760Y-19300000D03*
X14401780Y-20250000D03*
D11*
X12175000Y-6555000D03*
X12175000Y-9095000D03*
X12175000Y-10365000D03*
X12175000Y-11635000D03*
X12175000Y-12905000D03*
X12175000Y-14175000D03*
X12175000Y-15445000D03*
X5825000Y-15445000D03*
X5825000Y-14175000D03*
X5825000Y-12905000D03*
X5825000Y-11635000D03*
X5825000Y-10365000D03*
X5825000Y-9095000D03*
X5825000Y-7825000D03*
X5825000Y-6555000D03*
X12175000Y-7825000D03*
M02*
