M48
;DRILL file {KiCad 4.0.2-stable} date Sunday, 05 June 2016 'amt' 11:54:08
;FORMAT={-:-/ absolute / inch / decimal}
FMAT,2
INCH,TZ
T1C0.016
T2C0.020
T3C0.022
T4C0.040
%
G90
G05
M72
T1
X0.44Y-1.16
X0.48Y-0.68
X0.485Y-0.425
X0.56Y-0.275
X0.56Y-0.86
X0.61Y-0.425
T4
X0.105Y-1.05
X0.105Y-1.15
X0.105Y-1.25
X0.16Y-0.1
X0.26Y-0.1
X0.36Y-0.1
X0.46Y-0.1
X0.56Y-0.1
X0.66Y-0.1
X0.71Y-1.05
X0.71Y-1.15
X0.71Y-1.25
T2
X0.2722Y-1.2176G85X0.2722Y-1.192
G05
X0.5478Y-1.2176G85X0.5478Y-1.192
G05
T3
X0.3056Y-1.0985G85X0.3174Y-1.0985
G05
X0.5025Y-1.0985G85X0.5143Y-1.0985
G05
T0
M30
