G04 #@! TF.FileFunction,Copper,L1,Top,Signal*
%FSLAX46Y46*%
G04 Gerber Fmt 4.6, Leading zero omitted, Abs format (unit mm)*
G04 Created by KiCad (PCBNEW 4.0.2-stable) date Sunday, 05 June 2016 'pmt' 16:31:40*
%MOMM*%
G01*
G04 APERTURE LIST*
%ADD10C,0.100000*%
%ADD11R,0.797560X0.797560*%
%ADD12R,0.910000X1.220000*%
%ADD13R,2.032000X1.727200*%
%ADD14O,2.032000X1.727200*%
%ADD15R,1.727200X2.032000*%
%ADD16O,1.727200X2.032000*%
%ADD17R,0.500000X0.900000*%
%ADD18R,1.143000X0.508000*%
%ADD19R,0.400000X1.350000*%
%ADD20O,1.250000X0.950000*%
%ADD21O,1.000000X1.550000*%
%ADD22R,1.600000X0.500000*%
%ADD23R,1.200000X0.750000*%
%ADD24R,0.750000X1.200000*%
%ADD25C,0.600000*%
%ADD26C,0.400000*%
%ADD27C,0.250000*%
%ADD28C,0.254000*%
G04 APERTURE END LIST*
D10*
D11*
X14973300Y-20320000D03*
X13474700Y-20320000D03*
X1790700Y-7493000D03*
X3289300Y-7493000D03*
X19037300Y-7493000D03*
X17538700Y-7493000D03*
D12*
X4810000Y-23114000D03*
X1540000Y-23114000D03*
D13*
X2667000Y-31750000D03*
D14*
X2667000Y-29210000D03*
X2667000Y-26670000D03*
D15*
X16764000Y-2540000D03*
D16*
X14224000Y-2540000D03*
X11684000Y-2540000D03*
X9144000Y-2540000D03*
X6604000Y-2540000D03*
X4064000Y-2540000D03*
D17*
X17665000Y-20320000D03*
X19165000Y-20320000D03*
X3163000Y-10795000D03*
X1663000Y-10795000D03*
X17665000Y-17145000D03*
X19165000Y-17145000D03*
X17665000Y-10795000D03*
X19165000Y-10795000D03*
D18*
X13716000Y-8128000D03*
X13716000Y-10668000D03*
X13716000Y-11938000D03*
X13716000Y-13208000D03*
X13716000Y-14478000D03*
X13716000Y-15748000D03*
X13716000Y-17018000D03*
X7366000Y-17018000D03*
X7366000Y-15748000D03*
X7366000Y-14478000D03*
X7366000Y-13208000D03*
X7366000Y-11938000D03*
X7366000Y-10668000D03*
X7366000Y-9398000D03*
X7366000Y-8128000D03*
X13716000Y-9398000D03*
D19*
X9113100Y-27901460D03*
X9763100Y-27901460D03*
X10413100Y-27901460D03*
X11063100Y-27901460D03*
X11713100Y-27901460D03*
D20*
X7913100Y-27901460D03*
X12913100Y-27901460D03*
D21*
X6913100Y-30601460D03*
X13913100Y-30601460D03*
D13*
X18034000Y-31750000D03*
D14*
X18034000Y-29210000D03*
X18034000Y-26670000D03*
D22*
X4318000Y-19234000D03*
X4318000Y-18034000D03*
X4318000Y-16834000D03*
D23*
X6924000Y-23368000D03*
X8824000Y-23368000D03*
X18857000Y-23368000D03*
X16957000Y-23368000D03*
X18857000Y-13970000D03*
X16957000Y-13970000D03*
X12512000Y-23368000D03*
X14412000Y-23368000D03*
X3744000Y-13970000D03*
X1844000Y-13970000D03*
D24*
X1651000Y-19111000D03*
X1651000Y-17211000D03*
D25*
X14224000Y-21844000D03*
X11176000Y-29464000D03*
X12192000Y-17272000D03*
X15494000Y-10795000D03*
X14224000Y-6985000D03*
X12319000Y-10795000D03*
D26*
X2667000Y-31750000D02*
X2159000Y-31750000D01*
X2159000Y-31750000D02*
X889000Y-30480000D01*
X6924000Y-22545000D02*
X6924000Y-23368000D01*
X5969000Y-21590000D02*
X6924000Y-22545000D01*
X4064000Y-21590000D02*
X5969000Y-21590000D01*
X3429000Y-22225000D02*
X4064000Y-21590000D01*
X3429000Y-23495000D02*
X3429000Y-22225000D01*
X889000Y-26035000D02*
X3429000Y-23495000D01*
X889000Y-30480000D02*
X889000Y-26035000D01*
X9113100Y-27901460D02*
X9113100Y-25557100D01*
X9113100Y-25557100D02*
X6924000Y-23368000D01*
X2667000Y-31750000D02*
X2794000Y-31750000D01*
X2794000Y-31750000D02*
X4064000Y-33020000D01*
X16764000Y-33020000D02*
X18034000Y-31750000D01*
X4064000Y-33020000D02*
X16764000Y-33020000D01*
X19165000Y-20320000D02*
X19165000Y-17145000D01*
X18857000Y-23368000D02*
X18857000Y-23307000D01*
X18857000Y-23307000D02*
X19165000Y-22999000D01*
X19165000Y-22999000D02*
X19165000Y-20320000D01*
X18857000Y-23368000D02*
X18857000Y-24318000D01*
X19939000Y-29845000D02*
X18034000Y-31750000D01*
X19939000Y-25400000D02*
X19939000Y-29845000D01*
X18857000Y-24318000D02*
X19939000Y-25400000D01*
X2667000Y-31750000D02*
X2667000Y-32258000D01*
X19165000Y-23060000D02*
X18857000Y-23368000D01*
X18857000Y-23368000D02*
X18857000Y-23683000D01*
X3240200Y-32323200D02*
X2667000Y-31750000D01*
D27*
X13474700Y-20320000D02*
X13474700Y-21094700D01*
X13474700Y-21094700D02*
X14224000Y-21844000D01*
X11713100Y-27901460D02*
X11713100Y-28926900D01*
X11713100Y-28926900D02*
X11176000Y-29464000D01*
D26*
X3744000Y-13970000D02*
X3744000Y-14031000D01*
X3744000Y-14031000D02*
X5461000Y-15748000D01*
X4318000Y-16834000D02*
X4375000Y-16834000D01*
X4375000Y-16834000D02*
X5461000Y-15748000D01*
X5461000Y-15748000D02*
X7366000Y-15748000D01*
X4318000Y-19234000D02*
X5785000Y-19234000D01*
X7366000Y-17653000D02*
X7366000Y-17018000D01*
X5785000Y-19234000D02*
X7366000Y-17653000D01*
X4318000Y-19234000D02*
X1774000Y-19234000D01*
X1774000Y-19234000D02*
X1651000Y-19111000D01*
X14973300Y-20320000D02*
X17665000Y-20320000D01*
X1790700Y-7493000D02*
X1790700Y-10667300D01*
X1790700Y-10667300D02*
X1663000Y-10795000D01*
X7366000Y-9398000D02*
X9271000Y-9398000D01*
X11684000Y-6985000D02*
X11684000Y-2540000D01*
X9271000Y-9398000D02*
X11684000Y-6985000D01*
X7366000Y-9398000D02*
X5194300Y-9398000D01*
X5194300Y-9398000D02*
X3289300Y-7493000D01*
X19165000Y-10795000D02*
X19165000Y-7620700D01*
X19165000Y-7620700D02*
X19037300Y-7493000D01*
X16002000Y-7493000D02*
X14224000Y-5715000D01*
X17538700Y-7493000D02*
X16002000Y-7493000D01*
X7366000Y-10668000D02*
X9271000Y-10668000D01*
X14224000Y-5715000D02*
X14224000Y-2540000D01*
X9271000Y-10668000D02*
X14224000Y-5715000D01*
X7366000Y-11938000D02*
X7620000Y-11938000D01*
X7620000Y-11938000D02*
X10160000Y-14478000D01*
X11684000Y-16764000D02*
X12192000Y-17272000D01*
X11684000Y-16002000D02*
X11684000Y-16764000D01*
X10160000Y-14478000D02*
X11684000Y-16002000D01*
X10160000Y-14478000D02*
X10160000Y-14478000D01*
X7366000Y-11938000D02*
X7747000Y-11938000D01*
X13716000Y-11938000D02*
X14351000Y-11938000D01*
X14351000Y-11938000D02*
X15494000Y-10795000D01*
X13716000Y-8128000D02*
X13716000Y-7493000D01*
X13716000Y-7493000D02*
X14224000Y-6985000D01*
D27*
X3163000Y-10795000D02*
X5461000Y-10795000D01*
X12700000Y-8128000D02*
X13716000Y-8128000D01*
X9525000Y-11303000D02*
X12700000Y-8128000D01*
X5969000Y-11303000D02*
X9525000Y-11303000D01*
X5461000Y-10795000D02*
X5969000Y-11303000D01*
D26*
X17665000Y-10795000D02*
X17399000Y-10795000D01*
X14732000Y-8128000D02*
X13716000Y-8128000D01*
X17399000Y-10795000D02*
X14732000Y-8128000D01*
X13716000Y-17018000D02*
X13462000Y-17018000D01*
X13462000Y-17018000D02*
X12319000Y-15875000D01*
X12319000Y-15875000D02*
X12319000Y-10795000D01*
X2667000Y-26670000D02*
X2794000Y-26670000D01*
X2794000Y-26670000D02*
X5334000Y-29210000D01*
X10414000Y-32258000D02*
X16002000Y-26670000D01*
X6442002Y-32258000D02*
X10414000Y-32258000D01*
X5334000Y-31149998D02*
X6442002Y-32258000D01*
X5334000Y-29210000D02*
X5334000Y-31149998D01*
X17665000Y-17145000D02*
X16129000Y-17145000D01*
X12512000Y-18857000D02*
X12512000Y-23368000D01*
X12954000Y-18415000D02*
X12512000Y-18857000D01*
X14859000Y-18415000D02*
X12954000Y-18415000D01*
X16129000Y-17145000D02*
X14859000Y-18415000D01*
X18034000Y-26670000D02*
X16002000Y-26670000D01*
X16002000Y-26670000D02*
X15814000Y-26670000D01*
X15814000Y-26670000D02*
X12512000Y-23368000D01*
X18857000Y-13970000D02*
X18857000Y-15953000D01*
X18857000Y-15953000D02*
X17665000Y-17145000D01*
X2667000Y-26670000D02*
X2667000Y-25257000D01*
X2667000Y-25257000D02*
X4810000Y-23114000D01*
X5064000Y-23368000D02*
X4810000Y-23114000D01*
X7366000Y-14478000D02*
X7747000Y-14478000D01*
X7747000Y-14478000D02*
X10414000Y-17145000D01*
X9763100Y-26050900D02*
X9763100Y-27901460D01*
X10414000Y-25400000D02*
X9763100Y-26050900D01*
X10414000Y-17145000D02*
X10414000Y-25400000D01*
X7366000Y-13208000D02*
X7747000Y-13208000D01*
X7747000Y-13208000D02*
X11049000Y-16510000D01*
X10363102Y-26720898D02*
X10363102Y-27901460D01*
X11049000Y-26035000D02*
X10363102Y-26720898D01*
X11049000Y-22225000D02*
X11049000Y-26035000D01*
X11049000Y-19685000D02*
X11049000Y-22225000D01*
X11049000Y-16510000D02*
X11049000Y-19685000D01*
X10363102Y-27901460D02*
X10413100Y-27901460D01*
D28*
G36*
X4753000Y-29450658D02*
X4753000Y-31149998D01*
X4797226Y-31372337D01*
X4923171Y-31560827D01*
X5801344Y-32439000D01*
X4304658Y-32439000D01*
X4071464Y-32205806D01*
X4071464Y-30886400D01*
X4044897Y-30745210D01*
X3961454Y-30615535D01*
X3834134Y-30528541D01*
X3683000Y-30497936D01*
X3585817Y-30497936D01*
X4017732Y-30112036D01*
X4271709Y-29584791D01*
X4274358Y-29569026D01*
X4153217Y-29337000D01*
X2794000Y-29337000D01*
X2794000Y-29357000D01*
X2540000Y-29357000D01*
X2540000Y-29337000D01*
X2520000Y-29337000D01*
X2520000Y-29083000D01*
X2540000Y-29083000D01*
X2540000Y-29063000D01*
X2794000Y-29063000D01*
X2794000Y-29083000D01*
X4153217Y-29083000D01*
X4232839Y-28930497D01*
X4753000Y-29450658D01*
X4753000Y-29450658D01*
G37*
X4753000Y-29450658D02*
X4753000Y-31149998D01*
X4797226Y-31372337D01*
X4923171Y-31560827D01*
X5801344Y-32439000D01*
X4304658Y-32439000D01*
X4071464Y-32205806D01*
X4071464Y-30886400D01*
X4044897Y-30745210D01*
X3961454Y-30615535D01*
X3834134Y-30528541D01*
X3683000Y-30497936D01*
X3585817Y-30497936D01*
X4017732Y-30112036D01*
X4271709Y-29584791D01*
X4274358Y-29569026D01*
X4153217Y-29337000D01*
X2794000Y-29337000D01*
X2794000Y-29357000D01*
X2540000Y-29357000D01*
X2540000Y-29337000D01*
X2520000Y-29337000D01*
X2520000Y-29083000D01*
X2540000Y-29083000D01*
X2540000Y-29063000D01*
X2794000Y-29063000D01*
X2794000Y-29083000D01*
X4153217Y-29083000D01*
X4232839Y-28930497D01*
X4753000Y-29450658D01*
G36*
X6187553Y-22630211D02*
X6182810Y-22631103D01*
X6053135Y-22714546D01*
X5966141Y-22841866D01*
X5935536Y-22993000D01*
X5935536Y-23743000D01*
X5962103Y-23884190D01*
X6045546Y-24013865D01*
X6172866Y-24100859D01*
X6324000Y-24131464D01*
X6865806Y-24131464D01*
X8532100Y-25797758D01*
X8532100Y-27189601D01*
X8531682Y-27191667D01*
X8410386Y-27110619D01*
X8082809Y-27045460D01*
X7743391Y-27045460D01*
X7415814Y-27110619D01*
X7138108Y-27296177D01*
X6952550Y-27573883D01*
X6887391Y-27901460D01*
X6952550Y-28229037D01*
X7138108Y-28506743D01*
X7415814Y-28692301D01*
X7743391Y-28757460D01*
X8082809Y-28757460D01*
X8410386Y-28692301D01*
X8531239Y-28611550D01*
X8551203Y-28717650D01*
X8634646Y-28847325D01*
X8761966Y-28934319D01*
X8913100Y-28964924D01*
X9313100Y-28964924D01*
X9442688Y-28940540D01*
X9563100Y-28964924D01*
X9963100Y-28964924D01*
X10092688Y-28940540D01*
X10213100Y-28964924D01*
X10613100Y-28964924D01*
X10742688Y-28940540D01*
X10863100Y-28964924D01*
X11003539Y-28964924D01*
X11153401Y-29114787D01*
X11386790Y-29211460D01*
X11454350Y-29211460D01*
X11613100Y-29052710D01*
X11613100Y-28739096D01*
X11620959Y-28727594D01*
X11651564Y-28576460D01*
X11651564Y-27226460D01*
X11624997Y-27085270D01*
X11613100Y-27066781D01*
X11613100Y-26750210D01*
X11454350Y-26591460D01*
X11386790Y-26591460D01*
X11262868Y-26642790D01*
X11459829Y-26445829D01*
X11585774Y-26257339D01*
X11630000Y-26035000D01*
X11630000Y-24008354D01*
X11633546Y-24013865D01*
X11760866Y-24100859D01*
X11912000Y-24131464D01*
X12453806Y-24131464D01*
X15086342Y-26764000D01*
X13936308Y-27914034D01*
X13938809Y-27901460D01*
X13873650Y-27573883D01*
X13688092Y-27296177D01*
X13410386Y-27110619D01*
X13082809Y-27045460D01*
X12743391Y-27045460D01*
X12542036Y-27085512D01*
X12451427Y-26866762D01*
X12272799Y-26688133D01*
X12039410Y-26591460D01*
X11971850Y-26591460D01*
X11813100Y-26750210D01*
X11813100Y-27774460D01*
X11860100Y-27774460D01*
X11860100Y-28028460D01*
X11813100Y-28028460D01*
X11813100Y-29052710D01*
X11971850Y-29211460D01*
X12039410Y-29211460D01*
X12272799Y-29114787D01*
X12451427Y-28936158D01*
X12542036Y-28717408D01*
X12743391Y-28757460D01*
X13082809Y-28757460D01*
X13095383Y-28754959D01*
X10173342Y-31677000D01*
X7304189Y-31677000D01*
X7536061Y-31522068D01*
X7727038Y-31236251D01*
X7794100Y-30899107D01*
X7794100Y-30303813D01*
X7727038Y-29966669D01*
X7536061Y-29680852D01*
X7250244Y-29489875D01*
X6913100Y-29422813D01*
X6575956Y-29489875D01*
X6290139Y-29680852D01*
X6099162Y-29966669D01*
X6032100Y-30303813D01*
X6032100Y-30899107D01*
X6063717Y-31058057D01*
X5915000Y-30909340D01*
X5915000Y-29210000D01*
X5870774Y-28987661D01*
X5744829Y-28799171D01*
X4012443Y-27066785D01*
X4091369Y-26670000D01*
X3996629Y-26193712D01*
X3726834Y-25789935D01*
X3323057Y-25520140D01*
X3248000Y-25505210D01*
X3248000Y-25497658D01*
X4633194Y-24112464D01*
X5265000Y-24112464D01*
X5406190Y-24085897D01*
X5535865Y-24002454D01*
X5622859Y-23875134D01*
X5653464Y-23724000D01*
X5653464Y-22504000D01*
X5626897Y-22362810D01*
X5543454Y-22233135D01*
X5452516Y-22171000D01*
X5728342Y-22171000D01*
X6187553Y-22630211D01*
X6187553Y-22630211D01*
G37*
X6187553Y-22630211D02*
X6182810Y-22631103D01*
X6053135Y-22714546D01*
X5966141Y-22841866D01*
X5935536Y-22993000D01*
X5935536Y-23743000D01*
X5962103Y-23884190D01*
X6045546Y-24013865D01*
X6172866Y-24100859D01*
X6324000Y-24131464D01*
X6865806Y-24131464D01*
X8532100Y-25797758D01*
X8532100Y-27189601D01*
X8531682Y-27191667D01*
X8410386Y-27110619D01*
X8082809Y-27045460D01*
X7743391Y-27045460D01*
X7415814Y-27110619D01*
X7138108Y-27296177D01*
X6952550Y-27573883D01*
X6887391Y-27901460D01*
X6952550Y-28229037D01*
X7138108Y-28506743D01*
X7415814Y-28692301D01*
X7743391Y-28757460D01*
X8082809Y-28757460D01*
X8410386Y-28692301D01*
X8531239Y-28611550D01*
X8551203Y-28717650D01*
X8634646Y-28847325D01*
X8761966Y-28934319D01*
X8913100Y-28964924D01*
X9313100Y-28964924D01*
X9442688Y-28940540D01*
X9563100Y-28964924D01*
X9963100Y-28964924D01*
X10092688Y-28940540D01*
X10213100Y-28964924D01*
X10613100Y-28964924D01*
X10742688Y-28940540D01*
X10863100Y-28964924D01*
X11003539Y-28964924D01*
X11153401Y-29114787D01*
X11386790Y-29211460D01*
X11454350Y-29211460D01*
X11613100Y-29052710D01*
X11613100Y-28739096D01*
X11620959Y-28727594D01*
X11651564Y-28576460D01*
X11651564Y-27226460D01*
X11624997Y-27085270D01*
X11613100Y-27066781D01*
X11613100Y-26750210D01*
X11454350Y-26591460D01*
X11386790Y-26591460D01*
X11262868Y-26642790D01*
X11459829Y-26445829D01*
X11585774Y-26257339D01*
X11630000Y-26035000D01*
X11630000Y-24008354D01*
X11633546Y-24013865D01*
X11760866Y-24100859D01*
X11912000Y-24131464D01*
X12453806Y-24131464D01*
X15086342Y-26764000D01*
X13936308Y-27914034D01*
X13938809Y-27901460D01*
X13873650Y-27573883D01*
X13688092Y-27296177D01*
X13410386Y-27110619D01*
X13082809Y-27045460D01*
X12743391Y-27045460D01*
X12542036Y-27085512D01*
X12451427Y-26866762D01*
X12272799Y-26688133D01*
X12039410Y-26591460D01*
X11971850Y-26591460D01*
X11813100Y-26750210D01*
X11813100Y-27774460D01*
X11860100Y-27774460D01*
X11860100Y-28028460D01*
X11813100Y-28028460D01*
X11813100Y-29052710D01*
X11971850Y-29211460D01*
X12039410Y-29211460D01*
X12272799Y-29114787D01*
X12451427Y-28936158D01*
X12542036Y-28717408D01*
X12743391Y-28757460D01*
X13082809Y-28757460D01*
X13095383Y-28754959D01*
X10173342Y-31677000D01*
X7304189Y-31677000D01*
X7536061Y-31522068D01*
X7727038Y-31236251D01*
X7794100Y-30899107D01*
X7794100Y-30303813D01*
X7727038Y-29966669D01*
X7536061Y-29680852D01*
X7250244Y-29489875D01*
X6913100Y-29422813D01*
X6575956Y-29489875D01*
X6290139Y-29680852D01*
X6099162Y-29966669D01*
X6032100Y-30303813D01*
X6032100Y-30899107D01*
X6063717Y-31058057D01*
X5915000Y-30909340D01*
X5915000Y-29210000D01*
X5870774Y-28987661D01*
X5744829Y-28799171D01*
X4012443Y-27066785D01*
X4091369Y-26670000D01*
X3996629Y-26193712D01*
X3726834Y-25789935D01*
X3323057Y-25520140D01*
X3248000Y-25505210D01*
X3248000Y-25497658D01*
X4633194Y-24112464D01*
X5265000Y-24112464D01*
X5406190Y-24085897D01*
X5535865Y-24002454D01*
X5622859Y-23875134D01*
X5653464Y-23724000D01*
X5653464Y-22504000D01*
X5626897Y-22362810D01*
X5543454Y-22233135D01*
X5452516Y-22171000D01*
X5728342Y-22171000D01*
X6187553Y-22630211D01*
G36*
X18526536Y-17595000D02*
X18553103Y-17736190D01*
X18584000Y-17784206D01*
X18584000Y-19679557D01*
X18557141Y-19718866D01*
X18526536Y-19870000D01*
X18526536Y-20770000D01*
X18553103Y-20911190D01*
X18584000Y-20959206D01*
X18584000Y-22604536D01*
X18257000Y-22604536D01*
X18115810Y-22631103D01*
X18098919Y-22641972D01*
X18095327Y-22633301D01*
X17916698Y-22454673D01*
X17683309Y-22358000D01*
X17242750Y-22358000D01*
X17084000Y-22516750D01*
X17084000Y-23241000D01*
X17104000Y-23241000D01*
X17104000Y-23495000D01*
X17084000Y-23495000D01*
X17084000Y-24219250D01*
X17242750Y-24378000D01*
X17683309Y-24378000D01*
X17916698Y-24281327D01*
X18095327Y-24102699D01*
X18098246Y-24095652D01*
X18105866Y-24100859D01*
X18257000Y-24131464D01*
X18276000Y-24131464D01*
X18276000Y-24318000D01*
X18320226Y-24540339D01*
X18446171Y-24728829D01*
X19358000Y-25640658D01*
X19358000Y-26185288D01*
X19093834Y-25789935D01*
X18690057Y-25520140D01*
X18213769Y-25425400D01*
X17854231Y-25425400D01*
X17377943Y-25520140D01*
X16974166Y-25789935D01*
X16774337Y-26089000D01*
X16054658Y-26089000D01*
X14234954Y-24269296D01*
X14285000Y-24219250D01*
X14285000Y-23495000D01*
X14539000Y-23495000D01*
X14539000Y-24219250D01*
X14697750Y-24378000D01*
X15138309Y-24378000D01*
X15371698Y-24281327D01*
X15550327Y-24102699D01*
X15647000Y-23869310D01*
X15647000Y-23653750D01*
X15722000Y-23653750D01*
X15722000Y-23869310D01*
X15818673Y-24102699D01*
X15997302Y-24281327D01*
X16230691Y-24378000D01*
X16671250Y-24378000D01*
X16830000Y-24219250D01*
X16830000Y-23495000D01*
X15880750Y-23495000D01*
X15722000Y-23653750D01*
X15647000Y-23653750D01*
X15488250Y-23495000D01*
X14539000Y-23495000D01*
X14285000Y-23495000D01*
X14265000Y-23495000D01*
X14265000Y-23241000D01*
X14285000Y-23241000D01*
X14285000Y-22516750D01*
X14539000Y-22516750D01*
X14539000Y-23241000D01*
X15488250Y-23241000D01*
X15647000Y-23082250D01*
X15647000Y-22866690D01*
X15722000Y-22866690D01*
X15722000Y-23082250D01*
X15880750Y-23241000D01*
X16830000Y-23241000D01*
X16830000Y-22516750D01*
X16671250Y-22358000D01*
X16230691Y-22358000D01*
X15997302Y-22454673D01*
X15818673Y-22633301D01*
X15722000Y-22866690D01*
X15647000Y-22866690D01*
X15550327Y-22633301D01*
X15371698Y-22454673D01*
X15138309Y-22358000D01*
X14697750Y-22358000D01*
X14539000Y-22516750D01*
X14285000Y-22516750D01*
X14126250Y-22358000D01*
X13685691Y-22358000D01*
X13452302Y-22454673D01*
X13273673Y-22633301D01*
X13270754Y-22640348D01*
X13263134Y-22635141D01*
X13112000Y-22604536D01*
X13093000Y-22604536D01*
X13093000Y-21353780D01*
X13188950Y-21353780D01*
X13347700Y-21195030D01*
X13347700Y-20447000D01*
X13327700Y-20447000D01*
X13327700Y-20193000D01*
X13347700Y-20193000D01*
X13347700Y-19444970D01*
X13601700Y-19444970D01*
X13601700Y-20193000D01*
X13621700Y-20193000D01*
X13621700Y-20447000D01*
X13601700Y-20447000D01*
X13601700Y-21195030D01*
X13760450Y-21353780D01*
X13999789Y-21353780D01*
X14233178Y-21257107D01*
X14411807Y-21078479D01*
X14414955Y-21070879D01*
X14423386Y-21076639D01*
X14574520Y-21107244D01*
X15372080Y-21107244D01*
X15513270Y-21080677D01*
X15642945Y-20997234D01*
X15708699Y-20901000D01*
X17051186Y-20901000D01*
X17053103Y-20911190D01*
X17136546Y-21040865D01*
X17263866Y-21127859D01*
X17415000Y-21158464D01*
X17915000Y-21158464D01*
X18056190Y-21131897D01*
X18185865Y-21048454D01*
X18272859Y-20921134D01*
X18303464Y-20770000D01*
X18303464Y-19870000D01*
X18276897Y-19728810D01*
X18193454Y-19599135D01*
X18066134Y-19512141D01*
X17915000Y-19481536D01*
X17415000Y-19481536D01*
X17273810Y-19508103D01*
X17144135Y-19591546D01*
X17057141Y-19718866D01*
X17053064Y-19739000D01*
X15707575Y-19739000D01*
X15650534Y-19650355D01*
X15523214Y-19563361D01*
X15372080Y-19532756D01*
X14574520Y-19532756D01*
X14433330Y-19559323D01*
X14415618Y-19570721D01*
X14411807Y-19561521D01*
X14233178Y-19382893D01*
X13999789Y-19286220D01*
X13760450Y-19286220D01*
X13601700Y-19444970D01*
X13347700Y-19444970D01*
X13188950Y-19286220D01*
X13093000Y-19286220D01*
X13093000Y-19097658D01*
X13194658Y-18996000D01*
X14859000Y-18996000D01*
X15081339Y-18951774D01*
X15269829Y-18825829D01*
X16369658Y-17726000D01*
X17051186Y-17726000D01*
X17053103Y-17736190D01*
X17136546Y-17865865D01*
X17263866Y-17952859D01*
X17415000Y-17983464D01*
X17915000Y-17983464D01*
X18056190Y-17956897D01*
X18185865Y-17873454D01*
X18272859Y-17746134D01*
X18303464Y-17595000D01*
X18303464Y-17328194D01*
X18526536Y-17105122D01*
X18526536Y-17595000D01*
X18526536Y-17595000D01*
G37*
X18526536Y-17595000D02*
X18553103Y-17736190D01*
X18584000Y-17784206D01*
X18584000Y-19679557D01*
X18557141Y-19718866D01*
X18526536Y-19870000D01*
X18526536Y-20770000D01*
X18553103Y-20911190D01*
X18584000Y-20959206D01*
X18584000Y-22604536D01*
X18257000Y-22604536D01*
X18115810Y-22631103D01*
X18098919Y-22641972D01*
X18095327Y-22633301D01*
X17916698Y-22454673D01*
X17683309Y-22358000D01*
X17242750Y-22358000D01*
X17084000Y-22516750D01*
X17084000Y-23241000D01*
X17104000Y-23241000D01*
X17104000Y-23495000D01*
X17084000Y-23495000D01*
X17084000Y-24219250D01*
X17242750Y-24378000D01*
X17683309Y-24378000D01*
X17916698Y-24281327D01*
X18095327Y-24102699D01*
X18098246Y-24095652D01*
X18105866Y-24100859D01*
X18257000Y-24131464D01*
X18276000Y-24131464D01*
X18276000Y-24318000D01*
X18320226Y-24540339D01*
X18446171Y-24728829D01*
X19358000Y-25640658D01*
X19358000Y-26185288D01*
X19093834Y-25789935D01*
X18690057Y-25520140D01*
X18213769Y-25425400D01*
X17854231Y-25425400D01*
X17377943Y-25520140D01*
X16974166Y-25789935D01*
X16774337Y-26089000D01*
X16054658Y-26089000D01*
X14234954Y-24269296D01*
X14285000Y-24219250D01*
X14285000Y-23495000D01*
X14539000Y-23495000D01*
X14539000Y-24219250D01*
X14697750Y-24378000D01*
X15138309Y-24378000D01*
X15371698Y-24281327D01*
X15550327Y-24102699D01*
X15647000Y-23869310D01*
X15647000Y-23653750D01*
X15722000Y-23653750D01*
X15722000Y-23869310D01*
X15818673Y-24102699D01*
X15997302Y-24281327D01*
X16230691Y-24378000D01*
X16671250Y-24378000D01*
X16830000Y-24219250D01*
X16830000Y-23495000D01*
X15880750Y-23495000D01*
X15722000Y-23653750D01*
X15647000Y-23653750D01*
X15488250Y-23495000D01*
X14539000Y-23495000D01*
X14285000Y-23495000D01*
X14265000Y-23495000D01*
X14265000Y-23241000D01*
X14285000Y-23241000D01*
X14285000Y-22516750D01*
X14539000Y-22516750D01*
X14539000Y-23241000D01*
X15488250Y-23241000D01*
X15647000Y-23082250D01*
X15647000Y-22866690D01*
X15722000Y-22866690D01*
X15722000Y-23082250D01*
X15880750Y-23241000D01*
X16830000Y-23241000D01*
X16830000Y-22516750D01*
X16671250Y-22358000D01*
X16230691Y-22358000D01*
X15997302Y-22454673D01*
X15818673Y-22633301D01*
X15722000Y-22866690D01*
X15647000Y-22866690D01*
X15550327Y-22633301D01*
X15371698Y-22454673D01*
X15138309Y-22358000D01*
X14697750Y-22358000D01*
X14539000Y-22516750D01*
X14285000Y-22516750D01*
X14126250Y-22358000D01*
X13685691Y-22358000D01*
X13452302Y-22454673D01*
X13273673Y-22633301D01*
X13270754Y-22640348D01*
X13263134Y-22635141D01*
X13112000Y-22604536D01*
X13093000Y-22604536D01*
X13093000Y-21353780D01*
X13188950Y-21353780D01*
X13347700Y-21195030D01*
X13347700Y-20447000D01*
X13327700Y-20447000D01*
X13327700Y-20193000D01*
X13347700Y-20193000D01*
X13347700Y-19444970D01*
X13601700Y-19444970D01*
X13601700Y-20193000D01*
X13621700Y-20193000D01*
X13621700Y-20447000D01*
X13601700Y-20447000D01*
X13601700Y-21195030D01*
X13760450Y-21353780D01*
X13999789Y-21353780D01*
X14233178Y-21257107D01*
X14411807Y-21078479D01*
X14414955Y-21070879D01*
X14423386Y-21076639D01*
X14574520Y-21107244D01*
X15372080Y-21107244D01*
X15513270Y-21080677D01*
X15642945Y-20997234D01*
X15708699Y-20901000D01*
X17051186Y-20901000D01*
X17053103Y-20911190D01*
X17136546Y-21040865D01*
X17263866Y-21127859D01*
X17415000Y-21158464D01*
X17915000Y-21158464D01*
X18056190Y-21131897D01*
X18185865Y-21048454D01*
X18272859Y-20921134D01*
X18303464Y-20770000D01*
X18303464Y-19870000D01*
X18276897Y-19728810D01*
X18193454Y-19599135D01*
X18066134Y-19512141D01*
X17915000Y-19481536D01*
X17415000Y-19481536D01*
X17273810Y-19508103D01*
X17144135Y-19591546D01*
X17057141Y-19718866D01*
X17053064Y-19739000D01*
X15707575Y-19739000D01*
X15650534Y-19650355D01*
X15523214Y-19563361D01*
X15372080Y-19532756D01*
X14574520Y-19532756D01*
X14433330Y-19559323D01*
X14415618Y-19570721D01*
X14411807Y-19561521D01*
X14233178Y-19382893D01*
X13999789Y-19286220D01*
X13760450Y-19286220D01*
X13601700Y-19444970D01*
X13347700Y-19444970D01*
X13188950Y-19286220D01*
X13093000Y-19286220D01*
X13093000Y-19097658D01*
X13194658Y-18996000D01*
X14859000Y-18996000D01*
X15081339Y-18951774D01*
X15269829Y-18825829D01*
X16369658Y-17726000D01*
X17051186Y-17726000D01*
X17053103Y-17736190D01*
X17136546Y-17865865D01*
X17263866Y-17952859D01*
X17415000Y-17983464D01*
X17915000Y-17983464D01*
X18056190Y-17956897D01*
X18185865Y-17873454D01*
X18272859Y-17746134D01*
X18303464Y-17595000D01*
X18303464Y-17328194D01*
X18526536Y-17105122D01*
X18526536Y-17595000D01*
G36*
X20397000Y-25059767D02*
X20349829Y-24989171D01*
X19486560Y-24125902D01*
X19598190Y-24104897D01*
X19727865Y-24021454D01*
X19814859Y-23894134D01*
X19845464Y-23743000D01*
X19845464Y-22993000D01*
X19818897Y-22851810D01*
X19746000Y-22738524D01*
X19746000Y-20960443D01*
X19772859Y-20921134D01*
X19803464Y-20770000D01*
X19803464Y-19870000D01*
X19776897Y-19728810D01*
X19746000Y-19680794D01*
X19746000Y-17785443D01*
X19772859Y-17746134D01*
X19803464Y-17595000D01*
X19803464Y-16695000D01*
X19776897Y-16553810D01*
X19693454Y-16424135D01*
X19566134Y-16337141D01*
X19415000Y-16306536D01*
X19306111Y-16306536D01*
X19393774Y-16175339D01*
X19438000Y-15953000D01*
X19438000Y-14733464D01*
X19457000Y-14733464D01*
X19598190Y-14706897D01*
X19727865Y-14623454D01*
X19814859Y-14496134D01*
X19845464Y-14345000D01*
X19845464Y-13595000D01*
X19818897Y-13453810D01*
X19735454Y-13324135D01*
X19608134Y-13237141D01*
X19457000Y-13206536D01*
X18257000Y-13206536D01*
X18115810Y-13233103D01*
X18098919Y-13243972D01*
X18095327Y-13235301D01*
X17916698Y-13056673D01*
X17683309Y-12960000D01*
X17242750Y-12960000D01*
X17084000Y-13118750D01*
X17084000Y-13843000D01*
X17104000Y-13843000D01*
X17104000Y-14097000D01*
X17084000Y-14097000D01*
X17084000Y-14821250D01*
X17242750Y-14980000D01*
X17683309Y-14980000D01*
X17916698Y-14883327D01*
X18095327Y-14704699D01*
X18098246Y-14697652D01*
X18105866Y-14702859D01*
X18257000Y-14733464D01*
X18276000Y-14733464D01*
X18276000Y-15712342D01*
X17681806Y-16306536D01*
X17415000Y-16306536D01*
X17273810Y-16333103D01*
X17144135Y-16416546D01*
X17057141Y-16543866D01*
X17053064Y-16564000D01*
X16129000Y-16564000D01*
X15906661Y-16608226D01*
X15718171Y-16734171D01*
X14618342Y-17834000D01*
X12954000Y-17834000D01*
X12731661Y-17878226D01*
X12543171Y-18004171D01*
X12101171Y-18446171D01*
X11975226Y-18634661D01*
X11931000Y-18857000D01*
X11931000Y-22604536D01*
X11912000Y-22604536D01*
X11770810Y-22631103D01*
X11641135Y-22714546D01*
X11630000Y-22730843D01*
X11630000Y-17672940D01*
X11805741Y-17848987D01*
X12055946Y-17952882D01*
X12326865Y-17953118D01*
X12577252Y-17849661D01*
X12768987Y-17658259D01*
X12836177Y-17496448D01*
X12866046Y-17542865D01*
X12993366Y-17629859D01*
X13144500Y-17660464D01*
X14287500Y-17660464D01*
X14428690Y-17633897D01*
X14558365Y-17550454D01*
X14645359Y-17423134D01*
X14675964Y-17272000D01*
X14675964Y-16764000D01*
X14649397Y-16622810D01*
X14565954Y-16493135D01*
X14438634Y-16406141D01*
X14325712Y-16383274D01*
X14428690Y-16363897D01*
X14558365Y-16280454D01*
X14645359Y-16153134D01*
X14675964Y-16002000D01*
X14675964Y-15494000D01*
X14649397Y-15352810D01*
X14565954Y-15223135D01*
X14438634Y-15136141D01*
X14325712Y-15113274D01*
X14428690Y-15093897D01*
X14558365Y-15010454D01*
X14645359Y-14883134D01*
X14675964Y-14732000D01*
X14675964Y-14255750D01*
X15722000Y-14255750D01*
X15722000Y-14471310D01*
X15818673Y-14704699D01*
X15997302Y-14883327D01*
X16230691Y-14980000D01*
X16671250Y-14980000D01*
X16830000Y-14821250D01*
X16830000Y-14097000D01*
X15880750Y-14097000D01*
X15722000Y-14255750D01*
X14675964Y-14255750D01*
X14675964Y-14224000D01*
X14649397Y-14082810D01*
X14565954Y-13953135D01*
X14438634Y-13866141D01*
X14325712Y-13843274D01*
X14428690Y-13823897D01*
X14558365Y-13740454D01*
X14645359Y-13613134D01*
X14674609Y-13468690D01*
X15722000Y-13468690D01*
X15722000Y-13684250D01*
X15880750Y-13843000D01*
X16830000Y-13843000D01*
X16830000Y-13118750D01*
X16671250Y-12960000D01*
X16230691Y-12960000D01*
X15997302Y-13056673D01*
X15818673Y-13235301D01*
X15722000Y-13468690D01*
X14674609Y-13468690D01*
X14675964Y-13462000D01*
X14675964Y-12954000D01*
X14649397Y-12812810D01*
X14565954Y-12683135D01*
X14438634Y-12596141D01*
X14325712Y-12573274D01*
X14428690Y-12553897D01*
X14541948Y-12481018D01*
X14573339Y-12474774D01*
X14761829Y-12348829D01*
X15638536Y-11472122D01*
X15879252Y-11372661D01*
X16070987Y-11181259D01*
X16174882Y-10931054D01*
X16175118Y-10660135D01*
X16071661Y-10409748D01*
X15880259Y-10218013D01*
X15630054Y-10114118D01*
X15359135Y-10113882D01*
X15108748Y-10217339D01*
X14917013Y-10408741D01*
X14816471Y-10650871D01*
X14675964Y-10791378D01*
X14675964Y-10414000D01*
X14649397Y-10272810D01*
X14565954Y-10143135D01*
X14438634Y-10056141D01*
X14325712Y-10033274D01*
X14428690Y-10013897D01*
X14558365Y-9930454D01*
X14645359Y-9803134D01*
X14675964Y-9652000D01*
X14675964Y-9144000D01*
X14649397Y-9002810D01*
X14565954Y-8873135D01*
X14438634Y-8786141D01*
X14325712Y-8763274D01*
X14428690Y-8743897D01*
X14482922Y-8709000D01*
X14491342Y-8709000D01*
X16988171Y-11205829D01*
X17026536Y-11231464D01*
X17026536Y-11245000D01*
X17053103Y-11386190D01*
X17136546Y-11515865D01*
X17263866Y-11602859D01*
X17415000Y-11633464D01*
X17915000Y-11633464D01*
X18056190Y-11606897D01*
X18185865Y-11523454D01*
X18272859Y-11396134D01*
X18303464Y-11245000D01*
X18303464Y-10345000D01*
X18276897Y-10203810D01*
X18193454Y-10074135D01*
X18066134Y-9987141D01*
X17915000Y-9956536D01*
X17415000Y-9956536D01*
X17387389Y-9961731D01*
X15142829Y-7717171D01*
X14954339Y-7591226D01*
X14732000Y-7547000D01*
X14624940Y-7547000D01*
X14800987Y-7371259D01*
X14876572Y-7189230D01*
X15591171Y-7903829D01*
X15779661Y-8029774D01*
X16002000Y-8074000D01*
X16804425Y-8074000D01*
X16861466Y-8162645D01*
X16988786Y-8249639D01*
X17139920Y-8280244D01*
X17937480Y-8280244D01*
X18078670Y-8253677D01*
X18208345Y-8170234D01*
X18288996Y-8052198D01*
X18360066Y-8162645D01*
X18487386Y-8249639D01*
X18584000Y-8269204D01*
X18584000Y-10154557D01*
X18557141Y-10193866D01*
X18526536Y-10345000D01*
X18526536Y-11245000D01*
X18553103Y-11386190D01*
X18636546Y-11515865D01*
X18763866Y-11602859D01*
X18915000Y-11633464D01*
X19415000Y-11633464D01*
X19556190Y-11606897D01*
X19685865Y-11523454D01*
X19772859Y-11396134D01*
X19803464Y-11245000D01*
X19803464Y-10345000D01*
X19776897Y-10203810D01*
X19746000Y-10155794D01*
X19746000Y-8113075D01*
X19793939Y-8042914D01*
X19824544Y-7891780D01*
X19824544Y-7094220D01*
X19797977Y-6953030D01*
X19714534Y-6823355D01*
X19587214Y-6736361D01*
X19436080Y-6705756D01*
X18638520Y-6705756D01*
X18497330Y-6732323D01*
X18367655Y-6815766D01*
X18287004Y-6933802D01*
X18215934Y-6823355D01*
X18088614Y-6736361D01*
X17937480Y-6705756D01*
X17139920Y-6705756D01*
X16998730Y-6732323D01*
X16869055Y-6815766D01*
X16803301Y-6912000D01*
X16242658Y-6912000D01*
X14805000Y-5474342D01*
X14805000Y-3799663D01*
X15104065Y-3599834D01*
X15373860Y-3196057D01*
X15468600Y-2719769D01*
X15468600Y-2360231D01*
X15373860Y-1883943D01*
X15133354Y-1524000D01*
X15511936Y-1524000D01*
X15511936Y-3556000D01*
X15538503Y-3697190D01*
X15621946Y-3826865D01*
X15749266Y-3913859D01*
X15900400Y-3944464D01*
X17627600Y-3944464D01*
X17768790Y-3917897D01*
X17898465Y-3834454D01*
X17985459Y-3707134D01*
X18016064Y-3556000D01*
X18016064Y-1524000D01*
X17989497Y-1382810D01*
X17906054Y-1253135D01*
X17778734Y-1166141D01*
X17627600Y-1135536D01*
X15900400Y-1135536D01*
X15759210Y-1162103D01*
X15629535Y-1245546D01*
X15542541Y-1372866D01*
X15511936Y-1524000D01*
X15133354Y-1524000D01*
X15104065Y-1480166D01*
X14700288Y-1210371D01*
X14224000Y-1115631D01*
X13747712Y-1210371D01*
X13343935Y-1480166D01*
X13074140Y-1883943D01*
X12979400Y-2360231D01*
X12979400Y-2719769D01*
X13074140Y-3196057D01*
X13343935Y-3599834D01*
X13643000Y-3799663D01*
X13643000Y-5474342D01*
X12265000Y-6852342D01*
X12265000Y-3799663D01*
X12564065Y-3599834D01*
X12833860Y-3196057D01*
X12928600Y-2719769D01*
X12928600Y-2360231D01*
X12833860Y-1883943D01*
X12564065Y-1480166D01*
X12160288Y-1210371D01*
X11684000Y-1115631D01*
X11207712Y-1210371D01*
X10803935Y-1480166D01*
X10534140Y-1883943D01*
X10439400Y-2360231D01*
X10439400Y-2719769D01*
X10534140Y-3196057D01*
X10803935Y-3599834D01*
X11103000Y-3799663D01*
X11103000Y-6744342D01*
X9030342Y-8817000D01*
X8400525Y-8817000D01*
X8475827Y-8741698D01*
X8572500Y-8508309D01*
X8572500Y-8413750D01*
X8413750Y-8255000D01*
X7493000Y-8255000D01*
X7493000Y-8275000D01*
X7239000Y-8275000D01*
X7239000Y-8255000D01*
X6318250Y-8255000D01*
X6159500Y-8413750D01*
X6159500Y-8508309D01*
X6256173Y-8741698D01*
X6331475Y-8817000D01*
X5434958Y-8817000D01*
X4365649Y-7747691D01*
X6159500Y-7747691D01*
X6159500Y-7842250D01*
X6318250Y-8001000D01*
X7239000Y-8001000D01*
X7239000Y-7397750D01*
X7493000Y-7397750D01*
X7493000Y-8001000D01*
X8413750Y-8001000D01*
X8572500Y-7842250D01*
X8572500Y-7747691D01*
X8475827Y-7514302D01*
X8297199Y-7335673D01*
X8063810Y-7239000D01*
X7651750Y-7239000D01*
X7493000Y-7397750D01*
X7239000Y-7397750D01*
X7080250Y-7239000D01*
X6668190Y-7239000D01*
X6434801Y-7335673D01*
X6256173Y-7514302D01*
X6159500Y-7747691D01*
X4365649Y-7747691D01*
X4076544Y-7458586D01*
X4076544Y-7094220D01*
X4049977Y-6953030D01*
X3966534Y-6823355D01*
X3839214Y-6736361D01*
X3688080Y-6705756D01*
X2890520Y-6705756D01*
X2749330Y-6732323D01*
X2619655Y-6815766D01*
X2539004Y-6933802D01*
X2467934Y-6823355D01*
X2340614Y-6736361D01*
X2189480Y-6705756D01*
X1391920Y-6705756D01*
X1250730Y-6732323D01*
X1121055Y-6815766D01*
X1034061Y-6943086D01*
X1003456Y-7094220D01*
X1003456Y-7891780D01*
X1030023Y-8032970D01*
X1113466Y-8162645D01*
X1209700Y-8228399D01*
X1209700Y-10023069D01*
X1142135Y-10066546D01*
X1055141Y-10193866D01*
X1024536Y-10345000D01*
X1024536Y-11245000D01*
X1051103Y-11386190D01*
X1134546Y-11515865D01*
X1261866Y-11602859D01*
X1413000Y-11633464D01*
X1913000Y-11633464D01*
X2054190Y-11606897D01*
X2183865Y-11523454D01*
X2270859Y-11396134D01*
X2301464Y-11245000D01*
X2301464Y-10928566D01*
X2327474Y-10889639D01*
X2371700Y-10667300D01*
X2371700Y-8227275D01*
X2460345Y-8170234D01*
X2540996Y-8052198D01*
X2612066Y-8162645D01*
X2739386Y-8249639D01*
X2890520Y-8280244D01*
X3254886Y-8280244D01*
X4783471Y-9808829D01*
X4971961Y-9934774D01*
X5194300Y-9979000D01*
X6598202Y-9979000D01*
X6643366Y-10009859D01*
X6756288Y-10032726D01*
X6653310Y-10052103D01*
X6523635Y-10135546D01*
X6436641Y-10262866D01*
X6406036Y-10414000D01*
X6406036Y-10797000D01*
X6178592Y-10797000D01*
X5818796Y-10437204D01*
X5654638Y-10327517D01*
X5461000Y-10289000D01*
X3790927Y-10289000D01*
X3774897Y-10203810D01*
X3691454Y-10074135D01*
X3564134Y-9987141D01*
X3413000Y-9956536D01*
X2913000Y-9956536D01*
X2771810Y-9983103D01*
X2642135Y-10066546D01*
X2555141Y-10193866D01*
X2524536Y-10345000D01*
X2524536Y-11245000D01*
X2551103Y-11386190D01*
X2634546Y-11515865D01*
X2761866Y-11602859D01*
X2913000Y-11633464D01*
X3413000Y-11633464D01*
X3554190Y-11606897D01*
X3683865Y-11523454D01*
X3770859Y-11396134D01*
X3790124Y-11301000D01*
X5251408Y-11301000D01*
X5611204Y-11660796D01*
X5775362Y-11770483D01*
X5969000Y-11809000D01*
X6406036Y-11809000D01*
X6406036Y-12192000D01*
X6432603Y-12333190D01*
X6516046Y-12462865D01*
X6643366Y-12549859D01*
X6756288Y-12572726D01*
X6653310Y-12592103D01*
X6523635Y-12675546D01*
X6436641Y-12802866D01*
X6406036Y-12954000D01*
X6406036Y-13462000D01*
X6432603Y-13603190D01*
X6516046Y-13732865D01*
X6643366Y-13819859D01*
X6756288Y-13842726D01*
X6653310Y-13862103D01*
X6523635Y-13945546D01*
X6436641Y-14072866D01*
X6406036Y-14224000D01*
X6406036Y-14732000D01*
X6432603Y-14873190D01*
X6516046Y-15002865D01*
X6643366Y-15089859D01*
X6756288Y-15112726D01*
X6653310Y-15132103D01*
X6599078Y-15167000D01*
X5701658Y-15167000D01*
X4732464Y-14197806D01*
X4732464Y-13595000D01*
X4705897Y-13453810D01*
X4622454Y-13324135D01*
X4495134Y-13237141D01*
X4344000Y-13206536D01*
X3144000Y-13206536D01*
X3002810Y-13233103D01*
X2985919Y-13243972D01*
X2982327Y-13235301D01*
X2803698Y-13056673D01*
X2570309Y-12960000D01*
X2129750Y-12960000D01*
X1971000Y-13118750D01*
X1971000Y-13843000D01*
X1991000Y-13843000D01*
X1991000Y-14097000D01*
X1971000Y-14097000D01*
X1971000Y-14821250D01*
X2129750Y-14980000D01*
X2570309Y-14980000D01*
X2803698Y-14883327D01*
X2982327Y-14704699D01*
X2985246Y-14697652D01*
X2992866Y-14702859D01*
X3144000Y-14733464D01*
X3624806Y-14733464D01*
X4639342Y-15748000D01*
X4191806Y-16195536D01*
X3518000Y-16195536D01*
X3376810Y-16222103D01*
X3247135Y-16305546D01*
X3160141Y-16432866D01*
X3129536Y-16584000D01*
X3129536Y-17084000D01*
X3156103Y-17225190D01*
X3166972Y-17242081D01*
X3158301Y-17245673D01*
X2979673Y-17424302D01*
X2883000Y-17657691D01*
X2883000Y-17750250D01*
X3041750Y-17909000D01*
X4191000Y-17909000D01*
X4191000Y-17887000D01*
X4445000Y-17887000D01*
X4445000Y-17909000D01*
X5594250Y-17909000D01*
X5753000Y-17750250D01*
X5753000Y-17657691D01*
X5656327Y-17424302D01*
X5477699Y-17245673D01*
X5470652Y-17242754D01*
X5475859Y-17235134D01*
X5506464Y-17084000D01*
X5506464Y-16584000D01*
X5496993Y-16533665D01*
X5701658Y-16329000D01*
X6598202Y-16329000D01*
X6643366Y-16359859D01*
X6756288Y-16382726D01*
X6653310Y-16402103D01*
X6523635Y-16485546D01*
X6436641Y-16612866D01*
X6406036Y-16764000D01*
X6406036Y-17272000D01*
X6432603Y-17413190D01*
X6516046Y-17542865D01*
X6598285Y-17599057D01*
X5728935Y-18468407D01*
X5753000Y-18410309D01*
X5753000Y-18317750D01*
X5594250Y-18159000D01*
X4445000Y-18159000D01*
X4445000Y-18181000D01*
X4191000Y-18181000D01*
X4191000Y-18159000D01*
X3041750Y-18159000D01*
X2883000Y-18317750D01*
X2883000Y-18410309D01*
X2979673Y-18643698D01*
X2988975Y-18653000D01*
X2414464Y-18653000D01*
X2414464Y-18511000D01*
X2387897Y-18369810D01*
X2377028Y-18352919D01*
X2385699Y-18349327D01*
X2564327Y-18170698D01*
X2661000Y-17937309D01*
X2661000Y-17496750D01*
X2502250Y-17338000D01*
X1778000Y-17338000D01*
X1778000Y-17358000D01*
X1524000Y-17358000D01*
X1524000Y-17338000D01*
X799750Y-17338000D01*
X641000Y-17496750D01*
X641000Y-17937309D01*
X737673Y-18170698D01*
X916301Y-18349327D01*
X923348Y-18352246D01*
X918141Y-18359866D01*
X887536Y-18511000D01*
X887536Y-19711000D01*
X914103Y-19852190D01*
X997546Y-19981865D01*
X1124866Y-20068859D01*
X1276000Y-20099464D01*
X2026000Y-20099464D01*
X2167190Y-20072897D01*
X2296865Y-19989454D01*
X2383859Y-19862134D01*
X2393404Y-19815000D01*
X3327557Y-19815000D01*
X3366866Y-19841859D01*
X3518000Y-19872464D01*
X5118000Y-19872464D01*
X5259190Y-19845897D01*
X5307206Y-19815000D01*
X5785000Y-19815000D01*
X6007339Y-19770774D01*
X6195829Y-19644829D01*
X7776829Y-18063829D01*
X7902774Y-17875339D01*
X7945827Y-17658897D01*
X8078690Y-17633897D01*
X8208365Y-17550454D01*
X8295359Y-17423134D01*
X8325964Y-17272000D01*
X8325964Y-16764000D01*
X8299397Y-16622810D01*
X8215954Y-16493135D01*
X8088634Y-16406141D01*
X7975712Y-16383274D01*
X8078690Y-16363897D01*
X8208365Y-16280454D01*
X8295359Y-16153134D01*
X8325964Y-16002000D01*
X8325964Y-15878622D01*
X9833000Y-17385658D01*
X9833000Y-22503975D01*
X9783698Y-22454673D01*
X9550309Y-22358000D01*
X9109750Y-22358000D01*
X8951000Y-22516750D01*
X8951000Y-23241000D01*
X8971000Y-23241000D01*
X8971000Y-23495000D01*
X8951000Y-23495000D01*
X8951000Y-24219250D01*
X9109750Y-24378000D01*
X9550309Y-24378000D01*
X9783698Y-24281327D01*
X9833000Y-24232025D01*
X9833000Y-25159342D01*
X9651153Y-25341189D01*
X9649874Y-25334761D01*
X9523929Y-25146271D01*
X8646954Y-24269296D01*
X8697000Y-24219250D01*
X8697000Y-23495000D01*
X8677000Y-23495000D01*
X8677000Y-23241000D01*
X8697000Y-23241000D01*
X8697000Y-22516750D01*
X8538250Y-22358000D01*
X8097691Y-22358000D01*
X7864302Y-22454673D01*
X7685673Y-22633301D01*
X7682754Y-22640348D01*
X7675134Y-22635141D01*
X7524000Y-22604536D01*
X7505000Y-22604536D01*
X7505000Y-22545000D01*
X7460774Y-22322661D01*
X7334829Y-22134171D01*
X6379829Y-21179171D01*
X6191339Y-21053226D01*
X5969000Y-21009000D01*
X4064000Y-21009000D01*
X3841661Y-21053226D01*
X3653171Y-21179171D01*
X3018171Y-21814171D01*
X2892226Y-22002661D01*
X2848000Y-22225000D01*
X2848000Y-23254342D01*
X2630000Y-23472342D01*
X2630000Y-23399750D01*
X2471250Y-23241000D01*
X1667000Y-23241000D01*
X1667000Y-24200250D01*
X1784546Y-24317796D01*
X478171Y-25624171D01*
X431000Y-25694767D01*
X431000Y-23399750D01*
X450000Y-23399750D01*
X450000Y-23850310D01*
X546673Y-24083699D01*
X725302Y-24262327D01*
X958691Y-24359000D01*
X1254250Y-24359000D01*
X1413000Y-24200250D01*
X1413000Y-23241000D01*
X608750Y-23241000D01*
X450000Y-23399750D01*
X431000Y-23399750D01*
X431000Y-22377690D01*
X450000Y-22377690D01*
X450000Y-22828250D01*
X608750Y-22987000D01*
X1413000Y-22987000D01*
X1413000Y-22027750D01*
X1667000Y-22027750D01*
X1667000Y-22987000D01*
X2471250Y-22987000D01*
X2630000Y-22828250D01*
X2630000Y-22377690D01*
X2533327Y-22144301D01*
X2354698Y-21965673D01*
X2121309Y-21869000D01*
X1825750Y-21869000D01*
X1667000Y-22027750D01*
X1413000Y-22027750D01*
X1254250Y-21869000D01*
X958691Y-21869000D01*
X725302Y-21965673D01*
X546673Y-22144301D01*
X450000Y-22377690D01*
X431000Y-22377690D01*
X431000Y-16484691D01*
X641000Y-16484691D01*
X641000Y-16925250D01*
X799750Y-17084000D01*
X1524000Y-17084000D01*
X1524000Y-16134750D01*
X1778000Y-16134750D01*
X1778000Y-17084000D01*
X2502250Y-17084000D01*
X2661000Y-16925250D01*
X2661000Y-16484691D01*
X2564327Y-16251302D01*
X2385699Y-16072673D01*
X2152310Y-15976000D01*
X1936750Y-15976000D01*
X1778000Y-16134750D01*
X1524000Y-16134750D01*
X1365250Y-15976000D01*
X1149690Y-15976000D01*
X916301Y-16072673D01*
X737673Y-16251302D01*
X641000Y-16484691D01*
X431000Y-16484691D01*
X431000Y-14255750D01*
X609000Y-14255750D01*
X609000Y-14471310D01*
X705673Y-14704699D01*
X884302Y-14883327D01*
X1117691Y-14980000D01*
X1558250Y-14980000D01*
X1717000Y-14821250D01*
X1717000Y-14097000D01*
X767750Y-14097000D01*
X609000Y-14255750D01*
X431000Y-14255750D01*
X431000Y-13468690D01*
X609000Y-13468690D01*
X609000Y-13684250D01*
X767750Y-13843000D01*
X1717000Y-13843000D01*
X1717000Y-13118750D01*
X1558250Y-12960000D01*
X1117691Y-12960000D01*
X884302Y-13056673D01*
X705673Y-13235301D01*
X609000Y-13468690D01*
X431000Y-13468690D01*
X431000Y-2901913D01*
X2578816Y-2901913D01*
X2772046Y-3454320D01*
X3161964Y-3890732D01*
X3689209Y-4144709D01*
X3704974Y-4147358D01*
X3937000Y-4026217D01*
X3937000Y-2667000D01*
X2723076Y-2667000D01*
X2578816Y-2901913D01*
X431000Y-2901913D01*
X431000Y-2178087D01*
X2578816Y-2178087D01*
X2723076Y-2413000D01*
X3937000Y-2413000D01*
X3937000Y-1053783D01*
X4191000Y-1053783D01*
X4191000Y-2413000D01*
X4211000Y-2413000D01*
X4211000Y-2667000D01*
X4191000Y-2667000D01*
X4191000Y-4026217D01*
X4423026Y-4147358D01*
X4438791Y-4144709D01*
X4966036Y-3890732D01*
X5355954Y-3454320D01*
X5451296Y-3181757D01*
X5454140Y-3196057D01*
X5723935Y-3599834D01*
X6127712Y-3869629D01*
X6604000Y-3964369D01*
X7080288Y-3869629D01*
X7484065Y-3599834D01*
X7753860Y-3196057D01*
X7848600Y-2719769D01*
X7848600Y-2360231D01*
X7899400Y-2360231D01*
X7899400Y-2719769D01*
X7994140Y-3196057D01*
X8263935Y-3599834D01*
X8667712Y-3869629D01*
X9144000Y-3964369D01*
X9620288Y-3869629D01*
X10024065Y-3599834D01*
X10293860Y-3196057D01*
X10388600Y-2719769D01*
X10388600Y-2360231D01*
X10293860Y-1883943D01*
X10024065Y-1480166D01*
X9620288Y-1210371D01*
X9144000Y-1115631D01*
X8667712Y-1210371D01*
X8263935Y-1480166D01*
X7994140Y-1883943D01*
X7899400Y-2360231D01*
X7848600Y-2360231D01*
X7753860Y-1883943D01*
X7484065Y-1480166D01*
X7080288Y-1210371D01*
X6604000Y-1115631D01*
X6127712Y-1210371D01*
X5723935Y-1480166D01*
X5454140Y-1883943D01*
X5451296Y-1898243D01*
X5355954Y-1625680D01*
X4966036Y-1189268D01*
X4438791Y-935291D01*
X4423026Y-932642D01*
X4191000Y-1053783D01*
X3937000Y-1053783D01*
X3704974Y-932642D01*
X3689209Y-935291D01*
X3161964Y-1189268D01*
X2772046Y-1625680D01*
X2578816Y-2178087D01*
X431000Y-2178087D01*
X431000Y-431000D01*
X20397000Y-431000D01*
X20397000Y-25059767D01*
X20397000Y-25059767D01*
G37*
X20397000Y-25059767D02*
X20349829Y-24989171D01*
X19486560Y-24125902D01*
X19598190Y-24104897D01*
X19727865Y-24021454D01*
X19814859Y-23894134D01*
X19845464Y-23743000D01*
X19845464Y-22993000D01*
X19818897Y-22851810D01*
X19746000Y-22738524D01*
X19746000Y-20960443D01*
X19772859Y-20921134D01*
X19803464Y-20770000D01*
X19803464Y-19870000D01*
X19776897Y-19728810D01*
X19746000Y-19680794D01*
X19746000Y-17785443D01*
X19772859Y-17746134D01*
X19803464Y-17595000D01*
X19803464Y-16695000D01*
X19776897Y-16553810D01*
X19693454Y-16424135D01*
X19566134Y-16337141D01*
X19415000Y-16306536D01*
X19306111Y-16306536D01*
X19393774Y-16175339D01*
X19438000Y-15953000D01*
X19438000Y-14733464D01*
X19457000Y-14733464D01*
X19598190Y-14706897D01*
X19727865Y-14623454D01*
X19814859Y-14496134D01*
X19845464Y-14345000D01*
X19845464Y-13595000D01*
X19818897Y-13453810D01*
X19735454Y-13324135D01*
X19608134Y-13237141D01*
X19457000Y-13206536D01*
X18257000Y-13206536D01*
X18115810Y-13233103D01*
X18098919Y-13243972D01*
X18095327Y-13235301D01*
X17916698Y-13056673D01*
X17683309Y-12960000D01*
X17242750Y-12960000D01*
X17084000Y-13118750D01*
X17084000Y-13843000D01*
X17104000Y-13843000D01*
X17104000Y-14097000D01*
X17084000Y-14097000D01*
X17084000Y-14821250D01*
X17242750Y-14980000D01*
X17683309Y-14980000D01*
X17916698Y-14883327D01*
X18095327Y-14704699D01*
X18098246Y-14697652D01*
X18105866Y-14702859D01*
X18257000Y-14733464D01*
X18276000Y-14733464D01*
X18276000Y-15712342D01*
X17681806Y-16306536D01*
X17415000Y-16306536D01*
X17273810Y-16333103D01*
X17144135Y-16416546D01*
X17057141Y-16543866D01*
X17053064Y-16564000D01*
X16129000Y-16564000D01*
X15906661Y-16608226D01*
X15718171Y-16734171D01*
X14618342Y-17834000D01*
X12954000Y-17834000D01*
X12731661Y-17878226D01*
X12543171Y-18004171D01*
X12101171Y-18446171D01*
X11975226Y-18634661D01*
X11931000Y-18857000D01*
X11931000Y-22604536D01*
X11912000Y-22604536D01*
X11770810Y-22631103D01*
X11641135Y-22714546D01*
X11630000Y-22730843D01*
X11630000Y-17672940D01*
X11805741Y-17848987D01*
X12055946Y-17952882D01*
X12326865Y-17953118D01*
X12577252Y-17849661D01*
X12768987Y-17658259D01*
X12836177Y-17496448D01*
X12866046Y-17542865D01*
X12993366Y-17629859D01*
X13144500Y-17660464D01*
X14287500Y-17660464D01*
X14428690Y-17633897D01*
X14558365Y-17550454D01*
X14645359Y-17423134D01*
X14675964Y-17272000D01*
X14675964Y-16764000D01*
X14649397Y-16622810D01*
X14565954Y-16493135D01*
X14438634Y-16406141D01*
X14325712Y-16383274D01*
X14428690Y-16363897D01*
X14558365Y-16280454D01*
X14645359Y-16153134D01*
X14675964Y-16002000D01*
X14675964Y-15494000D01*
X14649397Y-15352810D01*
X14565954Y-15223135D01*
X14438634Y-15136141D01*
X14325712Y-15113274D01*
X14428690Y-15093897D01*
X14558365Y-15010454D01*
X14645359Y-14883134D01*
X14675964Y-14732000D01*
X14675964Y-14255750D01*
X15722000Y-14255750D01*
X15722000Y-14471310D01*
X15818673Y-14704699D01*
X15997302Y-14883327D01*
X16230691Y-14980000D01*
X16671250Y-14980000D01*
X16830000Y-14821250D01*
X16830000Y-14097000D01*
X15880750Y-14097000D01*
X15722000Y-14255750D01*
X14675964Y-14255750D01*
X14675964Y-14224000D01*
X14649397Y-14082810D01*
X14565954Y-13953135D01*
X14438634Y-13866141D01*
X14325712Y-13843274D01*
X14428690Y-13823897D01*
X14558365Y-13740454D01*
X14645359Y-13613134D01*
X14674609Y-13468690D01*
X15722000Y-13468690D01*
X15722000Y-13684250D01*
X15880750Y-13843000D01*
X16830000Y-13843000D01*
X16830000Y-13118750D01*
X16671250Y-12960000D01*
X16230691Y-12960000D01*
X15997302Y-13056673D01*
X15818673Y-13235301D01*
X15722000Y-13468690D01*
X14674609Y-13468690D01*
X14675964Y-13462000D01*
X14675964Y-12954000D01*
X14649397Y-12812810D01*
X14565954Y-12683135D01*
X14438634Y-12596141D01*
X14325712Y-12573274D01*
X14428690Y-12553897D01*
X14541948Y-12481018D01*
X14573339Y-12474774D01*
X14761829Y-12348829D01*
X15638536Y-11472122D01*
X15879252Y-11372661D01*
X16070987Y-11181259D01*
X16174882Y-10931054D01*
X16175118Y-10660135D01*
X16071661Y-10409748D01*
X15880259Y-10218013D01*
X15630054Y-10114118D01*
X15359135Y-10113882D01*
X15108748Y-10217339D01*
X14917013Y-10408741D01*
X14816471Y-10650871D01*
X14675964Y-10791378D01*
X14675964Y-10414000D01*
X14649397Y-10272810D01*
X14565954Y-10143135D01*
X14438634Y-10056141D01*
X14325712Y-10033274D01*
X14428690Y-10013897D01*
X14558365Y-9930454D01*
X14645359Y-9803134D01*
X14675964Y-9652000D01*
X14675964Y-9144000D01*
X14649397Y-9002810D01*
X14565954Y-8873135D01*
X14438634Y-8786141D01*
X14325712Y-8763274D01*
X14428690Y-8743897D01*
X14482922Y-8709000D01*
X14491342Y-8709000D01*
X16988171Y-11205829D01*
X17026536Y-11231464D01*
X17026536Y-11245000D01*
X17053103Y-11386190D01*
X17136546Y-11515865D01*
X17263866Y-11602859D01*
X17415000Y-11633464D01*
X17915000Y-11633464D01*
X18056190Y-11606897D01*
X18185865Y-11523454D01*
X18272859Y-11396134D01*
X18303464Y-11245000D01*
X18303464Y-10345000D01*
X18276897Y-10203810D01*
X18193454Y-10074135D01*
X18066134Y-9987141D01*
X17915000Y-9956536D01*
X17415000Y-9956536D01*
X17387389Y-9961731D01*
X15142829Y-7717171D01*
X14954339Y-7591226D01*
X14732000Y-7547000D01*
X14624940Y-7547000D01*
X14800987Y-7371259D01*
X14876572Y-7189230D01*
X15591171Y-7903829D01*
X15779661Y-8029774D01*
X16002000Y-8074000D01*
X16804425Y-8074000D01*
X16861466Y-8162645D01*
X16988786Y-8249639D01*
X17139920Y-8280244D01*
X17937480Y-8280244D01*
X18078670Y-8253677D01*
X18208345Y-8170234D01*
X18288996Y-8052198D01*
X18360066Y-8162645D01*
X18487386Y-8249639D01*
X18584000Y-8269204D01*
X18584000Y-10154557D01*
X18557141Y-10193866D01*
X18526536Y-10345000D01*
X18526536Y-11245000D01*
X18553103Y-11386190D01*
X18636546Y-11515865D01*
X18763866Y-11602859D01*
X18915000Y-11633464D01*
X19415000Y-11633464D01*
X19556190Y-11606897D01*
X19685865Y-11523454D01*
X19772859Y-11396134D01*
X19803464Y-11245000D01*
X19803464Y-10345000D01*
X19776897Y-10203810D01*
X19746000Y-10155794D01*
X19746000Y-8113075D01*
X19793939Y-8042914D01*
X19824544Y-7891780D01*
X19824544Y-7094220D01*
X19797977Y-6953030D01*
X19714534Y-6823355D01*
X19587214Y-6736361D01*
X19436080Y-6705756D01*
X18638520Y-6705756D01*
X18497330Y-6732323D01*
X18367655Y-6815766D01*
X18287004Y-6933802D01*
X18215934Y-6823355D01*
X18088614Y-6736361D01*
X17937480Y-6705756D01*
X17139920Y-6705756D01*
X16998730Y-6732323D01*
X16869055Y-6815766D01*
X16803301Y-6912000D01*
X16242658Y-6912000D01*
X14805000Y-5474342D01*
X14805000Y-3799663D01*
X15104065Y-3599834D01*
X15373860Y-3196057D01*
X15468600Y-2719769D01*
X15468600Y-2360231D01*
X15373860Y-1883943D01*
X15133354Y-1524000D01*
X15511936Y-1524000D01*
X15511936Y-3556000D01*
X15538503Y-3697190D01*
X15621946Y-3826865D01*
X15749266Y-3913859D01*
X15900400Y-3944464D01*
X17627600Y-3944464D01*
X17768790Y-3917897D01*
X17898465Y-3834454D01*
X17985459Y-3707134D01*
X18016064Y-3556000D01*
X18016064Y-1524000D01*
X17989497Y-1382810D01*
X17906054Y-1253135D01*
X17778734Y-1166141D01*
X17627600Y-1135536D01*
X15900400Y-1135536D01*
X15759210Y-1162103D01*
X15629535Y-1245546D01*
X15542541Y-1372866D01*
X15511936Y-1524000D01*
X15133354Y-1524000D01*
X15104065Y-1480166D01*
X14700288Y-1210371D01*
X14224000Y-1115631D01*
X13747712Y-1210371D01*
X13343935Y-1480166D01*
X13074140Y-1883943D01*
X12979400Y-2360231D01*
X12979400Y-2719769D01*
X13074140Y-3196057D01*
X13343935Y-3599834D01*
X13643000Y-3799663D01*
X13643000Y-5474342D01*
X12265000Y-6852342D01*
X12265000Y-3799663D01*
X12564065Y-3599834D01*
X12833860Y-3196057D01*
X12928600Y-2719769D01*
X12928600Y-2360231D01*
X12833860Y-1883943D01*
X12564065Y-1480166D01*
X12160288Y-1210371D01*
X11684000Y-1115631D01*
X11207712Y-1210371D01*
X10803935Y-1480166D01*
X10534140Y-1883943D01*
X10439400Y-2360231D01*
X10439400Y-2719769D01*
X10534140Y-3196057D01*
X10803935Y-3599834D01*
X11103000Y-3799663D01*
X11103000Y-6744342D01*
X9030342Y-8817000D01*
X8400525Y-8817000D01*
X8475827Y-8741698D01*
X8572500Y-8508309D01*
X8572500Y-8413750D01*
X8413750Y-8255000D01*
X7493000Y-8255000D01*
X7493000Y-8275000D01*
X7239000Y-8275000D01*
X7239000Y-8255000D01*
X6318250Y-8255000D01*
X6159500Y-8413750D01*
X6159500Y-8508309D01*
X6256173Y-8741698D01*
X6331475Y-8817000D01*
X5434958Y-8817000D01*
X4365649Y-7747691D01*
X6159500Y-7747691D01*
X6159500Y-7842250D01*
X6318250Y-8001000D01*
X7239000Y-8001000D01*
X7239000Y-7397750D01*
X7493000Y-7397750D01*
X7493000Y-8001000D01*
X8413750Y-8001000D01*
X8572500Y-7842250D01*
X8572500Y-7747691D01*
X8475827Y-7514302D01*
X8297199Y-7335673D01*
X8063810Y-7239000D01*
X7651750Y-7239000D01*
X7493000Y-7397750D01*
X7239000Y-7397750D01*
X7080250Y-7239000D01*
X6668190Y-7239000D01*
X6434801Y-7335673D01*
X6256173Y-7514302D01*
X6159500Y-7747691D01*
X4365649Y-7747691D01*
X4076544Y-7458586D01*
X4076544Y-7094220D01*
X4049977Y-6953030D01*
X3966534Y-6823355D01*
X3839214Y-6736361D01*
X3688080Y-6705756D01*
X2890520Y-6705756D01*
X2749330Y-6732323D01*
X2619655Y-6815766D01*
X2539004Y-6933802D01*
X2467934Y-6823355D01*
X2340614Y-6736361D01*
X2189480Y-6705756D01*
X1391920Y-6705756D01*
X1250730Y-6732323D01*
X1121055Y-6815766D01*
X1034061Y-6943086D01*
X1003456Y-7094220D01*
X1003456Y-7891780D01*
X1030023Y-8032970D01*
X1113466Y-8162645D01*
X1209700Y-8228399D01*
X1209700Y-10023069D01*
X1142135Y-10066546D01*
X1055141Y-10193866D01*
X1024536Y-10345000D01*
X1024536Y-11245000D01*
X1051103Y-11386190D01*
X1134546Y-11515865D01*
X1261866Y-11602859D01*
X1413000Y-11633464D01*
X1913000Y-11633464D01*
X2054190Y-11606897D01*
X2183865Y-11523454D01*
X2270859Y-11396134D01*
X2301464Y-11245000D01*
X2301464Y-10928566D01*
X2327474Y-10889639D01*
X2371700Y-10667300D01*
X2371700Y-8227275D01*
X2460345Y-8170234D01*
X2540996Y-8052198D01*
X2612066Y-8162645D01*
X2739386Y-8249639D01*
X2890520Y-8280244D01*
X3254886Y-8280244D01*
X4783471Y-9808829D01*
X4971961Y-9934774D01*
X5194300Y-9979000D01*
X6598202Y-9979000D01*
X6643366Y-10009859D01*
X6756288Y-10032726D01*
X6653310Y-10052103D01*
X6523635Y-10135546D01*
X6436641Y-10262866D01*
X6406036Y-10414000D01*
X6406036Y-10797000D01*
X6178592Y-10797000D01*
X5818796Y-10437204D01*
X5654638Y-10327517D01*
X5461000Y-10289000D01*
X3790927Y-10289000D01*
X3774897Y-10203810D01*
X3691454Y-10074135D01*
X3564134Y-9987141D01*
X3413000Y-9956536D01*
X2913000Y-9956536D01*
X2771810Y-9983103D01*
X2642135Y-10066546D01*
X2555141Y-10193866D01*
X2524536Y-10345000D01*
X2524536Y-11245000D01*
X2551103Y-11386190D01*
X2634546Y-11515865D01*
X2761866Y-11602859D01*
X2913000Y-11633464D01*
X3413000Y-11633464D01*
X3554190Y-11606897D01*
X3683865Y-11523454D01*
X3770859Y-11396134D01*
X3790124Y-11301000D01*
X5251408Y-11301000D01*
X5611204Y-11660796D01*
X5775362Y-11770483D01*
X5969000Y-11809000D01*
X6406036Y-11809000D01*
X6406036Y-12192000D01*
X6432603Y-12333190D01*
X6516046Y-12462865D01*
X6643366Y-12549859D01*
X6756288Y-12572726D01*
X6653310Y-12592103D01*
X6523635Y-12675546D01*
X6436641Y-12802866D01*
X6406036Y-12954000D01*
X6406036Y-13462000D01*
X6432603Y-13603190D01*
X6516046Y-13732865D01*
X6643366Y-13819859D01*
X6756288Y-13842726D01*
X6653310Y-13862103D01*
X6523635Y-13945546D01*
X6436641Y-14072866D01*
X6406036Y-14224000D01*
X6406036Y-14732000D01*
X6432603Y-14873190D01*
X6516046Y-15002865D01*
X6643366Y-15089859D01*
X6756288Y-15112726D01*
X6653310Y-15132103D01*
X6599078Y-15167000D01*
X5701658Y-15167000D01*
X4732464Y-14197806D01*
X4732464Y-13595000D01*
X4705897Y-13453810D01*
X4622454Y-13324135D01*
X4495134Y-13237141D01*
X4344000Y-13206536D01*
X3144000Y-13206536D01*
X3002810Y-13233103D01*
X2985919Y-13243972D01*
X2982327Y-13235301D01*
X2803698Y-13056673D01*
X2570309Y-12960000D01*
X2129750Y-12960000D01*
X1971000Y-13118750D01*
X1971000Y-13843000D01*
X1991000Y-13843000D01*
X1991000Y-14097000D01*
X1971000Y-14097000D01*
X1971000Y-14821250D01*
X2129750Y-14980000D01*
X2570309Y-14980000D01*
X2803698Y-14883327D01*
X2982327Y-14704699D01*
X2985246Y-14697652D01*
X2992866Y-14702859D01*
X3144000Y-14733464D01*
X3624806Y-14733464D01*
X4639342Y-15748000D01*
X4191806Y-16195536D01*
X3518000Y-16195536D01*
X3376810Y-16222103D01*
X3247135Y-16305546D01*
X3160141Y-16432866D01*
X3129536Y-16584000D01*
X3129536Y-17084000D01*
X3156103Y-17225190D01*
X3166972Y-17242081D01*
X3158301Y-17245673D01*
X2979673Y-17424302D01*
X2883000Y-17657691D01*
X2883000Y-17750250D01*
X3041750Y-17909000D01*
X4191000Y-17909000D01*
X4191000Y-17887000D01*
X4445000Y-17887000D01*
X4445000Y-17909000D01*
X5594250Y-17909000D01*
X5753000Y-17750250D01*
X5753000Y-17657691D01*
X5656327Y-17424302D01*
X5477699Y-17245673D01*
X5470652Y-17242754D01*
X5475859Y-17235134D01*
X5506464Y-17084000D01*
X5506464Y-16584000D01*
X5496993Y-16533665D01*
X5701658Y-16329000D01*
X6598202Y-16329000D01*
X6643366Y-16359859D01*
X6756288Y-16382726D01*
X6653310Y-16402103D01*
X6523635Y-16485546D01*
X6436641Y-16612866D01*
X6406036Y-16764000D01*
X6406036Y-17272000D01*
X6432603Y-17413190D01*
X6516046Y-17542865D01*
X6598285Y-17599057D01*
X5728935Y-18468407D01*
X5753000Y-18410309D01*
X5753000Y-18317750D01*
X5594250Y-18159000D01*
X4445000Y-18159000D01*
X4445000Y-18181000D01*
X4191000Y-18181000D01*
X4191000Y-18159000D01*
X3041750Y-18159000D01*
X2883000Y-18317750D01*
X2883000Y-18410309D01*
X2979673Y-18643698D01*
X2988975Y-18653000D01*
X2414464Y-18653000D01*
X2414464Y-18511000D01*
X2387897Y-18369810D01*
X2377028Y-18352919D01*
X2385699Y-18349327D01*
X2564327Y-18170698D01*
X2661000Y-17937309D01*
X2661000Y-17496750D01*
X2502250Y-17338000D01*
X1778000Y-17338000D01*
X1778000Y-17358000D01*
X1524000Y-17358000D01*
X1524000Y-17338000D01*
X799750Y-17338000D01*
X641000Y-17496750D01*
X641000Y-17937309D01*
X737673Y-18170698D01*
X916301Y-18349327D01*
X923348Y-18352246D01*
X918141Y-18359866D01*
X887536Y-18511000D01*
X887536Y-19711000D01*
X914103Y-19852190D01*
X997546Y-19981865D01*
X1124866Y-20068859D01*
X1276000Y-20099464D01*
X2026000Y-20099464D01*
X2167190Y-20072897D01*
X2296865Y-19989454D01*
X2383859Y-19862134D01*
X2393404Y-19815000D01*
X3327557Y-19815000D01*
X3366866Y-19841859D01*
X3518000Y-19872464D01*
X5118000Y-19872464D01*
X5259190Y-19845897D01*
X5307206Y-19815000D01*
X5785000Y-19815000D01*
X6007339Y-19770774D01*
X6195829Y-19644829D01*
X7776829Y-18063829D01*
X7902774Y-17875339D01*
X7945827Y-17658897D01*
X8078690Y-17633897D01*
X8208365Y-17550454D01*
X8295359Y-17423134D01*
X8325964Y-17272000D01*
X8325964Y-16764000D01*
X8299397Y-16622810D01*
X8215954Y-16493135D01*
X8088634Y-16406141D01*
X7975712Y-16383274D01*
X8078690Y-16363897D01*
X8208365Y-16280454D01*
X8295359Y-16153134D01*
X8325964Y-16002000D01*
X8325964Y-15878622D01*
X9833000Y-17385658D01*
X9833000Y-22503975D01*
X9783698Y-22454673D01*
X9550309Y-22358000D01*
X9109750Y-22358000D01*
X8951000Y-22516750D01*
X8951000Y-23241000D01*
X8971000Y-23241000D01*
X8971000Y-23495000D01*
X8951000Y-23495000D01*
X8951000Y-24219250D01*
X9109750Y-24378000D01*
X9550309Y-24378000D01*
X9783698Y-24281327D01*
X9833000Y-24232025D01*
X9833000Y-25159342D01*
X9651153Y-25341189D01*
X9649874Y-25334761D01*
X9523929Y-25146271D01*
X8646954Y-24269296D01*
X8697000Y-24219250D01*
X8697000Y-23495000D01*
X8677000Y-23495000D01*
X8677000Y-23241000D01*
X8697000Y-23241000D01*
X8697000Y-22516750D01*
X8538250Y-22358000D01*
X8097691Y-22358000D01*
X7864302Y-22454673D01*
X7685673Y-22633301D01*
X7682754Y-22640348D01*
X7675134Y-22635141D01*
X7524000Y-22604536D01*
X7505000Y-22604536D01*
X7505000Y-22545000D01*
X7460774Y-22322661D01*
X7334829Y-22134171D01*
X6379829Y-21179171D01*
X6191339Y-21053226D01*
X5969000Y-21009000D01*
X4064000Y-21009000D01*
X3841661Y-21053226D01*
X3653171Y-21179171D01*
X3018171Y-21814171D01*
X2892226Y-22002661D01*
X2848000Y-22225000D01*
X2848000Y-23254342D01*
X2630000Y-23472342D01*
X2630000Y-23399750D01*
X2471250Y-23241000D01*
X1667000Y-23241000D01*
X1667000Y-24200250D01*
X1784546Y-24317796D01*
X478171Y-25624171D01*
X431000Y-25694767D01*
X431000Y-23399750D01*
X450000Y-23399750D01*
X450000Y-23850310D01*
X546673Y-24083699D01*
X725302Y-24262327D01*
X958691Y-24359000D01*
X1254250Y-24359000D01*
X1413000Y-24200250D01*
X1413000Y-23241000D01*
X608750Y-23241000D01*
X450000Y-23399750D01*
X431000Y-23399750D01*
X431000Y-22377690D01*
X450000Y-22377690D01*
X450000Y-22828250D01*
X608750Y-22987000D01*
X1413000Y-22987000D01*
X1413000Y-22027750D01*
X1667000Y-22027750D01*
X1667000Y-22987000D01*
X2471250Y-22987000D01*
X2630000Y-22828250D01*
X2630000Y-22377690D01*
X2533327Y-22144301D01*
X2354698Y-21965673D01*
X2121309Y-21869000D01*
X1825750Y-21869000D01*
X1667000Y-22027750D01*
X1413000Y-22027750D01*
X1254250Y-21869000D01*
X958691Y-21869000D01*
X725302Y-21965673D01*
X546673Y-22144301D01*
X450000Y-22377690D01*
X431000Y-22377690D01*
X431000Y-16484691D01*
X641000Y-16484691D01*
X641000Y-16925250D01*
X799750Y-17084000D01*
X1524000Y-17084000D01*
X1524000Y-16134750D01*
X1778000Y-16134750D01*
X1778000Y-17084000D01*
X2502250Y-17084000D01*
X2661000Y-16925250D01*
X2661000Y-16484691D01*
X2564327Y-16251302D01*
X2385699Y-16072673D01*
X2152310Y-15976000D01*
X1936750Y-15976000D01*
X1778000Y-16134750D01*
X1524000Y-16134750D01*
X1365250Y-15976000D01*
X1149690Y-15976000D01*
X916301Y-16072673D01*
X737673Y-16251302D01*
X641000Y-16484691D01*
X431000Y-16484691D01*
X431000Y-14255750D01*
X609000Y-14255750D01*
X609000Y-14471310D01*
X705673Y-14704699D01*
X884302Y-14883327D01*
X1117691Y-14980000D01*
X1558250Y-14980000D01*
X1717000Y-14821250D01*
X1717000Y-14097000D01*
X767750Y-14097000D01*
X609000Y-14255750D01*
X431000Y-14255750D01*
X431000Y-13468690D01*
X609000Y-13468690D01*
X609000Y-13684250D01*
X767750Y-13843000D01*
X1717000Y-13843000D01*
X1717000Y-13118750D01*
X1558250Y-12960000D01*
X1117691Y-12960000D01*
X884302Y-13056673D01*
X705673Y-13235301D01*
X609000Y-13468690D01*
X431000Y-13468690D01*
X431000Y-2901913D01*
X2578816Y-2901913D01*
X2772046Y-3454320D01*
X3161964Y-3890732D01*
X3689209Y-4144709D01*
X3704974Y-4147358D01*
X3937000Y-4026217D01*
X3937000Y-2667000D01*
X2723076Y-2667000D01*
X2578816Y-2901913D01*
X431000Y-2901913D01*
X431000Y-2178087D01*
X2578816Y-2178087D01*
X2723076Y-2413000D01*
X3937000Y-2413000D01*
X3937000Y-1053783D01*
X4191000Y-1053783D01*
X4191000Y-2413000D01*
X4211000Y-2413000D01*
X4211000Y-2667000D01*
X4191000Y-2667000D01*
X4191000Y-4026217D01*
X4423026Y-4147358D01*
X4438791Y-4144709D01*
X4966036Y-3890732D01*
X5355954Y-3454320D01*
X5451296Y-3181757D01*
X5454140Y-3196057D01*
X5723935Y-3599834D01*
X6127712Y-3869629D01*
X6604000Y-3964369D01*
X7080288Y-3869629D01*
X7484065Y-3599834D01*
X7753860Y-3196057D01*
X7848600Y-2719769D01*
X7848600Y-2360231D01*
X7899400Y-2360231D01*
X7899400Y-2719769D01*
X7994140Y-3196057D01*
X8263935Y-3599834D01*
X8667712Y-3869629D01*
X9144000Y-3964369D01*
X9620288Y-3869629D01*
X10024065Y-3599834D01*
X10293860Y-3196057D01*
X10388600Y-2719769D01*
X10388600Y-2360231D01*
X10293860Y-1883943D01*
X10024065Y-1480166D01*
X9620288Y-1210371D01*
X9144000Y-1115631D01*
X8667712Y-1210371D01*
X8263935Y-1480166D01*
X7994140Y-1883943D01*
X7899400Y-2360231D01*
X7848600Y-2360231D01*
X7753860Y-1883943D01*
X7484065Y-1480166D01*
X7080288Y-1210371D01*
X6604000Y-1115631D01*
X6127712Y-1210371D01*
X5723935Y-1480166D01*
X5454140Y-1883943D01*
X5451296Y-1898243D01*
X5355954Y-1625680D01*
X4966036Y-1189268D01*
X4438791Y-935291D01*
X4423026Y-932642D01*
X4191000Y-1053783D01*
X3937000Y-1053783D01*
X3704974Y-932642D01*
X3689209Y-935291D01*
X3161964Y-1189268D01*
X2772046Y-1625680D01*
X2578816Y-2178087D01*
X431000Y-2178087D01*
X431000Y-431000D01*
X20397000Y-431000D01*
X20397000Y-25059767D01*
M02*
