G04 #@! TF.FileFunction,Soldermask,Bot*
%FSLAX46Y46*%
G04 Gerber Fmt 4.6, Leading zero omitted, Abs format (unit mm)*
G04 Created by KiCad (PCBNEW 4.0.2-stable) date Sunday, 21 August 2016 'pmt' 15:41:42*
%MOMM*%
G01*
G04 APERTURE LIST*
%ADD10C,0.100000*%
%ADD11R,1.727200X2.032000*%
%ADD12O,1.727200X2.032000*%
%ADD13R,2.032000X1.727200*%
%ADD14O,2.032000X1.727200*%
%ADD15O,1.000000X1.550000*%
%ADD16C,0.500000*%
G04 APERTURE END LIST*
D10*
D11*
X51350000Y-2700000D03*
D12*
X48810000Y-2700000D03*
X46270000Y-2700000D03*
X43730000Y-2700000D03*
X41190000Y-2700000D03*
X38650000Y-2700000D03*
D13*
X51450000Y-15350000D03*
D14*
X51450000Y-12810000D03*
X51450000Y-10270000D03*
D15*
X41100000Y-23100000D03*
X48900000Y-23100000D03*
D16*
X47000000Y-21200000D03*
X43000000Y-21200000D03*
D15*
X41100000Y-73100000D03*
X48900000Y-73100000D03*
D16*
X47000000Y-71200000D03*
X43000000Y-71200000D03*
D13*
X51450000Y-65350000D03*
D14*
X51450000Y-62810000D03*
X51450000Y-60270000D03*
D11*
X51350000Y-52700000D03*
D12*
X48810000Y-52700000D03*
X46270000Y-52700000D03*
X43730000Y-52700000D03*
X41190000Y-52700000D03*
X38650000Y-52700000D03*
D15*
X41100000Y-48100000D03*
X48900000Y-48100000D03*
D16*
X47000000Y-46200000D03*
X43000000Y-46200000D03*
D13*
X51450000Y-40350000D03*
D14*
X51450000Y-37810000D03*
X51450000Y-35270000D03*
D11*
X51350000Y-27700000D03*
D12*
X48810000Y-27700000D03*
X46270000Y-27700000D03*
X43730000Y-27700000D03*
X41190000Y-27700000D03*
X38650000Y-27700000D03*
D11*
X69350000Y-27700000D03*
D12*
X66810000Y-27700000D03*
X64270000Y-27700000D03*
X61730000Y-27700000D03*
X59190000Y-27700000D03*
X56650000Y-27700000D03*
D13*
X69450000Y-40350000D03*
D14*
X69450000Y-37810000D03*
X69450000Y-35270000D03*
D15*
X59100000Y-48100000D03*
X66900000Y-48100000D03*
D16*
X65000000Y-46200000D03*
X61000000Y-46200000D03*
D11*
X69350000Y-52700000D03*
D12*
X66810000Y-52700000D03*
X64270000Y-52700000D03*
X61730000Y-52700000D03*
X59190000Y-52700000D03*
X56650000Y-52700000D03*
D13*
X69450000Y-65350000D03*
D14*
X69450000Y-62810000D03*
X69450000Y-60270000D03*
D15*
X59100000Y-73100000D03*
X66900000Y-73100000D03*
D16*
X65000000Y-71200000D03*
X61000000Y-71200000D03*
D15*
X59100000Y-23100000D03*
X66900000Y-23100000D03*
D16*
X65000000Y-21200000D03*
X61000000Y-21200000D03*
D13*
X69450000Y-15350000D03*
D14*
X69450000Y-12810000D03*
X69450000Y-10270000D03*
D11*
X69350000Y-2700000D03*
D12*
X66810000Y-2700000D03*
X64270000Y-2700000D03*
X61730000Y-2700000D03*
X59190000Y-2700000D03*
X56650000Y-2700000D03*
D11*
X33350000Y-2700000D03*
D12*
X30810000Y-2700000D03*
X28270000Y-2700000D03*
X25730000Y-2700000D03*
X23190000Y-2700000D03*
X20650000Y-2700000D03*
D13*
X33450000Y-15350000D03*
D14*
X33450000Y-12810000D03*
X33450000Y-10270000D03*
D15*
X23100000Y-23100000D03*
X30900000Y-23100000D03*
D16*
X29000000Y-21200000D03*
X25000000Y-21200000D03*
D15*
X23100000Y-73100000D03*
X30900000Y-73100000D03*
D16*
X29000000Y-71200000D03*
X25000000Y-71200000D03*
D13*
X33450000Y-65350000D03*
D14*
X33450000Y-62810000D03*
X33450000Y-60270000D03*
D11*
X33350000Y-52700000D03*
D12*
X30810000Y-52700000D03*
X28270000Y-52700000D03*
X25730000Y-52700000D03*
X23190000Y-52700000D03*
X20650000Y-52700000D03*
D15*
X23100000Y-48100000D03*
X30900000Y-48100000D03*
D16*
X29000000Y-46200000D03*
X25000000Y-46200000D03*
D13*
X33450000Y-40350000D03*
D14*
X33450000Y-37810000D03*
X33450000Y-35270000D03*
D11*
X33350000Y-27700000D03*
D12*
X30810000Y-27700000D03*
X28270000Y-27700000D03*
X25730000Y-27700000D03*
X23190000Y-27700000D03*
X20650000Y-27700000D03*
D11*
X87350000Y-2700000D03*
D12*
X84810000Y-2700000D03*
X82270000Y-2700000D03*
X79730000Y-2700000D03*
X77190000Y-2700000D03*
X74650000Y-2700000D03*
D13*
X87450000Y-15350000D03*
D14*
X87450000Y-12810000D03*
X87450000Y-10270000D03*
D15*
X77100000Y-23100000D03*
X84900000Y-23100000D03*
D16*
X83000000Y-21200000D03*
X79000000Y-21200000D03*
D15*
X77100000Y-73100000D03*
X84900000Y-73100000D03*
D16*
X83000000Y-71200000D03*
X79000000Y-71200000D03*
D13*
X87450000Y-65350000D03*
D14*
X87450000Y-62810000D03*
X87450000Y-60270000D03*
D11*
X87350000Y-52700000D03*
D12*
X84810000Y-52700000D03*
X82270000Y-52700000D03*
X79730000Y-52700000D03*
X77190000Y-52700000D03*
X74650000Y-52700000D03*
D15*
X77100000Y-48100000D03*
X84900000Y-48100000D03*
D16*
X83000000Y-46200000D03*
X79000000Y-46200000D03*
D13*
X87450000Y-40350000D03*
D14*
X87450000Y-37810000D03*
X87450000Y-35270000D03*
D11*
X87350000Y-27700000D03*
D12*
X84810000Y-27700000D03*
X82270000Y-27700000D03*
X79730000Y-27700000D03*
X77190000Y-27700000D03*
X74650000Y-27700000D03*
D11*
X15350000Y-27700000D03*
D12*
X12810000Y-27700000D03*
X10270000Y-27700000D03*
X7730000Y-27700000D03*
X5190000Y-27700000D03*
X2650000Y-27700000D03*
D13*
X15450000Y-40350000D03*
D14*
X15450000Y-37810000D03*
X15450000Y-35270000D03*
D15*
X5100000Y-48100000D03*
X12900000Y-48100000D03*
D16*
X11000000Y-46200000D03*
X7000000Y-46200000D03*
D11*
X15350000Y-52700000D03*
D12*
X12810000Y-52700000D03*
X10270000Y-52700000D03*
X7730000Y-52700000D03*
X5190000Y-52700000D03*
X2650000Y-52700000D03*
D13*
X15450000Y-65350000D03*
D14*
X15450000Y-62810000D03*
X15450000Y-60270000D03*
D15*
X5100000Y-73100000D03*
X12900000Y-73100000D03*
D16*
X11000000Y-71200000D03*
X7000000Y-71200000D03*
D15*
X5100000Y-23100000D03*
X12900000Y-23100000D03*
D16*
X11000000Y-21200000D03*
X7000000Y-21200000D03*
D13*
X15450000Y-15350000D03*
D14*
X15450000Y-12810000D03*
X15450000Y-10270000D03*
D11*
X15350000Y-2700000D03*
D12*
X12810000Y-2700000D03*
X10270000Y-2700000D03*
X7730000Y-2700000D03*
X5190000Y-2700000D03*
X2650000Y-2700000D03*
M02*
