G04 #@! TF.FileFunction,Copper,L2,Bot,Signal*
%FSLAX46Y46*%
G04 Gerber Fmt 4.6, Leading zero omitted, Abs format (unit mm)*
G04 Created by KiCad (PCBNEW 4.0.2-stable) date Sunday, 05 June 2016 'pmt' 16:31:40*
%MOMM*%
G01*
G04 APERTURE LIST*
%ADD10C,0.100000*%
%ADD11R,2.032000X1.727200*%
%ADD12O,2.032000X1.727200*%
%ADD13R,1.727200X2.032000*%
%ADD14O,1.727200X2.032000*%
%ADD15O,1.250000X0.950000*%
%ADD16O,1.000000X1.550000*%
%ADD17C,0.600000*%
%ADD18C,0.250000*%
%ADD19C,0.400000*%
%ADD20C,0.254000*%
G04 APERTURE END LIST*
D10*
D11*
X2667000Y-31750000D03*
D12*
X2667000Y-29210000D03*
X2667000Y-26670000D03*
D13*
X16764000Y-2540000D03*
D14*
X14224000Y-2540000D03*
X11684000Y-2540000D03*
X9144000Y-2540000D03*
X6604000Y-2540000D03*
X4064000Y-2540000D03*
D15*
X7913100Y-27901460D03*
X12913100Y-27901460D03*
D16*
X6913100Y-30601460D03*
X13913100Y-30601460D03*
D11*
X18034000Y-31750000D03*
D12*
X18034000Y-29210000D03*
X18034000Y-26670000D03*
D17*
X14224000Y-21844000D03*
X11176000Y-29464000D03*
X12192000Y-17272000D03*
X15494000Y-10795000D03*
X14224000Y-6985000D03*
X12319000Y-10795000D03*
D18*
X10922000Y-29210000D02*
X2667000Y-29210000D01*
X11176000Y-29464000D02*
X10922000Y-29210000D01*
D19*
X16510000Y-29210000D02*
X18034000Y-29210000D01*
X11684000Y-24384000D02*
X16510000Y-29210000D01*
X11684000Y-17780000D02*
X11684000Y-24384000D01*
X12192000Y-17272000D02*
X11684000Y-17780000D01*
X15494000Y-4445000D02*
X16764000Y-3175000D01*
X15494000Y-10795000D02*
X15494000Y-4445000D01*
X16764000Y-3175000D02*
X16764000Y-2540000D01*
X16764000Y-3175000D02*
X16764000Y-2540000D01*
X11049000Y-4445000D02*
X9144000Y-2540000D01*
X11684000Y-4445000D02*
X11049000Y-4445000D01*
X14224000Y-6985000D02*
X11684000Y-4445000D01*
X6604000Y-5080000D02*
X6604000Y-2540000D01*
X12319000Y-10795000D02*
X6604000Y-5080000D01*
D20*
G36*
X20397000Y-33859000D02*
X431000Y-33859000D01*
X431000Y-29569026D01*
X1059642Y-29569026D01*
X1062291Y-29584791D01*
X1316268Y-30112036D01*
X1748183Y-30497936D01*
X1651000Y-30497936D01*
X1509810Y-30524503D01*
X1380135Y-30607946D01*
X1293141Y-30735266D01*
X1262536Y-30886400D01*
X1262536Y-32613600D01*
X1289103Y-32754790D01*
X1372546Y-32884465D01*
X1499866Y-32971459D01*
X1651000Y-33002064D01*
X3683000Y-33002064D01*
X3824190Y-32975497D01*
X3953865Y-32892054D01*
X4040859Y-32764734D01*
X4071464Y-32613600D01*
X4071464Y-30886400D01*
X4044897Y-30745210D01*
X3961454Y-30615535D01*
X3834134Y-30528541D01*
X3683000Y-30497936D01*
X3585817Y-30497936D01*
X3803087Y-30303813D01*
X6032100Y-30303813D01*
X6032100Y-30899107D01*
X6099162Y-31236251D01*
X6290139Y-31522068D01*
X6575956Y-31713045D01*
X6913100Y-31780107D01*
X7250244Y-31713045D01*
X7536061Y-31522068D01*
X7727038Y-31236251D01*
X7794100Y-30899107D01*
X7794100Y-30303813D01*
X13032100Y-30303813D01*
X13032100Y-30899107D01*
X13099162Y-31236251D01*
X13290139Y-31522068D01*
X13575956Y-31713045D01*
X13913100Y-31780107D01*
X14250244Y-31713045D01*
X14536061Y-31522068D01*
X14727038Y-31236251D01*
X14794100Y-30899107D01*
X14794100Y-30886400D01*
X16629536Y-30886400D01*
X16629536Y-32613600D01*
X16656103Y-32754790D01*
X16739546Y-32884465D01*
X16866866Y-32971459D01*
X17018000Y-33002064D01*
X19050000Y-33002064D01*
X19191190Y-32975497D01*
X19320865Y-32892054D01*
X19407859Y-32764734D01*
X19438464Y-32613600D01*
X19438464Y-30886400D01*
X19411897Y-30745210D01*
X19328454Y-30615535D01*
X19201134Y-30528541D01*
X19050000Y-30497936D01*
X17018000Y-30497936D01*
X16876810Y-30524503D01*
X16747135Y-30607946D01*
X16660141Y-30735266D01*
X16629536Y-30886400D01*
X14794100Y-30886400D01*
X14794100Y-30303813D01*
X14727038Y-29966669D01*
X14536061Y-29680852D01*
X14250244Y-29489875D01*
X13913100Y-29422813D01*
X13575956Y-29489875D01*
X13290139Y-29680852D01*
X13099162Y-29966669D01*
X13032100Y-30303813D01*
X7794100Y-30303813D01*
X7727038Y-29966669D01*
X7536061Y-29680852D01*
X7250244Y-29489875D01*
X6913100Y-29422813D01*
X6575956Y-29489875D01*
X6290139Y-29680852D01*
X6099162Y-29966669D01*
X6032100Y-30303813D01*
X3803087Y-30303813D01*
X4017732Y-30112036D01*
X4271709Y-29584791D01*
X4274358Y-29569026D01*
X4153217Y-29337000D01*
X2794000Y-29337000D01*
X2794000Y-29357000D01*
X2540000Y-29357000D01*
X2540000Y-29337000D01*
X1180783Y-29337000D01*
X1059642Y-29569026D01*
X431000Y-29569026D01*
X431000Y-28850974D01*
X1059642Y-28850974D01*
X1180783Y-29083000D01*
X2540000Y-29083000D01*
X2540000Y-29063000D01*
X2794000Y-29063000D01*
X2794000Y-29083000D01*
X4153217Y-29083000D01*
X4274358Y-28850974D01*
X4271709Y-28835209D01*
X4017732Y-28307964D01*
X3581320Y-27918046D01*
X3533905Y-27901460D01*
X6887391Y-27901460D01*
X6952550Y-28229037D01*
X7138108Y-28506743D01*
X7415814Y-28692301D01*
X7743391Y-28757460D01*
X8082809Y-28757460D01*
X8410386Y-28692301D01*
X8688092Y-28506743D01*
X8873650Y-28229037D01*
X8938809Y-27901460D01*
X11887391Y-27901460D01*
X11952550Y-28229037D01*
X12138108Y-28506743D01*
X12415814Y-28692301D01*
X12743391Y-28757460D01*
X13082809Y-28757460D01*
X13410386Y-28692301D01*
X13688092Y-28506743D01*
X13873650Y-28229037D01*
X13938809Y-27901460D01*
X13873650Y-27573883D01*
X13688092Y-27296177D01*
X13410386Y-27110619D01*
X13082809Y-27045460D01*
X12743391Y-27045460D01*
X12415814Y-27110619D01*
X12138108Y-27296177D01*
X11952550Y-27573883D01*
X11887391Y-27901460D01*
X8938809Y-27901460D01*
X8873650Y-27573883D01*
X8688092Y-27296177D01*
X8410386Y-27110619D01*
X8082809Y-27045460D01*
X7743391Y-27045460D01*
X7415814Y-27110619D01*
X7138108Y-27296177D01*
X6952550Y-27573883D01*
X6887391Y-27901460D01*
X3533905Y-27901460D01*
X3308757Y-27822704D01*
X3323057Y-27819860D01*
X3726834Y-27550065D01*
X3996629Y-27146288D01*
X4091369Y-26670000D01*
X3996629Y-26193712D01*
X3726834Y-25789935D01*
X3323057Y-25520140D01*
X2846769Y-25425400D01*
X2487231Y-25425400D01*
X2010943Y-25520140D01*
X1607166Y-25789935D01*
X1337371Y-26193712D01*
X1242631Y-26670000D01*
X1337371Y-27146288D01*
X1607166Y-27550065D01*
X2010943Y-27819860D01*
X2025243Y-27822704D01*
X1752680Y-27918046D01*
X1316268Y-28307964D01*
X1062291Y-28835209D01*
X1059642Y-28850974D01*
X431000Y-28850974D01*
X431000Y-17780000D01*
X11103000Y-17780000D01*
X11103000Y-24384000D01*
X11147226Y-24606339D01*
X11273171Y-24794829D01*
X16099171Y-29620829D01*
X16287661Y-29746774D01*
X16510000Y-29791000D01*
X16774337Y-29791000D01*
X16974166Y-30090065D01*
X17377943Y-30359860D01*
X17854231Y-30454600D01*
X18213769Y-30454600D01*
X18690057Y-30359860D01*
X19093834Y-30090065D01*
X19363629Y-29686288D01*
X19458369Y-29210000D01*
X19363629Y-28733712D01*
X19093834Y-28329935D01*
X18690057Y-28060140D01*
X18213769Y-27965400D01*
X17854231Y-27965400D01*
X17377943Y-28060140D01*
X16974166Y-28329935D01*
X16774337Y-28629000D01*
X16750658Y-28629000D01*
X14791658Y-26670000D01*
X16609631Y-26670000D01*
X16704371Y-27146288D01*
X16974166Y-27550065D01*
X17377943Y-27819860D01*
X17854231Y-27914600D01*
X18213769Y-27914600D01*
X18690057Y-27819860D01*
X19093834Y-27550065D01*
X19363629Y-27146288D01*
X19458369Y-26670000D01*
X19363629Y-26193712D01*
X19093834Y-25789935D01*
X18690057Y-25520140D01*
X18213769Y-25425400D01*
X17854231Y-25425400D01*
X17377943Y-25520140D01*
X16974166Y-25789935D01*
X16704371Y-26193712D01*
X16609631Y-26670000D01*
X14791658Y-26670000D01*
X12265000Y-24143342D01*
X12265000Y-18020658D01*
X12336536Y-17949122D01*
X12577252Y-17849661D01*
X12768987Y-17658259D01*
X12872882Y-17408054D01*
X12873118Y-17137135D01*
X12769661Y-16886748D01*
X12578259Y-16695013D01*
X12328054Y-16591118D01*
X12057135Y-16590882D01*
X11806748Y-16694339D01*
X11615013Y-16885741D01*
X11514471Y-17127871D01*
X11273171Y-17369171D01*
X11147226Y-17557661D01*
X11103000Y-17780000D01*
X431000Y-17780000D01*
X431000Y-2901913D01*
X2578816Y-2901913D01*
X2772046Y-3454320D01*
X3161964Y-3890732D01*
X3689209Y-4144709D01*
X3704974Y-4147358D01*
X3937000Y-4026217D01*
X3937000Y-2667000D01*
X2723076Y-2667000D01*
X2578816Y-2901913D01*
X431000Y-2901913D01*
X431000Y-2178087D01*
X2578816Y-2178087D01*
X2723076Y-2413000D01*
X3937000Y-2413000D01*
X3937000Y-1053783D01*
X4191000Y-1053783D01*
X4191000Y-2413000D01*
X4211000Y-2413000D01*
X4211000Y-2667000D01*
X4191000Y-2667000D01*
X4191000Y-4026217D01*
X4423026Y-4147358D01*
X4438791Y-4144709D01*
X4966036Y-3890732D01*
X5355954Y-3454320D01*
X5451296Y-3181757D01*
X5454140Y-3196057D01*
X5723935Y-3599834D01*
X6023000Y-3799663D01*
X6023000Y-5080000D01*
X6067226Y-5302339D01*
X6193171Y-5490829D01*
X11641878Y-10939536D01*
X11741339Y-11180252D01*
X11932741Y-11371987D01*
X12182946Y-11475882D01*
X12453865Y-11476118D01*
X12704252Y-11372661D01*
X12895987Y-11181259D01*
X12999882Y-10931054D01*
X12999883Y-10929865D01*
X14812882Y-10929865D01*
X14916339Y-11180252D01*
X15107741Y-11371987D01*
X15357946Y-11475882D01*
X15628865Y-11476118D01*
X15879252Y-11372661D01*
X16070987Y-11181259D01*
X16174882Y-10931054D01*
X16175118Y-10660135D01*
X16075000Y-10417829D01*
X16075000Y-4685658D01*
X16816194Y-3944464D01*
X17627600Y-3944464D01*
X17768790Y-3917897D01*
X17898465Y-3834454D01*
X17985459Y-3707134D01*
X18016064Y-3556000D01*
X18016064Y-1524000D01*
X17989497Y-1382810D01*
X17906054Y-1253135D01*
X17778734Y-1166141D01*
X17627600Y-1135536D01*
X15900400Y-1135536D01*
X15759210Y-1162103D01*
X15629535Y-1245546D01*
X15542541Y-1372866D01*
X15511936Y-1524000D01*
X15511936Y-3556000D01*
X15519760Y-3597582D01*
X15083171Y-4034171D01*
X14957226Y-4222661D01*
X14913000Y-4445000D01*
X14913000Y-10418405D01*
X14813118Y-10658946D01*
X14812882Y-10929865D01*
X12999883Y-10929865D01*
X13000118Y-10660135D01*
X12896661Y-10409748D01*
X12705259Y-10218013D01*
X12463129Y-10117471D01*
X7185000Y-4839342D01*
X7185000Y-3799663D01*
X7484065Y-3599834D01*
X7753860Y-3196057D01*
X7848600Y-2719769D01*
X7848600Y-2360231D01*
X7899400Y-2360231D01*
X7899400Y-2719769D01*
X7994140Y-3196057D01*
X8263935Y-3599834D01*
X8667712Y-3869629D01*
X9144000Y-3964369D01*
X9620288Y-3869629D01*
X9639281Y-3856939D01*
X10638171Y-4855829D01*
X10826661Y-4981774D01*
X11049000Y-5026000D01*
X11443342Y-5026000D01*
X13546878Y-7129536D01*
X13646339Y-7370252D01*
X13837741Y-7561987D01*
X14087946Y-7665882D01*
X14358865Y-7666118D01*
X14609252Y-7562661D01*
X14800987Y-7371259D01*
X14904882Y-7121054D01*
X14905118Y-6850135D01*
X14801661Y-6599748D01*
X14610259Y-6408013D01*
X14368129Y-6307471D01*
X12094829Y-4034171D01*
X11920082Y-3917409D01*
X12160288Y-3869629D01*
X12564065Y-3599834D01*
X12833860Y-3196057D01*
X12928600Y-2719769D01*
X12928600Y-2360231D01*
X12979400Y-2360231D01*
X12979400Y-2719769D01*
X13074140Y-3196057D01*
X13343935Y-3599834D01*
X13747712Y-3869629D01*
X14224000Y-3964369D01*
X14700288Y-3869629D01*
X15104065Y-3599834D01*
X15373860Y-3196057D01*
X15468600Y-2719769D01*
X15468600Y-2360231D01*
X15373860Y-1883943D01*
X15104065Y-1480166D01*
X14700288Y-1210371D01*
X14224000Y-1115631D01*
X13747712Y-1210371D01*
X13343935Y-1480166D01*
X13074140Y-1883943D01*
X12979400Y-2360231D01*
X12928600Y-2360231D01*
X12833860Y-1883943D01*
X12564065Y-1480166D01*
X12160288Y-1210371D01*
X11684000Y-1115631D01*
X11207712Y-1210371D01*
X10803935Y-1480166D01*
X10534140Y-1883943D01*
X10439400Y-2360231D01*
X10439400Y-2719769D01*
X10512395Y-3086737D01*
X10348255Y-2922597D01*
X10388600Y-2719769D01*
X10388600Y-2360231D01*
X10293860Y-1883943D01*
X10024065Y-1480166D01*
X9620288Y-1210371D01*
X9144000Y-1115631D01*
X8667712Y-1210371D01*
X8263935Y-1480166D01*
X7994140Y-1883943D01*
X7899400Y-2360231D01*
X7848600Y-2360231D01*
X7753860Y-1883943D01*
X7484065Y-1480166D01*
X7080288Y-1210371D01*
X6604000Y-1115631D01*
X6127712Y-1210371D01*
X5723935Y-1480166D01*
X5454140Y-1883943D01*
X5451296Y-1898243D01*
X5355954Y-1625680D01*
X4966036Y-1189268D01*
X4438791Y-935291D01*
X4423026Y-932642D01*
X4191000Y-1053783D01*
X3937000Y-1053783D01*
X3704974Y-932642D01*
X3689209Y-935291D01*
X3161964Y-1189268D01*
X2772046Y-1625680D01*
X2578816Y-2178087D01*
X431000Y-2178087D01*
X431000Y-431000D01*
X20397000Y-431000D01*
X20397000Y-33859000D01*
X20397000Y-33859000D01*
G37*
X20397000Y-33859000D02*
X431000Y-33859000D01*
X431000Y-29569026D01*
X1059642Y-29569026D01*
X1062291Y-29584791D01*
X1316268Y-30112036D01*
X1748183Y-30497936D01*
X1651000Y-30497936D01*
X1509810Y-30524503D01*
X1380135Y-30607946D01*
X1293141Y-30735266D01*
X1262536Y-30886400D01*
X1262536Y-32613600D01*
X1289103Y-32754790D01*
X1372546Y-32884465D01*
X1499866Y-32971459D01*
X1651000Y-33002064D01*
X3683000Y-33002064D01*
X3824190Y-32975497D01*
X3953865Y-32892054D01*
X4040859Y-32764734D01*
X4071464Y-32613600D01*
X4071464Y-30886400D01*
X4044897Y-30745210D01*
X3961454Y-30615535D01*
X3834134Y-30528541D01*
X3683000Y-30497936D01*
X3585817Y-30497936D01*
X3803087Y-30303813D01*
X6032100Y-30303813D01*
X6032100Y-30899107D01*
X6099162Y-31236251D01*
X6290139Y-31522068D01*
X6575956Y-31713045D01*
X6913100Y-31780107D01*
X7250244Y-31713045D01*
X7536061Y-31522068D01*
X7727038Y-31236251D01*
X7794100Y-30899107D01*
X7794100Y-30303813D01*
X13032100Y-30303813D01*
X13032100Y-30899107D01*
X13099162Y-31236251D01*
X13290139Y-31522068D01*
X13575956Y-31713045D01*
X13913100Y-31780107D01*
X14250244Y-31713045D01*
X14536061Y-31522068D01*
X14727038Y-31236251D01*
X14794100Y-30899107D01*
X14794100Y-30886400D01*
X16629536Y-30886400D01*
X16629536Y-32613600D01*
X16656103Y-32754790D01*
X16739546Y-32884465D01*
X16866866Y-32971459D01*
X17018000Y-33002064D01*
X19050000Y-33002064D01*
X19191190Y-32975497D01*
X19320865Y-32892054D01*
X19407859Y-32764734D01*
X19438464Y-32613600D01*
X19438464Y-30886400D01*
X19411897Y-30745210D01*
X19328454Y-30615535D01*
X19201134Y-30528541D01*
X19050000Y-30497936D01*
X17018000Y-30497936D01*
X16876810Y-30524503D01*
X16747135Y-30607946D01*
X16660141Y-30735266D01*
X16629536Y-30886400D01*
X14794100Y-30886400D01*
X14794100Y-30303813D01*
X14727038Y-29966669D01*
X14536061Y-29680852D01*
X14250244Y-29489875D01*
X13913100Y-29422813D01*
X13575956Y-29489875D01*
X13290139Y-29680852D01*
X13099162Y-29966669D01*
X13032100Y-30303813D01*
X7794100Y-30303813D01*
X7727038Y-29966669D01*
X7536061Y-29680852D01*
X7250244Y-29489875D01*
X6913100Y-29422813D01*
X6575956Y-29489875D01*
X6290139Y-29680852D01*
X6099162Y-29966669D01*
X6032100Y-30303813D01*
X3803087Y-30303813D01*
X4017732Y-30112036D01*
X4271709Y-29584791D01*
X4274358Y-29569026D01*
X4153217Y-29337000D01*
X2794000Y-29337000D01*
X2794000Y-29357000D01*
X2540000Y-29357000D01*
X2540000Y-29337000D01*
X1180783Y-29337000D01*
X1059642Y-29569026D01*
X431000Y-29569026D01*
X431000Y-28850974D01*
X1059642Y-28850974D01*
X1180783Y-29083000D01*
X2540000Y-29083000D01*
X2540000Y-29063000D01*
X2794000Y-29063000D01*
X2794000Y-29083000D01*
X4153217Y-29083000D01*
X4274358Y-28850974D01*
X4271709Y-28835209D01*
X4017732Y-28307964D01*
X3581320Y-27918046D01*
X3533905Y-27901460D01*
X6887391Y-27901460D01*
X6952550Y-28229037D01*
X7138108Y-28506743D01*
X7415814Y-28692301D01*
X7743391Y-28757460D01*
X8082809Y-28757460D01*
X8410386Y-28692301D01*
X8688092Y-28506743D01*
X8873650Y-28229037D01*
X8938809Y-27901460D01*
X11887391Y-27901460D01*
X11952550Y-28229037D01*
X12138108Y-28506743D01*
X12415814Y-28692301D01*
X12743391Y-28757460D01*
X13082809Y-28757460D01*
X13410386Y-28692301D01*
X13688092Y-28506743D01*
X13873650Y-28229037D01*
X13938809Y-27901460D01*
X13873650Y-27573883D01*
X13688092Y-27296177D01*
X13410386Y-27110619D01*
X13082809Y-27045460D01*
X12743391Y-27045460D01*
X12415814Y-27110619D01*
X12138108Y-27296177D01*
X11952550Y-27573883D01*
X11887391Y-27901460D01*
X8938809Y-27901460D01*
X8873650Y-27573883D01*
X8688092Y-27296177D01*
X8410386Y-27110619D01*
X8082809Y-27045460D01*
X7743391Y-27045460D01*
X7415814Y-27110619D01*
X7138108Y-27296177D01*
X6952550Y-27573883D01*
X6887391Y-27901460D01*
X3533905Y-27901460D01*
X3308757Y-27822704D01*
X3323057Y-27819860D01*
X3726834Y-27550065D01*
X3996629Y-27146288D01*
X4091369Y-26670000D01*
X3996629Y-26193712D01*
X3726834Y-25789935D01*
X3323057Y-25520140D01*
X2846769Y-25425400D01*
X2487231Y-25425400D01*
X2010943Y-25520140D01*
X1607166Y-25789935D01*
X1337371Y-26193712D01*
X1242631Y-26670000D01*
X1337371Y-27146288D01*
X1607166Y-27550065D01*
X2010943Y-27819860D01*
X2025243Y-27822704D01*
X1752680Y-27918046D01*
X1316268Y-28307964D01*
X1062291Y-28835209D01*
X1059642Y-28850974D01*
X431000Y-28850974D01*
X431000Y-17780000D01*
X11103000Y-17780000D01*
X11103000Y-24384000D01*
X11147226Y-24606339D01*
X11273171Y-24794829D01*
X16099171Y-29620829D01*
X16287661Y-29746774D01*
X16510000Y-29791000D01*
X16774337Y-29791000D01*
X16974166Y-30090065D01*
X17377943Y-30359860D01*
X17854231Y-30454600D01*
X18213769Y-30454600D01*
X18690057Y-30359860D01*
X19093834Y-30090065D01*
X19363629Y-29686288D01*
X19458369Y-29210000D01*
X19363629Y-28733712D01*
X19093834Y-28329935D01*
X18690057Y-28060140D01*
X18213769Y-27965400D01*
X17854231Y-27965400D01*
X17377943Y-28060140D01*
X16974166Y-28329935D01*
X16774337Y-28629000D01*
X16750658Y-28629000D01*
X14791658Y-26670000D01*
X16609631Y-26670000D01*
X16704371Y-27146288D01*
X16974166Y-27550065D01*
X17377943Y-27819860D01*
X17854231Y-27914600D01*
X18213769Y-27914600D01*
X18690057Y-27819860D01*
X19093834Y-27550065D01*
X19363629Y-27146288D01*
X19458369Y-26670000D01*
X19363629Y-26193712D01*
X19093834Y-25789935D01*
X18690057Y-25520140D01*
X18213769Y-25425400D01*
X17854231Y-25425400D01*
X17377943Y-25520140D01*
X16974166Y-25789935D01*
X16704371Y-26193712D01*
X16609631Y-26670000D01*
X14791658Y-26670000D01*
X12265000Y-24143342D01*
X12265000Y-18020658D01*
X12336536Y-17949122D01*
X12577252Y-17849661D01*
X12768987Y-17658259D01*
X12872882Y-17408054D01*
X12873118Y-17137135D01*
X12769661Y-16886748D01*
X12578259Y-16695013D01*
X12328054Y-16591118D01*
X12057135Y-16590882D01*
X11806748Y-16694339D01*
X11615013Y-16885741D01*
X11514471Y-17127871D01*
X11273171Y-17369171D01*
X11147226Y-17557661D01*
X11103000Y-17780000D01*
X431000Y-17780000D01*
X431000Y-2901913D01*
X2578816Y-2901913D01*
X2772046Y-3454320D01*
X3161964Y-3890732D01*
X3689209Y-4144709D01*
X3704974Y-4147358D01*
X3937000Y-4026217D01*
X3937000Y-2667000D01*
X2723076Y-2667000D01*
X2578816Y-2901913D01*
X431000Y-2901913D01*
X431000Y-2178087D01*
X2578816Y-2178087D01*
X2723076Y-2413000D01*
X3937000Y-2413000D01*
X3937000Y-1053783D01*
X4191000Y-1053783D01*
X4191000Y-2413000D01*
X4211000Y-2413000D01*
X4211000Y-2667000D01*
X4191000Y-2667000D01*
X4191000Y-4026217D01*
X4423026Y-4147358D01*
X4438791Y-4144709D01*
X4966036Y-3890732D01*
X5355954Y-3454320D01*
X5451296Y-3181757D01*
X5454140Y-3196057D01*
X5723935Y-3599834D01*
X6023000Y-3799663D01*
X6023000Y-5080000D01*
X6067226Y-5302339D01*
X6193171Y-5490829D01*
X11641878Y-10939536D01*
X11741339Y-11180252D01*
X11932741Y-11371987D01*
X12182946Y-11475882D01*
X12453865Y-11476118D01*
X12704252Y-11372661D01*
X12895987Y-11181259D01*
X12999882Y-10931054D01*
X12999883Y-10929865D01*
X14812882Y-10929865D01*
X14916339Y-11180252D01*
X15107741Y-11371987D01*
X15357946Y-11475882D01*
X15628865Y-11476118D01*
X15879252Y-11372661D01*
X16070987Y-11181259D01*
X16174882Y-10931054D01*
X16175118Y-10660135D01*
X16075000Y-10417829D01*
X16075000Y-4685658D01*
X16816194Y-3944464D01*
X17627600Y-3944464D01*
X17768790Y-3917897D01*
X17898465Y-3834454D01*
X17985459Y-3707134D01*
X18016064Y-3556000D01*
X18016064Y-1524000D01*
X17989497Y-1382810D01*
X17906054Y-1253135D01*
X17778734Y-1166141D01*
X17627600Y-1135536D01*
X15900400Y-1135536D01*
X15759210Y-1162103D01*
X15629535Y-1245546D01*
X15542541Y-1372866D01*
X15511936Y-1524000D01*
X15511936Y-3556000D01*
X15519760Y-3597582D01*
X15083171Y-4034171D01*
X14957226Y-4222661D01*
X14913000Y-4445000D01*
X14913000Y-10418405D01*
X14813118Y-10658946D01*
X14812882Y-10929865D01*
X12999883Y-10929865D01*
X13000118Y-10660135D01*
X12896661Y-10409748D01*
X12705259Y-10218013D01*
X12463129Y-10117471D01*
X7185000Y-4839342D01*
X7185000Y-3799663D01*
X7484065Y-3599834D01*
X7753860Y-3196057D01*
X7848600Y-2719769D01*
X7848600Y-2360231D01*
X7899400Y-2360231D01*
X7899400Y-2719769D01*
X7994140Y-3196057D01*
X8263935Y-3599834D01*
X8667712Y-3869629D01*
X9144000Y-3964369D01*
X9620288Y-3869629D01*
X9639281Y-3856939D01*
X10638171Y-4855829D01*
X10826661Y-4981774D01*
X11049000Y-5026000D01*
X11443342Y-5026000D01*
X13546878Y-7129536D01*
X13646339Y-7370252D01*
X13837741Y-7561987D01*
X14087946Y-7665882D01*
X14358865Y-7666118D01*
X14609252Y-7562661D01*
X14800987Y-7371259D01*
X14904882Y-7121054D01*
X14905118Y-6850135D01*
X14801661Y-6599748D01*
X14610259Y-6408013D01*
X14368129Y-6307471D01*
X12094829Y-4034171D01*
X11920082Y-3917409D01*
X12160288Y-3869629D01*
X12564065Y-3599834D01*
X12833860Y-3196057D01*
X12928600Y-2719769D01*
X12928600Y-2360231D01*
X12979400Y-2360231D01*
X12979400Y-2719769D01*
X13074140Y-3196057D01*
X13343935Y-3599834D01*
X13747712Y-3869629D01*
X14224000Y-3964369D01*
X14700288Y-3869629D01*
X15104065Y-3599834D01*
X15373860Y-3196057D01*
X15468600Y-2719769D01*
X15468600Y-2360231D01*
X15373860Y-1883943D01*
X15104065Y-1480166D01*
X14700288Y-1210371D01*
X14224000Y-1115631D01*
X13747712Y-1210371D01*
X13343935Y-1480166D01*
X13074140Y-1883943D01*
X12979400Y-2360231D01*
X12928600Y-2360231D01*
X12833860Y-1883943D01*
X12564065Y-1480166D01*
X12160288Y-1210371D01*
X11684000Y-1115631D01*
X11207712Y-1210371D01*
X10803935Y-1480166D01*
X10534140Y-1883943D01*
X10439400Y-2360231D01*
X10439400Y-2719769D01*
X10512395Y-3086737D01*
X10348255Y-2922597D01*
X10388600Y-2719769D01*
X10388600Y-2360231D01*
X10293860Y-1883943D01*
X10024065Y-1480166D01*
X9620288Y-1210371D01*
X9144000Y-1115631D01*
X8667712Y-1210371D01*
X8263935Y-1480166D01*
X7994140Y-1883943D01*
X7899400Y-2360231D01*
X7848600Y-2360231D01*
X7753860Y-1883943D01*
X7484065Y-1480166D01*
X7080288Y-1210371D01*
X6604000Y-1115631D01*
X6127712Y-1210371D01*
X5723935Y-1480166D01*
X5454140Y-1883943D01*
X5451296Y-1898243D01*
X5355954Y-1625680D01*
X4966036Y-1189268D01*
X4438791Y-935291D01*
X4423026Y-932642D01*
X4191000Y-1053783D01*
X3937000Y-1053783D01*
X3704974Y-932642D01*
X3689209Y-935291D01*
X3161964Y-1189268D01*
X2772046Y-1625680D01*
X2578816Y-2178087D01*
X431000Y-2178087D01*
X431000Y-431000D01*
X20397000Y-431000D01*
X20397000Y-33859000D01*
M02*
