M48
;DRILL file {KiCad 4.0.2-stable} date Sunday, 21 August 2016 'pmt' 15:41:46
;FORMAT={-:-/ absolute / inch / decimal}
FMAT,2
INCH,TZ
T1C0.016
T2C0.020
T3C0.040
%
G90
G05
M72
T1
X0.2795Y-0.2559
X0.2795Y-1.2402
X0.2795Y-2.2244
X0.3917Y-0.3012
X0.3917Y-1.2854
X0.3917Y-2.2697
X0.437Y-0.7795
X0.437Y-1.7638
X0.437Y-2.748
X0.4921Y-0.2283
X0.4921Y-1.2126
X0.4921Y-2.1969
X0.5512Y-0.3031
X0.5512Y-1.2874
X0.5512Y-2.2717
X0.6122Y-0.6693
X0.6122Y-1.6535
X0.6122Y-2.6378
X0.9882Y-0.2559
X0.9882Y-1.2402
X0.9882Y-2.2244
X1.1004Y-0.3012
X1.1004Y-1.2854
X1.1004Y-2.2697
X1.1457Y-0.7795
X1.1457Y-1.7638
X1.1457Y-2.748
X1.2008Y-0.2283
X1.2008Y-1.2126
X1.2008Y-2.1969
X1.2598Y-0.3031
X1.2598Y-1.2874
X1.2598Y-2.2717
X1.3209Y-0.6693
X1.3209Y-1.6535
X1.3209Y-2.6378
X1.6969Y-0.2559
X1.6969Y-1.2402
X1.6969Y-2.2244
X1.8091Y-0.3012
X1.8091Y-1.2854
X1.8091Y-2.2697
X1.8543Y-0.7795
X1.8543Y-1.7638
X1.8543Y-2.748
X1.9094Y-0.2283
X1.9094Y-1.2126
X1.9094Y-2.1969
X1.9685Y-0.3031
X1.9685Y-1.2874
X1.9685Y-2.2717
X2.0295Y-0.6693
X2.0295Y-1.6535
X2.0295Y-2.6378
X2.4055Y-0.2559
X2.4055Y-1.2402
X2.4055Y-2.2244
X2.5177Y-0.3012
X2.5177Y-1.2854
X2.5177Y-2.2697
X2.563Y-0.7795
X2.563Y-1.7638
X2.563Y-2.748
X2.6181Y-0.2283
X2.6181Y-1.2126
X2.6181Y-2.1969
X2.6772Y-0.3031
X2.6772Y-1.2874
X2.6772Y-2.2717
X2.7382Y-0.6693
X2.7382Y-1.6535
X2.7382Y-2.6378
X3.1142Y-0.2559
X3.1142Y-1.2402
X3.1142Y-2.2244
X3.2264Y-0.3012
X3.2264Y-1.2854
X3.2264Y-2.2697
X3.2717Y-0.7795
X3.2717Y-1.7638
X3.2717Y-2.748
X3.3268Y-0.2283
X3.3268Y-1.2126
X3.3268Y-2.1969
X3.3858Y-0.3031
X3.3858Y-1.2874
X3.3858Y-2.2717
X3.4469Y-0.6693
X3.4469Y-1.6535
X3.4469Y-2.6378
T2
X0.2756Y-0.8346
X0.2756Y-1.8189
X0.2756Y-2.8031
X0.4331Y-0.8346
X0.4331Y-1.8189
X0.4331Y-2.8031
X0.9843Y-0.8346
X0.9843Y-1.8189
X0.9843Y-2.8031
X1.1417Y-0.8346
X1.1417Y-1.8189
X1.1417Y-2.8031
X1.6929Y-0.8346
X1.6929Y-1.8189
X1.6929Y-2.8031
X1.8504Y-0.8346
X1.8504Y-1.8189
X1.8504Y-2.8031
X2.4016Y-0.8346
X2.4016Y-1.8189
X2.4016Y-2.8031
X2.5591Y-0.8346
X2.5591Y-1.8189
X2.5591Y-2.8031
X3.1102Y-0.8346
X3.1102Y-1.8189
X3.1102Y-2.8031
X3.2677Y-0.8346
X3.2677Y-1.8189
X3.2677Y-2.8031
T3
X0.1043Y-0.1063
X0.1043Y-1.0906
X0.1043Y-2.0748
X0.2043Y-0.1063
X0.2043Y-1.0906
X0.2043Y-2.0748
X0.3043Y-0.1063
X0.3043Y-1.0906
X0.3043Y-2.0748
X0.4043Y-0.1063
X0.4043Y-1.0906
X0.4043Y-2.0748
X0.5043Y-0.1063
X0.5043Y-1.0906
X0.5043Y-2.0748
X0.6043Y-0.1063
X0.6043Y-1.0906
X0.6043Y-2.0748
X0.6083Y-0.4043
X0.6083Y-0.5043
X0.6083Y-0.6043
X0.6083Y-1.3886
X0.6083Y-1.4886
X0.6083Y-1.5886
X0.6083Y-2.3728
X0.6083Y-2.4728
X0.6083Y-2.5728
X0.813Y-0.1063
X0.813Y-1.0906
X0.813Y-2.0748
X0.913Y-0.1063
X0.913Y-1.0906
X0.913Y-2.0748
X1.013Y-0.1063
X1.013Y-1.0906
X1.013Y-2.0748
X1.113Y-0.1063
X1.113Y-1.0906
X1.113Y-2.0748
X1.213Y-0.1063
X1.213Y-1.0906
X1.213Y-2.0748
X1.313Y-0.1063
X1.313Y-1.0906
X1.313Y-2.0748
X1.3169Y-0.4043
X1.3169Y-0.5043
X1.3169Y-0.6043
X1.3169Y-1.3886
X1.3169Y-1.4886
X1.3169Y-1.5886
X1.3169Y-2.3728
X1.3169Y-2.4728
X1.3169Y-2.5728
X1.5217Y-0.1063
X1.5217Y-1.0906
X1.5217Y-2.0748
X1.6217Y-0.1063
X1.6217Y-1.0906
X1.6217Y-2.0748
X1.7217Y-0.1063
X1.7217Y-1.0906
X1.7217Y-2.0748
X1.8217Y-0.1063
X1.8217Y-1.0906
X1.8217Y-2.0748
X1.9217Y-0.1063
X1.9217Y-1.0906
X1.9217Y-2.0748
X2.0217Y-0.1063
X2.0217Y-1.0906
X2.0217Y-2.0748
X2.0256Y-0.4043
X2.0256Y-0.5043
X2.0256Y-0.6043
X2.0256Y-1.3886
X2.0256Y-1.4886
X2.0256Y-1.5886
X2.0256Y-2.3728
X2.0256Y-2.4728
X2.0256Y-2.5728
X2.2303Y-0.1063
X2.2303Y-1.0906
X2.2303Y-2.0748
X2.3303Y-0.1063
X2.3303Y-1.0906
X2.3303Y-2.0748
X2.4303Y-0.1063
X2.4303Y-1.0906
X2.4303Y-2.0748
X2.5303Y-0.1063
X2.5303Y-1.0906
X2.5303Y-2.0748
X2.6303Y-0.1063
X2.6303Y-1.0906
X2.6303Y-2.0748
X2.7303Y-0.1063
X2.7303Y-1.0906
X2.7303Y-2.0748
X2.7343Y-0.4043
X2.7343Y-0.5043
X2.7343Y-0.6043
X2.7343Y-1.3886
X2.7343Y-1.4886
X2.7343Y-1.5886
X2.7343Y-2.3728
X2.7343Y-2.4728
X2.7343Y-2.5728
X2.939Y-0.1063
X2.939Y-1.0906
X2.939Y-2.0748
X3.039Y-0.1063
X3.039Y-1.0906
X3.039Y-2.0748
X3.139Y-0.1063
X3.139Y-1.0906
X3.139Y-2.0748
X3.239Y-0.1063
X3.239Y-1.0906
X3.239Y-2.0748
X3.339Y-0.1063
X3.339Y-1.0906
X3.339Y-2.0748
X3.439Y-0.1063
X3.439Y-1.0906
X3.439Y-2.0748
X3.4429Y-0.4043
X3.4429Y-0.5043
X3.4429Y-0.6043
X3.4429Y-1.3886
X3.4429Y-1.4886
X3.4429Y-1.5886
X3.4429Y-2.3728
X3.4429Y-2.4728
X3.4429Y-2.5728
T2
X0.2008Y-0.9222G85X0.2008Y-0.8967
G05
X0.2008Y-1.9065G85X0.2008Y-1.8809
G05
X0.2008Y-2.8907G85X0.2008Y-2.8652
G05
X0.5079Y-0.9222G85X0.5079Y-0.8967
G05
X0.5079Y-1.9065G85X0.5079Y-1.8809
G05
X0.5079Y-2.8907G85X0.5079Y-2.8652
G05
X0.9094Y-0.9222G85X0.9094Y-0.8967
G05
X0.9094Y-1.9065G85X0.9094Y-1.8809
G05
X0.9094Y-2.8907G85X0.9094Y-2.8652
G05
X1.2165Y-0.9222G85X1.2165Y-0.8967
G05
X1.2165Y-1.9065G85X1.2165Y-1.8809
G05
X1.2165Y-2.8907G85X1.2165Y-2.8652
G05
X1.6181Y-0.9222G85X1.6181Y-0.8967
G05
X1.6181Y-1.9065G85X1.6181Y-1.8809
G05
X1.6181Y-2.8907G85X1.6181Y-2.8652
G05
X1.9252Y-0.9222G85X1.9252Y-0.8967
G05
X1.9252Y-1.9065G85X1.9252Y-1.8809
G05
X1.9252Y-2.8907G85X1.9252Y-2.8652
G05
X2.3268Y-0.9222G85X2.3268Y-0.8967
G05
X2.3268Y-1.9065G85X2.3268Y-1.8809
G05
X2.3268Y-2.8907G85X2.3268Y-2.8652
G05
X2.6339Y-0.9222G85X2.6339Y-0.8967
G05
X2.6339Y-1.9065G85X2.6339Y-1.8809
G05
X2.6339Y-2.8907G85X2.6339Y-2.8652
G05
X3.0354Y-0.9222G85X3.0354Y-0.8967
G05
X3.0354Y-1.9065G85X3.0354Y-1.8809
G05
X3.0354Y-2.8907G85X3.0354Y-2.8652
G05
X3.3425Y-0.9222G85X3.3425Y-0.8967
G05
X3.3425Y-1.9065G85X3.3425Y-1.8809
G05
X3.3425Y-2.8907G85X3.3425Y-2.8652
G05
T0
M30
