G04 #@! TF.FileFunction,Copper,L1,Top,Signal*
%FSLAX46Y46*%
G04 Gerber Fmt 4.6, Leading zero omitted, Abs format (unit mm)*
G04 Created by KiCad (PCBNEW 4.0.2-stable) date Sunday, 21 August 2016 'pmt' 14:44:52*
%MOMM*%
G01*
G04 APERTURE LIST*
%ADD10C,0.100000*%
%ADD11R,0.800000X0.750000*%
%ADD12R,0.797560X0.797560*%
%ADD13R,0.400000X1.350000*%
%ADD14O,1.000000X1.550000*%
%ADD15C,0.500000*%
%ADD16R,2.032000X1.727200*%
%ADD17O,2.032000X1.727200*%
%ADD18R,1.727200X2.032000*%
%ADD19O,1.727200X2.032000*%
%ADD20R,0.500000X0.900000*%
%ADD21R,0.500000X1.600000*%
%ADD22R,0.800100X0.800100*%
%ADD23R,1.143000X0.508000*%
%ADD24C,0.600000*%
%ADD25C,0.400000*%
%ADD26C,0.250000*%
G04 APERTURE END LIST*
D10*
D11*
X5900000Y-17850000D03*
X7400000Y-17850000D03*
X3100000Y-16400000D03*
X1600000Y-16400000D03*
X3100000Y-21000000D03*
X1600000Y-21000000D03*
X12400000Y-17850000D03*
X10900000Y-17850000D03*
X14800000Y-17850000D03*
X16300000Y-17850000D03*
X3100000Y-10700000D03*
X1600000Y-10700000D03*
X3100000Y-9200000D03*
X1600000Y-9200000D03*
D12*
X1550700Y-19500000D03*
X3049300Y-19500000D03*
X1550700Y-7700000D03*
X3049300Y-7700000D03*
X16399300Y-7700000D03*
X14900700Y-7700000D03*
D13*
X7699100Y-20037460D03*
X8349100Y-20037460D03*
X8999100Y-20037460D03*
X9649100Y-20037460D03*
X10299100Y-20037460D03*
D14*
X5100000Y-23100000D03*
X12900000Y-23100000D03*
D15*
X11000000Y-21200000D03*
X7000000Y-21200000D03*
D16*
X15450000Y-15350000D03*
D17*
X15450000Y-12810000D03*
X15450000Y-10270000D03*
D18*
X15350000Y-2700000D03*
D19*
X12810000Y-2700000D03*
X10270000Y-2700000D03*
X7730000Y-2700000D03*
X5190000Y-2700000D03*
X2650000Y-2700000D03*
D20*
X1450000Y-17950000D03*
X2950000Y-17950000D03*
X2950000Y-6150000D03*
X1450000Y-6150000D03*
X15000000Y-6150000D03*
X16500000Y-6150000D03*
D21*
X1500000Y-12450000D03*
X2700000Y-12450000D03*
X3900000Y-12450000D03*
D11*
X3100000Y-14200000D03*
X1600000Y-14200000D03*
D22*
X16400760Y-21200000D03*
X16400760Y-19300000D03*
X14401780Y-20250000D03*
D23*
X12175000Y-6555000D03*
X12175000Y-9095000D03*
X12175000Y-10365000D03*
X12175000Y-11635000D03*
X12175000Y-12905000D03*
X12175000Y-14175000D03*
X12175000Y-15445000D03*
X5825000Y-15445000D03*
X5825000Y-14175000D03*
X5825000Y-12905000D03*
X5825000Y-11635000D03*
X5825000Y-10365000D03*
X5825000Y-9095000D03*
X5825000Y-7825000D03*
X5825000Y-6555000D03*
X12175000Y-7825000D03*
D24*
X15550000Y-17000000D03*
X11100000Y-19800000D03*
X7100000Y-6500000D03*
X14000000Y-7700000D03*
X12500000Y-5800000D03*
X9950000Y-7650000D03*
D25*
X7699100Y-20037460D02*
X6637460Y-20037460D01*
X5900000Y-19300000D02*
X5900000Y-17850000D01*
X6637460Y-20037460D02*
X5900000Y-19300000D01*
X14401780Y-20250000D02*
X17000000Y-20250000D01*
X17300000Y-17200000D02*
X15450000Y-15350000D01*
X17300000Y-19950000D02*
X17300000Y-17200000D01*
X17000000Y-20250000D02*
X17300000Y-19950000D01*
X3100000Y-21000000D02*
X3100000Y-21250000D01*
X3100000Y-21250000D02*
X3300000Y-21450000D01*
X13300000Y-20250000D02*
X14401780Y-20250000D01*
X11200000Y-22350000D02*
X13300000Y-20250000D01*
X6450000Y-22350000D02*
X11200000Y-22350000D01*
X5550000Y-21450000D02*
X6450000Y-22350000D01*
X3300000Y-21450000D02*
X5550000Y-21450000D01*
X5900000Y-17850000D02*
X4500000Y-17850000D01*
X3850000Y-16400000D02*
X3100000Y-16400000D01*
X4050000Y-16600000D02*
X3850000Y-16400000D01*
X4050000Y-17400000D02*
X4050000Y-16600000D01*
X4500000Y-17850000D02*
X4050000Y-17400000D01*
X2950000Y-17950000D02*
X3550000Y-17950000D01*
X4150000Y-19950000D02*
X3100000Y-21000000D01*
X4150000Y-18550000D02*
X4150000Y-19950000D01*
X3550000Y-17950000D02*
X4150000Y-18550000D01*
X3100000Y-16400000D02*
X3100000Y-17800000D01*
X3100000Y-17800000D02*
X2950000Y-17950000D01*
X7699100Y-20037460D02*
X7699100Y-19649100D01*
X3049300Y-19500000D02*
X3049300Y-19550700D01*
X3049300Y-19550700D02*
X1600000Y-21000000D01*
X16300000Y-17850000D02*
X16300000Y-17750000D01*
X16300000Y-17750000D02*
X15550000Y-17000000D01*
X2700000Y-12450000D02*
X2700000Y-11800000D01*
X2700000Y-11800000D02*
X1600000Y-10700000D01*
X10299100Y-20037460D02*
X10862540Y-20037460D01*
X10862540Y-20037460D02*
X11100000Y-19800000D01*
X7045000Y-6555000D02*
X7100000Y-6500000D01*
X5825000Y-6555000D02*
X7045000Y-6555000D01*
D26*
X3900000Y-12450000D02*
X3900000Y-13200000D01*
X3900000Y-13200000D02*
X4875000Y-14175000D01*
X4875000Y-14175000D02*
X5825000Y-14175000D01*
X3900000Y-10950000D02*
X3900000Y-12450000D01*
X3650000Y-10700000D02*
X3900000Y-10950000D01*
X3100000Y-10700000D02*
X3650000Y-10700000D01*
X1450000Y-17950000D02*
X1450000Y-19399300D01*
X1450000Y-19399300D02*
X1550700Y-19500000D01*
X1450000Y-6150000D02*
X1450000Y-7599300D01*
X1450000Y-7599300D02*
X1550700Y-7700000D01*
X5825000Y-7825000D02*
X3174300Y-7825000D01*
X3174300Y-7825000D02*
X3049300Y-7700000D01*
X5825000Y-7825000D02*
X7325000Y-7825000D01*
X10270000Y-4880000D02*
X10270000Y-2700000D01*
X7325000Y-7825000D02*
X10270000Y-4880000D01*
X16399300Y-7700000D02*
X16399300Y-6250700D01*
X16399300Y-6250700D02*
X16500000Y-6150000D01*
X14900700Y-7700000D02*
X14000000Y-7700000D01*
X12810000Y-2700000D02*
X12810000Y-3290000D01*
X12810000Y-3290000D02*
X7005000Y-9095000D01*
X7005000Y-9095000D02*
X5825000Y-9095000D01*
X15350000Y-2700000D02*
X15350000Y-3150000D01*
X15350000Y-3150000D02*
X14050000Y-4450000D01*
X14050000Y-4450000D02*
X12550000Y-4450000D01*
X12550000Y-4450000D02*
X10750000Y-6250000D01*
X10750000Y-6250000D02*
X10750000Y-9850000D01*
X10750000Y-9850000D02*
X11265000Y-10365000D01*
X11265000Y-10365000D02*
X12175000Y-10365000D01*
D25*
X7730000Y-2700000D02*
X7730000Y-3970000D01*
X7730000Y-3970000D02*
X6200000Y-5500000D01*
X6200000Y-5500000D02*
X3600000Y-5500000D01*
X3600000Y-5500000D02*
X2950000Y-6150000D01*
X12175000Y-6125000D02*
X12500000Y-5800000D01*
X12175000Y-6555000D02*
X12175000Y-6125000D01*
X12175000Y-6555000D02*
X14595000Y-6555000D01*
X14595000Y-6555000D02*
X15000000Y-6150000D01*
D26*
X11295000Y-15445000D02*
X12175000Y-15445000D01*
X10800000Y-14950000D02*
X11295000Y-15445000D01*
X10800000Y-10800000D02*
X10800000Y-14950000D01*
X9950000Y-7650000D02*
X10150000Y-7850000D01*
X10150000Y-7850000D02*
X10150000Y-10150000D01*
X10150000Y-10150000D02*
X10800000Y-10800000D01*
D25*
X12400000Y-17850000D02*
X12400000Y-16900000D01*
X14180000Y-10270000D02*
X15450000Y-10270000D01*
X13600000Y-10850000D02*
X14180000Y-10270000D01*
X13600000Y-16050000D02*
X13600000Y-10850000D01*
X13150000Y-16500000D02*
X13600000Y-16050000D01*
X12800000Y-16500000D02*
X13150000Y-16500000D01*
X12400000Y-16900000D02*
X12800000Y-16500000D01*
X14800000Y-17850000D02*
X12400000Y-17850000D01*
X16400760Y-19300000D02*
X15400000Y-19300000D01*
X14800000Y-18700000D02*
X14800000Y-17850000D01*
X15400000Y-19300000D02*
X14800000Y-18700000D01*
X14830000Y-10270000D02*
X15450000Y-10270000D01*
D26*
X3100000Y-9200000D02*
X3500000Y-9200000D01*
X3500000Y-9200000D02*
X4665000Y-10365000D01*
X4665000Y-10365000D02*
X5825000Y-10365000D01*
X8349100Y-20037460D02*
X8349100Y-14449100D01*
X6805000Y-12905000D02*
X5825000Y-12905000D01*
X8349100Y-14449100D02*
X6805000Y-12905000D01*
X6485000Y-11635000D02*
X5825000Y-11635000D01*
X8999100Y-14149100D02*
X6485000Y-11635000D01*
X8999100Y-20037460D02*
X8999100Y-14149100D01*
X3100000Y-14200000D02*
X4000000Y-14200000D01*
X2850000Y-14200000D02*
X3100000Y-14200000D01*
X4000000Y-14200000D02*
X5245000Y-15445000D01*
X5245000Y-15445000D02*
X5825000Y-15445000D01*
X1500000Y-12450000D02*
X1500000Y-12850000D01*
X1500000Y-12850000D02*
X2850000Y-14200000D01*
G36*
X16599541Y-552583D02*
X17107806Y-892194D01*
X17447418Y-1400460D01*
X17575000Y-2041860D01*
X17575000Y-16661828D01*
X16848346Y-15935174D01*
X16848346Y-14486400D01*
X16822198Y-14347434D01*
X16740069Y-14219801D01*
X16614754Y-14134177D01*
X16466000Y-14104054D01*
X14434000Y-14104054D01*
X14295034Y-14130202D01*
X14175000Y-14207441D01*
X14175000Y-13357278D01*
X14394527Y-13685822D01*
X14796357Y-13954317D01*
X15270349Y-14048600D01*
X15629651Y-14048600D01*
X16103643Y-13954317D01*
X16505473Y-13685822D01*
X16773968Y-13283992D01*
X16868251Y-12810000D01*
X16773968Y-12336008D01*
X16505473Y-11934178D01*
X16103643Y-11665683D01*
X15629651Y-11571400D01*
X15270349Y-11571400D01*
X14796357Y-11665683D01*
X14394527Y-11934178D01*
X14175000Y-12262722D01*
X14175000Y-11088172D01*
X14283505Y-10979667D01*
X14394527Y-11145822D01*
X14796357Y-11414317D01*
X15270349Y-11508600D01*
X15629651Y-11508600D01*
X16103643Y-11414317D01*
X16505473Y-11145822D01*
X16773968Y-10743992D01*
X16868251Y-10270000D01*
X16773968Y-9796008D01*
X16505473Y-9394178D01*
X16103643Y-9125683D01*
X15629651Y-9031400D01*
X15270349Y-9031400D01*
X14796357Y-9125683D01*
X14394527Y-9394178D01*
X14193524Y-9695000D01*
X14180000Y-9695000D01*
X13959957Y-9738769D01*
X13773414Y-9863414D01*
X13193414Y-10443414D01*
X13128846Y-10540046D01*
X13128846Y-10111000D01*
X13102698Y-9972034D01*
X13020569Y-9844401D01*
X12895254Y-9758777D01*
X12753391Y-9730049D01*
X12885466Y-9705198D01*
X13013099Y-9623069D01*
X13098723Y-9497754D01*
X13128846Y-9349000D01*
X13128846Y-8841000D01*
X13102698Y-8702034D01*
X13020569Y-8574401D01*
X12895254Y-8488777D01*
X12753391Y-8460049D01*
X12885466Y-8435198D01*
X13013099Y-8353069D01*
X13098723Y-8227754D01*
X13128846Y-8079000D01*
X13128846Y-7571000D01*
X13102698Y-7432034D01*
X13020569Y-7304401D01*
X12895254Y-7218777D01*
X12753391Y-7190049D01*
X12885466Y-7165198D01*
X12940166Y-7130000D01*
X13615568Y-7130000D01*
X13428097Y-7317144D01*
X13325117Y-7565145D01*
X13324883Y-7833677D01*
X13427429Y-8081857D01*
X13617144Y-8271903D01*
X13865145Y-8374883D01*
X14133677Y-8375117D01*
X14213021Y-8342333D01*
X14227851Y-8365379D01*
X14353166Y-8451003D01*
X14501920Y-8481126D01*
X15299480Y-8481126D01*
X15438446Y-8454978D01*
X15566079Y-8372849D01*
X15651145Y-8248350D01*
X15726451Y-8365379D01*
X15851766Y-8451003D01*
X16000520Y-8481126D01*
X16798080Y-8481126D01*
X16937046Y-8454978D01*
X17064679Y-8372849D01*
X17150303Y-8247534D01*
X17180426Y-8098780D01*
X17180426Y-7301220D01*
X17154278Y-7162254D01*
X17072149Y-7034621D01*
X16946834Y-6948997D01*
X16911330Y-6941807D01*
X17016599Y-6874069D01*
X17102223Y-6748754D01*
X17132346Y-6600000D01*
X17132346Y-5700000D01*
X17106198Y-5561034D01*
X17024069Y-5433401D01*
X16898754Y-5347777D01*
X16750000Y-5317654D01*
X16250000Y-5317654D01*
X16111034Y-5343802D01*
X15983401Y-5425931D01*
X15897777Y-5551246D01*
X15867654Y-5700000D01*
X15867654Y-6600000D01*
X15893802Y-6738966D01*
X15899300Y-6747510D01*
X15899300Y-6937920D01*
X15861554Y-6945022D01*
X15733921Y-7027151D01*
X15648855Y-7151650D01*
X15573549Y-7034621D01*
X15448234Y-6948997D01*
X15411665Y-6941592D01*
X15516599Y-6874069D01*
X15602223Y-6748754D01*
X15632346Y-6600000D01*
X15632346Y-5700000D01*
X15606198Y-5561034D01*
X15524069Y-5433401D01*
X15398754Y-5347777D01*
X15250000Y-5317654D01*
X14750000Y-5317654D01*
X14611034Y-5343802D01*
X14483401Y-5425931D01*
X14397777Y-5551246D01*
X14367654Y-5700000D01*
X14367654Y-5969174D01*
X14356828Y-5980000D01*
X13156137Y-5980000D01*
X13174883Y-5934855D01*
X13175117Y-5666323D01*
X13072571Y-5418143D01*
X12882856Y-5228097D01*
X12634855Y-5125117D01*
X12582036Y-5125071D01*
X12757107Y-4950000D01*
X14050000Y-4950000D01*
X14241342Y-4911940D01*
X14403553Y-4803553D01*
X15108761Y-4098346D01*
X16213600Y-4098346D01*
X16352566Y-4072198D01*
X16480199Y-3990069D01*
X16565823Y-3864754D01*
X16595946Y-3716000D01*
X16595946Y-1684000D01*
X16569798Y-1545034D01*
X16487669Y-1417401D01*
X16362354Y-1331777D01*
X16213600Y-1301654D01*
X14486400Y-1301654D01*
X14347434Y-1327802D01*
X14219801Y-1409931D01*
X14134177Y-1535246D01*
X14104054Y-1684000D01*
X14104054Y-3688840D01*
X13842894Y-3950000D01*
X13394693Y-3950000D01*
X13685822Y-3755473D01*
X13954317Y-3353643D01*
X14048600Y-2879651D01*
X14048600Y-2520349D01*
X13954317Y-2046357D01*
X13685822Y-1644527D01*
X13283992Y-1376032D01*
X12810000Y-1281749D01*
X12336008Y-1376032D01*
X11934178Y-1644527D01*
X11665683Y-2046357D01*
X11571400Y-2520349D01*
X11571400Y-2879651D01*
X11665683Y-3353643D01*
X11815313Y-3577580D01*
X10770000Y-4622893D01*
X10770000Y-4006590D01*
X11145822Y-3755473D01*
X11414317Y-3353643D01*
X11508600Y-2879651D01*
X11508600Y-2520349D01*
X11414317Y-2046357D01*
X11145822Y-1644527D01*
X10743992Y-1376032D01*
X10270000Y-1281749D01*
X9796008Y-1376032D01*
X9394178Y-1644527D01*
X9125683Y-2046357D01*
X9031400Y-2520349D01*
X9031400Y-2879651D01*
X9125683Y-3353643D01*
X9394178Y-3755473D01*
X9770000Y-4006590D01*
X9770000Y-4672894D01*
X7117894Y-7325000D01*
X6775697Y-7325000D01*
X6933132Y-7167565D01*
X7029500Y-6934911D01*
X7029500Y-6840250D01*
X6871250Y-6682000D01*
X5954000Y-6682000D01*
X5954000Y-6704000D01*
X5696000Y-6704000D01*
X5696000Y-6682000D01*
X4778750Y-6682000D01*
X4620500Y-6840250D01*
X4620500Y-6934911D01*
X4716868Y-7167565D01*
X4874303Y-7325000D01*
X3830426Y-7325000D01*
X3830426Y-7301220D01*
X3804278Y-7162254D01*
X3722149Y-7034621D01*
X3596834Y-6948997D01*
X3448080Y-6918874D01*
X3396970Y-6918874D01*
X3466599Y-6874069D01*
X3552223Y-6748754D01*
X3582346Y-6600000D01*
X3582346Y-6330826D01*
X3838173Y-6075000D01*
X4661958Y-6075000D01*
X4620500Y-6175089D01*
X4620500Y-6269750D01*
X4778750Y-6428000D01*
X5696000Y-6428000D01*
X5696000Y-6406000D01*
X5954000Y-6406000D01*
X5954000Y-6428000D01*
X6871250Y-6428000D01*
X7029500Y-6269750D01*
X7029500Y-6175089D01*
X6933132Y-5942435D01*
X6755066Y-5764369D01*
X6750637Y-5762535D01*
X8136587Y-4376586D01*
X8261231Y-4190043D01*
X8305000Y-3970000D01*
X8305000Y-3956476D01*
X8605822Y-3755473D01*
X8874317Y-3353643D01*
X8968600Y-2879651D01*
X8968600Y-2520349D01*
X8874317Y-2046357D01*
X8605822Y-1644527D01*
X8203992Y-1376032D01*
X7730000Y-1281749D01*
X7256008Y-1376032D01*
X6854178Y-1644527D01*
X6585683Y-2046357D01*
X6491400Y-2520349D01*
X6491400Y-2879651D01*
X6585683Y-3353643D01*
X6854178Y-3755473D01*
X7020333Y-3866494D01*
X5961828Y-4925000D01*
X3600000Y-4925000D01*
X3379957Y-4968769D01*
X3193414Y-5093413D01*
X2969173Y-5317654D01*
X2700000Y-5317654D01*
X2561034Y-5343802D01*
X2433401Y-5425931D01*
X2347777Y-5551246D01*
X2317654Y-5700000D01*
X2317654Y-6600000D01*
X2343802Y-6738966D01*
X2425931Y-6866599D01*
X2534412Y-6940721D01*
X2511554Y-6945022D01*
X2383921Y-7027151D01*
X2298855Y-7151650D01*
X2223549Y-7034621D01*
X2098234Y-6948997D01*
X1950000Y-6918979D01*
X1950000Y-6884750D01*
X1966599Y-6874069D01*
X2052223Y-6748754D01*
X2082346Y-6600000D01*
X2082346Y-5700000D01*
X2056198Y-5561034D01*
X1974069Y-5433401D01*
X1848754Y-5347777D01*
X1700000Y-5317654D01*
X1200000Y-5317654D01*
X1061034Y-5343802D01*
X933401Y-5425931D01*
X847777Y-5551246D01*
X817654Y-5700000D01*
X817654Y-6600000D01*
X843802Y-6738966D01*
X925931Y-6866599D01*
X950000Y-6883045D01*
X950000Y-6985532D01*
X885321Y-7027151D01*
X799697Y-7152466D01*
X769574Y-7301220D01*
X769574Y-8098780D01*
X795722Y-8237746D01*
X833440Y-8296363D01*
X663369Y-8466434D01*
X567000Y-8699088D01*
X567000Y-8912750D01*
X725250Y-9071000D01*
X1471000Y-9071000D01*
X1471000Y-9051000D01*
X1729000Y-9051000D01*
X1729000Y-9071000D01*
X1749000Y-9071000D01*
X1749000Y-9329000D01*
X1729000Y-9329000D01*
X1729000Y-10571000D01*
X1749000Y-10571000D01*
X1749000Y-10829000D01*
X1729000Y-10829000D01*
X1729000Y-10849000D01*
X1471000Y-10849000D01*
X1471000Y-10829000D01*
X725250Y-10829000D01*
X567000Y-10987250D01*
X567000Y-11200912D01*
X663369Y-11433566D01*
X841435Y-11611632D01*
X872793Y-11624621D01*
X867654Y-11650000D01*
X867654Y-13250000D01*
X872456Y-13275519D01*
X841435Y-13288368D01*
X663369Y-13466434D01*
X567000Y-13699088D01*
X567000Y-13912750D01*
X725250Y-14071000D01*
X1471000Y-14071000D01*
X1471000Y-14051000D01*
X1729000Y-14051000D01*
X1729000Y-14071000D01*
X1749000Y-14071000D01*
X1749000Y-14329000D01*
X1729000Y-14329000D01*
X1729000Y-15049750D01*
X1887250Y-15208000D01*
X2125911Y-15208000D01*
X2358565Y-15111632D01*
X2536631Y-14933566D01*
X2541903Y-14920839D01*
X2551246Y-14927223D01*
X2700000Y-14957346D01*
X3500000Y-14957346D01*
X3638966Y-14931198D01*
X3766599Y-14849069D01*
X3837782Y-14744888D01*
X4889524Y-15796630D01*
X4897302Y-15837966D01*
X4979431Y-15965599D01*
X5104746Y-16051223D01*
X5253500Y-16081346D01*
X6396500Y-16081346D01*
X6535466Y-16055198D01*
X6663099Y-15973069D01*
X6748723Y-15847754D01*
X6778846Y-15699000D01*
X6778846Y-15191000D01*
X6752698Y-15052034D01*
X6670569Y-14924401D01*
X6545254Y-14838777D01*
X6403391Y-14810049D01*
X6535466Y-14785198D01*
X6663099Y-14703069D01*
X6748723Y-14577754D01*
X6778846Y-14429000D01*
X6778846Y-13921000D01*
X6752698Y-13782034D01*
X6670569Y-13654401D01*
X6545254Y-13568777D01*
X6403391Y-13540049D01*
X6535466Y-13515198D01*
X6640503Y-13447609D01*
X7849100Y-14656207D01*
X7849100Y-16842000D01*
X7687250Y-16842000D01*
X7529000Y-17000250D01*
X7529000Y-17721000D01*
X7549000Y-17721000D01*
X7549000Y-17979000D01*
X7529000Y-17979000D01*
X7529000Y-18699750D01*
X7687250Y-18858000D01*
X7849100Y-18858000D01*
X7849100Y-18980114D01*
X7499100Y-18980114D01*
X7360134Y-19006262D01*
X7232501Y-19088391D01*
X7146877Y-19213706D01*
X7116754Y-19362460D01*
X7116754Y-19462460D01*
X6875632Y-19462460D01*
X6475000Y-19061828D01*
X6475000Y-18595197D01*
X6641435Y-18761632D01*
X6874089Y-18858000D01*
X7112750Y-18858000D01*
X7271000Y-18699750D01*
X7271000Y-17979000D01*
X7251000Y-17979000D01*
X7251000Y-17721000D01*
X7271000Y-17721000D01*
X7271000Y-17000250D01*
X7112750Y-16842000D01*
X6874089Y-16842000D01*
X6641435Y-16938368D01*
X6463369Y-17116434D01*
X6458097Y-17129161D01*
X6448754Y-17122777D01*
X6300000Y-17092654D01*
X5500000Y-17092654D01*
X5361034Y-17118802D01*
X5233401Y-17200931D01*
X5182792Y-17275000D01*
X4738172Y-17275000D01*
X4625000Y-17161828D01*
X4625000Y-16600000D01*
X4581231Y-16379957D01*
X4508428Y-16271000D01*
X4456587Y-16193414D01*
X4256586Y-15993414D01*
X4070043Y-15868769D01*
X3850000Y-15825000D01*
X3816924Y-15825000D01*
X3774069Y-15758401D01*
X3648754Y-15672777D01*
X3500000Y-15642654D01*
X2700000Y-15642654D01*
X2561034Y-15668802D01*
X2542541Y-15680702D01*
X2536631Y-15666434D01*
X2358565Y-15488368D01*
X2125911Y-15392000D01*
X1887250Y-15392000D01*
X1729000Y-15550250D01*
X1729000Y-16271000D01*
X1749000Y-16271000D01*
X1749000Y-16529000D01*
X1729000Y-16529000D01*
X1729000Y-16549000D01*
X1471000Y-16549000D01*
X1471000Y-16529000D01*
X725250Y-16529000D01*
X567000Y-16687250D01*
X567000Y-16900912D01*
X663369Y-17133566D01*
X841435Y-17311632D01*
X867474Y-17322418D01*
X847777Y-17351246D01*
X817654Y-17500000D01*
X817654Y-18400000D01*
X843802Y-18538966D01*
X925931Y-18666599D01*
X950000Y-18683045D01*
X950000Y-18785532D01*
X885321Y-18827151D01*
X799697Y-18952466D01*
X769574Y-19101220D01*
X769574Y-19898780D01*
X795722Y-20037746D01*
X833440Y-20096363D01*
X663369Y-20266434D01*
X567000Y-20499088D01*
X567000Y-20712750D01*
X725250Y-20871000D01*
X1471000Y-20871000D01*
X1471000Y-20851000D01*
X1729000Y-20851000D01*
X1729000Y-20871000D01*
X1749000Y-20871000D01*
X1749000Y-21129000D01*
X1729000Y-21129000D01*
X1729000Y-21849750D01*
X1887250Y-22008000D01*
X2125911Y-22008000D01*
X2358565Y-21911632D01*
X2536631Y-21733566D01*
X2541903Y-21720839D01*
X2551246Y-21727223D01*
X2700000Y-21757346D01*
X2794173Y-21757346D01*
X2893414Y-21856587D01*
X3079957Y-21981231D01*
X3300000Y-22025000D01*
X4718870Y-22025000D01*
X4481282Y-22183752D01*
X4291605Y-22467622D01*
X4225000Y-22802470D01*
X4225000Y-23397530D01*
X4291605Y-23732378D01*
X4481282Y-24016248D01*
X4765152Y-24205925D01*
X5100000Y-24272530D01*
X5434848Y-24205925D01*
X5718718Y-24016248D01*
X5908395Y-23732378D01*
X5975000Y-23397530D01*
X5975000Y-22802470D01*
X5946620Y-22659793D01*
X6043413Y-22756586D01*
X6229957Y-22881231D01*
X6450000Y-22925000D01*
X11200000Y-22925000D01*
X11420043Y-22881231D01*
X11537916Y-22802470D01*
X12025000Y-22802470D01*
X12025000Y-23397530D01*
X12091605Y-23732378D01*
X12281282Y-24016248D01*
X12565152Y-24205925D01*
X12900000Y-24272530D01*
X13234848Y-24205925D01*
X13518718Y-24016248D01*
X13708395Y-23732378D01*
X13775000Y-23397530D01*
X13775000Y-22802470D01*
X13708395Y-22467622D01*
X13518718Y-22183752D01*
X13234848Y-21994075D01*
X12900000Y-21927470D01*
X12565152Y-21994075D01*
X12281282Y-22183752D01*
X12091605Y-22467622D01*
X12025000Y-22802470D01*
X11537916Y-22802470D01*
X11606586Y-22756586D01*
X12875922Y-21487250D01*
X15367710Y-21487250D01*
X15367710Y-21725961D01*
X15464078Y-21958615D01*
X15642144Y-22136681D01*
X15874798Y-22233050D01*
X16113510Y-22233050D01*
X16271760Y-22074800D01*
X16271760Y-21329000D01*
X16529760Y-21329000D01*
X16529760Y-22074800D01*
X16688010Y-22233050D01*
X16926722Y-22233050D01*
X17159376Y-22136681D01*
X17337442Y-21958615D01*
X17433810Y-21725961D01*
X17433810Y-21487250D01*
X17275560Y-21329000D01*
X16529760Y-21329000D01*
X16271760Y-21329000D01*
X15525960Y-21329000D01*
X15367710Y-21487250D01*
X12875922Y-21487250D01*
X13538173Y-20825000D01*
X13668687Y-20825000D01*
X13727661Y-20916649D01*
X13852976Y-21002273D01*
X14001730Y-21032396D01*
X14801830Y-21032396D01*
X14940796Y-21006248D01*
X15068429Y-20924119D01*
X15136154Y-20825000D01*
X15367710Y-20825000D01*
X15367710Y-20912750D01*
X15525960Y-21071000D01*
X16271760Y-21071000D01*
X16271760Y-21051000D01*
X16529760Y-21051000D01*
X16529760Y-21071000D01*
X17275560Y-21071000D01*
X17433810Y-20912750D01*
X17433810Y-20674039D01*
X17420724Y-20642448D01*
X17575000Y-20488172D01*
X17575000Y-22958140D01*
X17447418Y-23599540D01*
X17107806Y-24107806D01*
X16599541Y-24447417D01*
X15958140Y-24575000D01*
X2041860Y-24575000D01*
X1400460Y-24447418D01*
X892194Y-24107806D01*
X552583Y-23599541D01*
X425000Y-22958140D01*
X425000Y-21287250D01*
X567000Y-21287250D01*
X567000Y-21500912D01*
X663369Y-21733566D01*
X841435Y-21911632D01*
X1074089Y-22008000D01*
X1312750Y-22008000D01*
X1471000Y-21849750D01*
X1471000Y-21129000D01*
X725250Y-21129000D01*
X567000Y-21287250D01*
X425000Y-21287250D01*
X425000Y-15899088D01*
X567000Y-15899088D01*
X567000Y-16112750D01*
X725250Y-16271000D01*
X1471000Y-16271000D01*
X1471000Y-15550250D01*
X1312750Y-15392000D01*
X1074089Y-15392000D01*
X841435Y-15488368D01*
X663369Y-15666434D01*
X567000Y-15899088D01*
X425000Y-15899088D01*
X425000Y-14487250D01*
X567000Y-14487250D01*
X567000Y-14700912D01*
X663369Y-14933566D01*
X841435Y-15111632D01*
X1074089Y-15208000D01*
X1312750Y-15208000D01*
X1471000Y-15049750D01*
X1471000Y-14329000D01*
X725250Y-14329000D01*
X567000Y-14487250D01*
X425000Y-14487250D01*
X425000Y-9487250D01*
X567000Y-9487250D01*
X567000Y-9700912D01*
X663369Y-9933566D01*
X679803Y-9950000D01*
X663369Y-9966434D01*
X567000Y-10199088D01*
X567000Y-10412750D01*
X725250Y-10571000D01*
X1471000Y-10571000D01*
X1471000Y-9329000D01*
X725250Y-9329000D01*
X567000Y-9487250D01*
X425000Y-9487250D01*
X425000Y-3063565D01*
X1167171Y-3063565D01*
X1360854Y-3614945D01*
X1750798Y-4050235D01*
X2277637Y-4303165D01*
X2289340Y-4304893D01*
X2521000Y-4184519D01*
X2521000Y-2829000D01*
X1310644Y-2829000D01*
X1167171Y-3063565D01*
X425000Y-3063565D01*
X425000Y-2336435D01*
X1167171Y-2336435D01*
X1310644Y-2571000D01*
X2521000Y-2571000D01*
X2521000Y-1215481D01*
X2779000Y-1215481D01*
X2779000Y-2571000D01*
X2799000Y-2571000D01*
X2799000Y-2829000D01*
X2779000Y-2829000D01*
X2779000Y-4184519D01*
X3010660Y-4304893D01*
X3022363Y-4303165D01*
X3549202Y-4050235D01*
X3939146Y-3614945D01*
X4040350Y-3326834D01*
X4045683Y-3353643D01*
X4314178Y-3755473D01*
X4716008Y-4023968D01*
X5190000Y-4118251D01*
X5663992Y-4023968D01*
X6065822Y-3755473D01*
X6334317Y-3353643D01*
X6428600Y-2879651D01*
X6428600Y-2520349D01*
X6334317Y-2046357D01*
X6065822Y-1644527D01*
X5663992Y-1376032D01*
X5190000Y-1281749D01*
X4716008Y-1376032D01*
X4314178Y-1644527D01*
X4045683Y-2046357D01*
X4040350Y-2073166D01*
X3939146Y-1785055D01*
X3549202Y-1349765D01*
X3022363Y-1096835D01*
X3010660Y-1095107D01*
X2779000Y-1215481D01*
X2521000Y-1215481D01*
X2289340Y-1095107D01*
X2277637Y-1096835D01*
X1750798Y-1349765D01*
X1360854Y-1785055D01*
X1167171Y-2336435D01*
X425000Y-2336435D01*
X425000Y-2041860D01*
X552583Y-1400459D01*
X892194Y-892194D01*
X1400460Y-552582D01*
X2041860Y-425000D01*
X15958140Y-425000D01*
X16599541Y-552583D01*
X16599541Y-552583D01*
G37*
X16599541Y-552583D02*
X17107806Y-892194D01*
X17447418Y-1400460D01*
X17575000Y-2041860D01*
X17575000Y-16661828D01*
X16848346Y-15935174D01*
X16848346Y-14486400D01*
X16822198Y-14347434D01*
X16740069Y-14219801D01*
X16614754Y-14134177D01*
X16466000Y-14104054D01*
X14434000Y-14104054D01*
X14295034Y-14130202D01*
X14175000Y-14207441D01*
X14175000Y-13357278D01*
X14394527Y-13685822D01*
X14796357Y-13954317D01*
X15270349Y-14048600D01*
X15629651Y-14048600D01*
X16103643Y-13954317D01*
X16505473Y-13685822D01*
X16773968Y-13283992D01*
X16868251Y-12810000D01*
X16773968Y-12336008D01*
X16505473Y-11934178D01*
X16103643Y-11665683D01*
X15629651Y-11571400D01*
X15270349Y-11571400D01*
X14796357Y-11665683D01*
X14394527Y-11934178D01*
X14175000Y-12262722D01*
X14175000Y-11088172D01*
X14283505Y-10979667D01*
X14394527Y-11145822D01*
X14796357Y-11414317D01*
X15270349Y-11508600D01*
X15629651Y-11508600D01*
X16103643Y-11414317D01*
X16505473Y-11145822D01*
X16773968Y-10743992D01*
X16868251Y-10270000D01*
X16773968Y-9796008D01*
X16505473Y-9394178D01*
X16103643Y-9125683D01*
X15629651Y-9031400D01*
X15270349Y-9031400D01*
X14796357Y-9125683D01*
X14394527Y-9394178D01*
X14193524Y-9695000D01*
X14180000Y-9695000D01*
X13959957Y-9738769D01*
X13773414Y-9863414D01*
X13193414Y-10443414D01*
X13128846Y-10540046D01*
X13128846Y-10111000D01*
X13102698Y-9972034D01*
X13020569Y-9844401D01*
X12895254Y-9758777D01*
X12753391Y-9730049D01*
X12885466Y-9705198D01*
X13013099Y-9623069D01*
X13098723Y-9497754D01*
X13128846Y-9349000D01*
X13128846Y-8841000D01*
X13102698Y-8702034D01*
X13020569Y-8574401D01*
X12895254Y-8488777D01*
X12753391Y-8460049D01*
X12885466Y-8435198D01*
X13013099Y-8353069D01*
X13098723Y-8227754D01*
X13128846Y-8079000D01*
X13128846Y-7571000D01*
X13102698Y-7432034D01*
X13020569Y-7304401D01*
X12895254Y-7218777D01*
X12753391Y-7190049D01*
X12885466Y-7165198D01*
X12940166Y-7130000D01*
X13615568Y-7130000D01*
X13428097Y-7317144D01*
X13325117Y-7565145D01*
X13324883Y-7833677D01*
X13427429Y-8081857D01*
X13617144Y-8271903D01*
X13865145Y-8374883D01*
X14133677Y-8375117D01*
X14213021Y-8342333D01*
X14227851Y-8365379D01*
X14353166Y-8451003D01*
X14501920Y-8481126D01*
X15299480Y-8481126D01*
X15438446Y-8454978D01*
X15566079Y-8372849D01*
X15651145Y-8248350D01*
X15726451Y-8365379D01*
X15851766Y-8451003D01*
X16000520Y-8481126D01*
X16798080Y-8481126D01*
X16937046Y-8454978D01*
X17064679Y-8372849D01*
X17150303Y-8247534D01*
X17180426Y-8098780D01*
X17180426Y-7301220D01*
X17154278Y-7162254D01*
X17072149Y-7034621D01*
X16946834Y-6948997D01*
X16911330Y-6941807D01*
X17016599Y-6874069D01*
X17102223Y-6748754D01*
X17132346Y-6600000D01*
X17132346Y-5700000D01*
X17106198Y-5561034D01*
X17024069Y-5433401D01*
X16898754Y-5347777D01*
X16750000Y-5317654D01*
X16250000Y-5317654D01*
X16111034Y-5343802D01*
X15983401Y-5425931D01*
X15897777Y-5551246D01*
X15867654Y-5700000D01*
X15867654Y-6600000D01*
X15893802Y-6738966D01*
X15899300Y-6747510D01*
X15899300Y-6937920D01*
X15861554Y-6945022D01*
X15733921Y-7027151D01*
X15648855Y-7151650D01*
X15573549Y-7034621D01*
X15448234Y-6948997D01*
X15411665Y-6941592D01*
X15516599Y-6874069D01*
X15602223Y-6748754D01*
X15632346Y-6600000D01*
X15632346Y-5700000D01*
X15606198Y-5561034D01*
X15524069Y-5433401D01*
X15398754Y-5347777D01*
X15250000Y-5317654D01*
X14750000Y-5317654D01*
X14611034Y-5343802D01*
X14483401Y-5425931D01*
X14397777Y-5551246D01*
X14367654Y-5700000D01*
X14367654Y-5969174D01*
X14356828Y-5980000D01*
X13156137Y-5980000D01*
X13174883Y-5934855D01*
X13175117Y-5666323D01*
X13072571Y-5418143D01*
X12882856Y-5228097D01*
X12634855Y-5125117D01*
X12582036Y-5125071D01*
X12757107Y-4950000D01*
X14050000Y-4950000D01*
X14241342Y-4911940D01*
X14403553Y-4803553D01*
X15108761Y-4098346D01*
X16213600Y-4098346D01*
X16352566Y-4072198D01*
X16480199Y-3990069D01*
X16565823Y-3864754D01*
X16595946Y-3716000D01*
X16595946Y-1684000D01*
X16569798Y-1545034D01*
X16487669Y-1417401D01*
X16362354Y-1331777D01*
X16213600Y-1301654D01*
X14486400Y-1301654D01*
X14347434Y-1327802D01*
X14219801Y-1409931D01*
X14134177Y-1535246D01*
X14104054Y-1684000D01*
X14104054Y-3688840D01*
X13842894Y-3950000D01*
X13394693Y-3950000D01*
X13685822Y-3755473D01*
X13954317Y-3353643D01*
X14048600Y-2879651D01*
X14048600Y-2520349D01*
X13954317Y-2046357D01*
X13685822Y-1644527D01*
X13283992Y-1376032D01*
X12810000Y-1281749D01*
X12336008Y-1376032D01*
X11934178Y-1644527D01*
X11665683Y-2046357D01*
X11571400Y-2520349D01*
X11571400Y-2879651D01*
X11665683Y-3353643D01*
X11815313Y-3577580D01*
X10770000Y-4622893D01*
X10770000Y-4006590D01*
X11145822Y-3755473D01*
X11414317Y-3353643D01*
X11508600Y-2879651D01*
X11508600Y-2520349D01*
X11414317Y-2046357D01*
X11145822Y-1644527D01*
X10743992Y-1376032D01*
X10270000Y-1281749D01*
X9796008Y-1376032D01*
X9394178Y-1644527D01*
X9125683Y-2046357D01*
X9031400Y-2520349D01*
X9031400Y-2879651D01*
X9125683Y-3353643D01*
X9394178Y-3755473D01*
X9770000Y-4006590D01*
X9770000Y-4672894D01*
X7117894Y-7325000D01*
X6775697Y-7325000D01*
X6933132Y-7167565D01*
X7029500Y-6934911D01*
X7029500Y-6840250D01*
X6871250Y-6682000D01*
X5954000Y-6682000D01*
X5954000Y-6704000D01*
X5696000Y-6704000D01*
X5696000Y-6682000D01*
X4778750Y-6682000D01*
X4620500Y-6840250D01*
X4620500Y-6934911D01*
X4716868Y-7167565D01*
X4874303Y-7325000D01*
X3830426Y-7325000D01*
X3830426Y-7301220D01*
X3804278Y-7162254D01*
X3722149Y-7034621D01*
X3596834Y-6948997D01*
X3448080Y-6918874D01*
X3396970Y-6918874D01*
X3466599Y-6874069D01*
X3552223Y-6748754D01*
X3582346Y-6600000D01*
X3582346Y-6330826D01*
X3838173Y-6075000D01*
X4661958Y-6075000D01*
X4620500Y-6175089D01*
X4620500Y-6269750D01*
X4778750Y-6428000D01*
X5696000Y-6428000D01*
X5696000Y-6406000D01*
X5954000Y-6406000D01*
X5954000Y-6428000D01*
X6871250Y-6428000D01*
X7029500Y-6269750D01*
X7029500Y-6175089D01*
X6933132Y-5942435D01*
X6755066Y-5764369D01*
X6750637Y-5762535D01*
X8136587Y-4376586D01*
X8261231Y-4190043D01*
X8305000Y-3970000D01*
X8305000Y-3956476D01*
X8605822Y-3755473D01*
X8874317Y-3353643D01*
X8968600Y-2879651D01*
X8968600Y-2520349D01*
X8874317Y-2046357D01*
X8605822Y-1644527D01*
X8203992Y-1376032D01*
X7730000Y-1281749D01*
X7256008Y-1376032D01*
X6854178Y-1644527D01*
X6585683Y-2046357D01*
X6491400Y-2520349D01*
X6491400Y-2879651D01*
X6585683Y-3353643D01*
X6854178Y-3755473D01*
X7020333Y-3866494D01*
X5961828Y-4925000D01*
X3600000Y-4925000D01*
X3379957Y-4968769D01*
X3193414Y-5093413D01*
X2969173Y-5317654D01*
X2700000Y-5317654D01*
X2561034Y-5343802D01*
X2433401Y-5425931D01*
X2347777Y-5551246D01*
X2317654Y-5700000D01*
X2317654Y-6600000D01*
X2343802Y-6738966D01*
X2425931Y-6866599D01*
X2534412Y-6940721D01*
X2511554Y-6945022D01*
X2383921Y-7027151D01*
X2298855Y-7151650D01*
X2223549Y-7034621D01*
X2098234Y-6948997D01*
X1950000Y-6918979D01*
X1950000Y-6884750D01*
X1966599Y-6874069D01*
X2052223Y-6748754D01*
X2082346Y-6600000D01*
X2082346Y-5700000D01*
X2056198Y-5561034D01*
X1974069Y-5433401D01*
X1848754Y-5347777D01*
X1700000Y-5317654D01*
X1200000Y-5317654D01*
X1061034Y-5343802D01*
X933401Y-5425931D01*
X847777Y-5551246D01*
X817654Y-5700000D01*
X817654Y-6600000D01*
X843802Y-6738966D01*
X925931Y-6866599D01*
X950000Y-6883045D01*
X950000Y-6985532D01*
X885321Y-7027151D01*
X799697Y-7152466D01*
X769574Y-7301220D01*
X769574Y-8098780D01*
X795722Y-8237746D01*
X833440Y-8296363D01*
X663369Y-8466434D01*
X567000Y-8699088D01*
X567000Y-8912750D01*
X725250Y-9071000D01*
X1471000Y-9071000D01*
X1471000Y-9051000D01*
X1729000Y-9051000D01*
X1729000Y-9071000D01*
X1749000Y-9071000D01*
X1749000Y-9329000D01*
X1729000Y-9329000D01*
X1729000Y-10571000D01*
X1749000Y-10571000D01*
X1749000Y-10829000D01*
X1729000Y-10829000D01*
X1729000Y-10849000D01*
X1471000Y-10849000D01*
X1471000Y-10829000D01*
X725250Y-10829000D01*
X567000Y-10987250D01*
X567000Y-11200912D01*
X663369Y-11433566D01*
X841435Y-11611632D01*
X872793Y-11624621D01*
X867654Y-11650000D01*
X867654Y-13250000D01*
X872456Y-13275519D01*
X841435Y-13288368D01*
X663369Y-13466434D01*
X567000Y-13699088D01*
X567000Y-13912750D01*
X725250Y-14071000D01*
X1471000Y-14071000D01*
X1471000Y-14051000D01*
X1729000Y-14051000D01*
X1729000Y-14071000D01*
X1749000Y-14071000D01*
X1749000Y-14329000D01*
X1729000Y-14329000D01*
X1729000Y-15049750D01*
X1887250Y-15208000D01*
X2125911Y-15208000D01*
X2358565Y-15111632D01*
X2536631Y-14933566D01*
X2541903Y-14920839D01*
X2551246Y-14927223D01*
X2700000Y-14957346D01*
X3500000Y-14957346D01*
X3638966Y-14931198D01*
X3766599Y-14849069D01*
X3837782Y-14744888D01*
X4889524Y-15796630D01*
X4897302Y-15837966D01*
X4979431Y-15965599D01*
X5104746Y-16051223D01*
X5253500Y-16081346D01*
X6396500Y-16081346D01*
X6535466Y-16055198D01*
X6663099Y-15973069D01*
X6748723Y-15847754D01*
X6778846Y-15699000D01*
X6778846Y-15191000D01*
X6752698Y-15052034D01*
X6670569Y-14924401D01*
X6545254Y-14838777D01*
X6403391Y-14810049D01*
X6535466Y-14785198D01*
X6663099Y-14703069D01*
X6748723Y-14577754D01*
X6778846Y-14429000D01*
X6778846Y-13921000D01*
X6752698Y-13782034D01*
X6670569Y-13654401D01*
X6545254Y-13568777D01*
X6403391Y-13540049D01*
X6535466Y-13515198D01*
X6640503Y-13447609D01*
X7849100Y-14656207D01*
X7849100Y-16842000D01*
X7687250Y-16842000D01*
X7529000Y-17000250D01*
X7529000Y-17721000D01*
X7549000Y-17721000D01*
X7549000Y-17979000D01*
X7529000Y-17979000D01*
X7529000Y-18699750D01*
X7687250Y-18858000D01*
X7849100Y-18858000D01*
X7849100Y-18980114D01*
X7499100Y-18980114D01*
X7360134Y-19006262D01*
X7232501Y-19088391D01*
X7146877Y-19213706D01*
X7116754Y-19362460D01*
X7116754Y-19462460D01*
X6875632Y-19462460D01*
X6475000Y-19061828D01*
X6475000Y-18595197D01*
X6641435Y-18761632D01*
X6874089Y-18858000D01*
X7112750Y-18858000D01*
X7271000Y-18699750D01*
X7271000Y-17979000D01*
X7251000Y-17979000D01*
X7251000Y-17721000D01*
X7271000Y-17721000D01*
X7271000Y-17000250D01*
X7112750Y-16842000D01*
X6874089Y-16842000D01*
X6641435Y-16938368D01*
X6463369Y-17116434D01*
X6458097Y-17129161D01*
X6448754Y-17122777D01*
X6300000Y-17092654D01*
X5500000Y-17092654D01*
X5361034Y-17118802D01*
X5233401Y-17200931D01*
X5182792Y-17275000D01*
X4738172Y-17275000D01*
X4625000Y-17161828D01*
X4625000Y-16600000D01*
X4581231Y-16379957D01*
X4508428Y-16271000D01*
X4456587Y-16193414D01*
X4256586Y-15993414D01*
X4070043Y-15868769D01*
X3850000Y-15825000D01*
X3816924Y-15825000D01*
X3774069Y-15758401D01*
X3648754Y-15672777D01*
X3500000Y-15642654D01*
X2700000Y-15642654D01*
X2561034Y-15668802D01*
X2542541Y-15680702D01*
X2536631Y-15666434D01*
X2358565Y-15488368D01*
X2125911Y-15392000D01*
X1887250Y-15392000D01*
X1729000Y-15550250D01*
X1729000Y-16271000D01*
X1749000Y-16271000D01*
X1749000Y-16529000D01*
X1729000Y-16529000D01*
X1729000Y-16549000D01*
X1471000Y-16549000D01*
X1471000Y-16529000D01*
X725250Y-16529000D01*
X567000Y-16687250D01*
X567000Y-16900912D01*
X663369Y-17133566D01*
X841435Y-17311632D01*
X867474Y-17322418D01*
X847777Y-17351246D01*
X817654Y-17500000D01*
X817654Y-18400000D01*
X843802Y-18538966D01*
X925931Y-18666599D01*
X950000Y-18683045D01*
X950000Y-18785532D01*
X885321Y-18827151D01*
X799697Y-18952466D01*
X769574Y-19101220D01*
X769574Y-19898780D01*
X795722Y-20037746D01*
X833440Y-20096363D01*
X663369Y-20266434D01*
X567000Y-20499088D01*
X567000Y-20712750D01*
X725250Y-20871000D01*
X1471000Y-20871000D01*
X1471000Y-20851000D01*
X1729000Y-20851000D01*
X1729000Y-20871000D01*
X1749000Y-20871000D01*
X1749000Y-21129000D01*
X1729000Y-21129000D01*
X1729000Y-21849750D01*
X1887250Y-22008000D01*
X2125911Y-22008000D01*
X2358565Y-21911632D01*
X2536631Y-21733566D01*
X2541903Y-21720839D01*
X2551246Y-21727223D01*
X2700000Y-21757346D01*
X2794173Y-21757346D01*
X2893414Y-21856587D01*
X3079957Y-21981231D01*
X3300000Y-22025000D01*
X4718870Y-22025000D01*
X4481282Y-22183752D01*
X4291605Y-22467622D01*
X4225000Y-22802470D01*
X4225000Y-23397530D01*
X4291605Y-23732378D01*
X4481282Y-24016248D01*
X4765152Y-24205925D01*
X5100000Y-24272530D01*
X5434848Y-24205925D01*
X5718718Y-24016248D01*
X5908395Y-23732378D01*
X5975000Y-23397530D01*
X5975000Y-22802470D01*
X5946620Y-22659793D01*
X6043413Y-22756586D01*
X6229957Y-22881231D01*
X6450000Y-22925000D01*
X11200000Y-22925000D01*
X11420043Y-22881231D01*
X11537916Y-22802470D01*
X12025000Y-22802470D01*
X12025000Y-23397530D01*
X12091605Y-23732378D01*
X12281282Y-24016248D01*
X12565152Y-24205925D01*
X12900000Y-24272530D01*
X13234848Y-24205925D01*
X13518718Y-24016248D01*
X13708395Y-23732378D01*
X13775000Y-23397530D01*
X13775000Y-22802470D01*
X13708395Y-22467622D01*
X13518718Y-22183752D01*
X13234848Y-21994075D01*
X12900000Y-21927470D01*
X12565152Y-21994075D01*
X12281282Y-22183752D01*
X12091605Y-22467622D01*
X12025000Y-22802470D01*
X11537916Y-22802470D01*
X11606586Y-22756586D01*
X12875922Y-21487250D01*
X15367710Y-21487250D01*
X15367710Y-21725961D01*
X15464078Y-21958615D01*
X15642144Y-22136681D01*
X15874798Y-22233050D01*
X16113510Y-22233050D01*
X16271760Y-22074800D01*
X16271760Y-21329000D01*
X16529760Y-21329000D01*
X16529760Y-22074800D01*
X16688010Y-22233050D01*
X16926722Y-22233050D01*
X17159376Y-22136681D01*
X17337442Y-21958615D01*
X17433810Y-21725961D01*
X17433810Y-21487250D01*
X17275560Y-21329000D01*
X16529760Y-21329000D01*
X16271760Y-21329000D01*
X15525960Y-21329000D01*
X15367710Y-21487250D01*
X12875922Y-21487250D01*
X13538173Y-20825000D01*
X13668687Y-20825000D01*
X13727661Y-20916649D01*
X13852976Y-21002273D01*
X14001730Y-21032396D01*
X14801830Y-21032396D01*
X14940796Y-21006248D01*
X15068429Y-20924119D01*
X15136154Y-20825000D01*
X15367710Y-20825000D01*
X15367710Y-20912750D01*
X15525960Y-21071000D01*
X16271760Y-21071000D01*
X16271760Y-21051000D01*
X16529760Y-21051000D01*
X16529760Y-21071000D01*
X17275560Y-21071000D01*
X17433810Y-20912750D01*
X17433810Y-20674039D01*
X17420724Y-20642448D01*
X17575000Y-20488172D01*
X17575000Y-22958140D01*
X17447418Y-23599540D01*
X17107806Y-24107806D01*
X16599541Y-24447417D01*
X15958140Y-24575000D01*
X2041860Y-24575000D01*
X1400460Y-24447418D01*
X892194Y-24107806D01*
X552583Y-23599541D01*
X425000Y-22958140D01*
X425000Y-21287250D01*
X567000Y-21287250D01*
X567000Y-21500912D01*
X663369Y-21733566D01*
X841435Y-21911632D01*
X1074089Y-22008000D01*
X1312750Y-22008000D01*
X1471000Y-21849750D01*
X1471000Y-21129000D01*
X725250Y-21129000D01*
X567000Y-21287250D01*
X425000Y-21287250D01*
X425000Y-15899088D01*
X567000Y-15899088D01*
X567000Y-16112750D01*
X725250Y-16271000D01*
X1471000Y-16271000D01*
X1471000Y-15550250D01*
X1312750Y-15392000D01*
X1074089Y-15392000D01*
X841435Y-15488368D01*
X663369Y-15666434D01*
X567000Y-15899088D01*
X425000Y-15899088D01*
X425000Y-14487250D01*
X567000Y-14487250D01*
X567000Y-14700912D01*
X663369Y-14933566D01*
X841435Y-15111632D01*
X1074089Y-15208000D01*
X1312750Y-15208000D01*
X1471000Y-15049750D01*
X1471000Y-14329000D01*
X725250Y-14329000D01*
X567000Y-14487250D01*
X425000Y-14487250D01*
X425000Y-9487250D01*
X567000Y-9487250D01*
X567000Y-9700912D01*
X663369Y-9933566D01*
X679803Y-9950000D01*
X663369Y-9966434D01*
X567000Y-10199088D01*
X567000Y-10412750D01*
X725250Y-10571000D01*
X1471000Y-10571000D01*
X1471000Y-9329000D01*
X725250Y-9329000D01*
X567000Y-9487250D01*
X425000Y-9487250D01*
X425000Y-3063565D01*
X1167171Y-3063565D01*
X1360854Y-3614945D01*
X1750798Y-4050235D01*
X2277637Y-4303165D01*
X2289340Y-4304893D01*
X2521000Y-4184519D01*
X2521000Y-2829000D01*
X1310644Y-2829000D01*
X1167171Y-3063565D01*
X425000Y-3063565D01*
X425000Y-2336435D01*
X1167171Y-2336435D01*
X1310644Y-2571000D01*
X2521000Y-2571000D01*
X2521000Y-1215481D01*
X2779000Y-1215481D01*
X2779000Y-2571000D01*
X2799000Y-2571000D01*
X2799000Y-2829000D01*
X2779000Y-2829000D01*
X2779000Y-4184519D01*
X3010660Y-4304893D01*
X3022363Y-4303165D01*
X3549202Y-4050235D01*
X3939146Y-3614945D01*
X4040350Y-3326834D01*
X4045683Y-3353643D01*
X4314178Y-3755473D01*
X4716008Y-4023968D01*
X5190000Y-4118251D01*
X5663992Y-4023968D01*
X6065822Y-3755473D01*
X6334317Y-3353643D01*
X6428600Y-2879651D01*
X6428600Y-2520349D01*
X6334317Y-2046357D01*
X6065822Y-1644527D01*
X5663992Y-1376032D01*
X5190000Y-1281749D01*
X4716008Y-1376032D01*
X4314178Y-1644527D01*
X4045683Y-2046357D01*
X4040350Y-2073166D01*
X3939146Y-1785055D01*
X3549202Y-1349765D01*
X3022363Y-1096835D01*
X3010660Y-1095107D01*
X2779000Y-1215481D01*
X2521000Y-1215481D01*
X2289340Y-1095107D01*
X2277637Y-1096835D01*
X1750798Y-1349765D01*
X1360854Y-1785055D01*
X1167171Y-2336435D01*
X425000Y-2336435D01*
X425000Y-2041860D01*
X552583Y-1400459D01*
X892194Y-892194D01*
X1400460Y-552582D01*
X2041860Y-425000D01*
X15958140Y-425000D01*
X16599541Y-552583D01*
G36*
X9274883Y-7783677D02*
X9377429Y-8031857D01*
X9567144Y-8221903D01*
X9650000Y-8256308D01*
X9650000Y-10150000D01*
X9674864Y-10275000D01*
X9688060Y-10341342D01*
X9796447Y-10503553D01*
X10300000Y-11007107D01*
X10300000Y-14950000D01*
X10335795Y-15129957D01*
X10338060Y-15141342D01*
X10446447Y-15303553D01*
X10941447Y-15798554D01*
X11038686Y-15863526D01*
X11103658Y-15906940D01*
X11295000Y-15945000D01*
X11316176Y-15945000D01*
X11329431Y-15965599D01*
X11454746Y-16051223D01*
X11603500Y-16081346D01*
X12411474Y-16081346D01*
X12393413Y-16093414D01*
X11993414Y-16493414D01*
X11868769Y-16679957D01*
X11825000Y-16900000D01*
X11825000Y-17104803D01*
X11658565Y-16938368D01*
X11425911Y-16842000D01*
X11187250Y-16842000D01*
X11029000Y-17000250D01*
X11029000Y-17721000D01*
X11049000Y-17721000D01*
X11049000Y-17979000D01*
X11029000Y-17979000D01*
X11029000Y-18699750D01*
X11187250Y-18858000D01*
X11425911Y-18858000D01*
X11658565Y-18761632D01*
X11836631Y-18583566D01*
X11841903Y-18570839D01*
X11851246Y-18577223D01*
X12000000Y-18607346D01*
X12800000Y-18607346D01*
X12938966Y-18581198D01*
X13066599Y-18499069D01*
X13117208Y-18425000D01*
X14083076Y-18425000D01*
X14125931Y-18491599D01*
X14225000Y-18559290D01*
X14225000Y-18700000D01*
X14241380Y-18782346D01*
X14268769Y-18920043D01*
X14393414Y-19106586D01*
X14754432Y-19467604D01*
X14001730Y-19467604D01*
X13862764Y-19493752D01*
X13735131Y-19575881D01*
X13667406Y-19675000D01*
X13300000Y-19675000D01*
X13079957Y-19718769D01*
X12893413Y-19843414D01*
X11625077Y-21111751D01*
X11625108Y-21076225D01*
X11530158Y-20846429D01*
X11354496Y-20670460D01*
X11132100Y-20578113D01*
X11132100Y-20324710D01*
X10973850Y-20166460D01*
X10399100Y-20166460D01*
X10399100Y-21017357D01*
X10375109Y-21075134D01*
X10374892Y-21323775D01*
X10469842Y-21553571D01*
X10645504Y-21729540D01*
X10754983Y-21775000D01*
X7245045Y-21775000D01*
X7353571Y-21730158D01*
X7529540Y-21554496D01*
X7624891Y-21324866D01*
X7625092Y-21094806D01*
X7899100Y-21094806D01*
X8028689Y-21070422D01*
X8149100Y-21094806D01*
X8549100Y-21094806D01*
X8678689Y-21070422D01*
X8799100Y-21094806D01*
X9199100Y-21094806D01*
X9328689Y-21070422D01*
X9449100Y-21094806D01*
X9586249Y-21094806D01*
X9740534Y-21249091D01*
X9973188Y-21345460D01*
X10040850Y-21345460D01*
X10199100Y-21187210D01*
X10199100Y-20864467D01*
X10201323Y-20861214D01*
X10231446Y-20712460D01*
X10231446Y-19888460D01*
X10399100Y-19888460D01*
X10399100Y-19908460D01*
X10973850Y-19908460D01*
X11132100Y-19750210D01*
X11132100Y-19236549D01*
X11035732Y-19003895D01*
X10857666Y-18825829D01*
X10707233Y-18763517D01*
X10771000Y-18699750D01*
X10771000Y-17979000D01*
X10025250Y-17979000D01*
X9867000Y-18137250D01*
X9867000Y-18350912D01*
X9963369Y-18583566D01*
X10141435Y-18761632D01*
X10170098Y-18773505D01*
X10170098Y-18858708D01*
X10040850Y-18729460D01*
X9973188Y-18729460D01*
X9740534Y-18825829D01*
X9586249Y-18980114D01*
X9499100Y-18980114D01*
X9499100Y-17349088D01*
X9867000Y-17349088D01*
X9867000Y-17562750D01*
X10025250Y-17721000D01*
X10771000Y-17721000D01*
X10771000Y-17000250D01*
X10612750Y-16842000D01*
X10374089Y-16842000D01*
X10141435Y-16938368D01*
X9963369Y-17116434D01*
X9867000Y-17349088D01*
X9499100Y-17349088D01*
X9499100Y-14149100D01*
X9461040Y-13957758D01*
X9436479Y-13921000D01*
X9352653Y-13795546D01*
X6838553Y-11281447D01*
X6732431Y-11210538D01*
X6670569Y-11114401D01*
X6545254Y-11028777D01*
X6403391Y-11000049D01*
X6535466Y-10975198D01*
X6663099Y-10893069D01*
X6748723Y-10767754D01*
X6778846Y-10619000D01*
X6778846Y-10111000D01*
X6752698Y-9972034D01*
X6670569Y-9844401D01*
X6545254Y-9758777D01*
X6403391Y-9730049D01*
X6535466Y-9705198D01*
X6663099Y-9623069D01*
X6682278Y-9595000D01*
X7005000Y-9595000D01*
X7196342Y-9556940D01*
X7358553Y-9448553D01*
X9275102Y-7532004D01*
X9274883Y-7783677D01*
X9274883Y-7783677D01*
G37*
X9274883Y-7783677D02*
X9377429Y-8031857D01*
X9567144Y-8221903D01*
X9650000Y-8256308D01*
X9650000Y-10150000D01*
X9674864Y-10275000D01*
X9688060Y-10341342D01*
X9796447Y-10503553D01*
X10300000Y-11007107D01*
X10300000Y-14950000D01*
X10335795Y-15129957D01*
X10338060Y-15141342D01*
X10446447Y-15303553D01*
X10941447Y-15798554D01*
X11038686Y-15863526D01*
X11103658Y-15906940D01*
X11295000Y-15945000D01*
X11316176Y-15945000D01*
X11329431Y-15965599D01*
X11454746Y-16051223D01*
X11603500Y-16081346D01*
X12411474Y-16081346D01*
X12393413Y-16093414D01*
X11993414Y-16493414D01*
X11868769Y-16679957D01*
X11825000Y-16900000D01*
X11825000Y-17104803D01*
X11658565Y-16938368D01*
X11425911Y-16842000D01*
X11187250Y-16842000D01*
X11029000Y-17000250D01*
X11029000Y-17721000D01*
X11049000Y-17721000D01*
X11049000Y-17979000D01*
X11029000Y-17979000D01*
X11029000Y-18699750D01*
X11187250Y-18858000D01*
X11425911Y-18858000D01*
X11658565Y-18761632D01*
X11836631Y-18583566D01*
X11841903Y-18570839D01*
X11851246Y-18577223D01*
X12000000Y-18607346D01*
X12800000Y-18607346D01*
X12938966Y-18581198D01*
X13066599Y-18499069D01*
X13117208Y-18425000D01*
X14083076Y-18425000D01*
X14125931Y-18491599D01*
X14225000Y-18559290D01*
X14225000Y-18700000D01*
X14241380Y-18782346D01*
X14268769Y-18920043D01*
X14393414Y-19106586D01*
X14754432Y-19467604D01*
X14001730Y-19467604D01*
X13862764Y-19493752D01*
X13735131Y-19575881D01*
X13667406Y-19675000D01*
X13300000Y-19675000D01*
X13079957Y-19718769D01*
X12893413Y-19843414D01*
X11625077Y-21111751D01*
X11625108Y-21076225D01*
X11530158Y-20846429D01*
X11354496Y-20670460D01*
X11132100Y-20578113D01*
X11132100Y-20324710D01*
X10973850Y-20166460D01*
X10399100Y-20166460D01*
X10399100Y-21017357D01*
X10375109Y-21075134D01*
X10374892Y-21323775D01*
X10469842Y-21553571D01*
X10645504Y-21729540D01*
X10754983Y-21775000D01*
X7245045Y-21775000D01*
X7353571Y-21730158D01*
X7529540Y-21554496D01*
X7624891Y-21324866D01*
X7625092Y-21094806D01*
X7899100Y-21094806D01*
X8028689Y-21070422D01*
X8149100Y-21094806D01*
X8549100Y-21094806D01*
X8678689Y-21070422D01*
X8799100Y-21094806D01*
X9199100Y-21094806D01*
X9328689Y-21070422D01*
X9449100Y-21094806D01*
X9586249Y-21094806D01*
X9740534Y-21249091D01*
X9973188Y-21345460D01*
X10040850Y-21345460D01*
X10199100Y-21187210D01*
X10199100Y-20864467D01*
X10201323Y-20861214D01*
X10231446Y-20712460D01*
X10231446Y-19888460D01*
X10399100Y-19888460D01*
X10399100Y-19908460D01*
X10973850Y-19908460D01*
X11132100Y-19750210D01*
X11132100Y-19236549D01*
X11035732Y-19003895D01*
X10857666Y-18825829D01*
X10707233Y-18763517D01*
X10771000Y-18699750D01*
X10771000Y-17979000D01*
X10025250Y-17979000D01*
X9867000Y-18137250D01*
X9867000Y-18350912D01*
X9963369Y-18583566D01*
X10141435Y-18761632D01*
X10170098Y-18773505D01*
X10170098Y-18858708D01*
X10040850Y-18729460D01*
X9973188Y-18729460D01*
X9740534Y-18825829D01*
X9586249Y-18980114D01*
X9499100Y-18980114D01*
X9499100Y-17349088D01*
X9867000Y-17349088D01*
X9867000Y-17562750D01*
X10025250Y-17721000D01*
X10771000Y-17721000D01*
X10771000Y-17000250D01*
X10612750Y-16842000D01*
X10374089Y-16842000D01*
X10141435Y-16938368D01*
X9963369Y-17116434D01*
X9867000Y-17349088D01*
X9499100Y-17349088D01*
X9499100Y-14149100D01*
X9461040Y-13957758D01*
X9436479Y-13921000D01*
X9352653Y-13795546D01*
X6838553Y-11281447D01*
X6732431Y-11210538D01*
X6670569Y-11114401D01*
X6545254Y-11028777D01*
X6403391Y-11000049D01*
X6535466Y-10975198D01*
X6663099Y-10893069D01*
X6748723Y-10767754D01*
X6778846Y-10619000D01*
X6778846Y-10111000D01*
X6752698Y-9972034D01*
X6670569Y-9844401D01*
X6545254Y-9758777D01*
X6403391Y-9730049D01*
X6535466Y-9705198D01*
X6663099Y-9623069D01*
X6682278Y-9595000D01*
X7005000Y-9595000D01*
X7196342Y-9556940D01*
X7358553Y-9448553D01*
X9275102Y-7532004D01*
X9274883Y-7783677D01*
G36*
X3178300Y-19371000D02*
X3198300Y-19371000D01*
X3198300Y-19629000D01*
X3178300Y-19629000D01*
X3178300Y-19649000D01*
X2920300Y-19649000D01*
X2920300Y-19629000D01*
X2900300Y-19629000D01*
X2900300Y-19371000D01*
X2920300Y-19371000D01*
X2920300Y-19351000D01*
X3178300Y-19351000D01*
X3178300Y-19371000D01*
X3178300Y-19371000D01*
G37*
X3178300Y-19371000D02*
X3198300Y-19371000D01*
X3198300Y-19629000D01*
X3178300Y-19629000D01*
X3178300Y-19649000D01*
X2920300Y-19649000D01*
X2920300Y-19629000D01*
X2900300Y-19629000D01*
X2900300Y-19371000D01*
X2920300Y-19371000D01*
X2920300Y-19351000D01*
X3178300Y-19351000D01*
X3178300Y-19371000D01*
G36*
X16429000Y-17721000D02*
X16449000Y-17721000D01*
X16449000Y-17979000D01*
X16429000Y-17979000D01*
X16429000Y-17999000D01*
X16171000Y-17999000D01*
X16171000Y-17979000D01*
X16151000Y-17979000D01*
X16151000Y-17721000D01*
X16171000Y-17721000D01*
X16171000Y-17701000D01*
X16429000Y-17701000D01*
X16429000Y-17721000D01*
X16429000Y-17721000D01*
G37*
X16429000Y-17721000D02*
X16449000Y-17721000D01*
X16449000Y-17979000D01*
X16429000Y-17979000D01*
X16429000Y-17999000D01*
X16171000Y-17999000D01*
X16171000Y-17979000D01*
X16151000Y-17979000D01*
X16151000Y-17721000D01*
X16171000Y-17721000D01*
X16171000Y-17701000D01*
X16429000Y-17701000D01*
X16429000Y-17721000D01*
G36*
X2825000Y-12321000D02*
X2849000Y-12321000D01*
X2849000Y-12579000D01*
X2825000Y-12579000D01*
X2825000Y-12599000D01*
X2575000Y-12599000D01*
X2575000Y-12579000D01*
X2551000Y-12579000D01*
X2551000Y-12321000D01*
X2575000Y-12321000D01*
X2575000Y-12301000D01*
X2825000Y-12301000D01*
X2825000Y-12321000D01*
X2825000Y-12321000D01*
G37*
X2825000Y-12321000D02*
X2849000Y-12321000D01*
X2849000Y-12579000D01*
X2825000Y-12579000D01*
X2825000Y-12599000D01*
X2575000Y-12599000D01*
X2575000Y-12579000D01*
X2551000Y-12579000D01*
X2551000Y-12321000D01*
X2575000Y-12321000D01*
X2575000Y-12301000D01*
X2825000Y-12301000D01*
X2825000Y-12321000D01*
M02*
