G04 #@! TF.FileFunction,Copper,L2,Bot,Signal*
%FSLAX46Y46*%
G04 Gerber Fmt 4.6, Leading zero omitted, Abs format (unit mm)*
G04 Created by KiCad (PCBNEW 4.0.2-stable) date Sunday, 31 July 2016 'amt' 02:58:03*
%MOMM*%
G01*
G04 APERTURE LIST*
%ADD10C,0.100000*%
%ADD11O,1.000000X1.550000*%
%ADD12C,0.500000*%
%ADD13R,2.032000X1.727200*%
%ADD14O,2.032000X1.727200*%
%ADD15R,1.727200X2.032000*%
%ADD16O,1.727200X2.032000*%
%ADD17C,0.600000*%
%ADD18C,0.250000*%
%ADD19C,0.400000*%
G04 APERTURE END LIST*
D10*
D11*
X5100000Y-23100000D03*
X12900000Y-23100000D03*
D12*
X11000000Y-21200000D03*
X7000000Y-21200000D03*
D13*
X15450000Y-15350000D03*
D14*
X15450000Y-12810000D03*
X15450000Y-10270000D03*
D15*
X15350000Y-2700000D03*
D16*
X12810000Y-2700000D03*
X10270000Y-2700000D03*
X7730000Y-2700000D03*
X5190000Y-2700000D03*
X2650000Y-2700000D03*
D17*
X7100000Y-6500000D03*
X15550000Y-17000000D03*
X11100000Y-19800000D03*
X14000000Y-7700000D03*
X12500000Y-5800000D03*
X9950000Y-7650000D03*
D18*
X13650000Y-3540000D02*
X12810000Y-2700000D01*
X13650000Y-7350000D02*
X13650000Y-3540000D01*
X14000000Y-7700000D02*
X13650000Y-7350000D01*
D19*
X12500000Y-5800000D02*
X12500000Y-11150000D01*
X14160000Y-12810000D02*
X15450000Y-12810000D01*
X12500000Y-11150000D02*
X14160000Y-12810000D01*
X9880000Y-4850000D02*
X7730000Y-2700000D01*
X11550000Y-4850000D02*
X9880000Y-4850000D01*
X12500000Y-5800000D02*
X11550000Y-4850000D01*
D18*
X5190000Y-2700000D02*
X5190000Y-2890000D01*
X5190000Y-2890000D02*
X9950000Y-7650000D01*
G36*
X16599541Y-552583D02*
X17107806Y-892194D01*
X17447418Y-1400460D01*
X17575000Y-2041860D01*
X17575000Y-22958140D01*
X17447418Y-23599540D01*
X17107806Y-24107806D01*
X16599541Y-24447417D01*
X15958140Y-24575000D01*
X2041860Y-24575000D01*
X1400460Y-24447418D01*
X892194Y-24107806D01*
X552583Y-23599541D01*
X425000Y-22958140D01*
X425000Y-22802470D01*
X4225000Y-22802470D01*
X4225000Y-23397530D01*
X4291605Y-23732378D01*
X4481282Y-24016248D01*
X4765152Y-24205925D01*
X5100000Y-24272530D01*
X5434848Y-24205925D01*
X5718718Y-24016248D01*
X5908395Y-23732378D01*
X5975000Y-23397530D01*
X5975000Y-22802470D01*
X12025000Y-22802470D01*
X12025000Y-23397530D01*
X12091605Y-23732378D01*
X12281282Y-24016248D01*
X12565152Y-24205925D01*
X12900000Y-24272530D01*
X13234848Y-24205925D01*
X13518718Y-24016248D01*
X13708395Y-23732378D01*
X13775000Y-23397530D01*
X13775000Y-22802470D01*
X13708395Y-22467622D01*
X13518718Y-22183752D01*
X13234848Y-21994075D01*
X12900000Y-21927470D01*
X12565152Y-21994075D01*
X12281282Y-22183752D01*
X12091605Y-22467622D01*
X12025000Y-22802470D01*
X5975000Y-22802470D01*
X5908395Y-22467622D01*
X5718718Y-22183752D01*
X5434848Y-21994075D01*
X5100000Y-21927470D01*
X4765152Y-21994075D01*
X4481282Y-22183752D01*
X4291605Y-22467622D01*
X4225000Y-22802470D01*
X425000Y-22802470D01*
X425000Y-21323775D01*
X6374892Y-21323775D01*
X6469842Y-21553571D01*
X6645504Y-21729540D01*
X6875134Y-21824891D01*
X7123775Y-21825108D01*
X7353571Y-21730158D01*
X7529540Y-21554496D01*
X7624891Y-21324866D01*
X7624891Y-21323775D01*
X10374892Y-21323775D01*
X10469842Y-21553571D01*
X10645504Y-21729540D01*
X10875134Y-21824891D01*
X11123775Y-21825108D01*
X11353571Y-21730158D01*
X11529540Y-21554496D01*
X11624891Y-21324866D01*
X11625108Y-21076225D01*
X11530158Y-20846429D01*
X11354496Y-20670460D01*
X11124866Y-20575109D01*
X10876225Y-20574892D01*
X10646429Y-20669842D01*
X10470460Y-20845504D01*
X10375109Y-21075134D01*
X10374892Y-21323775D01*
X7624891Y-21323775D01*
X7625108Y-21076225D01*
X7530158Y-20846429D01*
X7354496Y-20670460D01*
X7124866Y-20575109D01*
X6876225Y-20574892D01*
X6646429Y-20669842D01*
X6470460Y-20845504D01*
X6375109Y-21075134D01*
X6374892Y-21323775D01*
X425000Y-21323775D01*
X425000Y-14486400D01*
X14051654Y-14486400D01*
X14051654Y-16213600D01*
X14077802Y-16352566D01*
X14159931Y-16480199D01*
X14285246Y-16565823D01*
X14434000Y-16595946D01*
X16466000Y-16595946D01*
X16604966Y-16569798D01*
X16732599Y-16487669D01*
X16818223Y-16362354D01*
X16848346Y-16213600D01*
X16848346Y-14486400D01*
X16822198Y-14347434D01*
X16740069Y-14219801D01*
X16614754Y-14134177D01*
X16466000Y-14104054D01*
X14434000Y-14104054D01*
X14295034Y-14130202D01*
X14167401Y-14212331D01*
X14081777Y-14337646D01*
X14051654Y-14486400D01*
X425000Y-14486400D01*
X425000Y-3063565D01*
X1167171Y-3063565D01*
X1360854Y-3614945D01*
X1750798Y-4050235D01*
X2277637Y-4303165D01*
X2289340Y-4304893D01*
X2521000Y-4184519D01*
X2521000Y-2829000D01*
X1310644Y-2829000D01*
X1167171Y-3063565D01*
X425000Y-3063565D01*
X425000Y-2336435D01*
X1167171Y-2336435D01*
X1310644Y-2571000D01*
X2521000Y-2571000D01*
X2521000Y-1215481D01*
X2779000Y-1215481D01*
X2779000Y-2571000D01*
X2799000Y-2571000D01*
X2799000Y-2829000D01*
X2779000Y-2829000D01*
X2779000Y-4184519D01*
X3010660Y-4304893D01*
X3022363Y-4303165D01*
X3549202Y-4050235D01*
X3939146Y-3614945D01*
X4040350Y-3326834D01*
X4045683Y-3353643D01*
X4314178Y-3755473D01*
X4716008Y-4023968D01*
X5190000Y-4118251D01*
X5624681Y-4031787D01*
X9274972Y-7682078D01*
X9274883Y-7783677D01*
X9377429Y-8031857D01*
X9567144Y-8221903D01*
X9815145Y-8324883D01*
X10083677Y-8325117D01*
X10331857Y-8222571D01*
X10521903Y-8032856D01*
X10624883Y-7784855D01*
X10625117Y-7516323D01*
X10522571Y-7268143D01*
X10332856Y-7078097D01*
X10084855Y-6975117D01*
X9982134Y-6975027D01*
X6338702Y-3331596D01*
X6428600Y-2879651D01*
X6428600Y-2520349D01*
X6491400Y-2520349D01*
X6491400Y-2879651D01*
X6585683Y-3353643D01*
X6854178Y-3755473D01*
X7256008Y-4023968D01*
X7730000Y-4118251D01*
X8203992Y-4023968D01*
X8226054Y-4009227D01*
X9473413Y-5256586D01*
X9659957Y-5381231D01*
X9880000Y-5425000D01*
X11311828Y-5425000D01*
X11827966Y-5941138D01*
X11925000Y-6175978D01*
X11925000Y-11150000D01*
X11968769Y-11370043D01*
X12093414Y-11556586D01*
X13753414Y-13216587D01*
X13854293Y-13283992D01*
X13939957Y-13341231D01*
X14160000Y-13385000D01*
X14193524Y-13385000D01*
X14394527Y-13685822D01*
X14796357Y-13954317D01*
X15270349Y-14048600D01*
X15629651Y-14048600D01*
X16103643Y-13954317D01*
X16505473Y-13685822D01*
X16773968Y-13283992D01*
X16868251Y-12810000D01*
X16773968Y-12336008D01*
X16505473Y-11934178D01*
X16103643Y-11665683D01*
X15629651Y-11571400D01*
X15270349Y-11571400D01*
X14796357Y-11665683D01*
X14394527Y-11934178D01*
X14275495Y-12112322D01*
X13075000Y-10911828D01*
X13075000Y-10270000D01*
X14031749Y-10270000D01*
X14126032Y-10743992D01*
X14394527Y-11145822D01*
X14796357Y-11414317D01*
X15270349Y-11508600D01*
X15629651Y-11508600D01*
X16103643Y-11414317D01*
X16505473Y-11145822D01*
X16773968Y-10743992D01*
X16868251Y-10270000D01*
X16773968Y-9796008D01*
X16505473Y-9394178D01*
X16103643Y-9125683D01*
X15629651Y-9031400D01*
X15270349Y-9031400D01*
X14796357Y-9125683D01*
X14394527Y-9394178D01*
X14126032Y-9796008D01*
X14031749Y-10270000D01*
X13075000Y-10270000D01*
X13075000Y-6175398D01*
X13150000Y-5994779D01*
X13150000Y-7350000D01*
X13188060Y-7541342D01*
X13296447Y-7703553D01*
X13324972Y-7732078D01*
X13324883Y-7833677D01*
X13427429Y-8081857D01*
X13617144Y-8271903D01*
X13865145Y-8374883D01*
X14133677Y-8375117D01*
X14381857Y-8272571D01*
X14571903Y-8082856D01*
X14674883Y-7834855D01*
X14675117Y-7566323D01*
X14572571Y-7318143D01*
X14382856Y-7128097D01*
X14150000Y-7031406D01*
X14150000Y-3885733D01*
X14212331Y-3982599D01*
X14337646Y-4068223D01*
X14486400Y-4098346D01*
X16213600Y-4098346D01*
X16352566Y-4072198D01*
X16480199Y-3990069D01*
X16565823Y-3864754D01*
X16595946Y-3716000D01*
X16595946Y-1684000D01*
X16569798Y-1545034D01*
X16487669Y-1417401D01*
X16362354Y-1331777D01*
X16213600Y-1301654D01*
X14486400Y-1301654D01*
X14347434Y-1327802D01*
X14219801Y-1409931D01*
X14134177Y-1535246D01*
X14104054Y-1684000D01*
X14104054Y-3336856D01*
X14003553Y-3186446D01*
X13990226Y-3173119D01*
X14048600Y-2879651D01*
X14048600Y-2520349D01*
X13954317Y-2046357D01*
X13685822Y-1644527D01*
X13283992Y-1376032D01*
X12810000Y-1281749D01*
X12336008Y-1376032D01*
X11934178Y-1644527D01*
X11665683Y-2046357D01*
X11571400Y-2520349D01*
X11571400Y-2879651D01*
X11665683Y-3353643D01*
X11934178Y-3755473D01*
X12336008Y-4023968D01*
X12810000Y-4118251D01*
X13150000Y-4050621D01*
X13150000Y-5605535D01*
X13072571Y-5418143D01*
X12882856Y-5228097D01*
X12640727Y-5127555D01*
X11956586Y-4443414D01*
X11770043Y-4318769D01*
X11550000Y-4275000D01*
X10118173Y-4275000D01*
X9884803Y-4041631D01*
X10270000Y-4118251D01*
X10743992Y-4023968D01*
X11145822Y-3755473D01*
X11414317Y-3353643D01*
X11508600Y-2879651D01*
X11508600Y-2520349D01*
X11414317Y-2046357D01*
X11145822Y-1644527D01*
X10743992Y-1376032D01*
X10270000Y-1281749D01*
X9796008Y-1376032D01*
X9394178Y-1644527D01*
X9125683Y-2046357D01*
X9031400Y-2520349D01*
X9031400Y-2879651D01*
X9108021Y-3264848D01*
X8927823Y-3084651D01*
X8968600Y-2879651D01*
X8968600Y-2520349D01*
X8874317Y-2046357D01*
X8605822Y-1644527D01*
X8203992Y-1376032D01*
X7730000Y-1281749D01*
X7256008Y-1376032D01*
X6854178Y-1644527D01*
X6585683Y-2046357D01*
X6491400Y-2520349D01*
X6428600Y-2520349D01*
X6334317Y-2046357D01*
X6065822Y-1644527D01*
X5663992Y-1376032D01*
X5190000Y-1281749D01*
X4716008Y-1376032D01*
X4314178Y-1644527D01*
X4045683Y-2046357D01*
X4040350Y-2073166D01*
X3939146Y-1785055D01*
X3549202Y-1349765D01*
X3022363Y-1096835D01*
X3010660Y-1095107D01*
X2779000Y-1215481D01*
X2521000Y-1215481D01*
X2289340Y-1095107D01*
X2277637Y-1096835D01*
X1750798Y-1349765D01*
X1360854Y-1785055D01*
X1167171Y-2336435D01*
X425000Y-2336435D01*
X425000Y-2041860D01*
X552583Y-1400459D01*
X892194Y-892194D01*
X1400460Y-552582D01*
X2041860Y-425000D01*
X15958140Y-425000D01*
X16599541Y-552583D01*
X16599541Y-552583D01*
G37*
X16599541Y-552583D02*
X17107806Y-892194D01*
X17447418Y-1400460D01*
X17575000Y-2041860D01*
X17575000Y-22958140D01*
X17447418Y-23599540D01*
X17107806Y-24107806D01*
X16599541Y-24447417D01*
X15958140Y-24575000D01*
X2041860Y-24575000D01*
X1400460Y-24447418D01*
X892194Y-24107806D01*
X552583Y-23599541D01*
X425000Y-22958140D01*
X425000Y-22802470D01*
X4225000Y-22802470D01*
X4225000Y-23397530D01*
X4291605Y-23732378D01*
X4481282Y-24016248D01*
X4765152Y-24205925D01*
X5100000Y-24272530D01*
X5434848Y-24205925D01*
X5718718Y-24016248D01*
X5908395Y-23732378D01*
X5975000Y-23397530D01*
X5975000Y-22802470D01*
X12025000Y-22802470D01*
X12025000Y-23397530D01*
X12091605Y-23732378D01*
X12281282Y-24016248D01*
X12565152Y-24205925D01*
X12900000Y-24272530D01*
X13234848Y-24205925D01*
X13518718Y-24016248D01*
X13708395Y-23732378D01*
X13775000Y-23397530D01*
X13775000Y-22802470D01*
X13708395Y-22467622D01*
X13518718Y-22183752D01*
X13234848Y-21994075D01*
X12900000Y-21927470D01*
X12565152Y-21994075D01*
X12281282Y-22183752D01*
X12091605Y-22467622D01*
X12025000Y-22802470D01*
X5975000Y-22802470D01*
X5908395Y-22467622D01*
X5718718Y-22183752D01*
X5434848Y-21994075D01*
X5100000Y-21927470D01*
X4765152Y-21994075D01*
X4481282Y-22183752D01*
X4291605Y-22467622D01*
X4225000Y-22802470D01*
X425000Y-22802470D01*
X425000Y-21323775D01*
X6374892Y-21323775D01*
X6469842Y-21553571D01*
X6645504Y-21729540D01*
X6875134Y-21824891D01*
X7123775Y-21825108D01*
X7353571Y-21730158D01*
X7529540Y-21554496D01*
X7624891Y-21324866D01*
X7624891Y-21323775D01*
X10374892Y-21323775D01*
X10469842Y-21553571D01*
X10645504Y-21729540D01*
X10875134Y-21824891D01*
X11123775Y-21825108D01*
X11353571Y-21730158D01*
X11529540Y-21554496D01*
X11624891Y-21324866D01*
X11625108Y-21076225D01*
X11530158Y-20846429D01*
X11354496Y-20670460D01*
X11124866Y-20575109D01*
X10876225Y-20574892D01*
X10646429Y-20669842D01*
X10470460Y-20845504D01*
X10375109Y-21075134D01*
X10374892Y-21323775D01*
X7624891Y-21323775D01*
X7625108Y-21076225D01*
X7530158Y-20846429D01*
X7354496Y-20670460D01*
X7124866Y-20575109D01*
X6876225Y-20574892D01*
X6646429Y-20669842D01*
X6470460Y-20845504D01*
X6375109Y-21075134D01*
X6374892Y-21323775D01*
X425000Y-21323775D01*
X425000Y-14486400D01*
X14051654Y-14486400D01*
X14051654Y-16213600D01*
X14077802Y-16352566D01*
X14159931Y-16480199D01*
X14285246Y-16565823D01*
X14434000Y-16595946D01*
X16466000Y-16595946D01*
X16604966Y-16569798D01*
X16732599Y-16487669D01*
X16818223Y-16362354D01*
X16848346Y-16213600D01*
X16848346Y-14486400D01*
X16822198Y-14347434D01*
X16740069Y-14219801D01*
X16614754Y-14134177D01*
X16466000Y-14104054D01*
X14434000Y-14104054D01*
X14295034Y-14130202D01*
X14167401Y-14212331D01*
X14081777Y-14337646D01*
X14051654Y-14486400D01*
X425000Y-14486400D01*
X425000Y-3063565D01*
X1167171Y-3063565D01*
X1360854Y-3614945D01*
X1750798Y-4050235D01*
X2277637Y-4303165D01*
X2289340Y-4304893D01*
X2521000Y-4184519D01*
X2521000Y-2829000D01*
X1310644Y-2829000D01*
X1167171Y-3063565D01*
X425000Y-3063565D01*
X425000Y-2336435D01*
X1167171Y-2336435D01*
X1310644Y-2571000D01*
X2521000Y-2571000D01*
X2521000Y-1215481D01*
X2779000Y-1215481D01*
X2779000Y-2571000D01*
X2799000Y-2571000D01*
X2799000Y-2829000D01*
X2779000Y-2829000D01*
X2779000Y-4184519D01*
X3010660Y-4304893D01*
X3022363Y-4303165D01*
X3549202Y-4050235D01*
X3939146Y-3614945D01*
X4040350Y-3326834D01*
X4045683Y-3353643D01*
X4314178Y-3755473D01*
X4716008Y-4023968D01*
X5190000Y-4118251D01*
X5624681Y-4031787D01*
X9274972Y-7682078D01*
X9274883Y-7783677D01*
X9377429Y-8031857D01*
X9567144Y-8221903D01*
X9815145Y-8324883D01*
X10083677Y-8325117D01*
X10331857Y-8222571D01*
X10521903Y-8032856D01*
X10624883Y-7784855D01*
X10625117Y-7516323D01*
X10522571Y-7268143D01*
X10332856Y-7078097D01*
X10084855Y-6975117D01*
X9982134Y-6975027D01*
X6338702Y-3331596D01*
X6428600Y-2879651D01*
X6428600Y-2520349D01*
X6491400Y-2520349D01*
X6491400Y-2879651D01*
X6585683Y-3353643D01*
X6854178Y-3755473D01*
X7256008Y-4023968D01*
X7730000Y-4118251D01*
X8203992Y-4023968D01*
X8226054Y-4009227D01*
X9473413Y-5256586D01*
X9659957Y-5381231D01*
X9880000Y-5425000D01*
X11311828Y-5425000D01*
X11827966Y-5941138D01*
X11925000Y-6175978D01*
X11925000Y-11150000D01*
X11968769Y-11370043D01*
X12093414Y-11556586D01*
X13753414Y-13216587D01*
X13854293Y-13283992D01*
X13939957Y-13341231D01*
X14160000Y-13385000D01*
X14193524Y-13385000D01*
X14394527Y-13685822D01*
X14796357Y-13954317D01*
X15270349Y-14048600D01*
X15629651Y-14048600D01*
X16103643Y-13954317D01*
X16505473Y-13685822D01*
X16773968Y-13283992D01*
X16868251Y-12810000D01*
X16773968Y-12336008D01*
X16505473Y-11934178D01*
X16103643Y-11665683D01*
X15629651Y-11571400D01*
X15270349Y-11571400D01*
X14796357Y-11665683D01*
X14394527Y-11934178D01*
X14275495Y-12112322D01*
X13075000Y-10911828D01*
X13075000Y-10270000D01*
X14031749Y-10270000D01*
X14126032Y-10743992D01*
X14394527Y-11145822D01*
X14796357Y-11414317D01*
X15270349Y-11508600D01*
X15629651Y-11508600D01*
X16103643Y-11414317D01*
X16505473Y-11145822D01*
X16773968Y-10743992D01*
X16868251Y-10270000D01*
X16773968Y-9796008D01*
X16505473Y-9394178D01*
X16103643Y-9125683D01*
X15629651Y-9031400D01*
X15270349Y-9031400D01*
X14796357Y-9125683D01*
X14394527Y-9394178D01*
X14126032Y-9796008D01*
X14031749Y-10270000D01*
X13075000Y-10270000D01*
X13075000Y-6175398D01*
X13150000Y-5994779D01*
X13150000Y-7350000D01*
X13188060Y-7541342D01*
X13296447Y-7703553D01*
X13324972Y-7732078D01*
X13324883Y-7833677D01*
X13427429Y-8081857D01*
X13617144Y-8271903D01*
X13865145Y-8374883D01*
X14133677Y-8375117D01*
X14381857Y-8272571D01*
X14571903Y-8082856D01*
X14674883Y-7834855D01*
X14675117Y-7566323D01*
X14572571Y-7318143D01*
X14382856Y-7128097D01*
X14150000Y-7031406D01*
X14150000Y-3885733D01*
X14212331Y-3982599D01*
X14337646Y-4068223D01*
X14486400Y-4098346D01*
X16213600Y-4098346D01*
X16352566Y-4072198D01*
X16480199Y-3990069D01*
X16565823Y-3864754D01*
X16595946Y-3716000D01*
X16595946Y-1684000D01*
X16569798Y-1545034D01*
X16487669Y-1417401D01*
X16362354Y-1331777D01*
X16213600Y-1301654D01*
X14486400Y-1301654D01*
X14347434Y-1327802D01*
X14219801Y-1409931D01*
X14134177Y-1535246D01*
X14104054Y-1684000D01*
X14104054Y-3336856D01*
X14003553Y-3186446D01*
X13990226Y-3173119D01*
X14048600Y-2879651D01*
X14048600Y-2520349D01*
X13954317Y-2046357D01*
X13685822Y-1644527D01*
X13283992Y-1376032D01*
X12810000Y-1281749D01*
X12336008Y-1376032D01*
X11934178Y-1644527D01*
X11665683Y-2046357D01*
X11571400Y-2520349D01*
X11571400Y-2879651D01*
X11665683Y-3353643D01*
X11934178Y-3755473D01*
X12336008Y-4023968D01*
X12810000Y-4118251D01*
X13150000Y-4050621D01*
X13150000Y-5605535D01*
X13072571Y-5418143D01*
X12882856Y-5228097D01*
X12640727Y-5127555D01*
X11956586Y-4443414D01*
X11770043Y-4318769D01*
X11550000Y-4275000D01*
X10118173Y-4275000D01*
X9884803Y-4041631D01*
X10270000Y-4118251D01*
X10743992Y-4023968D01*
X11145822Y-3755473D01*
X11414317Y-3353643D01*
X11508600Y-2879651D01*
X11508600Y-2520349D01*
X11414317Y-2046357D01*
X11145822Y-1644527D01*
X10743992Y-1376032D01*
X10270000Y-1281749D01*
X9796008Y-1376032D01*
X9394178Y-1644527D01*
X9125683Y-2046357D01*
X9031400Y-2520349D01*
X9031400Y-2879651D01*
X9108021Y-3264848D01*
X8927823Y-3084651D01*
X8968600Y-2879651D01*
X8968600Y-2520349D01*
X8874317Y-2046357D01*
X8605822Y-1644527D01*
X8203992Y-1376032D01*
X7730000Y-1281749D01*
X7256008Y-1376032D01*
X6854178Y-1644527D01*
X6585683Y-2046357D01*
X6491400Y-2520349D01*
X6428600Y-2520349D01*
X6334317Y-2046357D01*
X6065822Y-1644527D01*
X5663992Y-1376032D01*
X5190000Y-1281749D01*
X4716008Y-1376032D01*
X4314178Y-1644527D01*
X4045683Y-2046357D01*
X4040350Y-2073166D01*
X3939146Y-1785055D01*
X3549202Y-1349765D01*
X3022363Y-1096835D01*
X3010660Y-1095107D01*
X2779000Y-1215481D01*
X2521000Y-1215481D01*
X2289340Y-1095107D01*
X2277637Y-1096835D01*
X1750798Y-1349765D01*
X1360854Y-1785055D01*
X1167171Y-2336435D01*
X425000Y-2336435D01*
X425000Y-2041860D01*
X552583Y-1400459D01*
X892194Y-892194D01*
X1400460Y-552582D01*
X2041860Y-425000D01*
X15958140Y-425000D01*
X16599541Y-552583D01*
M02*
