G04 #@! TF.FileFunction,Soldermask,Top*
%FSLAX46Y46*%
G04 Gerber Fmt 4.6, Leading zero omitted, Abs format (unit mm)*
G04 Created by KiCad (PCBNEW 4.0.2-stable) date Monday, 13 June 2016 'amt' 00:39:14*
%MOMM*%
G01*
G04 APERTURE LIST*
%ADD10C,0.100000*%
%ADD11R,0.400000X1.350000*%
%ADD12O,1.000000X1.550000*%
%ADD13R,0.910000X1.220000*%
%ADD14R,2.032000X1.727200*%
%ADD15O,2.032000X1.727200*%
%ADD16R,1.727200X2.032000*%
%ADD17O,1.727200X2.032000*%
%ADD18R,0.500000X0.900000*%
%ADD19R,0.900000X0.500000*%
%ADD20R,1.143000X0.508000*%
%ADD21R,1.600000X0.500000*%
%ADD22R,0.797560X0.797560*%
%ADD23R,0.750000X0.800000*%
%ADD24R,0.800000X0.750000*%
G04 APERTURE END LIST*
D10*
D11*
X11599100Y-25237460D03*
X12249100Y-25237460D03*
X12899100Y-25237460D03*
X13549100Y-25237460D03*
X14199100Y-25237460D03*
D12*
X9000000Y-28300000D03*
X16800000Y-28300000D03*
D13*
X16935000Y-22600000D03*
X13665000Y-22600000D03*
D14*
X2800000Y-21500000D03*
D15*
X2800000Y-24040000D03*
X2800000Y-26580000D03*
D16*
X15530000Y-2810000D03*
D17*
X12990000Y-2810000D03*
X10450000Y-2810000D03*
X7910000Y-2810000D03*
X5370000Y-2810000D03*
X2830000Y-2810000D03*
D18*
X10050000Y-20600000D03*
X8550000Y-20600000D03*
X3050000Y-6700000D03*
X1550000Y-6700000D03*
D19*
X6700000Y-20850000D03*
X6700000Y-19350000D03*
D18*
X15450000Y-6700000D03*
X16950000Y-6700000D03*
D20*
X12228000Y-7001000D03*
X12228000Y-9541000D03*
X12228000Y-10811000D03*
X12228000Y-12081000D03*
X12228000Y-13351000D03*
X12228000Y-14621000D03*
X12228000Y-15891000D03*
X5878000Y-15891000D03*
X5878000Y-14621000D03*
X5878000Y-13351000D03*
X5878000Y-12081000D03*
X5878000Y-10811000D03*
X5878000Y-9541000D03*
X5878000Y-8271000D03*
X5878000Y-7001000D03*
X12228000Y-8271000D03*
D14*
X15800000Y-19500000D03*
D15*
X15800000Y-16960000D03*
X15800000Y-14420000D03*
D21*
X2000000Y-16800000D03*
X2000000Y-15600000D03*
X2000000Y-14400000D03*
D22*
X10049300Y-22700000D03*
X8550700Y-22700000D03*
X1650700Y-8700000D03*
X3149300Y-8700000D03*
X16849300Y-8400000D03*
X15350700Y-8400000D03*
D23*
X6700000Y-27650000D03*
X6700000Y-26150000D03*
X6700000Y-22650000D03*
X6700000Y-24150000D03*
D24*
X15350000Y-11800000D03*
X16850000Y-11800000D03*
X15350000Y-10100000D03*
X16850000Y-10100000D03*
X3250000Y-12700000D03*
X1750000Y-12700000D03*
X3250000Y-18500000D03*
X1750000Y-18500000D03*
X3199000Y-10684000D03*
X1699000Y-10684000D03*
M02*
