G04 #@! TF.FileFunction,Legend,Top*
%FSLAX46Y46*%
G04 Gerber Fmt 4.6, Leading zero omitted, Abs format (unit mm)*
G04 Created by KiCad (PCBNEW 4.0.2-stable) date Monday, 13 June 2016 'amt' 00:39:14*
%MOMM*%
G01*
G04 APERTURE LIST*
%ADD10C,0.100000*%
%ADD11C,0.150000*%
%ADD12C,0.060000*%
G04 APERTURE END LIST*
D10*
D11*
X5257143Y-27828571D02*
X5257143Y-27219047D01*
X5561905Y-27523809D02*
X4952381Y-27523809D01*
X4761905Y-26457142D02*
X4761905Y-26838095D01*
X5142857Y-26876190D01*
X5104762Y-26838095D01*
X5066667Y-26761904D01*
X5066667Y-26571428D01*
X5104762Y-26495238D01*
X5142857Y-26457142D01*
X5219048Y-26419047D01*
X5409524Y-26419047D01*
X5485714Y-26457142D01*
X5523810Y-26495238D01*
X5561905Y-26571428D01*
X5561905Y-26761904D01*
X5523810Y-26838095D01*
X5485714Y-26876190D01*
X4761905Y-26190476D02*
X5561905Y-25923809D01*
X4761905Y-25657142D01*
X4931905Y-5508714D02*
X4893810Y-5546810D01*
X4779524Y-5584905D01*
X4703334Y-5584905D01*
X4589048Y-5546810D01*
X4512857Y-5470619D01*
X4474762Y-5394429D01*
X4436667Y-5242048D01*
X4436667Y-5127762D01*
X4474762Y-4975381D01*
X4512857Y-4899190D01*
X4589048Y-4823000D01*
X4703334Y-4784905D01*
X4779524Y-4784905D01*
X4893810Y-4823000D01*
X4931905Y-4861095D01*
X5160476Y-4784905D02*
X5617619Y-4784905D01*
X5389048Y-5584905D02*
X5389048Y-4784905D01*
X5846191Y-5546810D02*
X5960477Y-5584905D01*
X6150953Y-5584905D01*
X6227143Y-5546810D01*
X6265239Y-5508714D01*
X6303334Y-5432524D01*
X6303334Y-5356333D01*
X6265239Y-5280143D01*
X6227143Y-5242048D01*
X6150953Y-5203952D01*
X5998572Y-5165857D01*
X5922381Y-5127762D01*
X5884286Y-5089667D01*
X5846191Y-5013476D01*
X5846191Y-4937286D01*
X5884286Y-4861095D01*
X5922381Y-4823000D01*
X5998572Y-4784905D01*
X6189048Y-4784905D01*
X6303334Y-4823000D01*
X13657143Y-20228571D02*
X13657143Y-19619047D01*
X13961905Y-19923809D02*
X13352381Y-19923809D01*
X13161905Y-18857142D02*
X13161905Y-19238095D01*
X13542857Y-19276190D01*
X13504762Y-19238095D01*
X13466667Y-19161904D01*
X13466667Y-18971428D01*
X13504762Y-18895238D01*
X13542857Y-18857142D01*
X13619048Y-18819047D01*
X13809524Y-18819047D01*
X13885714Y-18857142D01*
X13923810Y-18895238D01*
X13961905Y-18971428D01*
X13961905Y-19161904D01*
X13923810Y-19238095D01*
X13885714Y-19276190D01*
X13161905Y-18590476D02*
X13961905Y-18323809D01*
X13161905Y-18057142D01*
X13161905Y-15480952D02*
X13161905Y-14985714D01*
X13466667Y-15252381D01*
X13466667Y-15138095D01*
X13504762Y-15061905D01*
X13542857Y-15023809D01*
X13619048Y-14985714D01*
X13809524Y-14985714D01*
X13885714Y-15023809D01*
X13923810Y-15061905D01*
X13961905Y-15138095D01*
X13961905Y-15366667D01*
X13923810Y-15442857D01*
X13885714Y-15480952D01*
X13885714Y-14642857D02*
X13923810Y-14604762D01*
X13961905Y-14642857D01*
X13923810Y-14680952D01*
X13885714Y-14642857D01*
X13961905Y-14642857D01*
X13161905Y-14338095D02*
X13161905Y-13842857D01*
X13466667Y-14109524D01*
X13466667Y-13995238D01*
X13504762Y-13919048D01*
X13542857Y-13880952D01*
X13619048Y-13842857D01*
X13809524Y-13842857D01*
X13885714Y-13880952D01*
X13923810Y-13919048D01*
X13961905Y-13995238D01*
X13961905Y-14223810D01*
X13923810Y-14300000D01*
X13885714Y-14338095D01*
X13161905Y-13614286D02*
X13961905Y-13347619D01*
X13161905Y-13080952D01*
X4800000Y-24609523D02*
X4761905Y-24685714D01*
X4761905Y-24799999D01*
X4800000Y-24914285D01*
X4876190Y-24990476D01*
X4952381Y-25028571D01*
X5104762Y-25066666D01*
X5219048Y-25066666D01*
X5371429Y-25028571D01*
X5447619Y-24990476D01*
X5523810Y-24914285D01*
X5561905Y-24799999D01*
X5561905Y-24723809D01*
X5523810Y-24609523D01*
X5485714Y-24571428D01*
X5219048Y-24571428D01*
X5219048Y-24723809D01*
X5561905Y-24228571D02*
X4761905Y-24228571D01*
X5561905Y-23771428D01*
X4761905Y-23771428D01*
X5561905Y-23390476D02*
X4761905Y-23390476D01*
X4761905Y-23200000D01*
X4800000Y-23085714D01*
X4876190Y-23009523D01*
X4952381Y-22971428D01*
X5104762Y-22933333D01*
X5219048Y-22933333D01*
X5371429Y-22971428D01*
X5447619Y-23009523D01*
X5523810Y-23085714D01*
X5561905Y-23200000D01*
X5561905Y-23390476D01*
X4761905Y-22280952D02*
X4761905Y-21785714D01*
X5066667Y-22052381D01*
X5066667Y-21938095D01*
X5104762Y-21861905D01*
X5142857Y-21823809D01*
X5219048Y-21785714D01*
X5409524Y-21785714D01*
X5485714Y-21823809D01*
X5523810Y-21861905D01*
X5561905Y-21938095D01*
X5561905Y-22166667D01*
X5523810Y-22242857D01*
X5485714Y-22280952D01*
X5485714Y-21442857D02*
X5523810Y-21404762D01*
X5561905Y-21442857D01*
X5523810Y-21480952D01*
X5485714Y-21442857D01*
X5561905Y-21442857D01*
X4761905Y-21138095D02*
X4761905Y-20642857D01*
X5066667Y-20909524D01*
X5066667Y-20795238D01*
X5104762Y-20719048D01*
X5142857Y-20680952D01*
X5219048Y-20642857D01*
X5409524Y-20642857D01*
X5485714Y-20680952D01*
X5523810Y-20719048D01*
X5561905Y-20795238D01*
X5561905Y-21023810D01*
X5523810Y-21100000D01*
X5485714Y-21138095D01*
X4761905Y-20414286D02*
X5561905Y-20147619D01*
X4761905Y-19880952D01*
X14615714Y-5584905D02*
X14615714Y-4784905D01*
X14806190Y-4784905D01*
X14920476Y-4823000D01*
X14996667Y-4899190D01*
X15034762Y-4975381D01*
X15072857Y-5127762D01*
X15072857Y-5242048D01*
X15034762Y-5394429D01*
X14996667Y-5470619D01*
X14920476Y-5546810D01*
X14806190Y-5584905D01*
X14615714Y-5584905D01*
X15301428Y-4784905D02*
X15758571Y-4784905D01*
X15530000Y-5584905D02*
X15530000Y-4784905D01*
X16482381Y-5584905D02*
X16215714Y-5203952D01*
X16025238Y-5584905D02*
X16025238Y-4784905D01*
X16330000Y-4784905D01*
X16406191Y-4823000D01*
X16444286Y-4861095D01*
X16482381Y-4937286D01*
X16482381Y-5051571D01*
X16444286Y-5127762D01*
X16406191Y-5165857D01*
X16330000Y-5203952D01*
X16025238Y-5203952D01*
X12583667Y-5584905D02*
X12317000Y-5203952D01*
X12126524Y-5584905D02*
X12126524Y-4784905D01*
X12431286Y-4784905D01*
X12507477Y-4823000D01*
X12545572Y-4861095D01*
X12583667Y-4937286D01*
X12583667Y-5051571D01*
X12545572Y-5127762D01*
X12507477Y-5165857D01*
X12431286Y-5203952D01*
X12126524Y-5203952D01*
X12850334Y-4784905D02*
X13383667Y-5584905D01*
X13383667Y-4784905D02*
X12850334Y-5584905D01*
X13688429Y-5584905D02*
X13688429Y-4784905D01*
X13878905Y-4784905D01*
X13993191Y-4823000D01*
X14069382Y-4899190D01*
X14107477Y-4975381D01*
X14145572Y-5127762D01*
X14145572Y-5242048D01*
X14107477Y-5394429D01*
X14069382Y-5470619D01*
X13993191Y-5546810D01*
X13878905Y-5584905D01*
X13688429Y-5584905D01*
X9440476Y-4784905D02*
X9897619Y-4784905D01*
X9669048Y-5584905D02*
X9669048Y-4784905D01*
X10088096Y-4784905D02*
X10621429Y-5584905D01*
X10621429Y-4784905D02*
X10088096Y-5584905D01*
X10926191Y-5584905D02*
X10926191Y-4784905D01*
X11116667Y-4784905D01*
X11230953Y-4823000D01*
X11307144Y-4899190D01*
X11345239Y-4975381D01*
X11383334Y-5127762D01*
X11383334Y-5242048D01*
X11345239Y-5394429D01*
X11307144Y-5470619D01*
X11230953Y-5546810D01*
X11116667Y-5584905D01*
X10926191Y-5584905D01*
X6716333Y-4784905D02*
X6983000Y-5584905D01*
X7249667Y-4784905D01*
X7973476Y-5508714D02*
X7935381Y-5546810D01*
X7821095Y-5584905D01*
X7744905Y-5584905D01*
X7630619Y-5546810D01*
X7554428Y-5470619D01*
X7516333Y-5394429D01*
X7478238Y-5242048D01*
X7478238Y-5127762D01*
X7516333Y-4975381D01*
X7554428Y-4899190D01*
X7630619Y-4823000D01*
X7744905Y-4784905D01*
X7821095Y-4784905D01*
X7935381Y-4823000D01*
X7973476Y-4861095D01*
X8773476Y-5508714D02*
X8735381Y-5546810D01*
X8621095Y-5584905D01*
X8544905Y-5584905D01*
X8430619Y-5546810D01*
X8354428Y-5470619D01*
X8316333Y-5394429D01*
X8278238Y-5242048D01*
X8278238Y-5127762D01*
X8316333Y-4975381D01*
X8354428Y-4899190D01*
X8430619Y-4823000D01*
X8544905Y-4784905D01*
X8621095Y-4784905D01*
X8735381Y-4823000D01*
X8773476Y-4861095D01*
X2220477Y-4823000D02*
X2144286Y-4784905D01*
X2030001Y-4784905D01*
X1915715Y-4823000D01*
X1839524Y-4899190D01*
X1801429Y-4975381D01*
X1763334Y-5127762D01*
X1763334Y-5242048D01*
X1801429Y-5394429D01*
X1839524Y-5470619D01*
X1915715Y-5546810D01*
X2030001Y-5584905D01*
X2106191Y-5584905D01*
X2220477Y-5546810D01*
X2258572Y-5508714D01*
X2258572Y-5242048D01*
X2106191Y-5242048D01*
X2601429Y-5584905D02*
X2601429Y-4784905D01*
X3058572Y-5584905D01*
X3058572Y-4784905D01*
X3439524Y-5584905D02*
X3439524Y-4784905D01*
X3630000Y-4784905D01*
X3744286Y-4823000D01*
X3820477Y-4899190D01*
X3858572Y-4975381D01*
X3896667Y-5127762D01*
X3896667Y-5242048D01*
X3858572Y-5394429D01*
X3820477Y-5470619D01*
X3744286Y-5546810D01*
X3630000Y-5584905D01*
X3439524Y-5584905D01*
X14982500Y-22600000D02*
X14601500Y-22600000D01*
X15998500Y-22600000D02*
X15617500Y-22600000D01*
X15617500Y-22600000D02*
X14982500Y-22981000D01*
X14982500Y-22981000D02*
X14982500Y-22219000D01*
X14982500Y-22219000D02*
X15617500Y-22600000D01*
X15617500Y-23108000D02*
X15617500Y-22092000D01*
X17300000Y-21700000D02*
X13760000Y-21700000D01*
X17300000Y-23500000D02*
X13760000Y-23500000D01*
X1530000Y-22770000D02*
X1530000Y-27850000D01*
X1530000Y-27850000D02*
X4070000Y-27850000D01*
X4070000Y-27850000D02*
X4070000Y-22770000D01*
X4350000Y-19950000D02*
X4350000Y-21500000D01*
X4070000Y-22770000D02*
X1530000Y-22770000D01*
X1250000Y-21500000D02*
X1250000Y-19950000D01*
X1250000Y-19950000D02*
X4350000Y-19950000D01*
X14260000Y-4080000D02*
X1560000Y-4080000D01*
X1560000Y-4080000D02*
X1560000Y-1540000D01*
X1560000Y-1540000D02*
X14260000Y-1540000D01*
X17080000Y-4360000D02*
X15530000Y-4360000D01*
X14260000Y-4080000D02*
X14260000Y-1540000D01*
X15530000Y-1260000D02*
X17080000Y-1260000D01*
X17080000Y-1260000D02*
X17080000Y-4360000D01*
X8800000Y-19925000D02*
X9800000Y-19925000D01*
X9800000Y-21275000D02*
X8800000Y-21275000D01*
X1800000Y-6025000D02*
X2800000Y-6025000D01*
X2800000Y-7375000D02*
X1800000Y-7375000D01*
X7375000Y-19600000D02*
X7375000Y-20600000D01*
X6025000Y-20600000D02*
X6025000Y-19600000D01*
X16700000Y-7375000D02*
X15700000Y-7375000D01*
X15700000Y-6025000D02*
X16700000Y-6025000D01*
X9815000Y-5858000D02*
X9815000Y-6620000D01*
X9815000Y-6620000D02*
X8291000Y-6620000D01*
X8291000Y-6620000D02*
X8291000Y-5858000D01*
X11339000Y-17034000D02*
X6767000Y-17034000D01*
X6767000Y-17034000D02*
X6767000Y-5858000D01*
X6767000Y-5858000D02*
X11339000Y-5858000D01*
X11339000Y-5858000D02*
X11339000Y-17034000D01*
X17070000Y-18230000D02*
X17070000Y-13150000D01*
X17070000Y-13150000D02*
X14530000Y-13150000D01*
X14530000Y-13150000D02*
X14530000Y-18230000D01*
X14250000Y-21050000D02*
X14250000Y-19500000D01*
X14530000Y-18230000D02*
X17070000Y-18230000D01*
X17350000Y-19500000D02*
X17350000Y-21050000D01*
X17350000Y-21050000D02*
X14250000Y-21050000D01*
D10*
X1350000Y-14100000D02*
X1350000Y-14000000D01*
X2650000Y-14100000D02*
X2650000Y-14000000D01*
X1350000Y-17100000D02*
X1350000Y-17200000D01*
X2650000Y-17100000D02*
X2650000Y-17200000D01*
X2650000Y-16500000D02*
X2650000Y-15900000D01*
X1350000Y-16500000D02*
X1350000Y-15900000D01*
X1350000Y-15300000D02*
X1350000Y-14700000D01*
X2650000Y-15300000D02*
X2650000Y-14700000D01*
D12*
X2400000Y-13880000D02*
X1600000Y-13880000D01*
D10*
X2650000Y-14000000D02*
X1350000Y-14000000D01*
X2650000Y-17200000D02*
X1350000Y-17200000D01*
D11*
X8200000Y-23250000D02*
X10100000Y-23250000D01*
X8200000Y-22150000D02*
X10100000Y-22150000D01*
X9100000Y-22700000D02*
X9550000Y-22700000D01*
X9050000Y-22450000D02*
X9050000Y-22950000D01*
X9050000Y-22700000D02*
X9300000Y-22450000D01*
X9300000Y-22450000D02*
X9300000Y-22950000D01*
X9300000Y-22950000D02*
X9050000Y-22700000D01*
X3500000Y-8150000D02*
X1600000Y-8150000D01*
X3500000Y-9250000D02*
X1600000Y-9250000D01*
X2600000Y-8700000D02*
X2150000Y-8700000D01*
X2650000Y-8950000D02*
X2650000Y-8450000D01*
X2650000Y-8700000D02*
X2400000Y-8950000D01*
X2400000Y-8950000D02*
X2400000Y-8450000D01*
X2400000Y-8450000D02*
X2650000Y-8700000D01*
X15000000Y-8950000D02*
X16900000Y-8950000D01*
X15000000Y-7850000D02*
X16900000Y-7850000D01*
X15900000Y-8400000D02*
X16350000Y-8400000D01*
X15850000Y-8150000D02*
X15850000Y-8650000D01*
X15850000Y-8400000D02*
X16100000Y-8150000D01*
X16100000Y-8150000D02*
X16100000Y-8650000D01*
X16100000Y-8650000D02*
X15850000Y-8400000D01*
X6100000Y-27250000D02*
X6100000Y-26550000D01*
X7300000Y-26550000D02*
X7300000Y-27250000D01*
X7300000Y-23050000D02*
X7300000Y-23750000D01*
X6100000Y-23750000D02*
X6100000Y-23050000D01*
X15750000Y-11200000D02*
X16450000Y-11200000D01*
X16450000Y-12400000D02*
X15750000Y-12400000D01*
X15750000Y-9500000D02*
X16450000Y-9500000D01*
X16450000Y-10700000D02*
X15750000Y-10700000D01*
X2850000Y-13300000D02*
X2150000Y-13300000D01*
X2150000Y-12100000D02*
X2850000Y-12100000D01*
X2850000Y-19100000D02*
X2150000Y-19100000D01*
X2150000Y-17900000D02*
X2850000Y-17900000D01*
X2799000Y-11284000D02*
X2099000Y-11284000D01*
X2099000Y-10084000D02*
X2799000Y-10084000D01*
X12309524Y-27161905D02*
X12309524Y-26361905D01*
X12614286Y-26361905D01*
X12690477Y-26400000D01*
X12728572Y-26438095D01*
X12766667Y-26514286D01*
X12766667Y-26628571D01*
X12728572Y-26704762D01*
X12690477Y-26742857D01*
X12614286Y-26780952D01*
X12309524Y-26780952D01*
X13071429Y-26438095D02*
X13109524Y-26400000D01*
X13185715Y-26361905D01*
X13376191Y-26361905D01*
X13452381Y-26400000D01*
X13490477Y-26438095D01*
X13528572Y-26514286D01*
X13528572Y-26590476D01*
X13490477Y-26704762D01*
X13033334Y-27161905D01*
X13528572Y-27161905D01*
X12961905Y-22990476D02*
X12161905Y-22990476D01*
X12161905Y-22800000D01*
X12200000Y-22685714D01*
X12276190Y-22609523D01*
X12352381Y-22571428D01*
X12504762Y-22533333D01*
X12619048Y-22533333D01*
X12771429Y-22571428D01*
X12847619Y-22609523D01*
X12923810Y-22685714D01*
X12961905Y-22800000D01*
X12961905Y-22990476D01*
X12428571Y-21847619D02*
X12961905Y-21847619D01*
X12123810Y-22038095D02*
X12695238Y-22228571D01*
X12695238Y-21733333D01*
X8466667Y-19561905D02*
X8200000Y-19180952D01*
X8009524Y-19561905D02*
X8009524Y-18761905D01*
X8314286Y-18761905D01*
X8390477Y-18800000D01*
X8428572Y-18838095D01*
X8466667Y-18914286D01*
X8466667Y-19028571D01*
X8428572Y-19104762D01*
X8390477Y-19142857D01*
X8314286Y-19180952D01*
X8009524Y-19180952D01*
X9228572Y-19561905D02*
X8771429Y-19561905D01*
X9000000Y-19561905D02*
X9000000Y-18761905D01*
X8923810Y-18876190D01*
X8847619Y-18952381D01*
X8771429Y-18990476D01*
X4861905Y-6833333D02*
X4480952Y-7100000D01*
X4861905Y-7290476D02*
X4061905Y-7290476D01*
X4061905Y-6985714D01*
X4100000Y-6909523D01*
X4138095Y-6871428D01*
X4214286Y-6833333D01*
X4328571Y-6833333D01*
X4404762Y-6871428D01*
X4442857Y-6909523D01*
X4480952Y-6985714D01*
X4480952Y-7290476D01*
X4138095Y-6528571D02*
X4100000Y-6490476D01*
X4061905Y-6414285D01*
X4061905Y-6223809D01*
X4100000Y-6147619D01*
X4138095Y-6109523D01*
X4214286Y-6071428D01*
X4290476Y-6071428D01*
X4404762Y-6109523D01*
X4861905Y-6566666D01*
X4861905Y-6071428D01*
X6466667Y-18561905D02*
X6200000Y-18180952D01*
X6009524Y-18561905D02*
X6009524Y-17761905D01*
X6314286Y-17761905D01*
X6390477Y-17800000D01*
X6428572Y-17838095D01*
X6466667Y-17914286D01*
X6466667Y-18028571D01*
X6428572Y-18104762D01*
X6390477Y-18142857D01*
X6314286Y-18180952D01*
X6009524Y-18180952D01*
X6733334Y-17761905D02*
X7228572Y-17761905D01*
X6961905Y-18066667D01*
X7076191Y-18066667D01*
X7152381Y-18104762D01*
X7190477Y-18142857D01*
X7228572Y-18219048D01*
X7228572Y-18409524D01*
X7190477Y-18485714D01*
X7152381Y-18523810D01*
X7076191Y-18561905D01*
X6847619Y-18561905D01*
X6771429Y-18523810D01*
X6733334Y-18485714D01*
X14461905Y-6833333D02*
X14080952Y-7100000D01*
X14461905Y-7290476D02*
X13661905Y-7290476D01*
X13661905Y-6985714D01*
X13700000Y-6909523D01*
X13738095Y-6871428D01*
X13814286Y-6833333D01*
X13928571Y-6833333D01*
X14004762Y-6871428D01*
X14042857Y-6909523D01*
X14080952Y-6985714D01*
X14080952Y-7290476D01*
X13928571Y-6147619D02*
X14461905Y-6147619D01*
X13623810Y-6338095D02*
X14195238Y-6528571D01*
X14195238Y-6033333D01*
X9884905Y-12182524D02*
X10532524Y-12182524D01*
X10608714Y-12144429D01*
X10646810Y-12106333D01*
X10684905Y-12030143D01*
X10684905Y-11877762D01*
X10646810Y-11801571D01*
X10608714Y-11763476D01*
X10532524Y-11725381D01*
X9884905Y-11725381D01*
X10684905Y-10925381D02*
X10684905Y-11382524D01*
X10684905Y-11153953D02*
X9884905Y-11153953D01*
X9999190Y-11230143D01*
X10075381Y-11306334D01*
X10113476Y-11382524D01*
X3257381Y-13891905D02*
X3790714Y-14691905D01*
X3790714Y-13891905D02*
X3257381Y-14691905D01*
X4514524Y-14691905D02*
X4057381Y-14691905D01*
X4285952Y-14691905D02*
X4285952Y-13891905D01*
X4209762Y-14006190D01*
X4133571Y-14082381D01*
X4057381Y-14120476D01*
X9609524Y-24361905D02*
X9609524Y-23561905D01*
X9800000Y-23561905D01*
X9914286Y-23600000D01*
X9990477Y-23676190D01*
X10028572Y-23752381D01*
X10066667Y-23904762D01*
X10066667Y-24019048D01*
X10028572Y-24171429D01*
X9990477Y-24247619D01*
X9914286Y-24323810D01*
X9800000Y-24361905D01*
X9609524Y-24361905D01*
X10828572Y-24361905D02*
X10371429Y-24361905D01*
X10600000Y-24361905D02*
X10600000Y-23561905D01*
X10523810Y-23676190D01*
X10447619Y-23752381D01*
X10371429Y-23790476D01*
X4861905Y-9290476D02*
X4061905Y-9290476D01*
X4061905Y-9100000D01*
X4100000Y-8985714D01*
X4176190Y-8909523D01*
X4252381Y-8871428D01*
X4404762Y-8833333D01*
X4519048Y-8833333D01*
X4671429Y-8871428D01*
X4747619Y-8909523D01*
X4823810Y-8985714D01*
X4861905Y-9100000D01*
X4861905Y-9290476D01*
X4138095Y-8528571D02*
X4100000Y-8490476D01*
X4061905Y-8414285D01*
X4061905Y-8223809D01*
X4100000Y-8147619D01*
X4138095Y-8109523D01*
X4214286Y-8071428D01*
X4290476Y-8071428D01*
X4404762Y-8109523D01*
X4861905Y-8566666D01*
X4861905Y-8071428D01*
X14429905Y-8990476D02*
X13629905Y-8990476D01*
X13629905Y-8800000D01*
X13668000Y-8685714D01*
X13744190Y-8609523D01*
X13820381Y-8571428D01*
X13972762Y-8533333D01*
X14087048Y-8533333D01*
X14239429Y-8571428D01*
X14315619Y-8609523D01*
X14391810Y-8685714D01*
X14429905Y-8800000D01*
X14429905Y-8990476D01*
X13629905Y-8266666D02*
X13629905Y-7771428D01*
X13934667Y-8038095D01*
X13934667Y-7923809D01*
X13972762Y-7847619D01*
X14010857Y-7809523D01*
X14087048Y-7771428D01*
X14277524Y-7771428D01*
X14353714Y-7809523D01*
X14391810Y-7847619D01*
X14429905Y-7923809D01*
X14429905Y-8152381D01*
X14391810Y-8228571D01*
X14353714Y-8266666D01*
X8166667Y-26285714D02*
X8128572Y-26323810D01*
X8014286Y-26361905D01*
X7938096Y-26361905D01*
X7823810Y-26323810D01*
X7747619Y-26247619D01*
X7709524Y-26171429D01*
X7671429Y-26019048D01*
X7671429Y-25904762D01*
X7709524Y-25752381D01*
X7747619Y-25676190D01*
X7823810Y-25600000D01*
X7938096Y-25561905D01*
X8014286Y-25561905D01*
X8128572Y-25600000D01*
X8166667Y-25638095D01*
X8928572Y-26361905D02*
X8471429Y-26361905D01*
X8700000Y-26361905D02*
X8700000Y-25561905D01*
X8623810Y-25676190D01*
X8547619Y-25752381D01*
X8471429Y-25790476D01*
X8166667Y-24885714D02*
X8128572Y-24923810D01*
X8014286Y-24961905D01*
X7938096Y-24961905D01*
X7823810Y-24923810D01*
X7747619Y-24847619D01*
X7709524Y-24771429D01*
X7671429Y-24619048D01*
X7671429Y-24504762D01*
X7709524Y-24352381D01*
X7747619Y-24276190D01*
X7823810Y-24200000D01*
X7938096Y-24161905D01*
X8014286Y-24161905D01*
X8128572Y-24200000D01*
X8166667Y-24238095D01*
X8471429Y-24238095D02*
X8509524Y-24200000D01*
X8585715Y-24161905D01*
X8776191Y-24161905D01*
X8852381Y-24200000D01*
X8890477Y-24238095D01*
X8928572Y-24314286D01*
X8928572Y-24390476D01*
X8890477Y-24504762D01*
X8433334Y-24961905D01*
X8928572Y-24961905D01*
X14285714Y-11933333D02*
X14323810Y-11971428D01*
X14361905Y-12085714D01*
X14361905Y-12161904D01*
X14323810Y-12276190D01*
X14247619Y-12352381D01*
X14171429Y-12390476D01*
X14019048Y-12428571D01*
X13904762Y-12428571D01*
X13752381Y-12390476D01*
X13676190Y-12352381D01*
X13600000Y-12276190D01*
X13561905Y-12161904D01*
X13561905Y-12085714D01*
X13600000Y-11971428D01*
X13638095Y-11933333D01*
X13561905Y-11666666D02*
X13561905Y-11171428D01*
X13866667Y-11438095D01*
X13866667Y-11323809D01*
X13904762Y-11247619D01*
X13942857Y-11209523D01*
X14019048Y-11171428D01*
X14209524Y-11171428D01*
X14285714Y-11209523D01*
X14323810Y-11247619D01*
X14361905Y-11323809D01*
X14361905Y-11552381D01*
X14323810Y-11628571D01*
X14285714Y-11666666D01*
X14385714Y-10233333D02*
X14423810Y-10271428D01*
X14461905Y-10385714D01*
X14461905Y-10461904D01*
X14423810Y-10576190D01*
X14347619Y-10652381D01*
X14271429Y-10690476D01*
X14119048Y-10728571D01*
X14004762Y-10728571D01*
X13852381Y-10690476D01*
X13776190Y-10652381D01*
X13700000Y-10576190D01*
X13661905Y-10461904D01*
X13661905Y-10385714D01*
X13700000Y-10271428D01*
X13738095Y-10233333D01*
X13928571Y-9547619D02*
X14461905Y-9547619D01*
X13623810Y-9738095D02*
X14195238Y-9928571D01*
X14195238Y-9433333D01*
X4817714Y-12833333D02*
X4855810Y-12871428D01*
X4893905Y-12985714D01*
X4893905Y-13061904D01*
X4855810Y-13176190D01*
X4779619Y-13252381D01*
X4703429Y-13290476D01*
X4551048Y-13328571D01*
X4436762Y-13328571D01*
X4284381Y-13290476D01*
X4208190Y-13252381D01*
X4132000Y-13176190D01*
X4093905Y-13061904D01*
X4093905Y-12985714D01*
X4132000Y-12871428D01*
X4170095Y-12833333D01*
X4093905Y-12109523D02*
X4093905Y-12490476D01*
X4474857Y-12528571D01*
X4436762Y-12490476D01*
X4398667Y-12414285D01*
X4398667Y-12223809D01*
X4436762Y-12147619D01*
X4474857Y-12109523D01*
X4551048Y-12071428D01*
X4741524Y-12071428D01*
X4817714Y-12109523D01*
X4855810Y-12147619D01*
X4893905Y-12223809D01*
X4893905Y-12414285D01*
X4855810Y-12490476D01*
X4817714Y-12528571D01*
X4366667Y-17485714D02*
X4328572Y-17523810D01*
X4214286Y-17561905D01*
X4138096Y-17561905D01*
X4023810Y-17523810D01*
X3947619Y-17447619D01*
X3909524Y-17371429D01*
X3871429Y-17219048D01*
X3871429Y-17104762D01*
X3909524Y-16952381D01*
X3947619Y-16876190D01*
X4023810Y-16800000D01*
X4138096Y-16761905D01*
X4214286Y-16761905D01*
X4328572Y-16800000D01*
X4366667Y-16838095D01*
X5052381Y-16761905D02*
X4900000Y-16761905D01*
X4823810Y-16800000D01*
X4785715Y-16838095D01*
X4709524Y-16952381D01*
X4671429Y-17104762D01*
X4671429Y-17409524D01*
X4709524Y-17485714D01*
X4747619Y-17523810D01*
X4823810Y-17561905D01*
X4976191Y-17561905D01*
X5052381Y-17523810D01*
X5090477Y-17485714D01*
X5128572Y-17409524D01*
X5128572Y-17219048D01*
X5090477Y-17142857D01*
X5052381Y-17104762D01*
X4976191Y-17066667D01*
X4823810Y-17066667D01*
X4747619Y-17104762D01*
X4709524Y-17142857D01*
X4671429Y-17219048D01*
X4766714Y-10817333D02*
X4804810Y-10855428D01*
X4842905Y-10969714D01*
X4842905Y-11045904D01*
X4804810Y-11160190D01*
X4728619Y-11236381D01*
X4652429Y-11274476D01*
X4500048Y-11312571D01*
X4385762Y-11312571D01*
X4233381Y-11274476D01*
X4157190Y-11236381D01*
X4081000Y-11160190D01*
X4042905Y-11045904D01*
X4042905Y-10969714D01*
X4081000Y-10855428D01*
X4119095Y-10817333D01*
X4042905Y-10550666D02*
X4042905Y-10017333D01*
X4842905Y-10360190D01*
M02*
