G04 #@! TF.FileFunction,Legend,Top*
%FSLAX46Y46*%
G04 Gerber Fmt 4.6, Leading zero omitted, Abs format (unit mm)*
G04 Created by KiCad (PCBNEW 4.0.2-stable) date Sunday, 21 August 2016 'pmt' 14:44:52*
%MOMM*%
G01*
G04 APERTURE LIST*
%ADD10C,0.100000*%
%ADD11C,0.150000*%
%ADD12C,0.060000*%
%ADD13C,0.120000*%
G04 APERTURE END LIST*
D10*
D11*
X13111905Y-14652380D02*
X13111905Y-15033333D01*
X13492857Y-15071428D01*
X13454762Y-15033333D01*
X13416667Y-14957142D01*
X13416667Y-14766666D01*
X13454762Y-14690476D01*
X13492857Y-14652380D01*
X13569048Y-14614285D01*
X13759524Y-14614285D01*
X13835714Y-14652380D01*
X13873810Y-14690476D01*
X13911905Y-14766666D01*
X13911905Y-14957142D01*
X13873810Y-15033333D01*
X13835714Y-15071428D01*
X13111905Y-14385714D02*
X13911905Y-14119047D01*
X13111905Y-13852380D01*
X13111905Y-11230952D02*
X13111905Y-10735714D01*
X13416667Y-11002381D01*
X13416667Y-10888095D01*
X13454762Y-10811905D01*
X13492857Y-10773809D01*
X13569048Y-10735714D01*
X13759524Y-10735714D01*
X13835714Y-10773809D01*
X13873810Y-10811905D01*
X13911905Y-10888095D01*
X13911905Y-11116667D01*
X13873810Y-11192857D01*
X13835714Y-11230952D01*
X13835714Y-10392857D02*
X13873810Y-10354762D01*
X13911905Y-10392857D01*
X13873810Y-10430952D01*
X13835714Y-10392857D01*
X13911905Y-10392857D01*
X13111905Y-10088095D02*
X13111905Y-9592857D01*
X13416667Y-9859524D01*
X13416667Y-9745238D01*
X13454762Y-9669048D01*
X13492857Y-9630952D01*
X13569048Y-9592857D01*
X13759524Y-9592857D01*
X13835714Y-9630952D01*
X13873810Y-9669048D01*
X13911905Y-9745238D01*
X13911905Y-9973810D01*
X13873810Y-10050000D01*
X13835714Y-10088095D01*
X13111905Y-9364286D02*
X13911905Y-9097619D01*
X13111905Y-8830952D01*
X14485714Y-5061905D02*
X14485714Y-4261905D01*
X14676190Y-4261905D01*
X14790476Y-4300000D01*
X14866667Y-4376190D01*
X14904762Y-4452381D01*
X14942857Y-4604762D01*
X14942857Y-4719048D01*
X14904762Y-4871429D01*
X14866667Y-4947619D01*
X14790476Y-5023810D01*
X14676190Y-5061905D01*
X14485714Y-5061905D01*
X15171428Y-4261905D02*
X15628571Y-4261905D01*
X15400000Y-5061905D02*
X15400000Y-4261905D01*
X16352381Y-5061905D02*
X16085714Y-4680952D01*
X15895238Y-5061905D02*
X15895238Y-4261905D01*
X16200000Y-4261905D01*
X16276191Y-4300000D01*
X16314286Y-4338095D01*
X16352381Y-4414286D01*
X16352381Y-4528571D01*
X16314286Y-4604762D01*
X16276191Y-4642857D01*
X16200000Y-4680952D01*
X15895238Y-4680952D01*
X12316667Y-5061905D02*
X12050000Y-4680952D01*
X11859524Y-5061905D02*
X11859524Y-4261905D01*
X12164286Y-4261905D01*
X12240477Y-4300000D01*
X12278572Y-4338095D01*
X12316667Y-4414286D01*
X12316667Y-4528571D01*
X12278572Y-4604762D01*
X12240477Y-4642857D01*
X12164286Y-4680952D01*
X11859524Y-4680952D01*
X12583334Y-4261905D02*
X13116667Y-5061905D01*
X13116667Y-4261905D02*
X12583334Y-5061905D01*
X13421429Y-5061905D02*
X13421429Y-4261905D01*
X13611905Y-4261905D01*
X13726191Y-4300000D01*
X13802382Y-4376190D01*
X13840477Y-4452381D01*
X13878572Y-4604762D01*
X13878572Y-4719048D01*
X13840477Y-4871429D01*
X13802382Y-4947619D01*
X13726191Y-5023810D01*
X13611905Y-5061905D01*
X13421429Y-5061905D01*
X9340476Y-4261905D02*
X9797619Y-4261905D01*
X9569048Y-5061905D02*
X9569048Y-4261905D01*
X9988096Y-4261905D02*
X10521429Y-5061905D01*
X10521429Y-4261905D02*
X9988096Y-5061905D01*
X10826191Y-5061905D02*
X10826191Y-4261905D01*
X11016667Y-4261905D01*
X11130953Y-4300000D01*
X11207144Y-4376190D01*
X11245239Y-4452381D01*
X11283334Y-4604762D01*
X11283334Y-4719048D01*
X11245239Y-4871429D01*
X11207144Y-4947619D01*
X11130953Y-5023810D01*
X11016667Y-5061905D01*
X10826191Y-5061905D01*
X6683333Y-4261905D02*
X6950000Y-5061905D01*
X7216667Y-4261905D01*
X7940476Y-4985714D02*
X7902381Y-5023810D01*
X7788095Y-5061905D01*
X7711905Y-5061905D01*
X7597619Y-5023810D01*
X7521428Y-4947619D01*
X7483333Y-4871429D01*
X7445238Y-4719048D01*
X7445238Y-4604762D01*
X7483333Y-4452381D01*
X7521428Y-4376190D01*
X7597619Y-4300000D01*
X7711905Y-4261905D01*
X7788095Y-4261905D01*
X7902381Y-4300000D01*
X7940476Y-4338095D01*
X8740476Y-4985714D02*
X8702381Y-5023810D01*
X8588095Y-5061905D01*
X8511905Y-5061905D01*
X8397619Y-5023810D01*
X8321428Y-4947619D01*
X8283333Y-4871429D01*
X8245238Y-4719048D01*
X8245238Y-4604762D01*
X8283333Y-4452381D01*
X8321428Y-4376190D01*
X8397619Y-4300000D01*
X8511905Y-4261905D01*
X8588095Y-4261905D01*
X8702381Y-4300000D01*
X8740476Y-4338095D01*
X4761905Y-4985714D02*
X4723810Y-5023810D01*
X4609524Y-5061905D01*
X4533334Y-5061905D01*
X4419048Y-5023810D01*
X4342857Y-4947619D01*
X4304762Y-4871429D01*
X4266667Y-4719048D01*
X4266667Y-4604762D01*
X4304762Y-4452381D01*
X4342857Y-4376190D01*
X4419048Y-4300000D01*
X4533334Y-4261905D01*
X4609524Y-4261905D01*
X4723810Y-4300000D01*
X4761905Y-4338095D01*
X4990476Y-4261905D02*
X5447619Y-4261905D01*
X5219048Y-5061905D02*
X5219048Y-4261905D01*
X5676191Y-5023810D02*
X5790477Y-5061905D01*
X5980953Y-5061905D01*
X6057143Y-5023810D01*
X6095239Y-4985714D01*
X6133334Y-4909524D01*
X6133334Y-4833333D01*
X6095239Y-4757143D01*
X6057143Y-4719048D01*
X5980953Y-4680952D01*
X5828572Y-4642857D01*
X5752381Y-4604762D01*
X5714286Y-4566667D01*
X5676191Y-4490476D01*
X5676191Y-4414286D01*
X5714286Y-4338095D01*
X5752381Y-4300000D01*
X5828572Y-4261905D01*
X6019048Y-4261905D01*
X6133334Y-4300000D01*
X2040477Y-4300000D02*
X1964286Y-4261905D01*
X1850001Y-4261905D01*
X1735715Y-4300000D01*
X1659524Y-4376190D01*
X1621429Y-4452381D01*
X1583334Y-4604762D01*
X1583334Y-4719048D01*
X1621429Y-4871429D01*
X1659524Y-4947619D01*
X1735715Y-5023810D01*
X1850001Y-5061905D01*
X1926191Y-5061905D01*
X2040477Y-5023810D01*
X2078572Y-4985714D01*
X2078572Y-4719048D01*
X1926191Y-4719048D01*
X2421429Y-5061905D02*
X2421429Y-4261905D01*
X2878572Y-5061905D01*
X2878572Y-4261905D01*
X3259524Y-5061905D02*
X3259524Y-4261905D01*
X3450000Y-4261905D01*
X3564286Y-4300000D01*
X3640477Y-4376190D01*
X3678572Y-4452381D01*
X3716667Y-4604762D01*
X3716667Y-4719048D01*
X3678572Y-4871429D01*
X3640477Y-4947619D01*
X3564286Y-5023810D01*
X3450000Y-5061905D01*
X3259524Y-5061905D01*
X6300000Y-17250000D02*
X7000000Y-17250000D01*
X7000000Y-18450000D02*
X6300000Y-18450000D01*
X2700000Y-17000000D02*
X2000000Y-17000000D01*
X2000000Y-15800000D02*
X2700000Y-15800000D01*
X2700000Y-21600000D02*
X2000000Y-21600000D01*
X2000000Y-20400000D02*
X2700000Y-20400000D01*
X12000000Y-18450000D02*
X11300000Y-18450000D01*
X11300000Y-17250000D02*
X12000000Y-17250000D01*
X15200000Y-17250000D02*
X15900000Y-17250000D01*
X15900000Y-18450000D02*
X15200000Y-18450000D01*
X2700000Y-11300000D02*
X2000000Y-11300000D01*
X2000000Y-10100000D02*
X2700000Y-10100000D01*
X2700000Y-9800000D02*
X2000000Y-9800000D01*
X2000000Y-8600000D02*
X2700000Y-8600000D01*
X3400000Y-18950000D02*
X1500000Y-18950000D01*
X3400000Y-20050000D02*
X1500000Y-20050000D01*
X2500000Y-19500000D02*
X2050000Y-19500000D01*
X2550000Y-19750000D02*
X2550000Y-19250000D01*
X2550000Y-19500000D02*
X2300000Y-19750000D01*
X2300000Y-19750000D02*
X2300000Y-19250000D01*
X2300000Y-19250000D02*
X2550000Y-19500000D01*
X3400000Y-7150000D02*
X1500000Y-7150000D01*
X3400000Y-8250000D02*
X1500000Y-8250000D01*
X2500000Y-7700000D02*
X2050000Y-7700000D01*
X2550000Y-7950000D02*
X2550000Y-7450000D01*
X2550000Y-7700000D02*
X2300000Y-7950000D01*
X2300000Y-7950000D02*
X2300000Y-7450000D01*
X2300000Y-7450000D02*
X2550000Y-7700000D01*
X14550000Y-8250000D02*
X16450000Y-8250000D01*
X14550000Y-7150000D02*
X16450000Y-7150000D01*
X15450000Y-7700000D02*
X15900000Y-7700000D01*
X15400000Y-7450000D02*
X15400000Y-7950000D01*
X15400000Y-7700000D02*
X15650000Y-7450000D01*
X15650000Y-7450000D02*
X15650000Y-7950000D01*
X15650000Y-7950000D02*
X15400000Y-7700000D01*
X16720000Y-14080000D02*
X16720000Y-9000000D01*
X16720000Y-9000000D02*
X14180000Y-9000000D01*
X14180000Y-9000000D02*
X14180000Y-14080000D01*
X13900000Y-16900000D02*
X13900000Y-15350000D01*
X14180000Y-14080000D02*
X16720000Y-14080000D01*
X17000000Y-15350000D02*
X17000000Y-16900000D01*
X17000000Y-16900000D02*
X13900000Y-16900000D01*
X14080000Y-3970000D02*
X1380000Y-3970000D01*
X1380000Y-3970000D02*
X1380000Y-1430000D01*
X1380000Y-1430000D02*
X14080000Y-1430000D01*
X16900000Y-4250000D02*
X15350000Y-4250000D01*
X14080000Y-3970000D02*
X14080000Y-1430000D01*
X15350000Y-1150000D02*
X16900000Y-1150000D01*
X16900000Y-1150000D02*
X16900000Y-4250000D01*
X2700000Y-18625000D02*
X1700000Y-18625000D01*
X1700000Y-17275000D02*
X2700000Y-17275000D01*
X1700000Y-5475000D02*
X2700000Y-5475000D01*
X2700000Y-6825000D02*
X1700000Y-6825000D01*
X16250000Y-6825000D02*
X15250000Y-6825000D01*
X15250000Y-5475000D02*
X16250000Y-5475000D01*
D10*
X4200000Y-11800000D02*
X4300000Y-11800000D01*
X4200000Y-13100000D02*
X4300000Y-13100000D01*
X1200000Y-11800000D02*
X1100000Y-11800000D01*
X1200000Y-13100000D02*
X1100000Y-13100000D01*
X1800000Y-13100000D02*
X2400000Y-13100000D01*
X1800000Y-11800000D02*
X2400000Y-11800000D01*
X3000000Y-11800000D02*
X3600000Y-11800000D01*
X3000000Y-13100000D02*
X3600000Y-13100000D01*
D12*
X4420000Y-12850000D02*
X4420000Y-12050000D01*
D10*
X4300000Y-13100000D02*
X4300000Y-11800000D01*
X1100000Y-13100000D02*
X1100000Y-11800000D01*
D11*
X2700000Y-14800000D02*
X2000000Y-14800000D01*
X2000000Y-13600000D02*
X2700000Y-13600000D01*
X14749760Y-18950840D02*
X14749760Y-18999100D01*
X15450800Y-21749820D02*
X14749760Y-21749820D01*
X14749760Y-21749820D02*
X14749760Y-21500900D01*
X14749760Y-18950840D02*
X14749760Y-18750180D01*
X14749760Y-18750180D02*
X15450800Y-18750180D01*
X9762000Y-5412000D02*
X9762000Y-6174000D01*
X9762000Y-6174000D02*
X8238000Y-6174000D01*
X8238000Y-6174000D02*
X8238000Y-5412000D01*
X11286000Y-16588000D02*
X6714000Y-16588000D01*
X6714000Y-16588000D02*
X6714000Y-5412000D01*
X6714000Y-5412000D02*
X11286000Y-5412000D01*
X11286000Y-5412000D02*
X11286000Y-16588000D01*
D13*
X8814286Y-18000000D02*
X8842857Y-18028571D01*
X8871429Y-18114285D01*
X8871429Y-18171428D01*
X8842857Y-18257143D01*
X8785714Y-18314285D01*
X8728571Y-18342857D01*
X8614286Y-18371428D01*
X8528571Y-18371428D01*
X8414286Y-18342857D01*
X8357143Y-18314285D01*
X8300000Y-18257143D01*
X8271429Y-18171428D01*
X8271429Y-18114285D01*
X8300000Y-18028571D01*
X8328571Y-18000000D01*
X8871429Y-17428571D02*
X8871429Y-17771428D01*
X8871429Y-17600000D02*
X8271429Y-17600000D01*
X8357143Y-17657143D01*
X8414286Y-17714285D01*
X8442857Y-17771428D01*
X4464286Y-16350000D02*
X4492857Y-16378571D01*
X4521429Y-16464285D01*
X4521429Y-16521428D01*
X4492857Y-16607143D01*
X4435714Y-16664285D01*
X4378571Y-16692857D01*
X4264286Y-16721428D01*
X4178571Y-16721428D01*
X4064286Y-16692857D01*
X4007143Y-16664285D01*
X3950000Y-16607143D01*
X3921429Y-16521428D01*
X3921429Y-16464285D01*
X3950000Y-16378571D01*
X3978571Y-16350000D01*
X3978571Y-16121428D02*
X3950000Y-16092857D01*
X3921429Y-16035714D01*
X3921429Y-15892857D01*
X3950000Y-15835714D01*
X3978571Y-15807143D01*
X4035714Y-15778571D01*
X4092857Y-15778571D01*
X4178571Y-15807143D01*
X4521429Y-16150000D01*
X4521429Y-15778571D01*
X4514286Y-21000000D02*
X4542857Y-21028571D01*
X4571429Y-21114285D01*
X4571429Y-21171428D01*
X4542857Y-21257143D01*
X4485714Y-21314285D01*
X4428571Y-21342857D01*
X4314286Y-21371428D01*
X4228571Y-21371428D01*
X4114286Y-21342857D01*
X4057143Y-21314285D01*
X4000000Y-21257143D01*
X3971429Y-21171428D01*
X3971429Y-21114285D01*
X4000000Y-21028571D01*
X4028571Y-21000000D01*
X3971429Y-20800000D02*
X3971429Y-20428571D01*
X4200000Y-20628571D01*
X4200000Y-20542857D01*
X4228571Y-20485714D01*
X4257143Y-20457143D01*
X4314286Y-20428571D01*
X4457143Y-20428571D01*
X4514286Y-20457143D01*
X4542857Y-20485714D01*
X4571429Y-20542857D01*
X4571429Y-20714285D01*
X4542857Y-20771428D01*
X4514286Y-20800000D01*
X10014286Y-18000000D02*
X10042857Y-18028571D01*
X10071429Y-18114285D01*
X10071429Y-18171428D01*
X10042857Y-18257143D01*
X9985714Y-18314285D01*
X9928571Y-18342857D01*
X9814286Y-18371428D01*
X9728571Y-18371428D01*
X9614286Y-18342857D01*
X9557143Y-18314285D01*
X9500000Y-18257143D01*
X9471429Y-18171428D01*
X9471429Y-18114285D01*
X9500000Y-18028571D01*
X9528571Y-18000000D01*
X9671429Y-17485714D02*
X10071429Y-17485714D01*
X9442857Y-17628571D02*
X9871429Y-17771428D01*
X9871429Y-17400000D01*
X13814286Y-18000000D02*
X13842857Y-18028571D01*
X13871429Y-18114285D01*
X13871429Y-18171428D01*
X13842857Y-18257143D01*
X13785714Y-18314285D01*
X13728571Y-18342857D01*
X13614286Y-18371428D01*
X13528571Y-18371428D01*
X13414286Y-18342857D01*
X13357143Y-18314285D01*
X13300000Y-18257143D01*
X13271429Y-18171428D01*
X13271429Y-18114285D01*
X13300000Y-18028571D01*
X13328571Y-18000000D01*
X13271429Y-17457143D02*
X13271429Y-17742857D01*
X13557143Y-17771428D01*
X13528571Y-17742857D01*
X13500000Y-17685714D01*
X13500000Y-17542857D01*
X13528571Y-17485714D01*
X13557143Y-17457143D01*
X13614286Y-17428571D01*
X13757143Y-17428571D01*
X13814286Y-17457143D01*
X13842857Y-17485714D01*
X13871429Y-17542857D01*
X13871429Y-17685714D01*
X13842857Y-17742857D01*
X13814286Y-17771428D01*
X4664286Y-10800000D02*
X4692857Y-10828571D01*
X4721429Y-10914285D01*
X4721429Y-10971428D01*
X4692857Y-11057143D01*
X4635714Y-11114285D01*
X4578571Y-11142857D01*
X4464286Y-11171428D01*
X4378571Y-11171428D01*
X4264286Y-11142857D01*
X4207143Y-11114285D01*
X4150000Y-11057143D01*
X4121429Y-10971428D01*
X4121429Y-10914285D01*
X4150000Y-10828571D01*
X4178571Y-10800000D01*
X4121429Y-10285714D02*
X4121429Y-10400000D01*
X4150000Y-10457143D01*
X4178571Y-10485714D01*
X4264286Y-10542857D01*
X4378571Y-10571428D01*
X4607143Y-10571428D01*
X4664286Y-10542857D01*
X4692857Y-10514285D01*
X4721429Y-10457143D01*
X4721429Y-10342857D01*
X4692857Y-10285714D01*
X4664286Y-10257143D01*
X4607143Y-10228571D01*
X4464286Y-10228571D01*
X4407143Y-10257143D01*
X4378571Y-10285714D01*
X4350000Y-10342857D01*
X4350000Y-10457143D01*
X4378571Y-10514285D01*
X4407143Y-10542857D01*
X4464286Y-10571428D01*
X4664286Y-9350000D02*
X4692857Y-9378571D01*
X4721429Y-9464285D01*
X4721429Y-9521428D01*
X4692857Y-9607143D01*
X4635714Y-9664285D01*
X4578571Y-9692857D01*
X4464286Y-9721428D01*
X4378571Y-9721428D01*
X4264286Y-9692857D01*
X4207143Y-9664285D01*
X4150000Y-9607143D01*
X4121429Y-9521428D01*
X4121429Y-9464285D01*
X4150000Y-9378571D01*
X4178571Y-9350000D01*
X4121429Y-9150000D02*
X4121429Y-8750000D01*
X4721429Y-9007143D01*
X4521429Y-19842857D02*
X3921429Y-19842857D01*
X3921429Y-19700000D01*
X3950000Y-19614285D01*
X4007143Y-19557143D01*
X4064286Y-19528571D01*
X4178571Y-19500000D01*
X4264286Y-19500000D01*
X4378571Y-19528571D01*
X4435714Y-19557143D01*
X4492857Y-19614285D01*
X4521429Y-19700000D01*
X4521429Y-19842857D01*
X4521429Y-18928571D02*
X4521429Y-19271428D01*
X4521429Y-19100000D02*
X3921429Y-19100000D01*
X4007143Y-19157143D01*
X4064286Y-19214285D01*
X4092857Y-19271428D01*
X4671429Y-8092857D02*
X4071429Y-8092857D01*
X4071429Y-7950000D01*
X4100000Y-7864285D01*
X4157143Y-7807143D01*
X4214286Y-7778571D01*
X4328571Y-7750000D01*
X4414286Y-7750000D01*
X4528571Y-7778571D01*
X4585714Y-7807143D01*
X4642857Y-7864285D01*
X4671429Y-7950000D01*
X4671429Y-8092857D01*
X4128571Y-7521428D02*
X4100000Y-7492857D01*
X4071429Y-7435714D01*
X4071429Y-7292857D01*
X4100000Y-7235714D01*
X4128571Y-7207143D01*
X4185714Y-7178571D01*
X4242857Y-7178571D01*
X4328571Y-7207143D01*
X4671429Y-7550000D01*
X4671429Y-7178571D01*
X13871429Y-8092857D02*
X13271429Y-8092857D01*
X13271429Y-7950000D01*
X13300000Y-7864285D01*
X13357143Y-7807143D01*
X13414286Y-7778571D01*
X13528571Y-7750000D01*
X13614286Y-7750000D01*
X13728571Y-7778571D01*
X13785714Y-7807143D01*
X13842857Y-7864285D01*
X13871429Y-7950000D01*
X13871429Y-8092857D01*
X13271429Y-7550000D02*
X13271429Y-7178571D01*
X13500000Y-7378571D01*
X13500000Y-7292857D01*
X13528571Y-7235714D01*
X13557143Y-7207143D01*
X13614286Y-7178571D01*
X13757143Y-7178571D01*
X13814286Y-7207143D01*
X13842857Y-7235714D01*
X13871429Y-7292857D01*
X13871429Y-7464285D01*
X13842857Y-7521428D01*
X13814286Y-7550000D01*
X8607143Y-21871429D02*
X8607143Y-21271429D01*
X8835715Y-21271429D01*
X8892857Y-21300000D01*
X8921429Y-21328571D01*
X8950000Y-21385714D01*
X8950000Y-21471429D01*
X8921429Y-21528571D01*
X8892857Y-21557143D01*
X8835715Y-21585714D01*
X8607143Y-21585714D01*
X9521429Y-21871429D02*
X9178572Y-21871429D01*
X9350000Y-21871429D02*
X9350000Y-21271429D01*
X9292857Y-21357143D01*
X9235715Y-21414286D01*
X9178572Y-21442857D01*
X4521429Y-18000000D02*
X4235714Y-18200000D01*
X4521429Y-18342857D02*
X3921429Y-18342857D01*
X3921429Y-18114285D01*
X3950000Y-18057143D01*
X3978571Y-18028571D01*
X4035714Y-18000000D01*
X4121429Y-18000000D01*
X4178571Y-18028571D01*
X4207143Y-18057143D01*
X4235714Y-18114285D01*
X4235714Y-18342857D01*
X4521429Y-17428571D02*
X4521429Y-17771428D01*
X4521429Y-17600000D02*
X3921429Y-17600000D01*
X4007143Y-17657143D01*
X4064286Y-17714285D01*
X4092857Y-17771428D01*
X4671429Y-6150000D02*
X4385714Y-6350000D01*
X4671429Y-6492857D02*
X4071429Y-6492857D01*
X4071429Y-6264285D01*
X4100000Y-6207143D01*
X4128571Y-6178571D01*
X4185714Y-6150000D01*
X4271429Y-6150000D01*
X4328571Y-6178571D01*
X4357143Y-6207143D01*
X4385714Y-6264285D01*
X4385714Y-6492857D01*
X4128571Y-5921428D02*
X4100000Y-5892857D01*
X4071429Y-5835714D01*
X4071429Y-5692857D01*
X4100000Y-5635714D01*
X4128571Y-5607143D01*
X4185714Y-5578571D01*
X4242857Y-5578571D01*
X4328571Y-5607143D01*
X4671429Y-5950000D01*
X4671429Y-5578571D01*
X13921429Y-6300000D02*
X13635714Y-6500000D01*
X13921429Y-6642857D02*
X13321429Y-6642857D01*
X13321429Y-6414285D01*
X13350000Y-6357143D01*
X13378571Y-6328571D01*
X13435714Y-6300000D01*
X13521429Y-6300000D01*
X13578571Y-6328571D01*
X13607143Y-6357143D01*
X13635714Y-6414285D01*
X13635714Y-6642857D01*
X13321429Y-6100000D02*
X13321429Y-5728571D01*
X13550000Y-5928571D01*
X13550000Y-5842857D01*
X13578571Y-5785714D01*
X13607143Y-5757143D01*
X13664286Y-5728571D01*
X13807143Y-5728571D01*
X13864286Y-5757143D01*
X13892857Y-5785714D01*
X13921429Y-5842857D01*
X13921429Y-6014285D01*
X13892857Y-6071428D01*
X13864286Y-6100000D01*
X4371429Y-12785715D02*
X4971429Y-12385715D01*
X4371429Y-12385715D02*
X4971429Y-12785715D01*
X4971429Y-11842857D02*
X4971429Y-12185714D01*
X4971429Y-12014286D02*
X4371429Y-12014286D01*
X4457143Y-12071429D01*
X4514286Y-12128571D01*
X4542857Y-12185714D01*
X4464286Y-14400000D02*
X4492857Y-14428571D01*
X4521429Y-14514285D01*
X4521429Y-14571428D01*
X4492857Y-14657143D01*
X4435714Y-14714285D01*
X4378571Y-14742857D01*
X4264286Y-14771428D01*
X4178571Y-14771428D01*
X4064286Y-14742857D01*
X4007143Y-14714285D01*
X3950000Y-14657143D01*
X3921429Y-14571428D01*
X3921429Y-14514285D01*
X3950000Y-14428571D01*
X3978571Y-14400000D01*
X4178571Y-14057143D02*
X4150000Y-14114285D01*
X4121429Y-14142857D01*
X4064286Y-14171428D01*
X4035714Y-14171428D01*
X3978571Y-14142857D01*
X3950000Y-14114285D01*
X3921429Y-14057143D01*
X3921429Y-13942857D01*
X3950000Y-13885714D01*
X3978571Y-13857143D01*
X4035714Y-13828571D01*
X4064286Y-13828571D01*
X4121429Y-13857143D01*
X4150000Y-13885714D01*
X4178571Y-13942857D01*
X4178571Y-14057143D01*
X4207143Y-14114285D01*
X4235714Y-14142857D01*
X4292857Y-14171428D01*
X4407143Y-14171428D01*
X4464286Y-14142857D01*
X4492857Y-14114285D01*
X4521429Y-14057143D01*
X4521429Y-13942857D01*
X4492857Y-13885714D01*
X4464286Y-13857143D01*
X4407143Y-13828571D01*
X4292857Y-13828571D01*
X4235714Y-13857143D01*
X4207143Y-13885714D01*
X4178571Y-13942857D01*
X13692857Y-21171429D02*
X13692857Y-21657143D01*
X13721429Y-21714286D01*
X13750000Y-21742857D01*
X13807143Y-21771429D01*
X13921429Y-21771429D01*
X13978571Y-21742857D01*
X14007143Y-21714286D01*
X14035714Y-21657143D01*
X14035714Y-21171429D01*
X14635714Y-21771429D02*
X14292857Y-21771429D01*
X14464285Y-21771429D02*
X14464285Y-21171429D01*
X14407142Y-21257143D01*
X14350000Y-21314286D01*
X14292857Y-21342857D01*
X9941429Y-11584143D02*
X10427143Y-11584143D01*
X10484286Y-11555571D01*
X10512857Y-11527000D01*
X10541429Y-11469857D01*
X10541429Y-11355571D01*
X10512857Y-11298429D01*
X10484286Y-11269857D01*
X10427143Y-11241286D01*
X9941429Y-11241286D01*
X9998571Y-10984143D02*
X9970000Y-10955572D01*
X9941429Y-10898429D01*
X9941429Y-10755572D01*
X9970000Y-10698429D01*
X9998571Y-10669858D01*
X10055714Y-10641286D01*
X10112857Y-10641286D01*
X10198571Y-10669858D01*
X10541429Y-11012715D01*
X10541429Y-10641286D01*
M02*
